<svg width="504" height="178" viewBox="0 0 504 178" fill="none" xmlns="http://www.w3.org/2000/svg">
<g clip-path="url(#clip0_13_1054)">
<path d="M-5 170.291V154.79C-1.70266 155.898 1.68179 156.176 5.15012 156.089C9.87997 155.972 14.613 156.066 19.3461 156.056C20.6366 156.056 21.9272 156.05 23.2145 155.985C24.6599 155.911 25.6569 155.226 25.8504 153.702C25.9859 152.636 25.9892 151.555 26.1408 150.492C26.315 149.288 27.1087 148.609 28.2831 148.454C29.3478 148.316 30.4319 148.335 31.4933 148.183C32.6839 148.015 33.4098 147.256 33.5743 146.074C33.7195 145.012 33.6905 143.924 33.8357 142.858C33.997 141.679 34.71 140.904 35.9038 140.736C36.9652 140.584 38.0493 140.597 39.114 140.462C40.2916 140.313 41.0853 139.641 41.2757 138.44C41.4112 137.594 41.4531 136.729 41.4789 135.87C41.5305 134.11 42.3597 133.27 44.1374 132.85C47.8252 131.978 47.8768 131.865 47.8994 128.297C47.9478 119.9 47.9155 111.504 47.9155 103.108C51.7226 103.137 55.5297 103.114 59.3368 103.208C62.7051 103.292 63.1471 103.505 63.3085 106.692C63.4891 110.219 64.0925 110.961 67.9899 110.884C69.0482 110.861 70.1064 110.855 71.1614 110.842C71.1614 116.028 71.1679 121.215 71.1679 126.398C69.2514 126.417 67.3317 126.369 65.4217 126.501C64.87 126.54 64.1021 126.973 63.8666 127.441C63.1762 128.823 63.1213 130.363 63.8376 131.749C64.3893 132.815 65.5637 132.84 66.6413 132.876C68.2803 132.928 69.5741 132.514 69.9838 130.661C70.3064 129.207 70.7291 127.777 71.1066 126.333C71.7518 126.32 72.3971 126.333 73.0424 126.291C75.7224 126.117 77.2625 124.678 77.6625 121.974C78.1013 119.032 78.0916 118.734 81.2373 118.657C84.2766 118.583 85.5607 117.43 85.5284 114.452C85.5155 113.277 86.2995 112.398 87.5126 112.308C92.4134 111.943 97.182 110.438 102.189 110.871C105.39 111.149 108.636 110.913 111.862 110.926C114.656 110.939 117.453 110.936 120.244 111.023C121.402 111.058 122.248 111.701 122.532 112.899C122.628 113.316 122.715 113.752 122.69 114.175C122.515 116.981 123.39 118.751 126.616 118.647C128.468 118.589 129.213 119.807 129.284 121.57C129.326 122.636 129.458 123.708 129.659 124.757C129.73 125.129 130.062 125.539 130.391 125.758C133.046 127.535 136.879 125.823 136.979 122.771C137.069 119.978 137.047 117.175 136.957 114.378C136.876 111.869 136.576 111.601 134.066 110.987C130.549 110.128 130.53 110.128 130.378 107.005C130.317 105.717 130.365 104.422 130.365 103.13C137.46 103.13 144.558 103.12 151.653 103.127C153.156 103.127 154.663 103.133 156.166 103.204C157.621 103.272 158.589 103.999 158.786 105.51C158.925 106.576 158.928 107.658 159.086 108.717C159.264 109.922 160.061 110.596 161.235 110.751C162.3 110.894 163.384 110.881 164.442 111.036C165.636 111.21 166.336 111.995 166.494 113.17C166.636 114.236 166.61 115.321 166.762 116.384C166.929 117.569 167.671 118.315 168.856 118.479C169.917 118.628 171.004 118.602 172.066 118.747C173.24 118.906 174.002 119.606 174.202 120.801C174.308 121.434 174.276 122.09 174.379 122.726C174.902 126.004 175.105 126.269 178.444 126.314C184.032 126.388 189.624 126.336 195.215 126.34C196.935 126.34 198.657 126.291 200.374 126.369C203.261 126.498 203.865 127.047 204.013 129.718C204.107 131.436 204.055 133.16 204.062 134.881C204.071 138.111 204.007 141.34 204.1 144.566C204.191 147.705 204.717 148.232 208.017 148.28C213.392 148.361 218.767 148.309 224.142 148.306C226.291 148.306 228.446 148.341 230.592 148.245C232.702 148.148 233.279 147.625 233.628 145.687C233.78 144.844 233.751 143.972 233.834 143.116C233.98 141.611 234.851 140.823 236.328 140.688C237.183 140.61 238.045 140.588 238.9 140.504C240.377 140.358 241.232 139.548 241.374 138.049C241.455 137.194 241.481 136.331 241.565 135.476C241.707 134.013 242.471 132.986 243.972 132.966C249.56 132.895 255.148 132.899 260.739 132.931C262.207 132.941 263.068 133.78 263.323 135.272C263.601 136.906 262.904 138.915 264.627 140.026C266.137 140.998 267.973 140.517 269.673 140.565C271.176 140.61 272.686 140.614 274.186 140.533C276.739 140.397 277.445 140.016 277.494 137.604C277.584 133.018 278.62 132.766 283.111 132.834C285.259 132.866 287.408 132.866 289.55 132.992C290.744 133.063 291.47 133.864 291.699 135.027C291.822 135.656 291.767 136.318 291.867 136.955C292.38 140.236 292.583 140.468 295.922 140.549C299.362 140.633 302.801 140.578 306.244 140.588C307.963 140.591 309.686 140.542 311.403 140.62C314.197 140.746 314.848 141.085 314.932 144.011C315.052 148.125 316.539 148.345 319.685 148.338C328.715 148.319 337.746 148.322 346.776 148.312C347.205 148.312 347.638 148.309 348.064 148.274C350.167 148.099 350.722 147.634 351.103 145.693C351.184 145.274 351.142 144.831 351.209 144.408C351.803 140.762 351.864 140.685 355.71 140.588C358.504 140.517 361.301 140.562 364.092 140.478C365.244 140.442 366.076 139.848 366.435 138.65C366.967 136.867 365.892 134.31 367.993 133.396C369.658 132.672 371.771 132.983 373.687 132.847C374.116 132.818 374.546 132.837 374.978 132.844C378.329 132.885 380.326 134.553 380.969 137.849C381.363 139.871 381.873 140.413 383.921 140.507C386.283 140.614 388.651 140.568 391.016 140.584C394.455 140.61 397.895 140.601 401.334 140.672C402.779 140.701 403.705 141.443 403.973 142.958C404.257 144.592 403.544 146.585 405.238 147.734C406.738 148.752 408.574 148.274 410.268 148.316C411.987 148.358 413.71 148.358 415.427 148.248C417.398 148.122 417.889 147.586 418.237 145.451C418.34 144.818 418.314 144.163 418.36 143.52C418.456 142.138 418.853 140.966 420.473 140.769C422.109 140.572 423.48 141.046 424.261 142.577C424.648 143.333 424.828 144.192 425.112 145.002C425.916 147.295 427.413 148.432 429.958 148.335C433.394 148.206 436.837 148.306 440.279 148.306C448.355 148.306 447.997 147.792 448.029 156.014C444.387 156.14 440.763 156.324 437.227 154.991C436.014 154.532 434.662 154.871 433.785 156.089C414.856 156.089 395.927 156.089 377.001 156.085C373.542 154.529 370.087 153.838 366.638 156.115C349.054 156.085 331.474 156.073 313.89 156.005C312.006 155.998 309.918 156.609 308.292 155.294C306.782 154.074 307.547 152.084 307.179 150.46C306.915 149.291 306.202 148.548 305.011 148.458C303.517 148.345 302.017 148.325 300.517 148.325C288.079 148.319 275.645 148.325 263.207 148.332C259.771 148.345 256.335 148.296 252.899 148.387C250.076 148.461 249.931 148.664 249.234 151.69C248.35 155.52 247.937 155.963 244.185 156.031C241.413 156.079 238.616 156.35 235.903 155.323C233.638 154.464 231.231 154.79 228.882 154.9C226.962 154.987 226.433 155.595 226.069 157.684C225.994 158.104 226.046 158.546 225.981 158.969C225.475 162.218 225.268 162.428 221.916 162.551C219.342 162.644 216.764 162.599 214.192 162.715C213.021 162.767 212.192 163.49 211.989 164.679C211.808 165.732 211.811 166.817 211.685 167.882C211.505 169.387 210.576 170.211 209.114 170.22C203.103 170.253 197.089 170.25 191.079 170.182C189.578 170.166 188.82 169.142 188.685 167.676C188.627 167.033 188.559 166.39 188.565 165.748C188.588 163.603 187.481 162.599 185.404 162.593C183.368 162.586 182.268 161.685 182.026 159.573C181.726 156.932 179.928 156.053 177.476 156.073C175.115 156.092 172.75 156.118 170.391 156.031C167.259 155.911 166.784 155.417 166.675 152.117C166.584 149.326 166.681 146.527 166.581 143.736C166.504 141.637 165.803 140.736 164.029 140.707C158.447 140.623 152.866 140.649 147.284 140.697C145.787 140.71 144.971 141.657 144.81 143.129C144.716 143.982 144.693 144.844 144.616 145.7C144.487 147.166 143.745 148.07 142.228 148.228C141.803 148.274 141.367 148.261 140.944 148.325C138.628 148.683 137.306 149.915 136.979 152.023C136.947 152.233 136.979 152.456 136.947 152.666C136.482 155.556 136.495 155.666 133.33 156.008C131.298 156.228 129.681 156.324 129.207 158.973C128.584 162.463 128.355 162.518 125.171 162.544C117.869 162.606 110.568 162.609 103.267 162.544C100.495 162.518 100.392 162.312 99.5501 159.257C98.7242 156.266 98.6919 156.195 95.7237 156.092C93.1491 156.002 90.5712 156.053 87.9966 155.972C86.5221 155.927 85.68 155.097 85.4348 153.612C85.1638 151.981 85.8575 149.966 84.1217 148.874C82.6118 147.925 80.776 148.4 79.0757 148.345C77.7884 148.303 76.4978 148.303 75.2105 148.351C71.726 148.487 71.0711 149.191 71.1356 152.562C71.1711 154.413 71.5841 155.96 73.949 156.069C74.7878 156.108 75.7429 156.182 76.4268 156.599C77.698 157.374 77.5883 158.782 77.4819 160.077C77.3851 161.24 76.8527 162.341 75.6267 162.312C72.3487 162.234 69.3611 163.704 66.1541 163.897C64.3086 164.01 63.7505 165.105 63.3956 166.801C62.689 170.178 62.5664 170.191 59.2594 170.285C56.4686 170.366 53.6746 170.275 50.887 170.388C48.9028 170.469 48.3672 171.041 48.0188 173.108C47.8768 173.95 47.9155 174.826 47.8026 175.675C47.6026 177.202 46.5959 177.848 45.1602 177.948C44.5182 177.994 43.8729 178.01 43.2276 178.01C34.2067 178.013 25.189 178.016 16.1681 178.01C15.5261 178.01 14.8776 177.997 14.2388 177.919C13.0837 177.78 12.2449 177.206 11.9642 176.014C11.8674 175.601 11.8577 175.165 11.7835 174.742C11.035 170.388 11.0318 170.353 6.59553 170.298C2.73035 170.25 -1.13482 170.298 -5 170.298L-5 170.291Z" fill="#BFD0E2"/>
<path d="M71.1645 110.845C70.1063 110.858 69.0481 110.865 67.993 110.887C64.0924 110.965 63.489 110.222 63.3116 106.695C63.147 103.508 62.7083 103.295 59.3399 103.211C55.5328 103.117 51.7257 103.14 47.9186 103.111C47.9251 102.255 47.9864 101.393 47.9283 100.543C47.7121 97.482 47.7186 97.3657 44.247 96.6391C42.4983 96.2742 41.553 95.5443 41.4885 93.7553C41.4724 93.3258 41.4788 92.893 41.4143 92.4732C40.9207 89.2471 40.7238 88.979 37.3426 88.9435C30.0672 88.8692 22.7917 88.8692 15.5195 88.9306C12.6126 88.9564 12.1867 89.2018 11.8383 92.1309C11.5092 94.8985 10.5025 96.61 7.55366 96.6133C5.19841 96.6133 4.24664 97.6854 3.94659 100.069C3.60459 102.804 3.16903 102.995 0.781529 103.101C-1.14138 103.185 -3.06752 103.12 -4.99365 103.12V51.4472C6.09857 52.1674 3.83689 52.6873 4.08532 43.3867C4.18856 39.5405 4.12404 35.6878 4.14017 31.8384C4.14662 30.3012 4.88546 29.4939 6.46315 29.5068C7.31813 29.5133 8.17312 29.4907 9.0281 29.4584C10.2186 29.4132 10.9768 28.89 11.2317 27.637C11.5672 26.0029 10.6026 23.9749 12.0738 22.7639C13.6547 21.4624 15.797 22.3957 17.6683 22.0954C17.878 22.0631 18.0942 22.0566 18.3071 22.0405C18.3813 23.3161 18.2265 24.6628 18.5781 25.8576C19.1815 27.9115 21.569 28.6381 23.2563 27.4465C24.9147 26.2774 25.9794 24.7726 25.9697 22.625C25.9633 20.9134 25.9794 19.189 26.1439 17.4871C26.2569 16.318 27.0634 15.501 28.2507 15.4397C30.8157 15.3105 33.3839 15.346 35.9521 15.262C40.1818 15.1264 40.6916 14.8616 41.4175 10.7215C41.8724 8.1348 42.7855 7.53737 45.2601 7.53414C46.9733 7.53091 48.6865 7.52768 50.3997 7.52122C62.1791 7.46955 73.9586 7.41788 85.738 7.36621C86.3704 7.3985 87.0124 7.36621 87.6319 7.47924C89.2192 7.77634 91.3035 6.67512 92.3101 8.35117C92.9909 9.48468 92.7941 11.1801 92.8844 12.6301C92.9618 13.8605 93.5103 14.6129 94.7331 14.7324C95.7784 14.8325 96.8464 14.7421 97.8917 14.8454C99.8178 15.036 99.963 15.2588 100.031 17.8875C100.04 18.2912 99.8275 18.6981 99.7178 19.105C98.4757 19.3375 96.6431 19.8478 97.6981 21.2493C99.6662 23.8651 99.492 26.6811 99.6113 29.5617C99.6049 37.2961 99.6114 45.0304 99.5791 52.7648C99.5726 54.26 99.492 55.7649 99.3242 57.2504C99.221 58.1675 98.5983 58.8425 97.6594 58.9458C96.1721 59.1073 94.6718 59.2042 93.178 59.2106C85.667 59.2332 78.1528 59.2139 70.6419 59.2203C69.1384 59.2203 67.6349 59.2235 66.1379 59.2946C64.6925 59.3624 63.7084 60.0632 63.5213 61.5842C63.389 62.6499 63.4019 63.7318 63.2309 64.7878C63.0406 65.9665 62.2598 66.6899 61.0725 66.7964C59.7949 66.9127 58.5043 66.9127 57.217 66.9353C55.0715 66.9708 52.9195 66.8998 50.7836 67.0548C50.0029 67.1097 49.0704 67.5004 48.5478 68.0591C47.6767 68.9892 47.7702 72.6029 48.5478 73.6169C49.4511 74.7891 50.8353 74.5599 52.0935 74.689C55.0134 74.9926 55.1844 74.999 55.6425 78.0863C55.9555 80.1919 56.8718 81.1575 58.9366 81.1542C59.5787 81.1542 60.224 81.2059 60.8628 81.264C62.3566 81.3997 63.1729 82.2361 63.3084 83.7248C63.3664 84.3675 63.3374 85.0198 63.431 85.6528C63.8601 88.4946 64.0827 88.7045 67.1348 88.8886C68.4189 88.9661 69.7095 88.9209 71 88.9306C71.0452 96.2548 71.0871 103.576 71.1291 110.9L71.1774 110.848L71.1645 110.845Z" fill="#FDFEFE"/>
<path d="M-4.99995 103.117C-3.07381 103.117 -1.14768 103.182 0.775234 103.098C3.16274 102.994 3.5983 102.804 3.94029 100.065C4.24034 97.6822 5.19212 96.6132 7.54736 96.61C10.4963 96.61 11.5029 94.8952 11.832 92.1276C12.1804 89.2018 12.6063 88.9532 15.5132 88.9273C22.7887 88.866 30.0641 88.866 37.3363 88.9403C40.7208 88.9725 40.9144 89.2438 41.408 92.47C41.4725 92.8898 41.4661 93.3225 41.4822 93.752C41.5435 95.5411 42.492 96.2709 44.2407 96.6359C47.7155 97.3592 47.7058 97.4787 47.922 100.54C47.9833 101.393 47.922 102.252 47.9123 103.108C47.9123 111.504 47.9446 119.9 47.8962 128.297C47.8736 131.865 47.822 131.978 44.1343 132.85C42.3598 133.27 41.5274 134.11 41.4757 135.87C41.4499 136.729 41.408 137.594 41.2725 138.44C41.0821 139.641 40.2852 140.31 39.1108 140.462C38.0461 140.597 36.9621 140.584 35.9006 140.736C34.7068 140.907 33.9938 141.682 33.8325 142.858C33.6873 143.92 33.7164 145.009 33.5712 146.074C33.4099 147.256 32.6807 148.015 31.4902 148.183C30.4287 148.332 29.3414 148.312 28.2799 148.454C27.1055 148.609 26.3119 149.288 26.1376 150.492C25.9828 151.555 25.9828 152.636 25.8473 153.702C25.6537 155.226 24.6567 155.914 23.2113 155.985C21.924 156.05 20.6302 156.056 19.3429 156.056C14.6099 156.063 9.87679 155.969 5.14695 156.089C1.67862 156.176 -1.70584 155.898 -5.00317 154.79V103.117H-4.99995Z" fill="#D6E6F3"/>
<path d="M70.9872 88.9241C69.6998 88.9144 68.4093 88.9629 67.1252 88.8821C64.0731 88.6948 63.8505 88.4881 63.4214 85.6463C63.3246 85.0133 63.3568 84.361 63.2987 83.7184C63.1632 82.2296 62.347 81.3932 60.8532 81.2576C60.2111 81.1994 59.5691 81.1478 58.927 81.1478C56.8622 81.151 55.9459 80.1854 55.6329 78.0799C55.1748 74.9926 55.0038 74.9829 52.0839 74.6826C50.8256 74.5534 49.4448 74.7827 48.5382 73.6104C47.7574 72.5964 47.6638 68.9859 48.5382 68.0527C49.0608 67.494 49.9965 67.1032 50.774 67.0483C52.9099 66.8933 55.0619 66.9676 57.2074 66.9288C58.4947 66.9062 59.782 66.9062 61.0629 66.79C62.247 66.6834 63.031 65.96 63.2213 64.7813C63.3923 63.7253 63.3826 62.6402 63.5117 61.5778C63.6988 60.0567 64.6829 59.3559 66.1283 59.2881C67.6285 59.2203 69.132 59.2171 70.6323 59.2138C78.1432 59.2106 85.6574 59.2268 93.1684 59.2042C94.6622 59.2009 96.1624 59.1008 97.6498 58.9394C98.5887 58.836 99.2146 58.1611 99.3146 57.2439C99.4791 55.7584 99.563 54.2535 99.5695 52.7583C99.5985 45.024 99.5953 37.2896 99.6017 29.5553C104.728 29.5326 109.852 29.5133 114.979 29.4939C114.995 33.1463 114.966 36.7955 115.04 40.4479C115.117 44.2974 115.214 44.3716 118.828 44.9529C119.25 45.0207 119.692 44.9755 120.108 45.0563C122.044 45.4309 122.583 45.9863 122.677 48.079C122.783 50.4364 122.69 52.8035 122.78 55.1642C122.912 58.6713 123.335 59.0524 127.055 59.1751C128.768 59.2332 130.488 59.2171 132.204 59.1977C136.627 59.1493 136.966 60.0373 136.998 63.3862C137.002 63.8157 137.031 64.2484 137.102 64.6683C137.305 65.8373 137.976 66.6059 139.167 66.7867C140.012 66.9159 140.883 66.8707 141.728 67.0063C144.158 67.3971 144.555 67.8008 144.658 70.352C144.761 72.9258 144.671 75.5061 144.78 78.0799C144.868 80.1531 145.564 81.0347 147.374 81.0606C152.95 81.1445 158.528 81.1155 164.106 81.067C165.245 81.0574 166.081 80.4276 166.433 79.2328C166.955 77.4534 165.884 74.9022 167.975 73.985C169.633 73.2584 171.746 73.5426 173.66 73.4489C174.944 73.3876 176.237 73.394 177.522 73.4619C180.787 73.6395 181.535 74.1303 182.032 77.5987C182.358 79.8689 183.074 80.9572 185.504 81.2576C188.272 81.6031 188.423 82.0133 188.565 84.4094C188.656 85.9079 188.598 87.416 188.604 88.9177C184.745 88.9403 180.883 88.9306 177.025 89.0081C175.566 89.0371 174.537 89.8639 174.511 91.3784C174.453 94.5917 174.495 97.8081 174.608 101.021C174.627 101.567 175.073 102.297 175.544 102.597C177.947 104.138 181.619 102.878 182.006 100.214C182.335 97.9599 183.071 96.8555 185.494 96.5454C188.262 96.1902 188.423 95.7736 188.562 93.3968C188.649 91.8984 188.578 90.3935 188.578 88.8886C193.508 88.8918 198.438 88.8951 203.365 88.9015C204.652 88.9015 205.939 88.8595 207.22 88.9338C210.463 89.1147 210.956 89.5894 211.763 93.09C211.811 93.2967 211.782 93.5227 211.831 93.7294C212.408 96.2064 212.686 96.4841 215.244 96.5939C217.17 96.6746 219.103 96.5939 221.029 96.6359C225.775 96.7424 225.904 96.8845 226.017 101.893C226.043 102.965 226.027 104.038 226.027 105.11C226.027 109.615 226.03 114.12 226.033 118.625C224.339 118.641 222.639 118.576 220.952 118.699C219.113 118.835 218.464 119.629 218.345 121.609C218.306 122.242 218.309 122.881 218.358 123.514C218.506 125.416 219.219 126.169 221.119 126.278C225.023 126.508 226.12 126.026 226.017 121.78C225.991 120.721 226.004 119.658 226.001 118.599C227.282 118.586 228.572 118.673 229.84 118.544C232.421 118.279 233.028 117.685 233.654 115.072C233.751 114.662 233.68 114.213 233.773 113.8C234.322 111.304 234.618 111.003 237.119 110.906C239.251 110.823 241.387 110.916 243.52 110.858C247.308 110.758 247.372 110.687 247.956 107.038C248.056 106.408 248.043 105.759 248.176 105.136C248.427 103.941 249.289 103.256 250.428 103.256C255.945 103.25 261.475 102.601 266.937 104.27C268.915 104.874 269.634 105.727 269.983 107.674C270.518 110.668 270.808 110.832 273.686 110.864C280.087 110.942 286.489 110.906 292.89 110.916C295.138 110.99 297.39 111.065 299.639 111.139C299.662 112.841 299.626 114.546 299.723 116.241C299.791 117.398 300.417 118.253 301.633 118.431C302.682 118.586 303.746 118.615 304.805 118.715C306.279 118.857 307.095 119.677 307.237 121.153C307.341 122.209 307.37 123.278 307.537 124.325C307.734 125.532 308.592 126.12 309.751 126.227C310.593 126.304 311.451 126.301 312.296 126.259C313.713 126.188 314.739 125.565 314.935 124.044C315.045 123.201 315.074 122.345 315.103 121.496C315.164 119.723 316.023 118.625 317.826 118.689C320.507 118.783 321.643 117.22 322.069 114.93C322.695 111.543 324.753 110.396 327.983 110.855C328.399 110.913 328.831 110.855 329.257 110.855C329.993 114.556 329.993 114.594 332.951 114.698C335.29 114.779 337.633 114.743 339.975 114.772C341.275 114.788 342.582 114.914 343.353 116.148C344.818 118.492 347.076 118.699 349.506 118.621C351.632 118.554 353.765 118.634 355.891 118.531C357.939 118.431 358.749 117.756 358.82 115.928C358.933 112.951 358.904 109.964 358.846 106.983C358.82 105.517 357.981 104.658 356.481 104.503C355.02 104.351 353.455 104.503 352.41 103.12C352.481 101.625 352.471 100.124 352.652 98.6413C352.797 97.4335 353.69 96.8425 354.865 96.736C357.352 96.5131 358.556 97.1364 358.991 99.4939C359.643 103.027 359.843 103.03 362.95 103.12C365.941 103.208 368.935 103.153 371.926 103.253C373.068 103.292 373.881 103.937 374.213 105.119C374.713 106.899 373.665 109.434 375.749 110.345C377.401 111.068 379.504 110.79 381.414 110.877C382.908 110.945 384.409 110.948 385.902 110.868C387.351 110.79 389.132 111.443 390.142 110.16C391.432 108.52 388.548 107.897 388.806 106.343C388.842 106.14 388.771 105.92 388.751 105.707C389.819 105.707 390.884 105.697 391.952 105.707C394.726 105.727 397.501 105.707 400.273 105.791C401.747 105.836 402.599 106.708 402.715 108.203C402.779 109.053 402.786 109.909 402.818 110.761C401.54 110.813 400.263 110.842 398.985 110.926C397.53 111.023 396.569 111.756 396.469 113.267C396.204 117.197 396.504 118.841 400.569 118.628C400.992 118.605 401.424 118.654 401.844 118.728C402.999 118.935 403.767 119.6 403.947 120.785C404.073 121.625 404.031 122.493 404.167 123.33C404.56 125.755 404.989 126.22 407.451 126.288C411.071 126.388 414.698 126.336 418.321 126.349C418.343 127.625 418.269 128.907 418.405 130.17C418.614 132.117 419.279 132.669 421.289 132.789C421.921 132.824 422.563 132.824 423.196 132.776C425.119 132.627 425.825 131.901 425.948 130.005C426.112 127.46 425.345 126.543 422.744 126.391C421.263 126.304 419.773 126.382 418.285 126.385C418.279 123.801 418.269 121.221 418.263 118.638C420.737 118.37 422.986 116.816 425.599 117.336C426.2 118.302 427.132 118.547 428.193 118.599C429.2 118.647 430.203 118.799 431.21 118.906C430.981 121.525 432.133 123.246 434.578 124.163C436.505 124.883 438.408 125.655 440.325 126.404C440.486 127.451 440.689 128.494 440.802 129.543C441.147 132.818 441.134 132.821 444.58 133.141C445.216 133.199 445.909 133.086 446.48 133.302C447.003 133.499 447.561 133.958 447.803 134.449C448.068 134.988 448.006 135.695 448.058 136.331C448.426 140.891 448.874 141.266 453.343 140.836C454.914 140.685 455.547 139.816 455.498 138.285C455.463 137.216 455.456 136.141 455.563 135.078C455.685 133.867 456.411 133.189 457.669 133.157C457.882 133.15 458.095 133.115 458.308 133.115C463.867 133.147 469.423 133.179 474.982 133.221C476.466 133.231 477.434 133.883 477.482 135.469C477.528 136.951 477.492 138.437 477.492 139.693C479.128 141.401 480.938 140.659 482.558 140.814C484.113 140.966 484.852 141.734 484.929 143.233C484.984 144.298 484.935 145.377 485.09 146.43C485.219 147.311 485.774 147.977 486.758 148.06C488.455 148.203 490.156 148.312 491.856 148.435C491.83 150.944 491.804 153.454 491.782 155.963C479.767 156.014 467.752 156.069 455.737 156.121C454.879 154.787 454.017 154.781 453.156 156.118C451.452 156.085 449.749 156.053 448.042 156.024C448.01 147.805 448.365 148.316 440.292 148.316C436.853 148.316 433.407 148.215 429.971 148.345C427.422 148.442 425.929 147.305 425.125 145.012C424.841 144.201 424.661 143.342 424.273 142.587C423.493 141.056 422.118 140.581 420.486 140.778C418.866 140.975 418.469 142.147 418.372 143.53C418.327 144.172 418.353 144.828 418.25 145.461C417.901 147.599 417.411 148.132 415.44 148.257C413.726 148.367 412 148.367 410.281 148.325C408.587 148.283 406.751 148.761 405.251 147.744C403.557 146.594 404.273 144.602 403.986 142.968C403.722 141.45 402.796 140.71 401.347 140.681C397.908 140.61 394.468 140.62 391.029 140.594C388.664 140.578 386.296 140.623 383.934 140.517C381.886 140.423 381.379 139.88 380.982 137.859C380.339 134.563 378.342 132.894 374.991 132.853C374.562 132.847 374.129 132.827 373.7 132.857C371.784 132.992 369.671 132.682 368.006 133.406C365.905 134.319 366.98 136.877 366.447 138.66C366.089 139.858 365.257 140.452 364.105 140.488C361.311 140.572 358.517 140.526 355.723 140.597C351.877 140.697 351.816 140.772 351.222 144.418C351.154 144.841 351.196 145.283 351.116 145.703C350.738 147.644 350.18 148.109 348.077 148.283C347.647 148.319 347.218 148.322 346.789 148.322C337.759 148.332 328.728 148.328 319.697 148.348C316.552 148.354 315.061 148.132 314.945 144.021C314.861 141.095 314.209 140.759 311.415 140.63C309.699 140.552 307.976 140.601 306.256 140.597C302.817 140.588 299.375 140.643 295.935 140.559C292.596 140.478 292.393 140.245 291.88 136.964C291.78 136.328 291.838 135.666 291.712 135.036C291.483 133.874 290.757 133.07 289.563 133.002C287.421 132.876 285.269 132.876 283.123 132.844C278.632 132.776 277.597 133.028 277.506 137.613C277.458 140.026 276.748 140.407 274.199 140.542C272.699 140.623 271.189 140.617 269.686 140.575C267.989 140.526 266.15 141.004 264.64 140.035C262.917 138.928 263.614 136.916 263.336 135.282C263.081 133.787 262.22 132.947 260.752 132.941C255.164 132.908 249.573 132.905 243.985 132.976C242.487 132.995 241.72 134.022 241.578 135.485C241.494 136.341 241.468 137.203 241.387 138.059C241.245 139.558 240.39 140.368 238.913 140.513C238.058 140.597 237.196 140.62 236.341 140.697C234.864 140.833 233.992 141.621 233.847 143.126C233.763 143.982 233.792 144.857 233.641 145.697C233.296 147.634 232.715 148.161 230.605 148.254C228.459 148.351 226.307 148.316 224.155 148.316C218.78 148.319 213.405 148.37 208.03 148.29C204.729 148.238 204.207 147.712 204.113 144.576C204.02 141.35 204.084 138.12 204.074 134.891C204.068 133.17 204.12 131.445 204.026 129.727C203.878 127.053 203.274 126.508 200.387 126.378C198.67 126.301 196.947 126.349 195.228 126.349C189.636 126.346 184.045 126.398 178.457 126.324C175.121 126.278 174.915 126.014 174.392 122.736C174.292 122.099 174.321 121.444 174.214 120.811C174.014 119.616 173.256 118.915 172.079 118.757C171.017 118.615 169.93 118.638 168.868 118.489C167.684 118.324 166.942 117.578 166.775 116.393C166.626 115.331 166.652 114.242 166.507 113.18C166.349 112.001 165.652 111.22 164.455 111.045C163.393 110.89 162.309 110.903 161.248 110.761C160.073 110.606 159.276 109.928 159.099 108.727C158.944 107.664 158.938 106.582 158.799 105.52C158.602 104.009 157.631 103.285 156.179 103.214C154.676 103.143 153.169 103.137 151.665 103.137C144.571 103.13 137.473 103.137 130.381 103.137C129.31 103.14 128.236 103.188 127.168 103.14C123.69 102.985 123.58 102.998 122.715 99.2936C122.299 97.5046 121.405 96.6908 119.676 96.6908C109.171 96.6843 98.6629 96.6843 88.1578 96.7005C86.3253 96.7005 85.3574 97.7629 85.409 99.5294C85.4767 101.89 84.3217 103.062 82.1342 103.514C80.6759 103.815 79.2337 104.209 77.7851 104.561C77.727 101.583 77.6206 98.6058 77.6173 95.6251C77.6109 89.3084 77.9561 88.6658 70.9904 88.9273L70.9872 88.9241ZM102.505 66.8804C103.448 66.8804 103.873 66.9062 104.296 66.8772C106.335 66.7286 107.051 66.1021 107.2 64.2484C107.268 63.4024 107.242 62.5433 107.193 61.6972C107.142 60.8156 106.816 60.0406 105.983 59.6078C104.838 59.0136 102.325 59.0879 101.734 59.8791C100.415 61.6391 100.06 63.7931 100.312 65.8599C100.453 67.0063 101.98 66.8546 102.502 66.8868L102.505 66.8804Z" fill="#D6E6F3"/>
<path d="M292.88 110.916C286.479 110.906 280.078 110.939 273.677 110.864C270.799 110.829 270.508 110.664 269.973 107.674C269.624 105.727 268.905 104.874 266.927 104.27C261.462 102.601 255.935 103.253 250.418 103.256C249.279 103.256 248.418 103.941 248.166 105.136C248.037 105.759 248.05 106.408 247.947 107.038C247.363 110.687 247.301 110.758 243.51 110.858C241.378 110.916 239.239 110.822 237.109 110.906C234.612 111.003 234.312 111.304 233.763 113.8C233.673 114.213 233.744 114.662 233.644 115.072C233.018 117.685 232.412 118.279 229.831 118.544C228.563 118.673 227.272 118.589 225.991 118.599L226.02 118.628C226.02 114.123 226.02 109.618 226.014 105.113C226.014 104.041 226.03 102.969 226.004 101.896C225.891 96.8877 225.762 96.7456 221.016 96.6391C219.087 96.5971 217.157 96.6778 215.231 96.5971C212.673 96.4905 212.395 96.2096 211.818 93.7326C211.769 93.526 211.798 93.2999 211.75 93.0932C210.943 89.5926 210.447 89.1179 207.207 88.937C205.926 88.866 204.636 88.9079 203.352 88.9047C198.422 88.8983 193.492 88.895 188.565 88.8918L188.594 88.9209C188.585 87.4192 188.646 85.9111 188.556 84.4127C188.414 82.0165 188.262 81.6063 185.494 81.2608C183.068 80.9572 182.348 79.8722 182.022 77.6019C181.525 74.1368 180.777 73.6427 177.512 73.4651C176.228 73.394 174.934 73.3876 173.65 73.4522C171.737 73.5458 169.623 73.2616 167.965 73.9882C165.874 74.9021 166.949 77.4534 166.423 79.236C166.071 80.4276 165.239 81.0606 164.097 81.0702C158.522 81.1187 152.943 81.1478 147.365 81.0638C145.555 81.038 144.858 80.1563 144.771 78.0831C144.661 75.5093 144.755 72.929 144.648 70.3552C144.545 67.804 144.148 67.4003 141.719 67.0095C140.877 66.8739 140.002 66.9224 139.157 66.79C137.966 66.6091 137.295 65.8405 137.092 64.6715C137.018 64.2517 136.992 63.8157 136.989 63.3894C136.957 60.0438 136.618 59.1525 132.194 59.2009C130.478 59.2203 128.762 59.2364 127.045 59.1783C123.322 59.0524 122.903 58.6713 122.77 55.1674C122.68 52.8068 122.774 50.4396 122.667 48.0822C122.573 45.9863 122.035 45.4341 120.099 45.0595C119.679 44.9787 119.241 45.024 118.818 44.9561C115.204 44.3716 115.104 44.3006 115.03 40.4512C114.959 36.802 114.985 33.1495 114.972 29.4971C116.682 29.468 118.392 29.4713 120.099 29.4035C121.557 29.3453 122.612 28.6284 122.632 27.1009C122.664 24.7144 123.47 22.8511 125.877 22.2181C128.329 21.5722 129.31 20.0964 129.355 17.6421C129.384 16.1501 130.43 15.375 131.901 15.3428C134.679 15.2814 137.46 15.3492 140.231 15.2233C143.183 15.0909 143.938 14.3965 144.639 11.6161C145.307 8.95935 146.931 7.59548 149.51 7.52443C150.152 7.50829 150.794 7.53735 151.433 7.51798C160.783 7.22733 170.198 8.38991 179.47 6.26821C180.077 6.12934 180.748 6.26821 181.39 6.27467C182.981 8.29303 185.42 6.92054 187.307 7.75695C187.681 8.10895 188.059 8.46095 188.433 8.80973C188.859 9.66228 188.843 10.5278 188.488 11.3965C187.204 11.4255 185.849 11.3028 184.833 12.2587C184.413 12.6527 184.09 13.3276 184.052 13.896C184.007 14.5935 184.681 15.0553 185.31 15.0909C186.588 15.1684 187.872 15.0715 189.156 15.0489C191.117 15.1361 193.082 15.2233 195.044 15.3105C195.463 15.7174 195.88 16.1243 196.299 16.5312C196.099 21.8047 197.602 21.7305 201.384 21.7175C202.239 21.7175 203.097 21.7692 203.952 21.7983V21.9275C203.991 36.9376 204.033 51.951 204.071 66.9611C202.381 66.9805 200.687 66.9224 199.003 67.0451C197.135 67.1807 196.502 67.9428 196.38 69.916C196.341 70.5457 196.341 71.1851 196.389 71.8149C196.538 73.717 197.241 74.4662 199.135 74.5792C203.029 74.8117 204.12 74.3532 204.026 70.1001C204.004 69.0441 204.033 67.9848 204.036 66.9288C204.678 66.9288 205.323 66.8901 205.962 66.9385C207.63 67.0644 209.479 66.4606 210.889 67.7232C212.134 68.8406 211.608 70.5263 211.853 71.9666C212.218 74.1013 213.115 74.7342 215.441 74.5695C217.303 74.4371 218.116 73.7234 218.177 71.7438C218.306 67.4617 218.309 63.1763 218.364 58.8909C221.752 59.695 225.191 59.2558 228.608 59.2978C234.793 59.3688 240.981 59.3172 246.688 59.3172C248.401 60.638 248.014 62.0105 248.008 63.2215C247.998 66.0052 248.137 67.0257 251.676 66.8997C252.525 66.8675 253.389 66.945 254.228 67.0838C254.893 67.1936 255.299 67.6877 255.428 68.3691C255.467 68.579 255.48 68.7954 255.522 69.0053C255.851 70.6135 254.748 72.7449 256.483 73.746C257.651 74.421 259.365 74.1239 260.829 74.3047C262.039 74.4533 262.752 75.1314 262.752 76.4038C262.756 78.9776 262.726 81.5482 262.736 84.122C262.749 88.8304 262.759 88.8563 267.189 88.8821C271.686 88.9079 276.187 88.9176 280.684 88.8563C285.366 88.7949 285.295 89.3762 285.182 92.9544C285.175 93.1675 285.172 93.3839 285.192 93.597C285.405 95.9577 285.618 96.1902 287.753 96.3872C291.096 96.6972 292.774 98.5412 292.786 101.919C292.799 104.919 292.835 107.919 292.861 110.919L292.88 110.916Z" fill="#FDFEFE"/>
<path d="M388.742 105.704C388.764 105.917 388.832 106.137 388.796 106.34C388.535 107.893 391.419 108.52 390.132 110.157C389.122 111.439 387.341 110.787 385.893 110.865C384.402 110.945 382.899 110.939 381.405 110.874C379.498 110.787 377.394 111.065 375.739 110.341C373.655 109.431 374.704 106.896 374.204 105.116C373.871 103.931 373.058 103.285 371.916 103.25C368.925 103.153 365.931 103.204 362.94 103.117C359.833 103.027 359.633 103.02 358.982 99.4907C358.546 97.1332 357.339 96.5099 354.855 96.7328C353.678 96.8393 352.787 97.4271 352.642 98.6381C352.461 100.117 352.474 101.622 352.403 103.117C347.541 104.264 342.727 105.875 337.623 104.441C337.039 104.277 336.362 104.441 335.729 104.438C333.381 104.415 331.961 106.198 330.254 107.354C329.077 108.152 329.296 109.599 329.251 110.858C328.825 110.858 328.393 110.919 327.976 110.858C324.747 110.396 322.688 111.543 322.062 114.934C321.64 117.223 320.501 118.786 317.82 118.693C316.013 118.631 315.155 119.726 315.097 121.499C315.068 122.348 315.039 123.204 314.929 124.047C314.729 125.568 313.703 126.191 312.29 126.262C311.445 126.304 310.586 126.307 309.744 126.23C308.586 126.123 307.728 125.532 307.531 124.328C307.36 123.281 307.334 122.213 307.231 121.157C307.086 119.681 306.273 118.86 304.798 118.718C303.743 118.618 302.675 118.589 301.627 118.434C300.41 118.253 299.781 117.398 299.717 116.245C299.62 114.549 299.655 112.844 299.633 111.142L299.943 111C304.027 110.932 308.112 110.923 312.193 110.774C314.139 110.703 314.877 109.931 314.971 107.958C315.103 105.165 315.016 102.362 315.148 99.5682C315.242 97.5982 315.981 96.8555 317.926 96.7489C320.285 96.6197 322.659 96.736 325.018 96.5971C327.867 96.426 328.915 95.3797 329.199 92.7154C329.244 92.2891 329.293 91.8467 329.235 91.4269C328.509 85.9596 330.148 81.5385 334.106 77.518C335.975 75.6191 337.562 74.6794 340.091 74.6632C344.163 74.6374 348.267 75.1024 352.303 74.1594L352.526 74.2951C352.59 75.5577 352.723 76.9109 354.31 77.0174C355.923 77.124 356.217 75.8258 356.346 74.5405C357.191 74.1013 358.046 74.1078 358.907 74.492C358.927 77.6633 358.917 80.8345 358.978 84.0058C359.069 88.4882 359.324 88.7756 363.563 88.8692C367.151 88.9467 370.742 88.9112 374.333 88.9274C376.081 89.0242 377.833 89.1211 379.582 89.218C379.595 92.8414 379.614 96.4647 379.621 100.091C379.621 101.435 379.869 102.643 381.247 103.279C383.712 103.866 386.193 103.77 388.68 103.472C388.703 104.218 388.725 104.961 388.748 105.707L388.742 105.704Z" fill="#FDFEFE"/>
<path d="M181.393 6.27465C180.751 6.26496 180.083 6.12933 179.473 6.26819C170.201 8.39312 160.786 7.23054 151.436 7.51796C150.794 7.53734 150.156 7.50827 149.513 7.52442C146.935 7.59331 145.311 8.95719 144.642 11.616C143.942 14.3933 143.187 15.0908 140.234 15.2233C137.46 15.346 134.679 15.2782 131.904 15.3427C130.433 15.375 129.384 16.1501 129.358 17.6421C129.313 20.0932 128.332 21.5722 125.88 22.2181C123.47 22.8543 122.667 24.7144 122.635 27.1009C122.615 28.6284 121.56 29.3453 120.102 29.4034C118.395 29.4713 116.685 29.468 114.975 29.4971C109.849 29.5165 104.722 29.5391 99.5985 29.5585C99.4824 26.6778 99.6533 23.8618 97.6885 21.246C96.6367 19.8477 98.4693 19.3342 99.7082 19.1017C100.215 20.7423 100.547 22.4054 102.951 22.2891C106.164 22.1373 109.387 22.2698 112.607 22.2375C114.053 22.2245 115.046 21.6723 115.056 19.9834C115.066 18.4978 115.204 17.0091 115.279 15.6495C117.56 14.1802 120.173 15.6334 122.257 14.2835C123.403 12.3556 121.696 9.68487 123.419 8.18321C125.316 6.533 127.952 7.71495 130.249 7.47598C131.31 7.36618 132.394 7.44045 133.466 7.4566C136.524 7.49858 137.331 7.32743 137.198 3.92043C137.173 3.28102 137.198 2.63191 137.269 1.9925C137.415 0.739498 138.212 0.145293 139.412 0.0774761C140.483 0.0193473 141.557 0.0128886 142.628 0.0161179C154.005 0.0193473 165.378 0.0290354 176.754 0.0387236C177.612 0.0387236 178.47 0.0451823 179.328 0.0613292C180.887 0.0903936 181.706 0.946178 181.709 2.45107C181.709 3.72344 181.513 4.99582 181.403 6.27142L181.393 6.27465Z" fill="white"/>
<path d="M352.297 74.1594C348.26 75.1024 344.156 74.6374 340.085 74.6632C337.555 74.6794 335.968 75.6191 334.1 77.518C330.141 81.5386 328.499 85.9596 329.228 91.4269C329.283 91.8467 329.238 92.2892 329.193 92.7154C328.912 95.3797 327.86 96.426 325.011 96.5971C322.653 96.7392 320.278 96.6197 317.92 96.7489C315.974 96.8555 315.235 97.5983 315.142 99.5682C315.01 102.362 315.097 105.165 314.964 107.958C314.871 109.931 314.132 110.703 312.187 110.774C308.105 110.923 304.021 110.932 299.936 111C300.007 107.148 300.043 103.292 300.155 99.439C300.236 96.7328 300.436 96.5519 303.024 96.3162C303.875 96.2387 304.737 96.2871 305.589 96.2258C306.524 96.1579 307.189 95.6671 307.379 94.7306C307.754 92.8995 306.589 90.4678 308.389 89.331C309.667 88.5237 311.706 88.9274 313.4 88.7659C314.422 88.669 314.819 87.9586 314.906 87.0382C314.968 86.3988 315.016 85.7529 314.974 85.1167C314.761 81.8841 315.913 81.2802 318.675 81.4514C319.314 81.4901 319.962 81.4611 320.598 81.3835C321.533 81.2737 322.159 80.7118 322.291 79.7818C322.411 78.9389 322.34 78.0702 322.411 77.2177C322.627 74.5696 322.637 74.5631 325.392 74.2886C325.818 74.2466 326.25 74.3048 326.676 74.2563C329.002 73.9947 329.199 73.8107 329.406 71.6276C329.467 70.9914 329.386 70.3391 329.444 69.6997C329.654 67.3551 329.961 66.8966 331.983 66.8998C337.968 66.9159 343.953 67.0451 349.938 67.1291C350.451 67.4779 350.961 67.8299 351.474 68.1786C351.748 70.1744 352.026 72.1669 352.3 74.1627L352.297 74.1594Z" fill="white"/>
<path d="M85.7285 7.36621C73.9491 7.41788 62.1696 7.46955 50.3902 7.52122C48.677 7.52768 46.9638 7.53091 45.2506 7.53414C42.776 7.54059 41.8597 8.1348 41.408 10.7215C40.6821 14.8616 40.1691 15.1264 35.9426 15.262C33.3776 15.3428 30.8062 15.3072 28.2412 15.4397C27.0572 15.501 26.2474 16.318 26.1344 17.4871C25.9699 19.189 25.9538 20.9102 25.9602 22.625C25.9699 24.7693 24.902 26.2742 23.2468 27.4465C21.5595 28.6381 19.172 27.9115 18.5686 25.8576C18.2169 24.6627 18.3718 23.3193 18.2976 22.0405C18.5041 19.922 18.0847 17.4289 19.0784 15.7884C20.2237 13.896 23.1081 15.5107 25.0536 14.5903C25.2407 14.4999 25.4182 14.3836 25.5989 14.2803C26.6958 12.3459 25.031 9.70428 26.6958 8.18001C28.5639 6.47167 31.2095 7.72467 33.4905 7.43725C33.9132 7.38558 34.3487 7.46309 34.7746 7.42757C36.462 7.28547 38.372 8.01854 39.7948 6.97868C41.3693 5.8258 40.4208 3.80421 40.6789 2.17983C40.9273 0.62327 41.8403 0.0290644 43.3083 0.0290644C48.6609 0.0161469 54.0134 0 59.3692 0C67.2931 0 75.2138 0.0387525 83.1377 0.00322938C84.7412 -0.00322938 85.5091 0.668481 85.564 2.22827C85.6253 3.93984 85.6769 5.65464 85.7317 7.36621H85.7285Z" fill="white"/>
<path d="M204.087 66.9611C204.049 51.951 204.007 36.9376 203.968 21.9275C205.639 22.0599 207.314 22.1923 208.985 22.3279C210.511 22.4506 211.205 23.3452 211.214 24.8113C211.24 27.9664 211.192 31.1248 211.269 34.2799C211.321 36.3789 211.715 36.718 213.854 36.9732C214.892 37.0959 215.935 37.1766 216.977 37.2735C217.374 37.6901 217.774 38.1099 218.17 38.5265C218.554 39.8247 218.535 41.1229 218.199 42.4243C216.383 45.8636 216.335 49.2997 218.235 52.7261C218.283 54.7799 218.332 56.837 218.38 58.8909C218.325 63.1763 218.322 67.4617 218.193 71.7439C218.132 73.7202 217.319 74.4372 215.457 74.5696C213.134 74.7343 212.237 74.1013 211.869 71.9667C211.624 70.5264 212.147 68.8406 210.905 67.7233C209.495 66.4574 207.646 67.0645 205.978 66.9385C205.339 66.8901 204.694 66.9289 204.052 66.9289L204.084 66.9611H204.087Z" fill="#D6E6F3"/>
<path d="M388.742 105.704C388.719 104.958 388.696 104.215 388.674 103.469C389.116 96.1224 387.374 96.497 395.614 96.5261C397.117 96.5325 398.621 96.5002 400.124 96.539C403.486 96.6294 403.499 96.652 403.841 100.188C403.86 100.401 403.834 100.621 403.857 100.831C404.147 103.682 404.218 103.789 406.819 103.837C409.181 103.883 411.542 103.792 413.904 103.857C414.953 103.886 415.995 104.151 417.04 104.309C417.392 104.764 417.747 105.22 418.098 105.678C418.195 106.292 418.321 106.905 418.379 107.522C418.592 109.729 419.757 110.917 421.873 111.087C422.496 111.136 423.122 111.1 423.744 111.136C425.293 111.226 425.912 112.166 425.861 113.606C425.816 114.85 425.687 116.086 425.596 117.326C422.983 116.81 420.734 118.36 418.26 118.628C416.792 118.612 415.317 118.66 413.852 118.563C411.403 118.402 410.687 117.998 410.684 115.644C410.678 111.284 409.71 110.745 405.328 110.842C404.489 110.861 403.651 110.784 402.812 110.751C402.779 109.899 402.773 109.043 402.708 108.194C402.592 106.699 401.744 105.827 400.266 105.781C397.495 105.697 394.72 105.717 391.945 105.697C390.877 105.691 389.813 105.697 388.745 105.697L388.742 105.704Z" fill="#D8E7F3"/>
<path d="M374.326 88.9241C370.735 88.908 367.147 88.9467 363.556 88.866C359.317 88.7756 359.062 88.4849 358.972 84.0025C358.907 80.8313 358.92 77.66 358.901 74.4888C359.094 74.3984 359.282 74.2434 359.478 74.2272C364.073 73.8634 366.529 75.9689 366.847 80.5439C368.232 81.9357 370.029 81.2027 371.645 81.3641C373.226 81.5191 373.852 82.3846 373.952 83.8378C374.068 85.5333 374.2 87.2255 374.323 88.9209L374.326 88.9241Z" fill="#D6E6F3"/>
<path d="M502.167 148.442C502.309 149.052 502.403 149.682 502.603 150.273C502.977 151.38 504.719 152.233 503.664 153.547C502.929 154.464 501.674 155.088 500.532 155.524C497.686 156.602 494.705 156.018 491.769 155.96C491.795 153.447 491.817 150.938 491.843 148.429C495.286 147.834 498.725 147.999 502.167 148.442Z" fill="#BFD0E2"/>
<path d="M440.318 126.398C438.405 125.649 436.498 124.877 434.572 124.157C432.123 123.239 430.975 121.521 431.204 118.899C434.117 118.392 437.024 118.505 440.086 118.854C440.841 121.434 440.809 123.905 440.318 126.398Z" fill="#D8E7F3"/>
<path d="M203.965 21.7983C203.11 21.7692 202.252 21.7143 201.397 21.7175C197.612 21.7272 196.109 21.8047 196.312 16.5311C196.309 16.0952 196.306 15.6624 196.299 15.2265C198.138 14.5451 200.045 14.9229 201.919 14.9261C202.507 14.9261 203.094 15.2878 203.662 15.4816C204.329 17.613 203.994 19.7153 203.965 21.8015V21.7983Z" fill="#C0D0E2"/>
<path d="M381.24 103.275C379.866 102.639 379.617 101.432 379.614 100.088C379.608 96.4647 379.588 92.8414 379.575 89.2148C380.637 89.0985 381.095 89.7024 381.111 90.6422C381.176 94.8533 381.202 99.0612 381.24 103.272V103.275Z" fill="#D6E6F3"/>
<path d="M218.235 52.726C216.335 49.2997 216.383 45.8636 218.2 42.4243C218.742 45.8571 218.79 49.29 218.235 52.726Z" fill="#C0D0E2"/>
<path d="M189.162 15.0457C187.878 15.0683 186.594 15.1652 185.316 15.0877C184.684 15.0489 184.013 14.5903 184.058 13.8928C184.094 13.3244 184.419 12.6495 184.839 12.2555C185.855 11.2996 187.21 11.4223 188.494 11.3932C188.717 12.6107 188.94 13.8282 189.162 15.0457Z" fill="white"/>
<path d="M356.342 74.5437C356.213 75.829 355.92 77.1272 354.307 77.0206C352.719 76.914 352.587 75.5609 352.522 74.2982C353.813 74.1271 355.104 73.9301 356.342 74.5437Z" fill="white"/>
<path d="M188.439 8.80651C188.065 8.45451 187.688 8.10251 187.313 7.75374C188.243 7.51153 188.669 7.81187 188.439 8.80651Z" fill="white"/>
<path d="M196.296 15.2265C196.299 15.6625 196.306 16.0984 196.309 16.5312C195.889 16.1243 195.47 15.7174 195.054 15.3105C195.47 15.2814 195.883 15.2556 196.299 15.2265H196.296Z" fill="white"/>
<path d="M218.171 38.5264C217.774 38.1099 217.374 37.69 216.977 37.2734C218.025 37.07 218.371 37.5383 218.171 38.5264Z" fill="#C0D0E2"/>
<path d="M418.095 105.681C417.743 105.226 417.388 104.771 417.037 104.312C418.137 104.189 418.305 104.787 418.095 105.681Z" fill="#D6E6F3"/>
<path d="M351.471 68.1754C350.958 67.8266 350.448 67.4746 349.935 67.1258C350.835 66.9094 351.525 66.9966 351.471 68.1754Z" fill="#D6E6F3"/>
<path d="M77.7786 104.557C79.2273 104.205 80.6695 103.812 82.1278 103.511C84.3152 103.059 85.4703 101.887 85.4025 99.5261C85.3509 97.7629 86.3188 96.7004 88.1514 96.6972C98.6564 96.681 109.165 96.681 119.67 96.6875C121.399 96.6875 122.293 97.5013 122.709 99.2904C123.57 102.991 123.683 102.982 127.161 103.137C128.232 103.185 129.304 103.137 130.375 103.133C130.375 104.425 130.326 105.72 130.388 107.009C130.536 110.135 130.559 110.135 134.075 110.99C136.582 111.604 136.886 111.872 136.966 114.381C137.057 117.178 137.079 119.978 136.989 122.774C136.889 125.826 133.056 127.538 130.401 125.762C130.071 125.542 129.739 125.132 129.668 124.76C129.465 123.714 129.336 122.642 129.294 121.573C129.223 119.81 128.478 118.592 126.626 118.65C123.399 118.754 122.525 116.984 122.699 114.178C122.725 113.758 122.638 113.319 122.541 112.902C122.26 111.704 121.412 111.065 120.254 111.026C117.46 110.939 114.666 110.942 111.872 110.929C108.645 110.916 105.403 111.149 102.199 110.874C97.1884 110.441 92.4231 111.946 87.5222 112.311C86.3059 112.402 85.5251 113.277 85.538 114.456C85.5703 117.433 84.2862 118.583 81.247 118.66C78.1045 118.738 78.111 119.035 77.6722 121.977C77.2699 124.677 75.7299 126.116 73.052 126.294C72.41 126.336 71.7615 126.323 71.1162 126.336L71.1775 126.401C71.1775 121.215 71.1711 116.028 71.1711 110.845C71.1711 110.845 71.1227 110.897 71.1227 110.894C78.3045 111.268 77.6335 110.396 77.7851 104.557H77.7786Z" fill="#FDFEFE"/>
<path d="M71.113 126.336C70.7355 127.777 70.3096 129.207 69.9902 130.664C69.5805 132.517 68.2899 132.931 66.6477 132.879C65.5701 132.844 64.3957 132.821 63.844 131.752C63.1278 130.367 63.1826 128.826 63.8731 127.444C64.1086 126.976 64.8732 126.543 65.4282 126.504C67.3382 126.372 69.2579 126.42 71.1743 126.401L71.113 126.336Z" fill="#FDFEFE"/>
<path d="M77.7788 104.558C77.6272 110.396 78.2982 111.268 71.1164 110.894C71.0744 103.569 71.0325 96.2483 70.9873 88.9241C77.9498 88.6625 77.6046 89.3052 77.611 95.6218C77.611 98.5993 77.7207 101.577 77.7788 104.558Z" fill="#BFD0E2"/>
<path d="M329.251 110.858C329.296 109.602 329.08 108.152 330.254 107.354C331.964 106.198 333.38 104.415 335.729 104.438C336.362 104.444 337.036 104.277 337.623 104.441C342.727 105.875 347.541 104.264 352.403 103.117C353.448 104.496 355.013 104.348 356.475 104.499C357.975 104.654 358.811 105.517 358.84 106.98C358.895 109.96 358.927 112.947 358.814 115.925C358.746 117.753 357.933 118.428 355.884 118.528C353.761 118.634 351.626 118.55 349.499 118.618C347.073 118.696 344.811 118.489 343.347 116.144C342.576 114.911 341.269 114.785 339.969 114.769C337.626 114.74 335.284 114.775 332.945 114.695C329.986 114.591 329.986 114.552 329.251 110.852V110.858Z" fill="#FBFBF8"/>
<path d="M402.808 110.758C403.647 110.79 404.486 110.868 405.325 110.848C409.71 110.751 410.674 111.291 410.681 115.65C410.684 118.001 411.4 118.405 413.849 118.57C415.314 118.667 416.788 118.618 418.256 118.634C418.263 121.218 418.272 123.801 418.279 126.382L418.311 126.349C414.688 126.336 411.061 126.385 407.441 126.288C404.98 126.22 404.547 125.755 404.157 123.33C404.022 122.49 404.063 121.625 403.938 120.785C403.76 119.6 402.992 118.935 401.834 118.728C401.418 118.654 400.982 118.605 400.56 118.628C396.494 118.841 396.194 117.197 396.459 113.267C396.562 111.756 397.524 111.023 398.975 110.926C400.25 110.842 401.531 110.813 402.808 110.761V110.758Z" fill="#FDFEFE"/>
<path d="M188.569 88.8918C188.569 90.3935 188.64 91.9016 188.552 93.4001C188.414 95.7769 188.252 96.1935 185.484 96.5487C183.061 96.8587 182.322 97.9632 181.996 100.217C181.609 102.881 177.938 104.141 175.534 102.601C175.066 102.3 174.618 101.57 174.598 101.025C174.486 97.8114 174.444 94.5949 174.502 91.3817C174.527 89.8703 175.56 89.0436 177.015 89.0113C180.874 88.9306 184.736 88.9435 188.594 88.9209L188.565 88.8918H188.569Z" fill="#FDFEFE"/>
<path d="M225.994 118.602C225.998 119.661 225.985 120.724 226.011 121.783C226.114 126.03 225.017 126.514 221.113 126.282C219.213 126.169 218.5 125.416 218.351 123.517C218.303 122.884 218.3 122.245 218.338 121.612C218.458 119.632 219.103 118.838 220.945 118.702C222.633 118.58 224.333 118.644 226.027 118.628L225.998 118.599L225.994 118.602Z" fill="#FBFBF8"/>
<path d="M102.506 66.8804C101.983 66.8481 100.454 66.9999 100.315 65.8535C100.063 63.7867 100.418 61.6359 101.738 59.8727C102.328 59.0815 104.841 59.0104 105.987 59.6014C106.819 60.0341 107.148 60.8092 107.197 61.6908C107.245 62.5401 107.271 63.3959 107.203 64.242C107.055 66.0957 106.338 66.7222 104.299 66.8707C103.877 66.903 103.448 66.874 102.509 66.874L102.506 66.8804Z" fill="#FDFEFE"/>
<path d="M418.279 126.382C419.766 126.382 421.257 126.301 422.738 126.388C425.338 126.543 426.103 127.457 425.941 130.002C425.819 131.897 425.115 132.624 423.189 132.773C422.557 132.821 421.915 132.824 421.283 132.786C419.273 132.669 418.605 132.117 418.398 130.166C418.263 128.904 418.334 127.619 418.314 126.346L418.282 126.378L418.279 126.382Z" fill="#FBFBF8"/>
<path d="M455.724 156.114C454.859 157.416 454.001 157.413 453.143 156.108C454.004 154.774 454.866 154.778 455.724 156.114Z" fill="#BFD0E2"/>
<path d="M204.052 66.9288C204.049 67.9881 204.02 69.0441 204.042 70.1001C204.136 74.3564 203.045 74.8117 199.151 74.5792C197.257 74.4662 196.551 73.7138 196.405 71.8149C196.357 71.1852 196.354 70.5457 196.396 69.916C196.518 67.9429 197.151 67.1807 199.019 67.0451C200.7 66.9224 202.397 66.9837 204.087 66.9611L204.055 66.9288H204.052Z" fill="#D8E7F3"/>
</g>
<defs>
<clipPath id="clip0_13_1054">
<rect width="509" height="178" fill="white" transform="translate(-5)"/>
</clipPath>
</defs>
</svg>
