<svg width="504" height="151" viewBox="0 0 504 151" fill="none" xmlns="http://www.w3.org/2000/svg">
<path d="M411.371 72.3279C411.371 52.8713 429.475 40.8167 452.001 40.8167C470.741 40.8167 484.248 47.7162 497.566 60.6464C500.54 63.5336 500.105 68.3719 496.817 70.891L491.581 74.9017C488.54 77.2306 484.236 76.6484 481.575 73.89C472.879 64.8747 462.865 59.8503 451.791 59.8503C441.054 59.8503 434.107 64.503 434.107 72.1164C434.107 80.9987 442.949 82.4791 454.106 83.9595L460.212 84.8054C488.632 88.4007 504 95.5911 504 116.105C504 136.619 484.843 151 457.685 151C432.435 151 416.885 138.858 407.443 125.822C405.157 122.666 406.303 118.307 409.654 116.331L416.202 112.47C419.804 110.346 424.405 111.886 426.815 115.312C434.112 125.686 445.704 131.543 458.317 131.543C471.159 131.543 481.264 125.833 481.264 116.74C481.264 107.434 469.264 106.165 458.106 104.685L452.001 103.839C425.686 100.455 411.371 91.9959 411.371 72.3279Z" fill="black"/>
<path d="M313.041 72.9968C309.558 71.0194 308.392 66.4931 310.835 63.3102C320.745 50.395 335.225 40.8167 357.173 40.8167C385.383 40.8167 403.488 57.101 403.488 81.8447V140.99C403.488 144.883 400.346 148.039 396.471 148.039H387.769C383.894 148.039 380.752 144.883 380.752 140.99V134.195C380.752 133.198 379.947 132.389 378.955 132.389C378.253 132.389 377.622 132.799 377.305 133.427C373.242 141.48 364.062 151 343.279 151C319.911 151 304.543 138.311 304.543 118.854C304.543 101.09 318.227 90.304 341.595 87.9777L377.819 84.2404C379.365 84.0808 380.541 82.772 380.541 81.2102C380.541 69.1556 371.91 61.1192 356.331 61.1192C344.004 61.1192 335.605 66.0179 329.83 73.9597C327.45 77.2335 323.055 78.6828 319.542 76.6879L313.041 72.9968ZM328.543 117.797C328.543 126.256 335.49 131.755 348.121 131.755C369.594 131.755 380.541 118.854 380.541 102.782C380.541 101.877 379.762 101.172 378.866 101.267L346.647 104.685C335.7 105.742 328.543 109.338 328.543 117.797Z" fill="black"/>
<path d="M200.626 95.8026C200.626 63.657 223.994 40.8167 254.519 40.8167C280.176 40.8167 297.426 54.4326 304.1 74.3514C305.316 77.981 302.92 81.6884 299.206 82.5521L290.731 84.523C286.677 85.4658 282.781 82.6156 281.276 78.7185C277.474 68.8794 268.625 61.7537 254.73 61.7537C236.835 61.7537 223.783 75.2887 223.783 95.8026C223.783 116.317 236.414 130.063 254.94 130.063C269.64 130.063 277.521 122.642 281.383 112.489C282.793 108.782 286.537 106.269 290.385 107.164L299.313 109.241C303.068 110.114 305.464 113.888 304.184 117.54C297.622 136.257 281.49 151 254.73 151C223.994 151 200.626 127.948 200.626 95.8026Z" fill="black"/>
<path d="M195.417 140.989C195.417 144.883 192.276 148.039 188.4 148.039H179.699C175.823 148.039 172.681 144.883 172.681 140.989V132.499C172.681 131.504 171.878 130.697 170.887 130.697C170.185 130.697 169.551 131.11 169.238 131.742C164.605 141.081 154.919 149.731 135.84 149.731C113.525 149.731 95.4199 134.081 95.4199 106.165V50.8264C95.4199 46.9331 98.5617 43.777 102.437 43.777H111.56C115.435 43.777 118.577 46.9331 118.577 50.8264V104.05C118.577 120.334 127.63 129.428 143.629 129.428C161.734 129.428 172.26 118.008 172.26 97.9169V50.8264C172.26 46.9331 175.402 43.777 179.278 43.777H188.4C192.276 43.777 195.417 46.9331 195.417 50.8264V140.989Z" fill="black"/>
<path d="M0 7.04947C0 3.15616 3.14179 0 7.01738 0H17.4031C21.2787 0 24.4205 3.15616 24.4205 7.04947V118.572C24.4205 122.465 27.5623 125.622 31.4378 125.622H87.7172C91.5928 125.622 94.7346 128.778 94.7346 132.671V140.989C94.7346 144.883 91.5928 148.039 87.7172 148.039H7.01738C3.14179 148.039 0 144.883 0 140.989V7.04947Z" fill="black"/>
</svg>
