<svg width="482" height="259" viewBox="0 0 482 259" fill="none" xmlns="http://www.w3.org/2000/svg">
<g clip-path="url(#clip0_13_1090)">
<path d="M451.944 22.493C453.799 22.3289 455.658 22.0101 457.513 22.0288C462.434 22.071 462.439 22.1273 462.88 27.3227C462.96 28.2558 462.936 29.1982 463.03 30.1267C463.166 31.4818 463.786 32.5837 465.284 32.5743C470.862 32.5509 476.492 33.634 482 31.9132V65.6737C474.187 65.6737 466.369 65.6081 458.56 65.6878C453.367 65.7441 453.198 65.7957 451.916 71.127C451.296 73.706 450.071 74.9204 447.526 74.9579C442.84 75.0282 438.149 75.0423 433.463 75.1689C431.373 75.2252 429.89 76.2192 429.617 78.4512C429.429 79.9986 429.429 81.5694 429.218 83.1073C428.979 84.8423 427.847 86.113 426.152 86.0661C421.123 85.9301 419.898 88.5981 419.832 93.0995C419.776 96.7382 419.236 96.846 415.183 97.5165C414.878 97.5681 414.554 97.5165 414.249 97.5681C409.239 98.3699 408.877 98.6091 408.816 103.237C408.699 111.977 408.755 120.718 408.736 129.458L408.769 129.425C397.449 129.397 397.087 128.431 397.622 140.557L397.449 140.73C384.991 140.711 372.534 140.641 360.077 140.702C355.612 140.725 355.034 140.983 354.452 145.067C353.968 148.467 352.607 149.785 349.24 150.239C345.39 150.765 345.16 151.365 344.892 154.938C344.728 157.109 344.728 159.289 344.653 161.46C344.207 161.446 343.765 161.404 343.324 161.338C333.717 161.174 333.487 161.287 333.661 170.641C333.67 171.246 333.651 171.851 333.646 172.456L333.506 172.592C329.848 172.592 326.19 172.592 322.532 172.592C315.019 172.582 307.507 172.507 299.994 172.606C297.247 172.643 294.2 171.72 291.838 173.694C289.678 175.499 290.767 178.387 290.199 180.75C289.791 182.453 288.697 183.559 286.987 183.62C282.611 183.78 278.23 183.714 273.85 183.845C269.196 183.981 269.196 184.037 267.839 189.017C266.853 192.637 266.482 193.022 262.82 193.167C258.758 193.326 254.687 193.251 250.626 193.425C248.907 193.5 247.761 194.611 247.452 196.323C247.231 197.546 247.315 198.822 247.118 200.05C246.545 203.628 245.921 204.275 242.324 204.402C238.572 204.533 234.811 204.528 231.06 204.383C227.702 204.252 226.618 202.972 226.637 199.703C226.66 195.994 227.331 194.489 231.032 193.575C234.22 192.787 235.769 191.615 236.187 188.164C236.643 184.375 237.403 184.014 240.972 183.897C245.038 183.765 249.114 183.925 253.175 183.784C257.537 183.634 258.514 182.462 258.444 177.97C258.434 177.346 258.401 176.718 258.326 176.099C258.049 173.914 256.716 172.704 254.584 172.69C245.822 172.639 237.061 172.643 228.299 172.732C226.618 172.751 225.336 173.764 225.026 175.513C224.754 177.042 224.735 178.617 224.552 180.164C224.298 182.317 223.068 183.639 220.889 183.658C212.752 183.728 204.615 183.747 196.478 183.672C194.299 183.653 193.148 182.218 192.932 180.08C192.773 178.528 192.731 176.962 192.486 175.424C192.195 173.609 190.852 172.887 189.171 172.728C184.828 172.31 183.509 173.881 183.415 176.957C183.377 178.204 183.354 179.47 183.138 180.694C182.832 182.396 181.72 183.55 179.987 183.615C175.611 183.784 171.23 183.733 166.854 183.864C162.149 184.009 162.154 184.056 160.82 189.003C159.834 192.665 159.472 193.059 155.843 193.195C152.406 193.322 148.955 193.162 145.513 193.289C141.367 193.434 140.855 193.978 140.193 198.128C139.567 202.048 137.335 204.156 133.497 204.453C132.563 204.524 131.624 204.547 130.684 204.594C122.528 204.449 114.368 204.303 106.212 204.158C106.296 198.855 106.306 193.547 106.503 188.243C106.615 185.21 107.4 184.436 110.32 183.934C111.546 183.723 112.814 183.765 114.058 183.648C116.269 183.442 117.335 182.096 117.556 179.986C117.65 179.058 117.603 178.106 117.753 177.187C118.373 173.469 118.969 172.789 122.378 172.667C126.435 172.521 130.506 172.667 134.568 172.549C138.92 172.423 139.503 172.315 140.024 167.987C140.554 163.598 143.184 162.079 146.781 161.591C149.856 161.174 153.021 161.446 156.139 161.268C159.688 161.061 160.609 160.199 160.759 156.752C160.937 152.701 160.858 148.64 160.98 144.584C161.045 142.456 162.172 141.096 164.365 140.833C165.915 140.646 167.483 140.627 169.023 140.397C170.779 140.135 171.723 138.953 171.939 137.246C172.136 135.699 172.131 134.128 172.357 132.59C172.61 130.846 173.789 129.533 175.461 129.688C181.522 130.26 184.011 127.531 183.833 121.646C183.8 120.525 184.781 119.377 185.298 118.242C199.022 118.251 212.747 118.256 226.477 118.265C226.477 123.259 226.698 128.262 226.411 133.242C226.139 138.034 224.641 139.75 219.781 140.585C216.762 141.105 215.659 142.385 215.18 145.325C214.503 149.48 214.231 149.442 209.86 150.094C208.935 150.23 207.986 150.202 207.07 150.371C205.319 150.694 204.413 151.862 204.216 153.573C204.108 154.502 204.079 155.444 204.112 156.377C204.234 160.166 205.357 161.221 209.291 161.31C213.231 161.399 214.452 160.808 215.104 158.117C215.602 156.058 215.053 153.672 217.194 152.19C219.326 150.718 221.688 150.127 224.265 150.131C227.073 150.136 229.895 150.127 232.694 149.911C234.389 149.78 235.619 148.669 235.746 146.92C235.952 144.125 235.971 141.316 236.009 138.512C236.131 129.542 236.117 129.495 244.658 129.43C253.405 129.364 262.158 129.397 270.91 129.411C273.094 129.411 275.286 129.411 277.465 129.575C279.151 129.706 280.404 130.654 280.71 132.393C280.977 133.922 280.987 135.493 281.17 137.04C281.423 139.197 282.682 140.444 284.842 140.514C289.213 140.65 293.589 140.632 297.961 140.772C299.637 140.824 300.924 141.649 301.379 143.393C301.534 143.994 301.539 144.631 301.694 145.232C302.792 149.433 303.656 150.197 307.009 149.967C310.188 149.752 310.934 148.715 311.08 143.989C311.165 141.185 311.174 138.372 311.099 135.563C310.967 130.682 310.93 130.686 306.136 129.402C302.22 128.351 301.882 128.112 301.769 124.619C301.637 120.568 301.628 116.502 301.736 112.451C301.849 108.245 301.975 107.724 306.436 107.11C310.131 106.604 311.136 104.738 311.24 101.558C311.324 98.9139 312.827 97.6666 315.428 97.5775C316.677 97.5353 317.931 97.4931 319.166 97.3055C320.889 97.043 321.917 95.9551 322.185 94.239C322.33 93.3199 322.265 92.3634 322.405 91.4443C323.086 87.0086 323.514 86.4271 327.439 86.3568C334.623 86.2302 341.812 86.2396 349.001 86.3474C353.133 86.4084 353.635 86.7225 354.255 91.1442C354.748 94.661 355.823 97.4228 359.73 97.3806C364.252 97.329 365.825 99.4718 365.801 103.654C365.792 105.366 366.989 106.487 368.731 106.749C369.961 106.932 371.215 106.993 372.464 107.03C375.028 107.11 376.554 108.25 376.742 110.932C376.849 112.484 376.99 114.036 377.23 115.569C377.451 116.976 378.502 117.731 379.794 117.904C387.137 118.87 388.137 117.29 388.081 111.579C388.02 105.024 388.011 98.4684 388.128 91.9179C388.203 87.5572 388.368 87.4962 392.678 86.3334C397.172 85.1189 397.341 85.0017 397.486 80.9786C397.599 77.8604 397.453 74.7375 397.557 71.6194C397.721 66.6913 398.017 66.3912 402.708 65.6644C403.628 65.519 404.586 65.58 405.506 65.4346C407.225 65.158 408.272 64.1076 408.558 62.3962C408.708 61.4771 408.647 60.5253 408.788 59.6015C409.521 54.8985 409.812 54.6172 414.737 54.4484C418.484 54.3218 422.236 54.3921 425.978 54.2327C427.683 54.1623 428.904 53.1308 429.204 51.4052C429.467 49.8766 429.476 48.3011 429.622 46.7538C429.833 44.5218 431.218 43.5184 433.322 43.312C433.942 43.2511 434.571 43.1761 435.191 43.1948C439.68 43.3402 440.689 41.5818 440.694 37.5727C440.694 35.7018 440.76 33.8263 440.797 31.9554C443.197 31.9178 445.61 31.9929 448 31.8194C450.794 31.6131 451.578 30.7972 451.864 27.89C452.043 26.1082 451.944 24.2983 451.968 22.4977L451.944 22.493Z" fill="#D6E6F3"/>
<path d="M106.193 204.158C114.349 204.303 122.51 204.449 130.666 204.589C132.628 214.947 134.117 216.18 144.057 215.688C144.682 215.655 145.306 215.632 145.926 215.571C148.114 215.355 149.26 214.089 149.471 211.951C149.593 210.708 149.626 209.456 149.758 208.218C149.978 206.094 151.119 204.796 153.307 204.613C154.552 204.509 155.805 204.495 157.054 204.495C177.062 204.481 197.069 204.472 217.077 204.486C218.631 204.486 220.194 204.603 221.739 204.781C223.106 204.936 224.045 205.794 224.294 207.126C224.585 208.65 224.575 210.225 224.843 211.754C225.355 214.699 226.148 215.557 229.106 215.622C235.666 215.763 242.235 215.777 248.799 215.702C251.555 215.669 254.57 216.509 256.983 214.699C259.284 212.968 258.195 210.066 258.716 207.707C259.087 206.024 260.097 204.777 261.839 204.758C270.272 204.664 278.7 204.65 287.133 204.721C288.875 204.735 289.908 205.991 290.227 207.684C290.401 208.598 290.326 209.56 290.467 210.479C291.209 215.205 291.5 215.5 296.397 215.65C299.834 215.754 303.276 215.618 306.713 215.707C311.643 215.843 311.643 215.89 312.958 220.625C314.127 224.846 314.198 225.047 318.64 225.094C328.641 225.197 338.647 225.108 348.649 225.169C351.837 225.188 354.067 224.349 354.457 220.682C354.804 217.367 356.988 215.862 360.232 215.754C360.857 215.735 361.477 215.655 362.101 215.59C364.336 215.341 365.322 213.962 365.477 211.843C365.566 210.596 365.604 209.349 365.721 208.106C365.923 205.907 367.219 204.805 369.365 204.617C369.989 204.561 370.619 204.585 371.234 204.486C376.521 203.661 376.652 203.576 376.784 197.968C376.892 193.289 376.84 188.605 376.859 183.92C379.967 183.911 383.076 183.906 386.179 183.901C386.198 185.463 386.109 187.034 386.264 188.576C386.63 192.229 387.057 192.614 390.767 193.2C391.072 193.247 391.396 193.209 391.701 193.256C396.758 194.011 396.998 193.992 397.416 198.615C397.824 203.126 398.125 204.481 403.712 204.472C414.019 204.453 424.33 204.458 434.637 204.439C435.571 204.439 436.506 204.359 437.431 204.233C439.187 203.994 440.159 202.896 440.478 201.204C440.591 200.594 440.642 199.961 440.642 199.342C440.675 194.452 441.295 193.2 447.634 193.261C451.381 193.298 455.133 193.247 458.88 193.181C460.917 193.143 462.509 192.37 462.988 190.171C463.373 188.389 462.899 186.307 464.486 184.947C466.308 183.386 468.618 183.869 470.754 183.836C474.501 183.784 478.253 183.841 482 183.855V247.625C478.976 247.512 475.957 247.4 472.933 247.292C472.811 245.121 472.783 242.94 472.534 240.783C472.384 239.494 471.604 238.43 470.196 238.261C463.115 237.412 456.086 235.63 448.873 237.088C447.357 237.393 445.812 237.693 444.272 237.717C442.567 237.745 441.318 236.859 441.013 235.058C440.858 234.144 440.76 233.206 440.774 232.278C440.83 227.265 438.731 226.824 435.177 226.82C424.579 226.806 413.977 226.801 403.379 226.81C402.449 226.81 401.51 226.885 400.595 227.054C399.303 227.289 398.397 227.982 397.956 229.324C397.209 231.588 398.453 234.889 395.65 235.977C393.439 236.835 390.753 236.507 388.274 236.634C386.719 236.713 385.156 236.601 383.597 236.676C378.507 236.929 377.883 237.492 376.939 242.448C376.051 247.104 376.07 247.385 371.22 247.695C367.257 247.948 365.872 248.961 365.571 253.275C365.214 258.339 364.885 258.325 360.091 258.733C358.542 258.864 356.983 258.93 355.429 259.023C344.174 258.883 332.919 258.742 321.668 258.606C319.48 258.578 317.287 258.597 315.104 258.545C312.822 258.489 311.813 257.176 311.634 255.005C311.46 252.862 311.958 250.626 310.747 248.562C308.159 247.104 305.286 247.817 302.525 247.751C297.839 247.639 293.143 247.779 288.453 247.7C285.978 247.657 283.17 248.037 281.118 247.015C278.536 245.726 279.94 242.504 279.62 240.132C279.315 237.843 277.986 236.938 275.85 236.934C267.407 236.924 258.965 236.91 250.522 236.962C248.259 236.976 247.212 238.312 247.161 240.53C247.123 242.087 247.057 243.648 246.912 245.2C246.775 246.654 245.794 247.414 244.428 247.451C238.53 247.596 232.614 248.023 226.975 247.109C224.97 244.08 227.289 240.183 224.73 237.993C221.904 235.569 218.128 237.042 214.79 236.981C205.723 236.826 196.651 237.004 187.584 236.934C183.18 236.896 183.011 236.634 182.476 232.207C182.363 231.279 182.457 230.327 182.339 229.403C182.119 227.678 181.231 226.463 179.363 226.459C170.92 226.435 162.482 226.449 154.04 226.496C152.27 226.505 151.143 227.439 150.983 229.272C150.847 230.824 150.833 232.39 150.706 233.942C150.556 235.785 149.358 236.765 147.663 236.835C144.231 236.981 140.785 236.99 137.347 236.91C134.887 236.854 132.145 237.675 130.041 236.198C127.647 234.519 129.074 231.57 128.656 229.211C128.318 227.298 127.139 226.552 125.477 226.468C122.984 226.341 120.477 226.412 117.974 226.412C105.151 226.412 92.3319 226.468 79.5085 226.388C75.245 226.36 75.0525 226.008 74.6534 221.404C74.5173 219.866 74.4233 218.323 74.32 216.954C72.2165 215.257 69.9486 215.763 67.8121 215.754C51.5517 215.697 35.2866 215.707 19.0261 215.674C16.8427 215.674 14.6405 215.665 12.4759 215.416C11.6589 215.322 10.7433 214.713 10.6823 213.564C10.5977 212.012 10.532 210.455 10.3911 208.908C10.0437 205.161 10.0155 205.138 5.79897 204.702C4.86926 204.608 3.92077 204.702 2.98638 204.617C1.18801 204.458 0.159699 203.459 0.0657893 201.64C0.00474812 200.397 -0.0375112 199.141 0.0657893 197.898C0.309954 195.033 1.24905 194.016 4.14146 193.894C9.45205 193.678 14.7673 193.631 20.0779 193.514C20.1202 195.071 19.9511 196.665 20.2422 198.175C21.2095 203.215 22.4961 204.402 27.8348 204.402C50.9366 204.402 74.0383 204.284 97.1401 204.209C100.159 204.2 103.174 204.191 106.193 204.186V204.158Z" fill="#9EB9D0"/>
<path d="M482 183.836C478.253 183.826 474.501 183.765 470.754 183.817C468.613 183.85 466.303 183.367 464.486 184.928C462.899 186.293 463.373 188.375 462.988 190.152C462.509 192.351 460.917 193.125 458.879 193.162C455.132 193.233 451.385 193.279 447.634 193.242C441.295 193.181 440.675 194.433 440.642 199.323C440.642 199.947 440.59 200.575 440.478 201.185C440.158 202.878 439.191 203.975 437.43 204.214C436.505 204.341 435.566 204.416 434.637 204.42C424.33 204.439 414.019 204.434 403.712 204.453C398.125 204.463 397.824 203.107 397.416 198.597C396.998 193.973 396.758 193.992 391.701 193.237C391.396 193.19 391.072 193.228 390.767 193.181C387.057 192.595 386.63 192.21 386.264 188.558C386.109 187.01 386.198 185.439 386.179 183.883C387.006 182.907 388.015 181.806 389.306 182.274C395.669 184.6 402.257 183.62 408.764 183.822C419.846 183.77 420.602 184.985 419.771 172.367C419.775 168.695 419.78 165.024 419.785 161.352C420.719 161.343 421.654 161.371 422.579 161.315C428.124 160.996 428.265 161.015 429.462 155.275C430.138 152.054 431.786 150.178 435.036 150.178C438.839 150.178 440.482 148.608 440.877 144.716C441.234 141.204 442.088 140.829 445.849 140.711C450.197 140.575 454.55 140.711 458.893 140.547C461.781 140.439 462.565 139.591 463.063 136.632C463.27 135.413 463.213 134.156 463.359 132.923C463.608 130.733 464.979 129.598 467.087 129.556C472.055 129.448 477.027 129.463 482 129.43V183.822V183.836Z" fill="#BFD0E2"/>
<path d="M482 129.444C477.028 129.477 472.06 129.462 467.087 129.57C464.984 129.617 463.613 130.752 463.359 132.937C463.218 134.17 463.27 135.427 463.063 136.646C462.566 139.605 461.777 140.449 458.894 140.561C454.55 140.725 450.193 140.585 445.85 140.725C442.089 140.843 441.229 141.218 440.877 144.73C440.483 148.622 438.839 150.188 435.036 150.192C431.787 150.192 430.134 152.068 429.462 155.289C428.26 161.033 428.124 161.01 422.579 161.329C421.649 161.38 420.715 161.357 419.785 161.366C416.085 161.357 412.385 161.347 408.685 161.338L408.741 161.39C408.732 160.78 408.741 160.175 408.718 159.566C408.399 152.307 408.46 152.068 401.595 150.249C398.632 149.466 397.496 148.092 397.514 145.288C397.524 143.769 397.472 142.249 397.449 140.73L397.622 140.557C409.788 141.058 408.746 140.735 408.77 129.425L408.737 129.458C410.286 129.458 411.84 129.505 413.39 129.434C419.095 129.181 419.33 129.191 419.926 123.128C420.273 119.592 421.842 118.19 425.166 118.139C427.716 118.101 429.453 116.844 429.284 114.209C429.002 109.759 431.223 105.783 431.383 101.437C431.482 98.7638 433.148 97.6619 435.661 97.6244C439.694 97.5587 443.732 97.6103 447.756 97.4321C450.578 97.3055 451.301 96.4615 451.841 93.4324C451.949 92.8276 451.879 92.1899 451.977 91.5803C452.729 86.8304 453.024 86.4318 457.795 86.3662C465.862 86.2489 473.929 86.3193 481.995 86.3099V129.448L482 129.444Z" fill="#D6E6F3"/>
<path d="M482 86.3052C473.933 86.3146 465.862 86.2442 457.8 86.3615C453.029 86.4318 452.733 86.8304 451.982 91.5756C451.883 92.1852 451.954 92.8229 451.846 93.4277C451.306 96.4568 450.583 97.3008 447.761 97.4274C443.732 97.6103 439.698 97.5587 435.665 97.6197C433.153 97.6619 431.486 98.7591 431.387 101.432C431.223 105.778 429.002 109.755 429.289 114.205C429.458 116.84 427.72 118.096 425.171 118.134C421.846 118.181 420.278 119.587 419.931 123.123C419.334 129.186 419.095 129.176 413.394 129.43C411.845 129.5 410.291 129.448 408.741 129.453C408.76 120.713 408.704 111.973 408.821 103.232C408.882 98.6044 409.244 98.3652 414.254 97.5634C414.559 97.5165 414.883 97.5634 415.188 97.5118C419.24 96.8413 419.785 96.7335 419.837 93.0948C419.902 88.5934 421.128 85.9254 426.157 86.0614C427.852 86.1082 428.979 84.8375 429.223 83.1026C429.439 81.5599 429.434 79.9891 429.622 78.4465C429.894 76.2145 431.378 75.2205 433.468 75.1642C438.154 75.0423 442.84 75.0235 447.531 74.9532C450.075 74.9157 451.301 73.6965 451.921 71.1223C453.198 65.7862 453.372 65.7347 458.565 65.6831C466.378 65.6034 474.191 65.6643 482.005 65.669V86.3005L482 86.3052Z" fill="#BFD0E2"/>
<path d="M440.774 31.9459C440.736 33.8168 440.675 35.6924 440.67 37.5633C440.67 41.5724 439.656 43.3308 435.167 43.1854C434.548 43.1667 433.918 43.2417 433.299 43.3026C431.19 43.5089 429.81 44.5124 429.599 46.7443C429.453 48.2964 429.444 49.8672 429.181 51.3958C428.885 53.1213 427.659 54.1529 425.955 54.2232C422.213 54.3827 418.461 54.3123 414.714 54.4389C409.788 54.6077 409.497 54.8891 408.765 59.5921C408.624 60.5112 408.685 61.4677 408.535 62.3867C408.253 64.0982 407.201 65.1485 405.483 65.4252C404.562 65.5752 403.609 65.5143 402.684 65.655C397.989 66.3864 397.697 66.6818 397.533 71.61C397.43 74.7281 397.575 77.8557 397.463 80.9691C397.317 84.9923 397.143 85.1095 392.655 86.3239C388.344 87.4868 388.18 87.5478 388.105 91.9085C387.992 98.459 387.997 105.014 388.058 111.569C388.109 117.281 387.109 118.856 379.77 117.895C378.474 117.726 377.422 116.966 377.206 115.56C376.967 114.026 376.826 112.474 376.718 110.922C376.53 108.24 375.004 107.101 372.441 107.021C371.196 106.984 369.938 106.923 368.708 106.74C366.966 106.482 365.768 105.361 365.778 103.645C365.801 99.4671 364.228 97.3243 359.706 97.3712C355.804 97.4134 354.724 94.6516 354.231 91.1348C353.612 86.7131 353.114 86.399 348.977 86.338C341.793 86.2302 334.6 86.2208 327.416 86.3474C323.49 86.4177 323.058 86.9992 322.382 91.4349C322.241 92.3586 322.307 93.3105 322.161 94.2296C321.889 95.941 320.865 97.0336 319.142 97.2961C317.912 97.4837 316.654 97.5259 315.405 97.5681C312.808 97.6525 311.305 98.8998 311.216 101.549C311.113 104.728 310.108 106.594 306.413 107.101C301.952 107.715 301.825 108.236 301.713 112.442C301.605 116.493 301.614 120.558 301.745 124.609C301.858 128.098 302.196 128.342 306.112 129.392C310.902 130.677 310.944 130.672 311.075 135.553C311.15 138.362 311.141 141.171 311.057 143.98C310.911 148.706 310.164 149.742 306.986 149.958C303.633 150.183 302.769 149.423 301.67 145.222C301.515 144.622 301.511 143.984 301.356 143.384C300.9 141.64 299.614 140.819 297.937 140.763C293.566 140.622 289.19 140.646 284.818 140.505C282.654 140.435 281.4 139.187 281.146 137.03C280.963 135.483 280.954 133.912 280.686 132.384C280.381 130.644 279.132 129.692 277.442 129.566C275.268 129.397 273.075 129.402 270.887 129.402C262.134 129.387 253.387 129.355 244.634 129.42C236.093 129.486 236.103 129.533 235.985 138.503C235.948 141.307 235.929 144.116 235.722 146.91C235.591 148.659 234.361 149.77 232.67 149.902C229.872 150.117 227.054 150.131 224.242 150.122C221.664 150.117 219.298 150.704 217.171 152.181C215.029 153.662 215.579 156.049 215.081 158.107C214.428 160.804 213.212 161.394 209.268 161.301C205.333 161.211 204.211 160.156 204.089 156.368C204.061 155.435 204.089 154.492 204.192 153.564C204.389 151.852 205.296 150.685 207.047 150.361C207.963 150.192 208.911 150.221 209.836 150.085C214.208 149.433 214.48 149.47 215.156 145.316C215.635 142.376 216.739 141.096 219.758 140.575C224.618 139.741 226.115 138.025 226.388 133.232C226.669 128.257 226.453 123.25 226.453 118.256C230.956 118.05 236.356 119.466 236.591 112.048C236.638 110.557 238.314 109.492 239.92 109.126C241.132 108.85 242.39 108.798 243.63 108.653C245.794 108.39 246.991 107.148 247.104 105.005C247.222 102.829 247.203 100.644 247.207 98.4637C247.222 92.8557 247.146 87.2477 247.236 81.6397C247.32 76.2567 247.367 76.1348 252.682 75.0657C254.95 74.6109 257.538 74.1232 257.81 71.7788C258.514 65.7065 262.388 65.308 267.121 65.6315C269.605 65.8003 272.117 65.7112 274.606 65.5659C277.996 65.3642 278.968 64.4452 279.062 60.9003C279.212 54.9829 279.132 49.0607 279.146 43.1432C279.634 32.7524 279.634 32.6868 289.655 32.7431C293.618 32.7665 297.627 32.1476 301.544 33.287C301.59 34.5249 301.595 35.7675 301.689 37.0053C302.041 41.7693 302.018 41.9147 307.483 43.1948C310.136 43.8184 311.061 45.2954 311.085 47.7384C311.108 49.9094 311.118 52.0804 311.141 54.2467C311.169 56.7272 311.155 59.2076 311.254 61.6834C311.338 63.7794 312.371 65.1767 314.573 65.444C315.494 65.5565 316.433 65.6503 317.358 65.6221C320.889 65.5143 322.391 67.3242 322.452 70.705C322.476 71.9241 322.579 73.2605 323.734 74.0388C325.979 75.5487 328.472 75.1267 330.909 74.7187C332.74 74.414 333.496 72.951 333.468 71.3427C333.393 66.8694 335.703 65.2517 339.873 65.5846C340.178 65.6081 340.497 65.5659 340.798 65.5143C343.779 64.9797 344.643 64.2576 344.728 61.3692C344.906 55.4846 344.883 49.5905 344.939 43.7012C348.353 43.4011 351.762 43.0963 355.175 42.7962C361.087 42.8853 366.998 43.0213 372.91 43.0354C375.042 43.04 376.601 41.8491 376.591 39.6781C376.568 35.6409 378.54 33.2542 382.24 32.2226C384.602 31.5614 386.006 30.3564 386.273 27.8009C386.673 24.0075 389.138 22.5446 392.72 22.5446C403.309 22.5492 413.897 22.5586 424.485 22.5586C426.866 22.5586 428.927 23.1588 429.242 25.9019C429.786 30.6424 432.688 32.1288 437.027 31.9037C438.266 31.8381 439.515 31.9225 440.764 31.9366L440.774 31.9459Z" fill="#FDFEFE"/>
<path d="M106.193 204.158C103.174 204.167 100.159 204.177 97.1401 204.186C97.0932 202.634 96.9899 201.077 97.0133 199.525C97.0838 194.766 96.0742 193.031 91.2567 193.247C87.2702 193.425 85.6597 191.479 85.5939 187.685C85.547 184.994 83.8144 183.911 81.2976 183.869C78.8043 183.826 76.3157 183.812 73.8224 183.798C63.2294 183.742 52.6411 183.686 42.0481 183.629C42.4284 180.286 42.8135 176.938 43.1797 173.698C45.565 171.963 48.1334 172.671 50.5563 172.643C57.3976 172.559 64.2436 172.61 71.0896 172.629C73.2589 172.634 74.6488 171.86 74.6159 169.45C74.6018 168.207 74.5737 166.96 74.677 165.722C74.9493 162.407 75.4564 161.779 78.4756 161.69C82.8283 161.558 87.1857 161.676 91.5431 161.582C95.8676 161.488 96.1118 161.197 96.4921 156.827C96.5438 156.208 96.4734 155.58 96.5297 154.966C96.8443 151.632 97.2481 151.088 100.324 151.05C107.789 150.947 115.255 150.99 122.726 150.947C124.275 150.938 125.844 150.919 127.37 150.68C128.778 150.455 129.069 149.067 129.6 147.979C132.018 148.42 134.493 148.654 136.836 149.348C139.583 150.164 142.325 150.042 145.095 150.019C147.574 149.995 149.434 149.025 149.415 146.329C149.382 141.71 152.082 139.774 156.111 138.939C156.716 138.812 157.331 138.751 157.932 138.625C160.2 138.151 160.74 136.454 160.764 134.475C160.825 129.725 158.834 127.066 154.148 125.847C152.983 125.542 151.692 125.721 150.457 125.674C150.312 125.074 150.035 124.473 150.039 123.873C150.082 119.161 150.307 118.879 154.35 118.542C155.895 118.411 157.454 118.443 158.998 118.284C160.013 118.181 160.52 117.393 160.759 116.455C161.421 113.844 159.628 110.589 162.158 108.592C164.464 106.773 167.629 108.245 170.314 107.467C170.911 107.293 171.493 107.082 172.085 106.885C172.737 107.527 173.371 108.198 174.047 108.812C177.668 112.109 182.518 113.942 185.293 118.246C184.776 119.381 183.795 120.53 183.828 121.651C184.006 127.535 181.513 130.269 175.456 129.692C173.784 129.533 172.606 130.85 172.352 132.595C172.127 134.133 172.132 135.708 171.934 137.251C171.718 138.958 170.775 140.139 169.018 140.402C167.478 140.632 165.91 140.65 164.361 140.838C162.168 141.1 161.041 142.465 160.975 144.589C160.853 148.645 160.933 152.706 160.754 156.757C160.604 160.199 159.684 161.066 156.134 161.272C153.016 161.455 149.852 161.179 146.776 161.596C143.179 162.084 140.55 163.603 140.019 167.992C139.498 172.32 138.916 172.432 134.563 172.554C130.501 172.671 126.435 172.526 122.374 172.671C118.965 172.793 118.364 173.473 117.749 177.192C117.594 178.111 117.645 179.062 117.551 179.991C117.335 182.101 116.265 183.442 114.053 183.653C112.809 183.77 111.541 183.728 110.316 183.939C107.395 184.441 106.611 185.214 106.498 188.248C106.301 193.551 106.296 198.859 106.207 204.162L106.193 204.158Z" fill="white"/>
<path d="M185.283 118.242C182.508 113.937 177.658 112.104 174.038 108.808C173.361 108.189 172.728 107.523 172.075 106.88C172.042 104.695 172.009 102.515 171.981 100.33C171.957 98.4965 172.77 97.3712 174.695 97.3665C183.447 97.3384 192.195 97.329 200.947 97.3337C203.319 97.3337 204.173 98.7075 204.112 100.916C204.079 102.163 204.154 103.411 204.173 104.658C204.201 106.519 205.253 107.452 207 107.663C207.925 107.776 208.873 107.828 209.803 107.767C214.752 107.443 219.762 108.634 224.655 107.124C227.406 102.524 225.472 97.479 226.012 92.6682C226.218 90.8348 226.317 88.9873 226.448 87.3696C228.425 86.0379 230.346 86.5022 232.182 86.3662C236.215 86.0708 236.286 86.0661 236.342 81.9539C236.417 76.6788 236.361 71.4037 236.361 66.3959C237.497 65.866 238.037 65.5143 238.624 65.3596C241.281 64.675 244.831 66.424 246.54 63.9623C247.771 62.1852 247.217 59.1795 247.484 56.7225C247.639 55.3252 248.461 54.5093 249.851 54.3405C250.776 54.228 251.72 54.2655 252.649 54.1811C255.873 53.8872 257.641 52.0789 257.95 48.7559C258.068 47.5227 258.195 46.2942 258.368 45.0657C258.411 44.775 258.636 44.5077 259.068 43.6637C265.552 43.4949 272.351 43.3167 279.146 43.1385C279.132 49.056 279.212 54.9782 279.061 60.8957C278.972 64.4452 277.995 65.3643 274.605 65.5612C272.117 65.7066 269.605 65.7957 267.121 65.6269C262.388 65.3033 258.514 65.7019 257.81 71.7741C257.537 74.1186 254.955 74.6062 252.682 75.0611C247.367 76.1302 247.32 76.2521 247.235 81.635C247.146 87.243 247.221 92.851 247.207 98.459C247.202 100.639 247.217 102.824 247.104 105C246.991 107.143 245.794 108.39 243.629 108.648C242.39 108.798 241.131 108.85 239.92 109.122C238.314 109.487 236.638 110.552 236.591 112.043C236.356 119.461 230.956 118.045 226.453 118.251C212.728 118.246 198.999 118.237 185.274 118.232L185.283 118.242Z" fill="white"/>
<path d="M440.774 31.946C439.529 31.9319 438.28 31.8475 437.036 31.9131C432.702 32.1429 429.8 30.6565 429.251 25.9113C428.936 23.1635 426.875 22.568 424.495 22.568C413.906 22.568 403.318 22.5586 392.73 22.554C389.142 22.554 386.682 24.0122 386.283 27.8103C386.015 30.3658 384.607 31.5708 382.249 32.232C378.549 33.2683 376.577 35.6503 376.601 39.6875C376.615 41.8585 375.051 43.0495 372.919 43.0448C367.008 43.0307 361.096 42.8947 355.185 42.8056C355.171 42.4962 355.142 42.182 355.152 41.8725C355.296 36.0426 358.277 32.8009 364.097 32.1476C364.383 32.1148 364.655 31.9272 364.932 31.8147C366.073 30.1313 365.595 28.2042 365.759 26.3708C366.078 22.765 366.261 22.5633 369.346 22.2163C373.86 21.7037 376.249 19.2482 376.511 14.85C376.568 13.9262 376.732 13.0119 376.882 11.8209C383.48 9.95469 390.452 11.9756 396.735 10.6299C398.759 7.40389 396.312 3.51673 398.89 1.35981C401.698 -0.994057 405.501 0.450146 408.849 0.332922C414.46 0.135985 420.086 0.225075 425.701 0.332922C429.899 0.412634 430.129 0.736173 430.603 5.2751C430.669 5.89404 430.58 6.52705 430.646 7.14131C431.017 10.5783 431.242 10.8362 434.43 11.1035C435.984 11.2348 437.571 11.0754 439.093 11.3426C439.9 11.4833 440.783 12.0507 440.774 13.2417C440.764 14.7984 440.797 16.3598 440.929 17.9072C441.032 19.0982 441.318 20.2704 441.553 21.6349C445.192 21.935 448.573 22.2117 451.954 22.493C451.93 24.2936 452.029 26.1035 451.85 27.8853C451.564 30.7925 450.775 31.6084 447.986 31.8147C445.596 31.9929 443.187 31.9178 440.783 31.9507L440.774 31.946Z" fill="white"/>
<path d="M42.0479 183.63C52.6409 183.686 63.2292 183.737 73.8222 183.798C76.3155 183.812 78.8041 183.826 81.2974 183.869C83.8141 183.911 85.5468 184.994 85.5937 187.685C85.6548 191.484 87.27 193.425 91.2565 193.247C96.074 193.031 97.0836 194.766 97.0131 199.525C96.9897 201.077 97.093 202.634 97.1399 204.186C74.0382 204.261 50.9411 204.378 27.8394 204.378C22.5006 204.378 21.2141 203.192 20.2468 198.151C19.9557 196.641 20.1247 195.047 20.0824 193.49C20.7023 186.748 24.36 183.383 31.0558 183.395C34.7182 183.409 38.3854 183.545 42.0479 183.63Z" fill="#D6E6F3"/>
<path d="M344.948 43.7106C344.887 49.6 344.915 55.494 344.737 61.3786C344.648 64.2671 343.789 64.9892 340.807 65.5237C340.502 65.58 340.187 65.6222 339.882 65.594C335.712 65.2611 333.407 66.8788 333.477 71.3521C333.505 72.9604 332.754 74.4234 330.918 74.7281C328.481 75.1314 325.988 75.5534 323.744 74.0482C322.588 73.2746 322.48 71.9335 322.462 70.7144C322.401 67.329 320.893 65.5237 317.367 65.6315C316.442 65.6597 315.503 65.5659 314.583 65.4534C312.381 65.1861 311.348 63.7888 311.263 61.6928C311.16 59.217 311.178 56.7366 311.15 54.2561C311.127 52.0851 311.113 49.9141 311.094 47.7478C311.07 45.3049 310.145 43.8278 307.493 43.2042C302.027 41.9241 302.05 41.7788 301.698 37.0148C301.609 35.7769 301.6 34.539 301.553 33.2964C311.338 31.6975 321.18 32.7759 330.993 32.7197C332.801 32.7103 333.609 34.056 333.698 35.7675C333.778 37.3008 333.773 38.8388 333.825 40.3767C333.886 42.2148 334.928 43.1104 336.694 43.2276C339.445 43.4105 342.201 43.5559 344.958 43.7153L344.948 43.7106Z" fill="#D6E6F3"/>
<path d="M150.452 125.674C151.687 125.721 152.979 125.543 154.143 125.847C158.829 127.066 160.82 129.725 160.759 134.475C160.735 136.449 160.195 138.146 157.928 138.625C157.322 138.751 156.707 138.812 156.106 138.939C152.077 139.769 149.377 141.705 149.41 146.329C149.429 149.025 147.569 149.995 145.09 150.019C142.32 150.042 139.578 150.164 136.831 149.348C134.492 148.654 132.013 148.42 129.595 147.979C129.464 146.441 129.276 144.903 129.21 143.356C129.13 141.471 130.196 140.693 131.999 140.388C134.375 139.98 137.244 141.405 139.07 139.122C140.737 137.035 139.526 134.278 140 131.863C140.268 130.494 140.949 129.622 142.428 129.566C143.991 129.509 145.555 129.416 147.114 129.425C149.696 129.444 149.8 127.329 150.457 125.674H150.452Z" fill="white"/>
<path d="M376.849 183.916C376.831 188.6 376.887 193.284 376.774 197.964C376.643 203.572 376.516 203.656 371.224 204.481C370.609 204.575 369.975 204.556 369.355 204.613C367.21 204.8 365.914 205.902 365.712 208.101C365.599 209.344 365.562 210.591 365.468 211.838C365.317 213.958 364.331 215.336 362.092 215.585C361.472 215.655 360.847 215.73 360.223 215.749C356.978 215.857 354.795 217.362 354.447 220.677C354.062 224.344 351.832 225.183 348.639 225.164C338.638 225.103 328.632 225.193 318.63 225.089C314.188 225.042 314.118 224.841 312.949 220.621C311.634 215.885 311.634 215.838 306.704 215.702C303.267 215.608 299.825 215.749 296.388 215.646C291.495 215.496 291.199 215.2 290.457 210.474C290.312 209.55 290.387 208.594 290.218 207.679C289.899 205.987 288.866 204.73 287.124 204.716C278.691 204.645 270.262 204.664 261.829 204.753C260.087 204.772 259.078 206.019 258.707 207.703C258.185 210.061 259.275 212.964 256.974 214.694C254.56 216.509 251.546 215.669 248.79 215.697C242.225 215.772 235.661 215.763 229.097 215.618C226.139 215.552 225.345 214.694 224.833 211.749C224.566 210.221 224.575 208.645 224.284 207.121C224.03 205.794 223.091 204.936 221.73 204.777C220.185 204.599 218.621 204.486 217.067 204.481C197.06 204.467 177.052 204.481 157.045 204.491C155.796 204.491 154.542 204.505 153.298 204.608C151.11 204.791 149.973 206.085 149.748 208.214C149.617 209.456 149.588 210.704 149.462 211.946C149.246 214.084 148.105 215.346 145.917 215.566C145.297 215.627 144.668 215.65 144.048 215.683C134.107 216.18 132.619 214.947 130.656 204.585C131.591 204.538 132.534 204.514 133.469 204.444C137.307 204.15 139.539 202.042 140.165 198.118C140.827 193.964 141.338 193.425 145.485 193.279C148.926 193.157 152.373 193.317 155.815 193.186C159.44 193.05 159.806 192.656 160.792 188.994C162.121 184.052 162.121 184 166.826 183.855C171.202 183.719 175.587 183.77 179.959 183.606C181.691 183.54 182.809 182.392 183.109 180.685C183.325 179.461 183.349 178.195 183.386 176.948C183.48 173.872 184.8 172.306 189.143 172.718C190.824 172.878 192.167 173.6 192.458 175.414C192.702 176.952 192.745 178.519 192.904 180.071C193.125 182.209 194.271 183.644 196.449 183.662C204.587 183.737 212.724 183.719 220.861 183.648C223.035 183.629 224.265 182.307 224.524 180.155C224.707 178.608 224.725 177.032 224.998 175.504C225.308 173.755 226.594 172.742 228.27 172.723C237.032 172.639 245.794 172.629 254.556 172.681C256.688 172.695 258.021 173.9 258.298 176.09C258.378 176.709 258.406 177.337 258.415 177.961C258.491 182.453 257.509 183.625 253.147 183.775C249.081 183.916 245.005 183.756 240.944 183.887C237.375 184.005 236.61 184.366 236.159 188.154C235.746 191.605 234.191 192.778 231.003 193.565C227.303 194.48 226.632 195.985 226.608 199.694C226.59 202.957 227.674 204.242 231.031 204.373C234.783 204.519 238.544 204.524 242.296 204.392C245.897 204.266 246.517 203.619 247.09 200.041C247.287 198.812 247.203 197.537 247.423 196.313C247.733 194.602 248.884 193.49 250.597 193.415C254.659 193.242 258.73 193.317 262.792 193.157C266.449 193.017 266.82 192.628 267.811 189.008C269.173 184.028 269.168 183.972 273.821 183.836C278.197 183.705 282.583 183.77 286.959 183.611C288.673 183.55 289.762 182.443 290.171 180.741C290.739 178.378 289.65 175.489 291.81 173.684C294.167 171.71 297.219 172.634 299.966 172.596C307.478 172.493 314.991 172.573 322.499 172.582C322.485 175.044 322.349 177.515 322.495 179.972C322.645 182.574 323.95 183.606 326.763 183.672C329.392 183.733 331.519 183.24 331.928 179.789C332.214 177.36 332.942 174.988 333.477 172.592C333.477 172.592 333.618 172.456 333.618 172.46C336.698 172.484 339.779 172.503 342.859 172.521C347.916 172.535 352.973 172.554 358.035 172.568C360.523 172.568 363.012 172.568 365.5 172.568C377.638 172.578 376.737 171.931 376.826 183.911L376.849 183.916Z" fill="#BFD0E2"/>
<path d="M397.449 140.735C397.472 142.254 397.524 143.773 397.514 145.292C397.496 148.096 398.632 149.47 401.595 150.253C408.459 152.073 408.398 152.312 408.718 159.57C408.746 160.175 408.737 160.785 408.741 161.394C394.406 161.469 380.066 161.54 365.731 161.615C360.603 161.629 355.48 161.638 350.353 161.652C348.451 161.596 346.55 161.535 344.648 161.479C344.723 159.303 344.728 157.123 344.887 154.956C345.155 151.383 345.385 150.779 349.235 150.258C352.607 149.799 353.964 148.486 354.447 145.086C355.03 141.002 355.607 140.744 360.073 140.721C372.53 140.655 384.987 140.73 397.444 140.749L397.449 140.735Z" fill="#FDFEFE"/>
<path d="M408.769 129.43C408.746 140.739 409.783 141.063 397.622 140.561C397.087 128.431 397.453 129.402 408.769 129.43Z" fill="#BFD0E2"/>
<path d="M344.648 161.474C346.55 161.53 348.451 161.591 350.353 161.643C350.71 164.695 352.654 166.688 355.053 168.217C356.744 169.291 357.917 170.528 358.058 172.578C353.001 172.564 347.944 172.545 342.887 172.531C343.033 168.803 343.174 165.075 343.319 161.352C343.761 161.423 344.202 161.46 344.648 161.474Z" fill="#C0D0E2"/>
<path d="M333.501 172.601C332.97 174.997 332.238 177.374 331.951 179.799C331.543 183.25 329.416 183.742 326.786 183.681C323.974 183.615 322.668 182.589 322.518 179.981C322.377 177.529 322.509 175.058 322.523 172.592C326.181 172.592 329.843 172.592 333.501 172.592V172.601Z" fill="#FBFBF8"/>
<path d="M343.319 161.348C343.173 165.075 343.033 168.803 342.887 172.526C339.807 172.507 336.722 172.484 333.642 172.465C333.646 171.86 333.665 171.255 333.656 170.65C333.477 161.296 333.712 161.183 343.319 161.348Z" fill="#FBFBF8"/>
<path d="M365.726 161.61C380.061 161.535 394.401 161.465 408.737 161.39L408.68 161.338C408.713 165.075 408.746 168.812 408.779 172.549C408.774 176.31 408.765 180.075 408.76 183.836C402.252 183.634 395.664 184.61 389.302 182.288C388.011 181.815 387.001 182.921 386.175 183.897C383.066 183.901 379.958 183.911 376.854 183.916C376.765 171.935 377.667 172.582 365.529 172.573C365.595 168.92 365.665 165.263 365.731 161.61H365.726Z" fill="#C0D0E2"/>
<path d="M408.76 183.836C408.764 180.075 408.774 176.31 408.779 172.549C412.441 172.493 416.103 172.437 419.766 172.381C420.597 185.003 419.841 183.784 408.76 183.836Z" fill="#D6E6F3"/>
<path d="M419.766 172.381C416.104 172.437 412.441 172.493 408.779 172.549C408.746 168.812 408.713 165.075 408.68 161.338C412.38 161.348 416.085 161.357 419.78 161.366C419.771 165.038 419.766 168.709 419.761 172.381H419.766Z" fill="#FBFBF8"/>
<path d="M365.726 161.61C365.66 165.263 365.59 168.92 365.524 172.573C363.036 172.573 360.547 172.573 358.058 172.573C357.917 170.524 356.744 169.286 355.053 168.212C352.649 166.684 350.705 164.691 350.353 161.638C355.476 161.629 360.603 161.615 365.731 161.605L365.726 161.61Z" fill="#D6E6F3"/>
</g>
<defs>
<clipPath id="clip0_13_1090">
<rect width="482" height="259" fill="white"/>
</clipPath>
</defs>
</svg>
