<svg width="14" height="20" viewBox="0 0 14 20" fill="none" xmlns="http://www.w3.org/2000/svg">
<path d="M8.59717 20C6.83587 20 5.40297 18.6224 5.40297 16.9291C5.40297 15.3728 6.61389 14.0618 8.21955 13.8794C8.58409 13.838 8.88887 13.5936 8.99663 13.2564C9.10452 12.919 8.99514 12.5524 8.7176 12.3213C8.34282 12.0092 8.04477 11.6134 7.85529 11.1764C7.7114 10.8444 7.37397 10.6283 6.99987 10.6283C6.62576 10.6283 6.28833 10.8445 6.14444 11.1766C5.64572 12.3273 4.48753 13.0709 3.19393 13.0709C1.43291 13.0709 0 11.6933 0 9.99993C0 8.44366 1.21092 7.13257 2.81659 6.95027C3.18112 6.90891 3.48591 6.66451 3.59366 6.32727C3.70155 5.9899 3.59204 5.62323 3.31463 5.39218C2.61187 4.80691 2.20877 3.9609 2.20877 3.07093C2.20877 1.37761 3.64167 0 5.40297 0C7.16426 0 8.59717 1.37761 8.59717 3.07093C8.59717 4.62707 7.38624 5.93817 5.78058 6.12046C5.41605 6.16182 5.11126 6.40623 5.00351 6.74347C4.89562 7.08083 5.00499 7.4475 5.28254 7.67855C5.65732 7.99064 5.95536 8.38648 6.14457 8.8233C6.28847 9.15535 6.62589 9.37162 7 9.37162C7.37411 9.37162 7.71153 9.15535 7.85543 8.82343C8.35428 7.67259 9.51234 6.92901 10.8059 6.92901C12.5671 6.92901 14 8.30661 14 9.99993C14 11.5562 12.7891 12.8672 11.1835 13.0496C10.819 13.091 10.5142 13.3354 10.4065 13.6726C10.2986 14.01 10.408 14.3766 10.6855 14.6077C11.3883 15.1931 11.7914 16.0392 11.7914 16.9291C11.7914 18.6224 10.3585 20 8.59717 20Z" fill="white"/>
</svg>
