<svg width="430" height="152" viewBox="0 0 430 152" fill="none" xmlns="http://www.w3.org/2000/svg">
<g clip-path="url(#clip0_24_1647)">
<path d="M160.002 110.216V146.981H58.6782V141.099H41.1049V135.217H35.3163V129.334H29.4307V116.929H23.5451V152H17.6581V116.929H11.7725V110.216H160.002Z" fill="#197FD1"/>
<path d="M232.591 111.423V146.981H129.089V117.136H134.053V111.423H232.591Z" fill="#B4BBC7"/>
<path d="M303.747 129.333V123.451H273.712V129.333H303.747Z" fill="#383F98"/>
<path d="M406.455 70.7201V88.1573H418.58V94.0393H421.04V99.9213H418.58V105.805H401.015V111.301H26.4873V87.5162H29.4308V81.6328H41.0578V76.4728H93.5379V70.5908H99.4249V64.7088H105.311V58.8254H116.765V52.9434H128.218V47.0601H209.445V52.9434H256.063V58.8254H331.2V52.9434H343.062V47.0601H348.949V41.1781H354.835V35.2961H360.72V29.4127H366.607V23.5307H372.493V18.663H421.04V36.1002H418.227V53.5388H412.342V70.7201H406.455Z" fill="white"/>
<path d="M168.831 65.032H139.991V82.3803H168.831V65.032Z" fill="#67B7D8"/>
<path d="M93.5382 76.4728H41.0581V82.3561H93.5382V76.4728Z" fill="black"/>
<path d="M58.6783 135.217H41.105V141.099H58.6783V135.217Z" fill="black"/>
<path d="M41.2034 129.334H35.3164V135.217H41.2034V129.334Z" fill="black"/>
<path d="M46.9745 117.569H41.0889V123.451H46.9745V117.569Z" fill="#383F98"/>
<path d="M93.5341 102.385H87.6484V108.267H93.5341V102.385Z" fill="#383F98"/>
<path d="M145.742 102.385H93.5337V108.267H145.742V102.385Z" fill="#197FD1"/>
<path d="M134.053 128.9H122.362V135.216H134.053V128.9Z" fill="black"/>
<path d="M134.053 117.136H122.362V123.018H134.053V117.136Z" fill="black"/>
<path d="M145.743 117.135H134.053V123.017H145.743V117.135Z" fill="#FDFDFE"/>
<path d="M151.471 111.253H139.781V117.135H151.471V111.253Z" fill="#FDFDFE"/>
<path d="M122.364 123.018H116.519V128.9H122.364V123.018Z" fill="black"/>
<path d="M139.897 123.018H122.362V128.9H139.897V123.018Z" fill="#FDFDFE"/>
<path d="M139.898 111.253H134.053V117.136H139.898V111.253Z" fill="black"/>
<path d="M151.606 105.663H145.761V111.545H151.606V105.663Z" fill="#197FD1"/>
<path d="M209.484 105.663H151.606V111.545H209.484V105.663Z" fill="#383F98"/>
<path d="M145.743 105.461H139.898V111.343H145.743V105.461Z" fill="black"/>
<path d="M157.408 99.7812H145.761V105.663H157.408V99.7812Z" fill="black"/>
<path d="M197.995 99.7812H157.408V105.663H197.995V99.7812Z" fill="#197FD1"/>
<path d="M197.995 93.8992H157.408V99.7812H197.995V93.8992Z" fill="black"/>
<path d="M209.483 99.7812H197.996V105.663H209.483V99.7812Z" fill="black"/>
<path d="M215.369 105.663H209.483V111.545H215.369V105.663Z" fill="black"/>
<path d="M221.255 111.547H215.369V123.693H221.255V111.547Z" fill="black"/>
<path d="M197.995 111.423H192.11V117.305H197.995V111.423Z" fill="#657E87"/>
<path d="M203.881 117.305H197.996V123.187H203.881V117.305Z" fill="#657E87"/>
<path d="M209.768 123.187H203.882V135.666H209.768V123.187Z" fill="#657E87"/>
<path d="M221.634 123.187H209.768V126.003H221.634V123.187Z" fill="#657E87"/>
<path d="M232.806 128.945H226.531V135.216H232.806V128.945Z" fill="black"/>
<path d="M87.6481 102.385H29.4307V108.267H87.6481V102.385Z" fill="#197FD1"/>
<path d="M41.202 102.555H35.3164V117.569H41.202V102.555Z" fill="#383F98"/>
<path d="M41.202 87.5283H35.3164V102.542H41.202V87.5283Z" fill="#B8BEC8"/>
<path d="M93.4193 82.3547H87.5337V102.541H93.4193V82.3547Z" fill="#B2BBC5"/>
<path d="M93.4193 108.267H87.5337V111.3H93.4193V108.267Z" fill="#AFB7C0"/>
<path d="M93.4193 111.3H87.5337V123.018H93.4193V111.3Z" fill="#383F98"/>
<path d="M87.5326 123.018H81.647V135.216H87.5326V123.018Z" fill="#383F98"/>
<path d="M64.3159 88.2367V82.3547H41.2033V88.2367H64.3159Z" fill="#B8BEC8"/>
<path d="M116.764 88.2367V82.3547H105.208V88.2367H116.764Z" fill="#687F89"/>
<path d="M116.765 82.3547H122.651V70.8062H116.765V82.3547Z" fill="#687F89"/>
<path d="M139.856 76.5806H145.742V70.8063H139.856V76.5806Z" fill="#BBE1EA"/>
<path d="M145.742 70.9127H151.627V65.0307H145.742V70.9127Z" fill="#BBE1EA"/>
<path d="M162.946 76.5806H168.832V70.6986H162.946V76.5806Z" fill="#BBE1EA"/>
<path d="M157.06 82.3547H162.946V76.4727H157.06V82.3547Z" fill="#BBE1EA"/>
<path d="M134.105 82.3547H139.991V76.4727H134.105V82.3547Z" fill="#BBE1EA"/>
<path d="M168.833 88.1088H174.718V65.0306H168.833V88.1088Z" fill="#617D87"/>
<path d="M128.22 88.1101H134.105V76.5616H128.22V88.1101Z" fill="#617D87"/>
<path d="M122.65 70.8063H128.536V64.9243H122.65V70.8063Z" fill="#687F89"/>
<path d="M128.22 64.923H134.105V59.041H128.22V64.923Z" fill="#687F89"/>
<path d="M139.992 65.0576H168.833V59.1756H139.992V65.0576Z" fill="#617D87"/>
<path d="M180.633 70.6985H203.74V64.8165H180.633V70.6985Z" fill="#637F87"/>
<path d="M215.369 76.5806H238.477V70.6986H215.369V76.5806Z" fill="#657F88"/>
<path d="M215.369 76.5791V88.1088H221.255V76.5791H215.369Z" fill="#657F88"/>
<path d="M238.477 76.5791V88.1088H244.362V76.5791H238.477Z" fill="#657F88"/>
<path d="M221.154 88.1101H238.727V82.2281H221.154V88.1101Z" fill="#657F88"/>
<path d="M180.633 88.1815H203.74V82.2995H180.633V88.1815Z" fill="#637F87"/>
<path d="M203.74 70.6796V88.1088H209.625V70.6796H203.74Z" fill="#637F87"/>
<path d="M180.632 70.5261V82.3615H186.518V70.5261H180.632Z" fill="#637F87"/>
<path d="M186.286 70.5262V82.3616H192.172V70.5262H186.286Z" fill="#67B7D8"/>
<path d="M191.936 70.5261V76.4081H197.822V70.5261H191.936Z" fill="#67B7D8"/>
<path d="M191.936 76.4095V82.2915H197.822V76.4095H191.936Z" fill="#BEE4EC"/>
<path d="M197.838 70.5261V76.4081H203.724V70.5261H197.838Z" fill="#BEE4EC"/>
<path d="M197.838 76.4095V82.2915H203.724V76.4095H197.838Z" fill="#67B7D8"/>
<path d="M221.108 76.4095V82.2915H226.994V76.4095H221.108Z" fill="#67B7D8"/>
<path d="M226.922 76.4095V82.2915H232.808V76.4095H226.922Z" fill="#BEE4EC"/>
<path d="M232.589 76.4082V82.2902H238.475V76.4082H232.589Z" fill="#67B7D8"/>
<path d="M133.128 88.1101H168.832V82.2281H133.128V88.1101Z" fill="#617D87"/>
<path d="M116.764 82.3548V76.4728H93.5365V82.3548H116.764Z" fill="#687F89"/>
<path d="M23.5452 111.046H17.6582V146.117H23.5452V111.046Z" fill="black"/>
<path d="M17.6581 111.046H11.7725V116.929H17.6581V111.046Z" fill="black"/>
<path d="M11.7714 105.162H5.88574V111.044H11.7714V105.162Z" fill="black"/>
<path d="M5.88563 99.2802H0V105.162H5.88563V99.2802Z" fill="black"/>
<path d="M17.6581 93.3982H11.7725V99.2802H17.6581V93.3982Z" fill="#B3BCC6"/>
<path d="M17.6581 105.162H11.7725V111.044H17.6581V105.162Z" fill="#627A82"/>
<path d="M23.5438 93.3982H17.6582V99.2802H23.5438V93.3982Z" fill="#CEDEE6"/>
<path d="M23.5438 99.2802H17.6582V111.046H23.5438V99.2802Z" fill="#627A82"/>
<path d="M17.6583 99.2802H5.88574V105.162H17.6583V99.2802Z" fill="#B3BCC6"/>
<path d="M11.7714 93.3982H5.88574V99.2802H11.7714V93.3982Z" fill="black"/>
<path d="M17.6581 87.5148H11.7725V93.3968H17.6581V87.5148Z" fill="black"/>
<path d="M41.0577 81.6328H29.4307V87.5162H41.0577V81.6328Z" fill="black"/>
<path d="M23.5438 59.1123H17.6582V93.3982H23.5438V59.1123Z" fill="black"/>
<path d="M23.5438 47.452H17.6582V59.1123H23.5438V47.452Z" fill="#B1B9C0"/>
<path d="M23.5452 146.117H17.6582V152H23.5452V146.117Z" fill="#B1B9C0"/>
<path d="M35.3163 116.929H29.4307V129.334H35.3163V116.929Z" fill="black"/>
<path d="M29.431 87.5161H23.5454V116.929H29.431V87.5161Z" fill="black"/>
<path d="M99.4251 70.5908H93.5381V76.4728H99.4251V70.5908Z" fill="black"/>
<path d="M105.309 70.5895H99.4238V76.4715H105.309V70.5895Z" fill="#687F89"/>
<path d="M111.037 70.5895H105.151V76.4715H111.037V70.5895Z" fill="#60B7D8"/>
<path d="M116.764 70.5895H110.878V76.4715H116.764V70.5895Z" fill="#B8E0E8"/>
<path d="M122.651 64.923H116.765V70.805H122.651V64.923Z" fill="#B8E0E8"/>
<path d="M122.651 58.8254H116.765V65.0523H122.651V58.8254Z" fill="#60B7D8"/>
<path d="M128.218 58.8254H122.333V65.0523H128.218V58.8254Z" fill="#B8E0E8"/>
<path d="M134.104 52.942H128.218V59.1688H134.104V52.942Z" fill="#B3BCC4"/>
<path d="M105.31 64.7087H99.4248V70.5907H105.31V64.7087Z" fill="black"/>
<path d="M110.986 64.7087H105.1V70.5907H110.986V64.7087Z" fill="#687F89"/>
<path d="M116.764 64.7074H110.878V70.5894H116.764V64.7074Z" fill="#60B7D8"/>
<path d="M116.765 58.8254H105.311V64.7088H116.765V58.8254Z" fill="black"/>
<path d="M128.218 52.9434H116.765V58.8254H128.218V52.9434Z" fill="black"/>
<path d="M209.445 47.0601H128.218V52.9434H209.445V47.0601Z" fill="black"/>
<path d="M209.445 52.942H192.11V58.824H209.445V52.942Z" fill="#B4BEC7"/>
<path d="M256.062 58.8254H238.727V64.7074H256.062V58.8254Z" fill="#B4BEC7"/>
<path d="M302.321 64.7074H279.269V70.5894H302.321V64.7074Z" fill="#B4BEC7"/>
<path d="M337.132 70.5895H302.322V76.4715H337.132V70.5895Z" fill="#B4BEC7"/>
<path d="M378.01 76.4971H337.132V82.3791H378.01V76.4971Z" fill="#B4BEC7"/>
<path d="M378.01 64.7074H348.949V70.5894H378.01V64.7074Z" fill="#B4BEC7"/>
<path d="M383.779 53.5374H360.72V59.4194H383.779V53.5374Z" fill="#B4BEC7"/>
<path d="M389.541 41.4744H366.482V47.3564H389.541V41.4744Z" fill="#1680CF"/>
<path d="M395.443 29.4127H372.385V35.2947H395.443V29.4127Z" fill="#1680CF"/>
<path d="M418.229 17.6473H378.38V23.5293H418.229V17.6473Z" fill="#1680CF"/>
<path d="M424.115 11.7654H384.266V17.6474H424.115V11.7654Z" fill="#1680CF"/>
<path d="M425.055 5.88202H390.151V11.764H425.055V5.88202Z" fill="#1680CF"/>
<path d="M412.544 30.2168H401.015V36.0988H412.544V30.2168Z" fill="#1680CF"/>
<path d="M406.704 41.4744H395.175V47.3564H406.704V41.4744Z" fill="#1680CF"/>
<path d="M407.133 18.6616V5.13043H401.247V18.6616H407.133Z" fill="#373D9D"/>
<path d="M401.246 36.1002V18.663H395.36V36.1002H401.246Z" fill="#373D9D"/>
<path d="M395.425 54.3509V35.2947H389.539V54.3509H395.425Z" fill="#373D9D"/>
<path d="M389.662 65.8159V53.5374H383.776V65.8159H389.662Z" fill="#373D9D"/>
<path d="M256.063 52.9434H209.444V58.8254H256.063V52.9434Z" fill="black"/>
<path d="M331.201 58.8254H256.063V64.7088H331.201V58.8254Z" fill="black"/>
<path d="M343.062 52.9434H331.2V58.8254H343.062V52.9434Z" fill="black"/>
<path d="M348.949 47.0601H343.062V52.9434H348.949V47.0601Z" fill="black"/>
<path d="M337.086 58.8254H331.2V64.7074H337.086V58.8254Z" fill="#B4BEC7"/>
<path d="M348.948 52.942H343.062V58.824H348.948V52.942Z" fill="#B4BEC7"/>
<path d="M354.834 47.0601H348.949V52.9421H354.834V47.0601Z" fill="#B4BEC7"/>
<path d="M360.72 41.1781H354.834V47.0601H360.72V41.1781Z" fill="#B4BEC7"/>
<path d="M366.606 35.2947H360.72V41.1767H366.606V35.2947Z" fill="#B4BEC7"/>
<path d="M372.493 29.4127H366.607V35.2947H372.493V29.4127Z" fill="#B4BEC7"/>
<path d="M378.378 23.5294H372.493V29.4114H378.378V23.5294Z" fill="#B4BEC7"/>
<path d="M354.834 41.1781H348.949V47.0601H354.834V41.1781Z" fill="black"/>
<path d="M360.72 35.2961H354.834V41.1781H360.72V35.2961Z" fill="black"/>
<path d="M366.607 29.4127H360.72V35.2961H366.607V29.4127Z" fill="black"/>
<path d="M372.493 23.5307H366.607V29.4127H372.493V23.5307Z" fill="black"/>
<path d="M378.38 17.6487H372.493V23.5307H378.38V17.6487Z" fill="black"/>
<path d="M384.266 11.7654H378.38V17.6474H384.266V11.7654Z" fill="black"/>
<path d="M424.113 12.7796H418.228V18.6616H424.113V12.7796Z" fill="#373D9D"/>
<path d="M418.227 30.2168H412.342V36.0988H418.227V30.2168Z" fill="#373D9D"/>
<path d="M412.34 47.6554H406.455V53.5374H412.34V47.6554Z" fill="#B4BEC7"/>
<path d="M406.455 64.8152H400.569V70.6972H406.455V64.8152Z" fill="#B4BEC7"/>
<path d="M400.569 76.4971H382.85V82.3791H400.569V76.4971Z" fill="#B4BEC7"/>
<path d="M394.684 82.3143H383.775V88.1963H394.684V82.3143Z" fill="#1D80CE"/>
<path d="M401.072 88.156H360.72V94.038H401.072V88.156Z" fill="#667E88"/>
<path d="M418.58 94.038H412.695V99.92H418.58V94.038Z" fill="#B2BBC5"/>
<path d="M360.72 94.038H354.834V99.92H360.72V94.038Z" fill="#667E88"/>
<path d="M360.72 99.9213H354.834V102.863H360.72V99.9213Z" fill="#383F98"/>
<path d="M354.835 94.038H319.727V99.92H354.835V94.038Z" fill="#197FD1"/>
<path d="M360.34 102.863H319.875V108.745H360.34V102.863Z" fill="#197FD1"/>
<path d="M360.34 108.745H273.37V111.687H360.34V108.745Z" fill="#197FD1"/>
<path d="M331.427 111.547H221.14V118.304H331.427V111.547Z" fill="#197FD1"/>
<path d="M303.365 117.181H221.14V123.693H303.365V117.181Z" fill="#197FD1"/>
<path d="M273.712 123.063H227.142V129.334H273.712V123.063Z" fill="#197FD1"/>
<path d="M319.875 94.038H313.99V99.92H319.875V94.038Z" fill="#197FD1"/>
<path d="M319.875 99.9213H261.812V103.213H319.875V99.9213Z" fill="#197FD1"/>
<path d="M273.712 102.513H209.483V105.805H273.712V102.513Z" fill="#197FD1"/>
<path d="M267.863 105.313H215.303V108.605H267.863V105.313Z" fill="#197FD1"/>
<path d="M390.151 5.88202H384.266V11.764H390.151V5.88202Z" fill="black"/>
<path d="M430 0H390.151V5.882H430V0Z" fill="black"/>
<path d="M429.999 18.6616V5.88202H424.113V18.6616H429.999Z" fill="black"/>
<path d="M424.113 18.663H418.228V36.1002H424.113V18.663Z" fill="black"/>
<path d="M418.227 36.1002H412.342V53.5387H418.227V36.1002Z" fill="black"/>
<path d="M412.342 53.5387H406.455V70.72H412.342V53.5387Z" fill="black"/>
<path d="M406.455 70.7201H400.569V88.1573H406.455V70.7201Z" fill="black"/>
<path d="M400.569 88.1559V82.2739H394.684V88.1559H400.569Z" fill="black"/>
<path d="M424.468 94.0393H418.581V99.9213H424.468V94.0393Z" fill="black"/>
<path d="M418.58 99.9213H401.015V105.805H418.58V99.9213Z" fill="black"/>
<path d="M401.015 105.805H383.779V111.687H401.015V105.805Z" fill="black"/>
<path d="M383.779 117.569V111.687H360.341V117.569H383.779Z" fill="black"/>
<path d="M360.34 123.451V117.569H331.426V123.451H360.34Z" fill="black"/>
<path d="M331.427 129.333V123.451H302.322V129.333H331.427Z" fill="black"/>
<path d="M302.321 135.215V129.333H267.405V135.215H302.321Z" fill="black"/>
<path d="M273.712 141.098V135.216H232.806V141.098H273.712Z" fill="black"/>
<path d="M238.688 141.099H58.6782V146.981H238.688V141.099Z" fill="black"/>
<path d="M232.807 141.098V135.216H58.6785V141.098H232.807Z" fill="#383F98"/>
<path d="M64.4348 129.334H41.0581V135.217H64.4348V129.334Z" fill="#383F98"/>
<path d="M52.7456 129.334V123.452H35.3165V129.334H52.7456Z" fill="#383F98"/>
<path d="M267.405 135.216V129.334H232.805V135.216H267.405Z" fill="#383F98"/>
<path d="M331.427 123.451V117.569H302.322V123.451H331.427Z" fill="#383F98"/>
<path d="M360.341 117.569V111.687H331.427V117.569H360.341Z" fill="#383F98"/>
<path d="M383.779 111.685V105.803H360.341V111.685H383.779Z" fill="#383F98"/>
<path d="M401.015 105.803V99.9213H360.34V105.803H401.015Z" fill="#383F98"/>
<path d="M418.58 88.1573H401.015V94.0393H418.58V88.1573Z" fill="black"/>
<path d="M395.304 64.7074H383.775V70.5894H395.304V64.7074Z" fill="#B4BEC7"/>
<path d="M401.072 53.5374H389.543V59.4194H401.072V53.5374Z" fill="#B4BEC7"/>
<path d="M383.897 82.3803V64.7087H378.012V82.3803H383.897Z" fill="#373D9D"/>
<path d="M227.141 123.063H221.255V128.945H227.141V123.063Z" fill="black"/>
<path d="M134.105 76.5806H139.991V65.0321H134.105V76.5806Z" fill="#617D87"/>
</g>
<defs>
<clipPath id="clip0_24_1647">
<rect width="430" height="152" fill="white"/>
</clipPath>
</defs>
</svg>
