<svg xmlns="http://www.w3.org/2000/svg" width="700" height="402" fill="none" viewBox="0 0 700 402"><g filter="url(#a)"><g clip-path="url(#b)"><rect width="697.59" height="400" x="1" y="1" fill="#afcab9" rx="6"/><g fill="#cfd5b2" filter="url(#c)"><path d="M-84.834 130.098c3.589-4.784 9.846-6.373 14.995-6.297 1.615.014 2.976 3.62 4.16 3.79 2.308.333 2.78-2.103 5.178-1.466.794.234 3.196 5.78 3.954 5.91 4.122.679 5.984-2.122 9.415-2.549 8.942-1.086 17.15-2.815 25.438-4.8 8.742-2.375 15.847-3.799 23.161-5.122 5.12-.915 12.534 2.295 16.564-1.545.466-.453-1.518-5.347-1.548-5.795-.394-6.87 2.384 3.415 3.898 4.407 6.048 3.895 10.898 2.874 14.41-.333 1.494-1.38-3.329-10.849.16-5.773.237.343 1.432 5.829 2.081 6.255 1.469.954 3.24-.627 4.206-.454 1.892.354 2.11.23 3.67-.167 1.152-.266 2.593.177 4.018.345 1.211.151 2.395.102 3.287-.768.398-.414-1.829-5.742-1.33-6.901.496-1.158 2.712-1.285 3.758-.175 1.059 1.106 1.992 5.528 2.395 6.488 3.372 8.11 2.443-4.174 2.682-4.55 4.22-6.455 10.816-1.093 16.01-2.457 3.937-1.049 7.619-4.316 11.49-4.943 4.6-.72 9.104 1.404 13.359-.132.445-.155-1.614-6.601-1.07-6.803 5.83-2.155 11.984-2.772 18.906.396.689.325 1.172 6.278 1.933 6.95 4.671 3.971 12.732 14.231 9.68-11.461 2.71.47 5.878.89 9.14 5.54 2.065 2.998 1.955 9.598 3.147 6.554.272-.679-1.338-6.12-.845-6.72 2.102-2.525 5.148-1.249 7.077-4.594.39-.693-.705-5.638-.734-6.56-.186-7.483 4.086 4.125 4.687 4.914 4.575 5.862 6.428 2.868 9.56 2.453.714-.091-1.357-6.624-.712-6.951 3.386-1.616 7.177-1.709 11.228.634.894.54 1.199 6.368 1.676 6.918 2.081 2.357.535-8.479 2.517-6.428.416.419 1.088 5.335 1.243 5.86 2.421 8.255 1.153-3.82 1.354-4.127 2.404-4.129 6.569 7.985 9.184 5.722.314-.284-1.535-6.333-.588-6.753 3.46-1.544 7.157-2.083 11.071-1.64 3.207.385 6.627 1.454 9.939 3.243 1.138.598 1.16 5.368 1.317 5.932 2.476 8.796 1.227-3.322 1.489-3.828 2.137-3.68 6.117 6.019 5.662-8.575 11.878 3.224 21.729-6.489 34.603 4.744.161.128.779 6.092 1.096 6.323 3.83 2.84 1.841-6.279 2.436-17.872.158-2.912 3.819 10.45 4.113 11.425 1.078 3.597 1.784 12.5 2.07 13.185 2.316 5.372-2.134-23.766-.078-24.07.071.039.572 5.448.821 5.957.776 1.6 1.001-.61 1.79 1.163 1.815 4.106 4.253 18.224 4.901 9.713.079-1.104-2.63-17.606-.685-17.085.777.222 3.978-.52 5.031.427 1.055.945 1.184 6.367 1.281 6.589 3.424 6.713 2.912 9.767 5.591 20.042 2.669 10.236-1.137-14.537-1.026-17.377.114-2.832 2.71 2.741 3.428 4.704.719 1.964.645 5.431 1.193 6.523 3.614 7.129-.578-12.479-.273-16.537.721-9.608 4.832 8.587 6.911 10.14.563.419-.417-3.72-.029-4.172 1.549-1.739 3.387 3.863 4.664-1.677.208-.903.32-12.196 2.468-4.211.306 1.152.509 5.798 1.395 6.725 1.325 1.392 3.469 2.124 4.462.428.732-1.254-1.301-8.681.132-6.482.637.983.312 5.531 1.459 7.008 1.141 1.477 3.481.966 4.361.693.877-.276-.379-5.948-.358-6.345.145-2.273 1.502-5.27 1.657-5.283 7.621-1.725 15.99 7.023 23.06 2.858.557-.318-.612-6.323-.535-6.434 1.698-2.796 2.169 13.507 4.268 18.715-1.778-12.262-.66-10.144.586-11.672.599-.747-.38-5.458-.38-5.953.093-7.356 1.987 1.889 2.411 3.776 1.563 6.94 1.237-1.454 2.293 3.184 1.049 4.602.873 11.645 2.224 11.384-.175-4.448-2.645-15.816-1.845-17.81 3.014-7.545 11.435.564 14.686 1.115 3.257.547 4.154-.387 6.17.98 3.664 2.47 1.404-5.915 2.977-10.072 1.574-4.156 3.133 16.966 3.976 21.444.836 4.478.585-.206 1.243 2.232.657 2.437.26 5.6 1.21 6.43.962.827 2.298-7.481 2.027-12.238-.575-10.078-2.878-20.45-.202-17.03.155.203.404 5.776.961 6.275 4.431 3.78 8.493 3.564 12.867 6.863.598.463.842 6.665 1.198 7.004 3.7 3.55 1.303-6.674 1.763-18.398 1.384 15.369 3.482 24.624 5.947 24.43 1.48-.111.45-6.774.855-11.6.114-1.455 1.714 3.017 1.54-.152-.554-10.361-2.87-21.765.216-17.473.136.205.426 5.878.852 6.175 2.744 1.948 1.807-8.848 4.389-10.462 1.997-1.262 6.538 4.875 9.053 5.677 1.861 17.243 3.681 13.046 3.317 1.056 1.64.312 3.215-.54 4.926.937.589.503.783 5.532.908 6.064 1.936 8.351 1.364-3.288 1.654-3.778.833-1.254 1.709-1.604 2.59-1.594 2.619.014 5.122 2.917 7.131-3.692.092-.322-.944-12.326.899-3.673.122.596-.465 6.167 1.217 6.42 1.635.258 5.478 6.357 7.171.58.429-1.394.89-11.267 2.752-3.772.25 1.018.425 4.472.826 6.364 1.283 6.03.479-6.125 2.316 4.09 1.849 10.212 4.208 17.767 5.857 10.444.053-.214-.297-9.874.441-9.79 1.163.145 2.997 1.996 4.202 1.825.573-.085-.332-6.02-.241-6.139 3.589-3.693 6.866 1.387 11.206 3.363.799.374 2.359-7.946 4.347-1.615 2.137 6.934 2.659 36.39 5.764 29.141 1.186-2.893.649-40.27 4.604-21.137 4.935-5.098 10.155 4.556 15.118-2.407.218-.309.735-10.74 1.33-10.608.864.215 1.361 5.078 1.976 5.391 2.48 1.44 4.766-2.719 7.204-2.019.929.257.482 5.281 1.528 5.593 1.052.31 2.05-6.288 3.376-3.017 1.025 2.495 1.244 16.08 2.421 17.75.808-10.699 1.59-12.589 2.93-14.657.335-.508.703-1.026 1.114-1.688.403-.651.451-5.318.666-5.864.909-2.326 1.168 1.572 2.082-.958.222-.608.697-5.147.912-5.9 1.874-6.566 2.661 3.867 2.703 5.676.341 6.886 1.651 1.075 2.198 3.854.505 2.775-1.286 5.89-.521 7.642 1.549 3.62 4.158 3.34 6.095 3.985.769.229 1.577-5.833 1.717-5.94 2.191-1.089 2.045 5.583 6.485-5.755-7.941 30.395 1.933-2.645 2.815 4.368.074.574-5.305 14.402-6.512 16.273-1.159 1.886-.467-2.781-2.264.224-.488.682-5.164 13.81-5.417 14.618-2.391 6.175 2.702-15.4 2.896-16.607 2.217-12.99-2.705 1.275-3.187 2.24-2.615 4.312-3.549 1-5.555 4.125-1.301 2.023-3.337 16.407-3.922 15.882-1.903-1.719-1.011-21.916-4.924-4.811l-.023.106c-.817 3.694-1.568 19.554-2.282 6.985-.015-.792-.627-12.278-1.789-5.104-.142.904-.383 5.525-.521 5.907-.907 2.471-1.277-1.235-2.212.498-.951 1.734-2.022 4.34-3.018 2.757-.589-.947-1.345-9.573-1.683-11.684-.894-6.083-1.876 3.89-2.494-3.466-.688-7.393.467-18.644-1.308-23.404.098 12.02.135 24.359.227 36.448-3.201-.376-6.736-4.142-10.231-3.442-.424.098.326 6.532-.116 6.804-1.885 1.121-3.894-3.381-5.833-1.424-1.549 1.543-2.828 8.485-4.384 10.322-1.979-13.652-4.189-8.81-6.159-9.917-.695-.382-.919-4.049-1.476-5.208-2.097-4.281-.318 7.772-.643 9.717-1.44 8.307-3.766-19.109-6.249-18.217-.151.039-.452 14.784-.593 15.714-.872 6.053-.669-5.066-1.641-6.069-1.817-1.828-3.161-5.225-4.695-.772-.47 1.321-.874 10.537-2.605 3.598-.226-.909-.599-5.743-.739-6.015-2.522-4.516-1.123 10.652-1.783 15.897-.645 5.242-3.513-5.043-4.15-8.026-1.706-7.71.39-3.404.388-4.177-.264-9.173-1.449-7.474-2.517-8.146-1.602-14.85-2.943-13.817-1.119-.636.202 1.44.851-.024 1.119.636.561 14.668-.831 16.691-3.893 3.237-1.442-6.305-1.419-13.829-3.612-10.855-1.002 1.344.474 11.53-.233 14.421-1.515 6.585-5.503-2.644-7.61-.901-.781.634.629 6.145.115 6.772-.736.909-1.606.14-2.463-.39-.701-.453-1.393-.733-1.985.329-.116.217.851 6.04.387 6.165-3.555 1.071-7.065-2.341-10.852-2.026-1.801.151-4.745 3.751-6.669 3.311-3.411-.72-8.366-8.777-10.973-6.38-1.654 1.532-.581 7.341-.894 11.42-.594 7.905-4.901-5.63-5.512-7.732-.028-.068 1.403-1.634.204-4.54-1.226-6.204-.19 4.511-.204 4.54-.391-1.358-3.672-2.32-4.169-1.127-.267.652.577 6.175.425 6.41-3.613 5.458-7.645 7.369-12.184 5.287-.088-.103-.724-6.317-.923-6.482-2.806-2.458-3.462 5.318-4.933 10.068-1.472 4.747-3.286 3.44-5.783-7.056-1.357 1.527-4.136-2.906-5.762-5.603-1.627-2.697-.306 9.391-.386 9.643-2.493 8.062-5.392 1.412-9.108.788-1.768-.318-4.968 1.865-6.634 3.418-1.324 1.249-2.567-1.465-3.686.515-.151.265.721 5.611.692 5.825-.683 6.617-1.642-6.602-2.255-8.907-2.228-8.379-3.5-12.832-4.914-8.572-.328.976.82 20.041.155 21.251-.871 1.539-1.352-5.287-2.244-3.502-.077.146.485 4.322-.216 4.226-3.246-.392-7.018-2.371-10.231-1.521-.442.1 1.006 6.651.383 6.905-2.929 1.186-6.276 1.381-9.643-1.324-.832-.686-.998-5.386-1.341-6.742-2.089-8.202-1.839 4.09-2.033 4.351-4.614 6.544-10.242-3.846-15.032 2.126-.26.348-.768 13.638-3.336 2.655-.172-.73-2.771-11.97-2.589-4.064.012.495 1.46 6.266.273 5.823-1.189-.442-2.422 3.718-4.842-2.505-.764-1.961-3.501-13.151-3.66-3.901-.005.644.67 21.414-2.116 7.412-.457-2.305-2.442-17.259-3.069-9.358-.116 1.531.95 4.778.386 6.98-.861 3.393-3.179-.357-3.849 6.528-.115 1.218.143 11.524-1.926 3.971-.324-1.183-.756-6.208-1.345-6.693-2.798-2.328-4.866 1.376-7.82-1.713-1.046-1.084-1.781-9.205-3.004-11.23-1.217-2.026-3.375-3.829-3.782-.008s2.527 16.504 1.259 17.741c-5.492 5.372-12.734-1.233-19.037-1.389-.94-.024.524 4.448-.805 4.743-4.86 1.097-12.716 6.747-18.506-2.307-4.711-7.241-1.33-13.884-4.488-16.629-1.526-1.306-.456 13.805-.679 14.322-.514 1.239-1.078 1.836-1.671 2.058-1.96.725-4.227-2.476-5.99-.592-.475.511 1.072 6.451.658 6.819-1.431 1.316-3.574-1.09-5.005-.339-.639.35.273 4.932-.41 4.683-1.638-.54-3.316-2.242-5.523-6.302-.202-.369-.294-6.249-1.444-6.269-1.831-.02-4.876-3.87-6.159.886-.381 1.43 1.474 11.939-1.139 4.918-.548-1.466-2.449-14.145-2.05-2.967.053 1.859.142 17.019-2.822 7.773-.789-2.432-3.53-12.593-3.977-10.835-.053.277 1.379 5.842.868 6.504-1.809 2.233-4.174 2.049-6.048 4.227-.495.592 1.467 6.259.699 6.955-2.101 1.919-5.387 1.007-8.075-.365-1-.516-1.332-5.456-1.497-5.969-2.673-8.342-1.038 3.3-1.239 4.036-1.271 4.424-3.954-.669-5.575 1.141-.45.485 1.014 5.901 1.007 6.412-.125 4.997-1.286-5.022-2.186-5.972-2.575-2.686-4.618-1.814-6.441-.712-.667.413 1.444 6.607.833 6.904-3.548 1.868-7.599 2.082-12.03-.626-.832-.523-1.45-5.502-1.833-6.587-2.672-7.596-1.869 3.378-1.973 4.462-.516 4.962-2.03.769-3.216 1.876-5.686 5.458-14.313 4.45-20.868 4.186-8.471-.333-15.846-3.351-23.051-.126-.454.198 1.76 6.486 1.395 6.738-4.574 2.814-10.076 2.031-14.612 4.804q-.4.24-.785.512c-.398.269 2.012 6.131 1.439 6.764-1.147 1.338-3.054 1.547-5.069.051-.983-.717-1.593-6.181-2.554-6.796-2.228-1.448-4.133-1.338-5.534.15-.585.644 2.386 6.475 1.486 6.83-6.125 2.559-11.724 5.523-20.45-.313-.592-.402-5.223-12.666-5.307-9.977 1.125 3.458 2.532 7.498 3.779 11.179-6.505 4.124-14.876 4.138-19.485 4.782a32 32 0 0 0-3.796 1.202c-.337.134 3.272 6.096 2.644 6.383-3.65 1.68-6.213 5.166-13.186 1.094-.69-.393-6.324-11.233-6.564-8.997-.038.404-.929 2.756-.053 5.305.14.381 3.212 5.194 2.776 5.628-2.583 2.438-6.253 3.074-10.782 1.776-.74-.217-3.461-5.672-4.023-5.867-4.012-1.307-3.756 4.04-8.355.553-3.113-2.332-8.913-11.087-15.758-18.868-.976-1.092-1.83-.721-5.619-5.384-9.599-11.675-19.26-25.133-29.514-37.56-2.193-2.704-2.37 2.274-6.177-5.449-.23-.545-.12-4.187-1.397-6.783-.878-1.804-5.172-6.215-6.04-8.72-.845-2.516 2.949 1.043 2.2-2.069-.729-3.166-5.238-8.5-3.67-10.609m441.302-13.444c-1.903-5.646.582 15.595 1.217 10.359.027-.278-1.121-10.082-1.217-10.359M497.352 98.95c-1.894-9.365-2.254 4.536-.941 11.77 1.287 7.228 1.489-8.929.941-11.77m14.876-7.05c-1.568-7.474-2.234 22.846-.538 16.749.098-.344.624-16.316.538-16.75m-545.04 109.883c-.174-.225-1.012.011-.873.258 3.503 5.832 5.105 5.403.873-.258m560.399-116.29c-.054-4.142-2.141.391-2.04 5.535.036 4.13 2.053-.393 2.04-5.535M292.111 102.07c-.062-.313-.784-.503-.525 1.279.836 5.742 1.562 3.989.525-1.279m253.487-15.328c.182 1.1 1.21 1.987 2.067 1.802.881-.13 1.629-.953 2.281-2.006 1.294-2.144 2.36-5.215 3.561-8.014 2.507-5.297 4.836-11.46 10.159-4.912 1.033 1.498-1.897 1.205-4.175 2.187-2.339.908-4.166 2.618-4.195 4.019-.22 2.621 3.163 1.24 6.435 4.602 3.127 3.3 3.243 8.105-.949 7.162-.803-.075-4.348-2.238-7.864-4.042-1.767-.87-3.62-1.42-5.045-1.39-1.425.003-2.342.492-2.309.609zm-192.999 4.51c-.059-.278-1.043-.425-1.031-.144.331 6.801 2.311 7.101 1.031.144m-102.244 3.392c-.141-.589-2.428-.821-2.418-.261.476 11.152 5.089 11.656 2.418.26m164.396-26.52c.266-6.901 1.448-7.841 3.222.592-1.093-.337-2.155-.287-3.222-.592"/><path d="M3.088 147.956c-1.543-2.389-1.845-.331-1.691 2.466.052.873-.739 4.581-.707 5.355.084 1.513.811-.248.963 1.555.058.617-1.096 6.512-1.003 7.025.566 2.778 1.837 1.419 2.82 2.84 5.1 7.04 12.03 9.964 19.105 13.3 2.35 1.097 4.908 6.766 7.657 4.587.32-.26.546-5.528.636-5.956 1.396-6.562.289 4.023.766 5.477 1.891 5.74 4.46 6.418 6.865 4.555 1.025-.808.826-11.317 1.364-5.387.038.4-.614 5.964-.394 6.578.5 1.383 1.71.468 2.142.944.832.946.984.9 1.828 1.025 1.154.221 2.33 3.095 3.677 1.922.288-.267.351-6.014.849-6.957.498-.941 1.588-.373 1.874 1.004.284 1.377-.209 5.862-.216 6.897-.083 8.74 2.11-3.212 2.301-3.497 2.382-3.339 4.15-1.03 5.957.8.759.823 1.477 1.542 2.241 1.587 1.868.097 3.755-2.089 5.325-1.741 1.855.436 3.508 3.54 5.417 2.955.199-.056-.222-6.791.01-6.873 2.432-.858 4.875-.275 7.947 4.011.312.435.516 6.364.871 7.151 2.082 4.699 6.637 15.932 4.308-9.771 1.25.852 2.767 1.687 4.587 6.667 1.192 3.201 1.498 9.682 1.952 6.826.097-.637-1.025-6.179-.82-6.71.857-2.229 2.473-.638 3.148-3.722.131-.64-.82-5.612-.915-6.521-.45-4.424.464-1.915 1.379.968.6 1.919 1.195 4.005 1.342 4.338 2.809 6.202 3.546 3.404 5.081 3.255.362-.032-1.418-6.609-1.125-6.879 1.535-1.31 3.438-1.121 5.836 1.437.534.585 1.439 6.318 1.761 6.886 1.418 2.434-.802-8.28.505-6.153.272.435 1.282 5.29 1.433 5.814 2.386 8.224.101-3.68.159-3.967.72-3.917 4.611 8.157 5.736 6.047.128-.265-1.744-6.267-1.296-6.637 2.974-2.496 6.95-1.719 11.611 2.255.723.61 1.532 5.269 1.711 5.823 2.836 8.643.123-3.221.177-3.708.518-3.544 4.421 5.974 1.611-8.271 7.065 3.316 10.556-6.105 19.863 4.715.115.124 1.647 5.917 1.87 6.138 2.702 2.719-.229-6.126-2.265-17.393-.515-2.828 4.227 10.108 4.591 11.051 1.336 3.479 3.546 12.118 3.846 12.78 2.405 5.179-6.044-23.058-4.995-23.378.047.038 1.446 5.281 1.687 5.772.756 1.543.421-.606 1.226 1.103 1.853 3.958 6.167 17.617 4.744 9.343-.188-1.073-5.152-17.039-3.979-16.566.469.204 2.06-.574 2.838.322s2.021 6.148 2.121 6.361c3.33 6.435 3.716 9.404 7.43 19.299 3.711 9.853-3.777-14.064-4.337-16.818-.567-2.743 2.103 2.587 2.929 4.47.83 1.884 1.548 5.245 2.093 6.288 3.574 6.808-3.065-12.072-3.793-16.01-1.739-9.32 4.563 8.184 6.077 9.62.404.388-1.067-3.586-.957-4.036.039-.152.093-.249.158-.303.68-.559 2.553 3.453 2.002-1.459-.09-.881-2.732-11.769.331-4.141.441 1.1 1.654 5.575 2.361 6.436 1.063 1.292 2.396 1.919 2.528.244.097-1.24-2.84-8.305-1.522-6.246.589.919 1.535 5.31 2.529 6.682 1.001 1.369 2.122.781 2.552.47.416-.31-1.725-5.695-1.814-6.077-.499-2.19-.56-5.124-.486-5.143 3.504-1.97 10.432 5.865 13.019 1.373.202-.343-2.236-5.943-2.229-6.054.033-2.764 5.241 12.631 7.963 17.395-4.691-11.467-3.449-9.546-3.244-11.093.091-.754-1.89-5.127-2.042-5.595-2.24-6.953 1.63 1.632 2.45 3.376 3 6.425.21-1.474 2.23 2.813 2.016 4.251 4.124 10.915 4.79 10.544-1.498-4.179-6.412-14.688-6.619-16.634-.833-7.336 6.26-.472 8.234-.295 1.947.19 2.136-.784 3.697.289 2.822 1.938-1.198-5.691-1.702-9.759-.493-4.072 7.341 15.588 9.287 19.701 1.94 4.114.254-.254 1.422 1.964 1.166 2.218 1.993 5.228 2.787 5.908.792.68-1.225-7.252-2.93-11.694-3.616-9.409-8.297-18.909-5.666-15.989.154.174 2.103 5.389 2.581 5.798 3.693 3.087 5.927 2.446 9.376 5.139.478.378 2.542 6.218 2.845 6.504 3.118 3.014-1.364-6.43-4.669-17.589 5.46 14.429 9.442 23 10.686 22.613.763-.231-1.793-6.465-2.995-11.09-.364-1.394 1.825 2.722.795-.276-3.349-9.806-8.007-20.441-4.959-16.657.139.182 1.939 5.562 2.271 5.804 2.127 1.604-1.496-8.607-.409-10.4.82-1.396 5.151 4.075 6.807 4.64 5.666 16.39 5.539 12.232 2.183.744.995.179 1.754-.789 3.07.516.457.442 1.851 5.269 2.057 5.773 3.199 7.906-.081-3.261-.034-3.756.649-4.877 4.922 3.016 4.23-5.792-.027-.316-3.479-11.858-.363-3.615.21.57 1.199 6 2.22 6.129.359.045 1.036.77 1.748 1.446.316-.261 1.608-.195 1.97-.388 1.019 1.492 2.152 2.844 2.654-.839.186-1.366.116-11.178 1.409-3.621.174 1.026.384 4.476.67 6.381.912 6.07.082-6.08 1.424 4.187 1.346 10.266 2.896 17.908 3.565 10.692.022-.21-.47-9.852-.059-9.733.653.2 1.729 2.13 2.381 2.016.313-.058-.359-6.017-.312-6.13 1.904-3.518 3.835 1.695 6.301 3.842.44.406 1.097-7.833 2.354-1.443 1.372 6.995 2.491 36.406 4.007 29.279.607-2.851-.792-40.165 1.958-20.963 2.58-4.967 5.828 4.752 8.317-2.249.113-.31-.085-10.734.229-10.61.463.204.999 5.049 1.346 5.35 1.439 1.385 2.442-2.846 3.792-2.276.505.206.631 5.241 1.246 5.487.613.24.604-6.4 1.605-3.253.739 2.4 2.205 15.885 3.117 17.41-.807-13.341-.224-13.101.526-16.686.146-.696-.365-5.324-.313-5.892.205-2.417.787 1.408.95-1.219.041-.631-.269-5.185-.254-5.958.096-6.744 1.732 3.431 2.037 5.201 1.112 6.724.979.78 1.648 3.408.695 2.625.238 6.016.952 7.585 1.384 3.057 2.839 2.45 4.104 2.411.19.054.763-.212.959-.187q.16-.035.319-.063c.744-.17-1.599-5.823-1.531-5.984.218-.879 1.116.09 1.545-.244.373-.292.124-1.917-3.997-6.385 10.505 11.674 11.092 10.008 8.247 7.295-2.613-2.984-8.546-6.776-5.716-5.411.41.307 13.945 6.472 15.264 8.615 1.19 2.306-3.651 1.356-2.918 5.294.076.476 1.836 3.876 2.955 7.64 1.174 3.736 1.764 7.713 1.659 8.262-2.318 8.811-11.095-11.933-11.562-12.978-3.285-6.312-3.299-5.184-3.267-2.427-.31-.039-1.217.383-1.518.297-.073 2.308-.024 5.773-.119 6.264-.926 4.869-2.362 1.864-3.182 5.329-.517 2.237.525 16.725-.102 16.327-2.086-1.317-4.003-21.499-4.543-3.856-.113 3.762 1.253 19.584-.843 7.208-.128-.781-1.79-12.12-1.881-4.877-.012.913.272 5.531.206 5.925-.447 2.546-1.084-1.109-1.617.691-.547 1.801-1.161 4.474-1.989 2.951-.507-.911-1.553-9.485-1.889-11.579-.951-6.035-.993 3.953-1.786-3.375-.8-7.366-.734-18.626-1.983-23.342.667 12.003 1.305 24.325 1.955 36.396-2.116-.3-4.381-4.059-6.414-3.402-.252.093.407 6.527.148 6.794-1.086 1.095-2.385-3.439-3.449-1.532-.838 1.501-1.375 8.393-2.213 10.177-1.49-13.686-2.607-8.93-3.712-10.113-.39-.408-.625-4.074-.968-5.251-1.28-4.353.038 7.74-.088 9.666-.532 8.224-2.627-19.21-3.934-18.431-.072.032.15 14.722.111 15.641-.294 5.995-.511-5.08-1.065-6.125-1.014-1.908-1.9-5.352-2.571-.989-.198 1.292-.168 10.46-1.306 3.459-.15-.916-.505-5.751-.589-6.029-1.492-4.625-.271 10.558-.445 15.749-.173 5.19-2.023-5.204-2.488-8.205-1.192-7.766.106-3.372.068-4.141-.453-9.15-1.04-7.518-1.645-8.241-1.38-14.871-2.08-13.91-.628-.69.159 1.444.46.02.628.69.802 14.639.168 16.579-1.982 3.024-1.012-6.352-1.28-13.842-2.361-10.993-.262.684-.048 3.891.169 7.173l5.674-1.117c.77 2.794 1.555 5.644 1.71 6.97.76 6.456-3.429-2.287-4.143-.474-.241.652 1.859 5.891 1.758 6.52-.256 1.685-2.16-2.139-2.235.161-.002.215 1.983 5.765 1.786 5.909-1.433 1.188-4.07-1.908-5.83-1.409-.853.244-1.229 3.824-2.28 3.511-1.802-.518-6.639-7.858-7.171-5.424-.352 1.563 1.95 6.992 3.06 10.869 2.185 7.5-4.067-5.021-5.05-6.953-.033-.064.171-1.639-1.326-4.3-2.55-5.771 1.322 4.272 1.326 4.3-.619-1.256-2.543-1.926-2.411-.762.077.633 2.264 5.772 2.266 6.004.007 5.39-1.286 7.47-4.326 5.926-.08-.088-2.473-5.858-2.63-5.994-2.272-2.051-.04 5.306.753 9.903.787 4.598-.633 3.557-5.5-6.021-.256 1.58-3.286-2.276-5.097-4.629-1.808-2.353 2.889 8.861 2.923 9.108 1.136 7.882-2.743 1.97-5.199 1.824-1.19-.082-2.484 2.361-3.086 4.039-.462 1.343-2.07-1.082-2.193.929-.019.27 2.096 5.254 2.14 5.461 1.478 6.383-2.969-6.091-4.025-8.215-3.835-7.726-5.92-11.824-5.558-7.625.089.959 6.179 19.034 6.051 20.276-.165 1.578-2.344-4.901-2.432-3.098-.01.149 1.499 4.083 1.007 4.07-2.284.002-5.292-1.505-7.165-.388-.267.14 2.343 6.305 1.988 6.612-1.684 1.441-3.906 1.949-6.736-.397-.708-.596-1.919-5.127-2.461-6.41-3.272-7.769-.244 4.098-.324 4.37-1.189 5.291-5.196.32-7.691 1.023-.596.166-1.101.73-1.443 1.985-.073.346 2.477 13.265-1.437 2.719-.264-.701-4.208-11.509-2.415-3.842.112.48 2.211 6.024 1.399 5.642-.822-.377-.671 3.707-3.441-2.244-.883-1.872-4.826-12.654-3.003-3.66.137.625 4.81 20.794.262 7.277-.749-2.226-4.998-16.699-3.756-8.998.242 1.492 1.546 4.614 1.652 6.775.18 3.326-1.979-.247-1 6.47.178 1.188 2.378 11.214-.378 3.924-.431-1.142-1.686-6.022-2.139-6.476-2.145-2.187-2.667 1.474-5.046-1.465-.841-1.031-2.846-8.926-3.969-10.873-1.121-1.946-2.729-3.667-2.248.065.48 3.734 4.642 16.039 4.106 17.272-2.356 5.362-7.992-.966-11.875-1.06-.578-.015 1.088 4.343.319 4.644-2.81 1.126-6.837 6.696-11.881-2.196-4.012-7.127-2.949-13.612-5.292-16.33-1.117-1.297 1.791 13.528 1.72 14.036-.614 5.132-3.49-1.038-4.625 1.353-.236.496 1.555 6.352 1.336 6.709-.737 1.273-2.43-1.125-3.263-.411-.371.334.795 4.856.315 4.6-1.138-.559-2.442-2.268-4.357-6.316-.173-.369-.936-6.156-1.675-6.205-1.214-.059-3.546-3.953-3.881.692-.092 1.395 2.216 11.816-.233 4.81-.514-1.463-3.048-14.027-1.648-2.997.242 1.831 1.72 16.796-1.16 7.565-.755-2.43-3.482-12.571-3.613-10.86-.012.271 1.428 5.827 1.143 6.458-1.047 2.131-2.666 1.837-3.844 3.898-.312.561 1.441 6.263.931 6.915-.861 1.123-2.193 1.134-3.523.603-.821-.315-1.648-.825-2.407-1.398-.748-.574-1.166-5.49-1.305-6.009-2.214-8.442-.639 3.199-.776 3.917-.838 4.302-2.941-.943-4.114.718-.34.445.803 5.932.8 6.438-.1 4.95-1.006-5.082-1.695-6.097-1.912-2.882-3.448-2.206-4.843-1.296-.514.342.972 6.692.491 6.926-2.828 1.506-6.13 1.262-9.472-2.013-.63-.629-.745-5.639-.97-6.764-1.509-7.879-1.68 3.071-1.886 4.13-.842 4.825-1.72.459-2.751 1.361-5.166 4.507-12.55 1.8-17.886-.116-5.462-1.91-9.853-5.526-13.53-6.567a5.5 5.5 0 0 0-2.785-.166c-.288.051-.501 6.702-.755 6.831-3.261 1.363-6.205-1.456-9.58.224-.275.126-.35 6.441-.808 6.855-.944.892-2.031.47-2.776-1.602-.364-.999.612-6.351.237-7.247-.87-2.096-1.933-2.624-3.06-1.693-.481.409-.276 6.889-.865 6.92-4.021.346-8.096 1.155-11.582-7.495-.238-.594.553-13.675-.248-11.218-.335 3.621-.674 7.885-1.005 11.757-6.17 1.605-11.835-3.439-18.217-4.812-.27-.056-.52 6.898-1.052 6.823-3.082-.429-6.473 1.121-9.021-6.171-.26-.715 1.509-12.8.286-11.1-.224.311-1.895 1.724-2.703 4.285-.114.388-.628 6.074-1.169 6.164-3.079.429-6.271-1.396-9.245-5.537-.462-.676 1.335-6.508 1.03-7.039-2.155-3.727-6.787-.021-9.522-6.666-1.714-4.475 2.631-14.103 5.059-24.214.406-1.395-1.065-2.253 1.333-7.775a5846 5846 0 0 0 19.244-43.72c1.327-3.223 1.572 1.034 4.065-7.068.134-.567-.094-3.707.705-6.44.523-1.908 3.178-7.431 3.623-9.961.401-2.542-1.836 2.093-1.395-.882.485-2.994 2.8-9.56 2.083-10.642m211.091 65.781c-2.904-5.11 5.336 14.624 4.034 9.619-.072-.266-3.889-9.369-4.034-9.619m67.166-20.861c-1.414-9.365-1.16 4.515-.12 11.75 1.034 7.227.546-8.912.12-11.75m8.422-7.395c-1.431-7.365.184 22.917.901 16.734.043-.349-.817-16.306-.901-16.734m-310.806 47.662c.06-.277-.58-.743-.675-.479-2.3 6.409-.839 7.388.675.479m319.275-55.718c-.626-4.066-1.192.721-.439 5.782.603 4.071 1.23-.723.439-5.782m-125.281 27.184c-.104-.301-.551-.462-.008 1.255 1.751 5.531 1.77 3.81.008-1.255m143.02-40.862c-1.923 2.836-25.808-4.992-22.858-4.934.573-.144 7.52 2.757 9.788 3.04 4.227.175-10.907-4.153-2.504-3.076 1.552.142 15.747 4.786 15.607 4.983zm-112.181 26.494c-.122-.255-.711-.298-.613-.034 2.377 6.366 3.577 6.449.613.034m-55.771 8.034c-.193-.572-1.508-.781-1.394-.236 2.441 10.85 5.138 11.296 1.394.236m83.426-36.03c-1.658-6.654-1.205-7.659 2.006.308-.703-.242-1.29-.111-2.006-.308"/><path d="M-61.981 139.904c.148-1.866 2.21-.018 3.958 2.568.556.802.66 4.597 1.063 5.32.807 1.406 1.292-.507 2.15 1.174.292.574.581 6.578.879 7.044 1.628 2.506 2.806.848 4.383 1.963a39 39 0 0 0 6.889 3.883l-1.258.163c5.344 2.292 12.131 3.016 18.351 4.255 2.97.558 6.905 5.623 9.525 2.977.304-.315-.4-5.541-.379-5.979.354-6.713 1.04 3.908 1.82 5.254 3.094 5.313 5.94 5.552 8.195 3.327.967-.962-.93-11.309.606-5.54.106.39.289 5.989.625 6.561.776 1.284 1.863.195 2.408.598 1.031.806 1.2.736 2.086.734 1.228.044 2.924 2.709 4.124 1.354.262-.307-.515-6.003-.132-7.008.382-1.004 1.643-.604 2.113.72.487 1.323.624 5.833.763 6.859 1.155 8.665 1.723-3.481 1.891-3.791 2.867-5.289 6.07 1.409 9.066 1.216 2.266-.162 4.56-2.564 6.767-2.369 2.567.257 4.972 3.248 7.386 2.595.26-.062-.376-6.784-.057-6.874 3.428-.952 6.856-.372 10.421 4.032.362.447.177 6.382.553 7.183.59 1.225 1.283 2.897 1.992 4.268 1.97 3.971 4.074 5.424 4.243-13.76 1.458.949 3.17 1.923 4.642 7.067.945 3.312.397 9.789 1.297 7 .203-.622-.307-6.256.016-6.761 1.338-2.121 2.922-.342 4.23-3.311.265-.617.003-5.673.052-6.587.419-7.403 2.008 4.752 2.271 5.63 2.085 6.543 3.36 3.895 5.133 3.995.412.026-.307-6.753.082-6.972 1.958-1.042 4.071-.527 6.177 2.423.461.672.248 6.475.476 7.092 1 2.654.849-8.287 1.808-5.953.202.478.256 5.438.308 5.981.805 8.527.88-3.594 1.01-3.866 1.623-3.707 3.165 8.896 4.755 7.055.192-.233-.452-6.49.101-6.762 3.716-1.847 7.71-.242 11.608 4.666.593.755.321 5.478.374 6.058.845 9.058.876-3.112 1.05-3.575 1.382-3.338 3.06 6.819 3.67-7.692 6.407 4.851 12.491-3.45 19.037 9.367.083.148.094 6.14.259 6.41 1.988 3.314 1.385-5.984 2.365-17.399.246-2.867 1.572 10.852 1.675 11.857.401 3.705.305 12.623.427 13.339.994 5.624.116-23.837 1.274-23.876.038.049.021 5.476.131 6.013.344 1.685.591-.477.933 1.382.786 4.303 1.38 18.615 2.213 10.256.106-1.084-.509-17.793.555-17.029.427.318 2.257-.013 2.788 1.058.537 1.069.317 6.464.359 6.696 1.547 7.089 1.098 10.053 2.042 20.581.943 10.488.148-14.562.362-17.365.215-2.795 1.371 3.057 1.669 5.093.299 2.038.07 5.468.319 6.619 1.652 7.521.349-12.451.74-16.439.933-9.444 2.238 9.116 3.322 10.912.293.486-.036-3.741.205-4.143.956-1.534 1.689 4.249 2.7-1.093.164-.871.824-12.063 1.61-3.879.112 1.18-.02 5.816.43 6.843.682 1.542 1.826 2.528 2.471.965.474-1.157-.275-8.773.41-6.418.305 1.052-.113 5.528.451 7.131.561 1.604 1.898 1.377 2.408 1.211.507-.169.096-5.95.128-6.341.199-2.239 1.12-5.052 1.207-5.047 4.334-.805 8.615 8.86 12.762 5.539.327-.252-.028-6.35.021-6.452 1.086-2.582.54 13.665 1.455 19.079-.385-12.383.135-10.151.912-11.526.374-.673.058-5.464.083-5.956.419-7.297 1.025 2.103 1.17 4.025.535 7.072.774-1.302 1.132 3.424.359 4.692-.083 11.667.681 11.562.12-4.439-.699-16.012-.157-17.902 2.039-7.15 6.379 1.852 8.171 2.759 1.784.906 2.339.076 3.405 1.656 1.927 2.858 1.063-5.723 2.143-9.682 1.084-3.959.958 17.203 1.22 21.747.259 4.541.341-.141.598 2.353s-.121 5.594.378 6.522c.5.927 1.629-7.185 1.701-11.943.149-10.079-.658-20.638.682-16.95.077.219-.044 5.785.246 6.342 2.293 4.236 4.622 4.453 6.898 8.195.313.523.169 6.716.353 7.09 1.916 3.92 1.048-6.498 1.821-18.107.087 15.426.835 24.85 2.236 24.913.842.043.561-6.69 1.01-11.448.134-1.434.824 3.178.868.009.148-10.362-.646-21.942.892-17.356.067.218-.02 5.89.205 6.229 1.452 2.219 1.403-8.615 2.902-9.958 1.176-1.053 3.44 5.509 4.83 6.556.318 17.34 1.523 13.344 1.806 1.379.892.472 1.832-.223 2.719 1.412.306.558.212 5.582.259 6.124.737 8.497.892-3.141 1.074-3.601 1.985-4.473 3.85 4.309 5.648-4.345.064-.311-.058-12.358.641-3.574.046.606-.498 6.098.438 6.504.936.407 2.814 6.829 3.999 1.223.285-1.35.892-11.143 1.67-3.516.104 1.036.079 4.492.238 6.412.511 6.117.49-6.061 1.152 4.273.662 10.332 1.772 18.059 2.935 10.898.037-.208.158-9.863.571-9.718.657.239 1.624 2.231 2.306 2.155.327-.039.002-6.027.057-6.138 2.137-3.399 3.788 1.912 6.186 4.185.439.429 1.523-7.765 2.482-1.322 1.052 7.054.675 36.486 2.644 29.438.793-2.819 1.156-40.157 3.05-20.851 2.869-4.848 5.798 4.996 8.632-1.901.127-.306.353-10.729.669-10.593.471.222.818 5.085 1.157 5.399 1.421 1.44 2.626-2.749 3.977-2.127.514.226.431 5.263 1.044 5.533.613.265.893-6.371 1.777-3.185.668 2.428 1.546 15.964 2.402 17.527-.22-13.363.353-13.099 1.296-16.645.181-.688-.115-5.335-.033-5.901.328-2.404.747 1.444 1.053-1.172.074-.628-.008-5.192.048-5.963.473-6.732 1.652 3.515 1.855 5.299.777 6.776.969.834 1.517 3.498.548 2.663-.133 6.019.478 7.629 1.268 3.333 2.803 2.566 4.031 2.753.49.047.042-6.039.11-6.174.982-1.564 2.124 4.897 2.456-7.248 1.288 31.361.551-3.054 2.111 3.199.123.506.546 15.34.151 17.527-.396 2.184-1.144-2.441-1.685.965-.129.8-.689 14.718-.785 15.562-.754 6.599-1.295-15.57-1.364-16.787-.774-13.132-1.498 1.865-1.743 2.904-1.121 4.765-2.207 1.667-3.154 5.07-.62 2.201-.412 16.725-.939 16.29-1.752-1.437-2.736-21.685-4.035-4.088-.279 3.753.367 19.62-1.119 7.162-.093-.786-1.236-12.187-1.636-4.954-.05.912.039 5.538-.043 5.928-.547 2.525-1.013-1.153-1.628.624-.614 1.778-1.343 4.424-2.111 2.868-.464-.929-1.201-9.537-1.454-11.643-.719-6.068-1.178 3.911-1.691-3.443-.516-7.391.008-18.64-1.07-23.401.19 12.019.339 24.357.509 36.445-2.175-.382-4.369-4.229-6.535-3.656-.268.083.13 6.539-.154 6.794-1.2 1.05-2.352-3.536-3.579-1.678-.95 1.463-1.89 8.325-2.876 10.068-.882-13.741-2.316-9.043-3.442-10.279-.395-.427-.439-4.1-.737-5.293-1.121-4.412-.403 7.732-.65 9.65-1.061 8.185-1.693-19.321-3.114-18.613-.075.028-.722 14.709-.832 15.624-.697 5.97-.232-5.101-.761-6.175-.965-1.962-1.684-5.451-2.693-1.135-.294 1.278-.882 10.432-1.636 3.375-.099-.924-.147-5.772-.218-6.054-1.276-4.709-1.012 10.521-1.588 15.692-.576 5.169-1.821-5.323-2.092-8.349-.707-7.827.36-3.358.375-4.128.176-9.16-.554-7.57-1.149-8.332-.373-14.93-1.172-14.018-.618-.73.062 1.452.488.05.618.73-.224 14.66-1.089 16.554-2.344 2.883-.589-6.408-.297-13.897-1.651-11.133-.614 1.248-.167 11.524-.675 14.338-1.161 6.421-3.016-3.137-4.308-1.6-.472.558.109 6.177-.21 6.752-.845 1.544-1.7-2.663-2.535-.483-.075.205.235 6.092-.036 6.173-2.055.725-3.919-3.013-6.077-3.075-1.047-.027-2.848 3.259-3.94 2.628-1.894-1.06-4.348-9.581-5.918-7.468-1.018 1.354-.669 7.242-1.035 11.265-.705 7.8-2.511-6.109-2.76-8.263-.008-.071.859-1.479.32-4.494-.406-6.297-.311 4.466-.32 4.494-.164-1.392-1.977-2.693-2.308-1.559-.179.619.042 6.2-.054 6.417-2.297 5.045-4.674 6.514-7.146 3.953-.045-.112-.11-6.358-.214-6.543-1.454-2.747-2.204 4.911-3.272 9.47-1.067 4.558-2.017 3.059-2.928-7.647-.845 1.368-2.195-3.345-2.974-6.205-.779-2.861-.625 9.297-.683 9.539-1.828 7.733-3.123.8-5.198-.239-.988-.514-2.869 1.29-3.911 2.642-.817 1.089-1.383-1.748-2.114.09-.099.246.124 5.655.096 5.865-.718 6.494-.593-6.746-.822-9.105-.831-8.58-1.329-13.148-2.338-9.081-.233.931-.55 19.998-.985 21.122-.565 1.427-.491-5.406-1.087-3.738-.051.136.053 4.349-.342 4.171-1.83-.766-3.852-3.174-5.706-2.71-.254.048.223 6.722-.141 6.9-1.701.831-3.637.628-5.391-2.461-.433-.782-.28-5.466-.402-6.853-.746-8.393-1.25 3.838-1.373 4.073-2.931 5.94-5.605-5.056-8.603.28-.161.313-1.17 13.436-2.032 2.222-.058-.746-.919-12.22-1.248-4.353-.02.492.485 6.397-.164 5.81-.65-.587-1.574 3.387-2.598-3.089-.324-2.041-1.252-13.484-1.846-4.33-.034.639-.802 21.324-1.608 7.085-.131-2.344-.425-17.425-1.221-9.669-.151 1.503.273 4.858-.171 6.971-.679 3.256-1.781-.758-2.539 5.982-.132 1.193-.562 11.446-1.305 3.691-.117-1.215-.08-6.253-.384-6.809-1.451-2.668-2.845.737-4.34-2.71-.531-1.211-.484-9.356-1.06-11.524s-1.677-4.237-2.121-.504c-.446 3.735.484 16.69-.302 17.749-3.473 4.601-7.127-2.916-10.73-3.932-.529-.151.032 4.478-.736 4.587-2.798.422-7.636 4.913-10.377-4.876-2.225-7.841.11-13.927-1.508-17.097-.781-1.511-1.128 13.59-1.29 14.07-1.575 4.873-2.943-1.772-4.455.325-.308.435.192 6.537-.072 6.84-.9 1.088-1.959-1.61-2.824-1.084-.387.25-.17 4.915-.543 4.566-.883-.781-1.734-2.718-2.73-7.066-.092-.396.254-6.219-.406-6.414-1.067-.3-2.508-4.573-3.557-.078-.313 1.352.03 12.019-.981 4.678-.214-1.534-.427-14.349-.97-3.252-.094 1.844-1.108 16.821-2.161 7.224-.279-2.526-1.126-12.99-1.497-11.329-.05.265.376 5.986.042 6.557-1.159 1.911-2.536 1.347-3.755 3.186-.326.502.392 6.413-.1 6.973-1.352 1.547-3.12.099-4.587-1.706-.534-.676-.362-5.6-.418-6.133-.914-8.67-.834 3.075-1.004 3.766-1.074 4.142-2.154-1.336-3.256.166-.299.399.137 5.985.093 6.486-.459 4.898-.362-5.166-.813-6.258-1.264-3.091-2.506-2.593-3.602-1.833-.401.287.32 6.754-.043 6.937-1.691.918-3.435.835-5.154-.788-.567-.512-1.132-1.177-1.692-2.012-.44-.668-.397-5.672-.531-6.809-.938-7.954-1.322 2.967-1.47 4.013-.684 4.773-1.194.371-1.976 1.232-3.69 4.277-8.563 1.583-12.264-.033-4.845-2.076-8.77-6.614-13.142-5.104-.281.09.423 6.708.188 6.87-2.97 1.794-6.27-.588-9.177 1.55-.243.164.582 6.424.21 6.899-.764 1.017-1.776.75-2.786-1.191-.48-.935-.352-6.37-.83-7.202-1.107-1.948-2.156-2.315-3.054-1.227-.374.476.77 6.85.247 6.968-3.569.937-6.858 2.351-11.22-5.589-.298-.545-1.863-13.556-2.134-11 .345 3.62.8 7.873 1.194 11.739-4.87 2.625-9.711-1.329-15.434-1.195-.247.007 1.175 6.816.703 6.865-.83.09-1.687.369-2.623.544-.344-.086-1.417.323-1.76.227-2.032.33-4.155.057-6.82-4.51-.371-.639-1.533-12.797-2.224-10.865-.113.351-1.297 2.114-1.368 4.786-.007.403.83 6.047.41 6.258-2.506 1.129-5.4.104-8.511-3.126-.495-.533-.535-6.622-.887-7.055-2.528-3.024-4.687 1.779-8.05-3.592-2.324-3.629-1.897-14.147-3.142-24.458-.094-1.446-1.885-1.707-1.79-7.736.97-15.082 1.59-31.618 2.385-47.707.195-1.705.47-1.737 3.478-1.883.857-.007 1.664-.056 3.181.043 1.363.063 2.795.175 3.298-.122.54-.278-.064-1.101-1.506-2.231-.702-.558-1.583-1.172-2.431-1.781-.627-.568-1.302-1.166-1.96-1.788-.662-.395-2.824-1.443-3.538-2.58-.832-1.159-1.144-2.56-1.282-3.985-.19-1.967.212-8.078-.234-10.596-.444-2.513-.59 2.616-.777-.337-.164-2.991-.484-9.936-.5-10.76m235.658 84.164c-.795-5.824-.438 15.559.178 10.428.029-.273-.137-10.143-.178-10.428m80.932-4.986c-1.052-9.415-1.387 4.464-.633 11.735.754 7.264.954-8.882.633-11.735m8.95-7.057c-1.162-7.417-.751 22.906.228 16.756.057-.347-.16-16.326-.228-16.756m-319.949 16.25c-.024-.283-.673-.523-.675-.241.015 6.802 1.387 7.273.675.241m328.819-23.916c-.396-4.095-1.226.657-.734 5.749.397 4.097 1.227-.654.734-5.749m-134.175-2.329c-.018-.319-.411-.597-.361 1.204.163 5.8.662 4.15.361-1.204m149.485 1.693c-2.286-1.099-4.127-26.119-1.609-23.339.456.503-.813 8.005-.202 10.252 1.117 4.094 1.513-11.644 2.732-3.237.221 1.539-.79 16.442-.924 16.359zm-114.995-5.328c-.02-.282-.564-.539-.571-.258-.146 6.794.949 7.314.571.258m-57.483-9.027c-.046-.601-1.301-1.133-1.326-.577-.359 11.115 2.175 12.223 1.326.577m93.388-7.363c.456-6.84 1.134-7.658 1.772.908-.592-.444-1.172-.499-1.772-.908"/><path d="M50.868 156.475c-1.387 1.311-.863-.726.046-3.386.28-.826 2.394-3.974 2.673-4.691.539-1.403-.685.024-.022-1.63.228-.565 3.5-5.6 3.664-6.077.867-2.584-.467-1.606-.382-3.044.36-7.128-1.806-10.94-3.859-15.134-.67-1.375.46-6.932-1.794-5.407-.265.183-2.58 4.918-2.803 5.292-3.41 5.724 1.548-3.689 1.922-5.084 1.484-5.505.465-6.553-1.418-5.204-.813.584-4.94 10.215-2.805 4.722.142-.372 2.678-5.362 2.82-5.956.311-1.34-.616-.674-.636-1.174-.021-.986-.112-.967-.454-1.197-.453-.361.112-3.163-.96-2.255-.232.211-2.44 5.507-3.013 6.32-.573.811-.806.175-.417-1.131.393-1.305 2.266-5.407 2.653-6.365 3.245-8.102-2.103 2.748-2.269 3.003-3.126 4.2-1.411-2.52-2.167-2.77-.35-.105-.97.889-.737 1.538-.127.215-.233.331-.29.221-.2-.452-.087-3.599-.766-3.158-.065.041-.967 6.725-1.03 6.791-.655.703-1.047-.078-1.713-4.659-.073-.465.246-6.38.169-7.199-.325-4.893-2.339-16.564-1.815 9.223-.368-.995-.792-2.015-1.563-7.168-.514-3.314-.783-9.765-.918-6.991-.026.618.566 6.237.507 6.737-.219 2.095-.879.323-.876 3.268.006.612.718 5.624.825 6.529.93 7.324-1.041-4.72-1.29-5.578-1.55-6.449-1.589-3.794-2.058-3.858-.114-.016 1.445 6.603 1.409 6.822-.171.946-.534.621-1.524-1.542q-.034-.354-.1-.761c-.122-.682-1.889-6.199-2.056-6.8-.855-2.546 2.666 7.813 2.035 5.528-.144-.463-1.875-5.11-2.061-5.621-3.046-7.988 1.24 3.342 1.399 3.567 1.621 3.282-3.684-8.206-3.272-6.408.083.212 3.012 5.761 3.105 6 .688 1.6-.47.251-4.487-2.977-.618-.495-3.458-4.258-3.825-4.709-5.863-6.936 1.64 2.642 1.901 3.02 1.774 2.806-5.38-4.489 3.989 6.568-4.98-2.279-.772 5.07-12.487-1.222-.14-.068-4.618-4.048-4.88-4.165-3.201-1.44 3.966 4.508 12.255 12.338 2.09 1.955-8.718-6.554-9.525-7.16-2.947-2.266-9.659-8.132-10.245-8.552-4.64-3.256 18.003 15.612 17.649 16.052-.05-.017-4.17-3.547-4.617-3.853-1.402-.963.157.534-1.379-.539-3.55-2.489-14.693-11.487-8.619-5.75.791.741 13.778 11.27 12.827 11.185-.39-.043-.78.888-1.796.421-1.014-.467-5.078-4.009-5.271-4.141-6.012-3.898-8.125-5.98-16.568-12.314-8.415-6.305 11.138 9.373 13.214 11.254 2.071 1.874-2.857-1.379-4.535-2.553-1.678-1.176-4.232-3.463-5.21-4.093-6.399-4.106 9.449 8.099 12.37 10.812 6.922 6.421-7.858-4.861-9.643-5.55-.484-.185 2.887 2.379 3.104 2.74.812 1.398-3.903-1.996-.202 1.879.606.628 8.896 8.142 2.333 3.211-.945-.713-4.43-3.766-5.39-4.233-1.44-.701-2.641-.838-1.709.46.688.963 6.762 5.596 4.694 4.373-.921-.549-4.138-3.661-5.579-4.459-1.438-.8-1.796-.074-1.875.254-.078.332 4.42 3.98 4.7 4.252 1.596 1.572 3.29 3.881 3.245 3.921-1.44 2.719-10.313-2.038-10.258 2.297-.012.343 4.225 4.741 4.265 4.84 1.01 2.537-9.348-9.979-13.323-13.712 8.275 9.218 6.544 7.759 6.98 9.173.213.692 3.429 4.254 3.727 4.645 4.298 5.907-2.03-1.075-3.283-2.538-4.678-5.323.298 1.409-2.792-2.183-3.014-3.608-7.029-9.307-7.29-8.993 2.569 3.618 9.978 12.541 10.711 14.344.762 1.976.516 3.03-.238 3.477-1.364.769-5.358-2.419-6.387-2.581-1.464-.213-1.358.671-2.727-.383-2.455-1.924 2.227 5.299 3.513 9.098 1.27 3.804-8.816-14.797-11.145-18.704-2.314-3.914-.101.211-1.425-1.912-1.32-2.124-2.63-4.934-3.308-5.63-.666-.7 2.647 6.71 4.843 10.928 4.672 8.928 10.08 18.021 7.596 15.146-.145-.172-2.684-5.124-3.102-5.536-3.22-3.122-4.517-2.734-7.399-5.499-.4-.389-3.135-5.942-3.398-6.231-2.747-3.03 2.414 6.046 7.247 16.597-7.006-13.743-11.638-21.97-12.37-21.694-.444.163 2.726 6.108 4.637 10.466.576 1.313-1.848-2.641-.446.201 4.581 9.29 10.187 19.443 7.345 15.716-.132-.179-2.637-5.266-2.904-5.514-1.736-1.632 3.158 8.033 3.025 9.58-.101 1.213-4.166-4.117-5.314-4.725-8.079-15.346-6.884-11.485-1.498-.806-.644-.211-.763.62-1.943-.62-.404-.422-2.713-4.882-2.989-5.349-4.344-7.326 1.04 2.99 1.176 3.435 1.212 4.391-3.91-2.843-.475 5.124.121.289 6.136 10.726 1.496 3.25-.325-.513-2.804-5.412-3.42-5.542-.588-.143-4.616-5.052-2.468-.305q.044.106.092.216c.555 1.237 5.25 9.83.936 3.512-.584-.859-2.337-3.837-3.4-5.441-3.379-5.114 2.832 5.359-2.763-3.345-5.596-8.704-9.998-15.095-6.942-8.609.088.189 4.876 8.571 4.591 8.562-.454-.024-1.917-1.496-2.22-1.247-.143.122 2.973 5.242 3 5.353.573 3.551-2.903-.617-5.19-1.998-.412-.271 2.876 7.248-.64 1.806-3.83-5.969-17.41-32.069-14.943-25.439 1.034 2.627 17.835 35.965 8.137 19.209.708 5.027-4.96-3.21-3.45 3.638.068.304 4.255 9.845 4.015 9.8-.355-.09-2.52-4.453-2.823-4.668-1.322-1.009-.294 3.091-1.29 2.813-.366-.1-2.242-4.772-2.66-4.902-.404-.13 1.906 6.089.254 3.305-1.264-2.121-6.564-14.595-7.449-15.946 4.821 12.465 4.453 12.315 5.16 15.816.136.68 1.868 4.999 2.014 5.546.615 2.33-.917-1.215-.232 1.312.162.608 1.703 4.904 1.917 5.645 1.845 6.481-2.22-2.978-2.865-4.648-2.544-6.307-.849-.616-1.971-3.063-1.09-2.459-1.703-5.77-2.493-7.221-.339-.633-.622-1.095-.864-1.429l.243-.068c-.833-1.302-1.221-.782-1.694-.859-.23-.013 1.052 5.945 1.046 6.082-.32 1.633-1.862-4.684-.33 7.36-5.133-30.96.1 3.064-1.682-3.025-.139-.493-2.314-15.172-2.396-17.362-.088-2.186.924 2.354.686-1.045-.025-.802-1.925-14.58-2.078-15.409-.979-6.51 2.862 15.329 3.12 16.52 2.58 12.892.243-1.915.006-2.925-.451-3.164-.259-2.835-.195-3.312l-.915.254c.031-.237.01-.661-.23-1.749-.462-2.15-4.986-15.954-4.789-15.551.608 1.348 7.88 20.269 2.21 3.63-1.222-3.544-7-18.331-2.253-6.782.28.736 4.749 11.25 2.23 4.477-.321-.853-2.054-5.143-2.178-5.512-.807-2.385.695.982.187-.719-.507-1.701-1.358-4.2-.538-2.844.482.813 4.124 8.629 5.06 10.523 2.685 5.46-1.175-3.734 1.993 2.913 3.215 6.666 7.53 17.049 9.98 21.186-4.988-10.937-10.096-22.168-15.124-33.162.823.088 3.228 3.246 3.766 2.385.06-.117-2.917-5.854-2.933-6.125-.073-1.111 2.376 2.812 1.98.952-.325-1.46-3.151-7.704-3.644-9.395 6.677 12.029 5.036 7.609 6.02 8.502.348.305 2.11 3.528 2.792 4.521 2.537 3.662-3.536-6.87-4.364-8.598-3.562-7.36 9.908 16.63 10.183 15.693.029-.047-6.875-12.992-7.291-13.806-2.668-5.336 2.586 4.4 3.32 5.23 1.339 1.513 3.365 4.387 1.62.43-.513-1.173-4.881-9.209-1.045-3.264.503.778 2.96 4.957 3.13 5.186 2.892 3.786-4.9-9.302-7.32-13.867-2.428-4.557 3.388 4.213 5.055 6.746 4.294 6.563 1.575 2.963 1.964 3.627 4.607 7.913 4.102 6.376 4.74 6.892 7.82 12.725 7.718 11.736.635.482-.773-1.23-.23.071-.634-.482-5.535-9.412-7.329-12.8-4.74-9.199.956 1.189 2.424 3.196 4.41 6.073 3.641 5.297 7.257 11.853 6.67 9.012-.26-1.286-5.676-10.028-6.738-12.658-2.386-6.023 3.522 1.644 3.567-.117.029-.646-3.028-5.384-3.098-5.998-.182-1.65 2.352 1.774 1.847-.418-.048-.205-3.01-5.3-2.874-5.462.993-1.325 3.874 1.413 5.16.852.624-.276.164-3.703 1.051-3.428 1.532.44 6.645 7.444 6.472 5.19-.101-1.449-2.925-6.623-4.559-10.3-3.172-7.122 3.947 4.89 5.043 6.754.037.06.264 1.51 1.883 4.078 3.041 5.523-1.874-4.052-1.883-4.078.709 1.204 2.139 1.966 1.767.888-.201-.59-2.847-5.508-2.904-5.72-1.3-4.964-1.105-6.678.964-4.837.069.09 3.062 5.573 3.188 5.717 1.85 2.152-1.563-4.696-3.498-8.814-1.929-4.121-1.013-2.897 4.622 6.228-.454-1.3 2.29 2.581 3.996 4.91 1.709 2.325-4.677-8.021-4.794-8.232-3.485-6.358-.319-1.578.842-.423q-.015.194-.06.342c-.255.82-2.034-.034-3.166-.82-.932-.619.836 1.62-.49.36-.179-.166-3.753-4.231-3.897-4.382-4.52-4.647 4.425 5.108 5.984 6.884 5.707 6.428 8.918 9.696 6.204 6.696-.591-.716-13.88-14.374-14.727-15.104-1.034-.966 3.808 3.852 2.634 2.687-.096-.096-3.096-3.055-2.972-2.916.54.603 2.514 2.088 2.47 1.502.005-.067-5.02-4.473-5.103-4.636-.389-.755.107-.948 2.862.639.695.403 4.214 3.49 5.296 4.362 6.564 5.257-2.585-2.844-2.74-3.022-3.766-4.649 5.485 1.499 2.45-3.118-.181-.266-9.922-9.047-.976-2.249.595.452 9.74 7.418 3.816 2.249-.37-.324-5.105-3.877-4.404-3.785.7.091-1.989-2.867 3.403.804 1.7 1.154 10.85 8.069 4.086 1.904-.482-.419-15.963-14.126-4.727-5.349 1.85 1.446 13.487 11.042 7.916 5.64-1.08-1.05-3.826-3.006-5.237-4.598-2.17-2.46 1.385-.42-3.348-5.238-.843-.847-8.364-7.815-2.13-3.154.975.731 4.754 4.062 5.326 4.257 2.733.948.905-2.102 4.29-.689 1.188.499 7.206 5.985 9.114 7.116 1.908 1.129 4.003 1.923 1.505-.867-2.49-2.8-12.52-11.049-12.817-12.275-1.22-5.399 6.757-2.782 10.184-4.562.523-.276-3.055-3.276-2.487-3.944 1.888-2.354 4.162-10.101 13.039-4.412 6.862 4.72 7.929 11.446 11.323 12.92 1.537.766-6.416-12.089-6.446-12.648-.702-5.4 4.568-.86 5.525-3.829.222-.628-3.352-5.615-3.1-6.107.872-1.75 3.737-.223 4.925-1.405.543-.55-1.708-4.643-.898-4.649 1.908-.055 4.191 1.042 7.466 4.387.281.313 1.745 6.011 2.902 5.743 1.93-.469 5.516 2.762 6.263-2.18.205-1.478-2.938-11.689.791-5.118.588 1.062 2.647 8.657 2.877 7.034 0-.465-.189-1.746-.636-4.267-.405-1.802-2.27-16.775 1.082-7.685.881 2.39 3.953 12.434 4.033 10.721.008-.272-1.595-5.784-1.297-6.428 1.085-2.178 2.799-1.917 4.014-3.974.333-.562-1.41-6.27-.852-6.926 1.55-1.816 4.104-.692 6.061.92.727.605.933 5.535 1.052 6.059 1.816 8.533.725-3.16.906-3.872 1.043-4.253 2.787 1.113 3.996-.457.346-.419-.395-5.974-.36-6.478.426-4.929.638 5.14 1.224 6.205 1.623 3.02 3.053 2.483 4.405 1.71.496-.291-.347-6.753.12-6.94 2.789-1.23 5.865-.618 8.48 3.044.49.701.005 5.687.072 6.83.392 8.004 1.816-2.836 2.148-3.858 1.365-4.674 1.574-.232 2.605-.986 5.202-3.767 11.392.04 16.069 2.962 1.32.804 2.567 1.736 3.76 2.714 6.227 4.176 7.537 7.784 11.172 8.163.278.035 2.533-6.226 2.813-6.271 3.513-.292 4.884 3.16 8.021 2.49.255-.044 2.61-5.9 3.114-6.158 1.065-.565 1.718.119 1.493 2.24-.107 1.021-2.83 5.717-2.895 6.643-.165 2.166.35 2.911 1.496 2.343.49-.255 2.855-6.273 3.275-6.152 2.937.715 6.026 1.032 4.682 9.743-.092.598-6.002 12.293-4.492 10.247 1.712-3.208 3.694-6.999 5.507-10.436 4.581.034 5.908 5.933 9.068 8.542.136.11 3.313-6.07 3.599-5.885 1.637 1.053 4.326.393 2.548 7.368-.171.684-6.525 11.115-5.081 9.826.26-.237 1.847-1.182 3.42-3.328.235-.325 3.051-5.285 3.387-5.275 1.926.157 2.816 2.242 2.47 6.155-.065.638-3.595 5.587-3.674 6.083-.571 3.46 3.325.498 1.453 5.886-1.288 3.61-7.481 12.09-12.953 20.862-.774 1.237-.485 1.717-3.898 6.664-8.585 12.437-18.167 25.93-27.292 39.205-1.965 2.859.438-.021-4.517 6.745-.332.453-2.1 2.613-3.755 4.927-1.143 1.6-4.566 6.664-6.044 8.703-1.47 2.041 1.37-2.225-.388.157-1.772 2.416-5.635 8.198-6.242 8.781m-84.37-63.08c3.396 4.758-8.27-13.166-5.645-8.77.14.234 5.48 8.537 5.645 8.77m-35.81 23.668c4.51 8.296-1.35-4.278-4.805-10.698-3.411-6.431 3.457 8.174 4.805 10.698m-.956 8.007c3.399 6.635-8.612-21.211-6.535-15.431.118.326 6.342 15.044 6.535 15.431M99.71 82.616c-.152.24-.013.666.15.436 3.941-5.535 3.629-6.403-.15-.436M-71.52 133.59c1.487 3.827.354-.794-1.517-5.544-1.473-3.831-.287.767 1.516 5.544m63.548-34.293c.251.196.611.207-.79-.923-4.518-3.641-3.435-2.377.79.923m-70.561 35.974c1.543.923 5.744 25.631 4.083 23.014-.31-.471-.651-7.977-1.277-10.169-1.184-3.985.819 11.619-1.007 3.374-.357-1.506-1.914-16.324-1.802-16.254q0 .018.003.035m59.142-20.411c.16.234.562.292.414.053-3.599-5.758-4.358-5.912-.414-.053m29.585-16.789c.464.385 1.31.278.909-.105-8.054-7.652-9.881-7.355-.909.105m-40.173 40.456c2.912 6.186 2.987 7.056-1.266-.395.486.256.793.17 1.265.395m-65.114 49.256c3.19-1.327 6.383 1.27 8.61 4.448.69.985-.41 4.638.052 5.489.867 1.654 2.282.02 3.086 1.949.273.659-1.266 6.482-.954 7.038 1.647 2.993 4.015 1.867 5.913 3.507 1.816 1.536 3.6 2.92 5.487 4.207 7.885 5.494 16.145 8.926 24.492 12.699 3.397 1.529 6.773 7.682 10.866 6.005.48-.2 1.169-5.431 1.328-5.844 2.477-6.307.15 4.083.73 5.625 2.31 6.093 5.934 7.247 9.486 5.828 1.52-.618 2.033-11.164 2.35-5.134.024.408-1.326 5.85-1.06 6.505.607 1.476 2.386.784 2.964 1.34 1.105 1.099 1.326 1.082 2.508 1.363 1.608.432 3.053 3.524 5.033 2.597.425-.214.962-5.947 1.735-6.798.772-.85 2.265-.082 2.555 1.346s-.75 5.822-.841 6.855c-.795 8.723 3.206-2.827 3.495-3.077 5.208-4.222 7.645 3.222 11.67 3.942 3.068.533 6.748-1.1 9.594-.258 3.406 1.027 5.747 4.62 9.237 4.723.363.016 1.175-6.693 1.621-6.686 4.76.083 9.215 1.657 12.982 6.992.374.541-1.304 6.251-.995 7.139 1.494 4.167 3.284 12.673 7.036 4.001 1.075-2.361 2.307-6.003 3.74-11.364 1.866 1.382 4.185 2.909 4.928 8.374.473 3.516-1.983 9.592 0 7.197.45-.531 1.202-6.147 1.794-6.525 2.492-1.584 4.314.701 6.992-1.677.546-.497 1.575-5.455 1.898-6.316 2.656-6.964 1.58 5.323 1.702 6.265 1.14 7.075 3.689 5.031 6.182 5.845.572.191 1.597-6.569 2.216-6.62 3.17-.178 6.139 1.244 8.121 4.954.452.845-1.74 6.241-1.61 6.929.566 2.959 3.93-7.455 4.523-4.814.134.545-1.433 5.252-1.54 5.789-1.685 8.417 2.44-2.99 2.721-3.185 3.543-2.743 1.35 9.82 4.207 8.855.347-.127 1.637-6.303 2.502-6.292 5.821.053 10.856 3.627 14.067 10.103.514 1.003-1.622 5.245-1.768 5.809-2.259 8.833 2.326-2.445 2.725-2.789 3.063-2.406 1.426 7.841 7.521-5.372 3.404 4.305 8.53 4.326 9.311 5.095 2.024.836 5.026 2.779 8.101 8.396.096.154-.327 6.133-.129 6.415 2.395 3.452 2.258-5.874 4.062-17.221.423-2.85 1.425 10.915 1.539 11.923.363 3.719-.176 12.625-.046 13.346 1.143 5.66 1.226-23.813 2.683-23.816.047.05-.17 5.474-.045 6.014.393 1.695.783-.46 1.172 1.407.886 4.32 1.303 18.641 2.664 10.295.167-1.083-.239-17.798 1.109-17.023.54.324 2.921-.002 3.619 1.064.697 1.067.357 6.464.409 6.696 2.019 7.078 1.391 10.046 2.633 20.565 1.269 10.476.284-14.568.58-17.375.294-2.799 1.843 3.033 2.257 5.062.412 2.032.103 5.468.448 6.614 2.307 7.48.434-12.464.937-16.463 1.146-9.468 3.08 9.052 4.617 10.804.409.474-.102-3.74.22-4.151 1.271-1.574 2.393 4.176 3.641-1.216.219-.879.793-12.103 2.069-3.964.183 1.174.132 5.817.77 6.818.945 1.504 2.585 2.415 3.405.808.6-1.188-.692-8.75.325-6.443.453 1.03.051 5.533.881 7.096.181.343.41.595.66.777 1.844.582 3.45.694 4.182.679.915-.01 1.418-5.792 1.549-6.167.909-2.123 3.446-4.441 3.604-4.39 8.179 1.289 9.878 12.386 16.652 11.212.522-.083 2.179-5.967 2.279-6.039 2.318-1.917-4.062 13.06-4.742 18.564 3.817-11.786 3.702-9.457 5.205-10.383.716-.461 1.975-5.098 2.178-5.548 3.073-6.652.604 2.446.119 4.314-1.765 6.878 1.447-.87.283 3.732-1.158 4.567-4.152 10.908-3.113 11.163 1.692-4.11 4.627-15.348 5.986-16.874 3.436-3.863 5.654-.491 7.38 2.654.755 1.522 1.428 2.989 2.056 3.505 1.909 1.557 2.837.959 3.704 2.858 1.602 3.426 2.939-5.117 5.271-8.585 2.3-3.485-3.366 16.905-4.234 21.375-.845 4.473.499-.016.197 2.48-.292 2.499-1.632 5.359-1.166 6.433.49 1.082 4.134-6.387 5.356-10.99 2.621-9.74 4.131-20.228 4.883-16.269.045.235-1.4 5.615-1.163 6.24 1.943 4.784 4.923 5.6 7.28 9.808.328.588-1.008 6.642-.822 7.054 1.969 4.309 2.654-6.145 5.613-17.426-2.494 15.224-3.065 24.683-1.042 25.044 1.199.218 1.858-6.491 3.194-11.108.395-1.393.658 3.299 1.185.171 1.712-10.227 2.339-21.823 3.654-17.025.058.228-.846 5.831-.597 6.204 1.63 2.443 3.006-8.305 5.093-9.414 1.628-.871 3.828 5.96 5.594 7.183-1.483 17.279.648 13.469 2.297 1.604l.09.043c1.093.509 2.236-.017 3.221 1.65.342.582-.167 5.583-.149 6.128.337 8.54 1.394-3.059 1.647-3.505 2.689-4.327 4.879 4.506 7.115-4.174.089-.313-.192-12.355.692-3.586.08.603-.514 6.112.636 6.49 1.074.386 3.868 6.67 4.872.938.296-1.384-.161-11.177 1.559-3.706.242 1.013.625 4.449 1.049 6.33 1.427 5.982-.25-6.078 2.017 4.03 2.239 10.114 5.512 17.407 6.007 9.965.036-.222-1.767-9.71-1.22-9.692.899.035 2.667 1.625 3.575 1.268.425-.171-1.696-5.784-1.656-5.912 1.393-4.002 4.871.361 8.862.901.804.071-1.983-7.733 2.263-2.767 4.772 5.351 19.306 31.007 18.671 23.045-.188-2.011-8.2-15.514-10.872-21.3l-.264.16c-1.255-3.441-.517-4.347 2.805 1.93 1.747-5.867 7.653 2.914 10.083-4.44.106-.326-1.02-10.7-.513-10.637.714.121 1.815 4.879 2.314 5.131 2.119 1.174 3.386-3.175 5.375-2.732.742.16 1.011 5.192 1.86 5.392.847.197.825-6.459 2.258-3.365 1.081 2.36 2.932 15.807 4.086 17.311-.879-13.336-.091-13.117 1.093-16.721.229-.699-.332-5.326-.236-5.896.397-2.425 1.103 1.398 1.465-1.235.09-.632-.14-5.191-.076-5.965.559-6.761 2.481 3.431 2.786 5.208 1.194 6.745 1.396.797 2.194 3.444.788 2.647-.128 6.023.729 7.616.268.5.544.905.825 1.235.022.005.091-.01.113-.005 1.67 1.805 3.464 1.183 4.966 1.244.703.001-.255-6.036-.165-6.177 1.252-1.648 3.312 4.67 2.894-7.484 4.078 31.127.533-3.107 3.104 2.929.203.488 2.097 15.208 1.693 17.445-.411 2.236-1.872-2.272-2.427 1.195-.112.813-.068 14.777-.192 15.633-.852 6.687-2.926-15.396-3.086-16.604-1.842-13.034-2.096 2.007-2.459 3.07-1.111 3.628-2.398 2.865-3.515 3.681-.089-.021-.37.043-.459.02-.335.267-.657.718-.958 1.587-.777 2.217-.307 16.736-.945 16.316-2.077-1.383-4.01-21.574-4.955-3.916-.19 3.767 1.247 19.581-.986 7.22-.125-.781-2.062-12.091-2.123-4.839-.003.914.37 5.526.305 5.921-.437 2.558-1.179-1.077-1.713.745-.527 1.823-1.024 4.518-1.916 3.039-.521-.886-2.117-9.377-2.61-11.442-1.42-5.95-.757 4.019-2.15-3.219-1.475-7.263-2.149-18.521-4.107-23.066 1.728 11.897 3.47 24.112 5.236 36.071-1.839-.154-4.228-3.624-4.935-2.878-.064.099 1.726 6.309 1.75 6.562.069.514-.144-.354-.266-1.152-.106-.805-.157-1.516.738-.903.596.41 1.775 1.626 3.39 2.761l4.56-2.757c.671 2.418 1.317 5.223.887 6.701-8.622-10.778-8.731-5.125-11.826-4.784-1.047.106-2.813-3.118-3.973-3.839-4.297-2.688 2.515 7.429 2.758 9.474.676 8.854-11.885-15.624-14.347-13.786-.052.06 3.459 14.486 3.378 15.492.095 6.352-2.191-4.621-3.793-5.171-2.911-1.036-5.346-3.908-6.6.941-.319 1.423.121 10.785-3.099 4.289-.406-.854-1.448-5.589-1.657-5.831-3.606-4.012-.368 10.851-1.117 16.264-.783 5.414-5.158-4.53-5.988-7.475-2.369-7.571.41-3.45.356-4.225-.742-9.156-2.016-7.346-3.285-7.951-2.277-14.759-3.459-13.702-1.274-.578.251 1.433.941-.063 1.274.578 1.083 14.649-1.125 16.819-4.364 3.368-1.49-6.311-1.355-13.819-3.56-10.906-1.032 1.309.06 11.543-.856 14.405-2.289 6.537-5.743-2.978-8.09-1.482-.864.544-.05 6.178-.662 6.743-1.675 1.513-3.006-2.743-4.664-.638-.157.197-.006 6.1-.53 6.155-2.74.37-5.037-1.462-7.455-2.758-.848-.55-1.738-.992-2.716-1.106-1.541-.174-4.686 2.811-6.325 1.995-2.854-1.374-5.539-10.288-8.312-8.537-1.824 1.114-2.218 7.003-3.477 10.889-2.49 7.527-3.167-6.654-3.146-8.836.005-.071 1.66-1.235 1.318-4.341.465-6.303-1.293 4.317-1.318 4.341-.022-1.409-2.739-3.181-3.502-2.169-.418.556-1.142 6.096-1.347 6.28-4.853 4.268-9.459 4.84-13.155 1.35-.05-.126 1.407-6.201 1.276-6.422-1.763-3.236-5.006 3.844-8.191 7.724-3.172 3.878-4.551 1.933-2.871-8.728-1.871.886-2.723-4.3-3.068-7.413-.341-3.11-4.119 8.444-4.306 8.638-1.455 1.593-2.555 2.3-3.429 2.436-2.141.539-2.304-3.807-4.178-5.281-1.195-.961-4.413-.179-6.263.6-1.473.634-1.242-2.296-2.837-.911-.217.183-1.808 5.36-1.918 5.543-3.215 5.75 1.571-6.602 2.092-8.921 1.914-8.425 2.85-12.941.137-9.588-.618.769-7.625 18.517-8.524 19.392-1.179 1.098 1.255-5.291-.017-3.97-.106.108-1.423 4.11-1.812 3.786-1.793-1.443-3.19-4.457-4.395-4.358-.145.002-1.815 6.476-2.013 6.596-.426.288-.55.423.484.283 1.194-.198 2.856-.361 10.082-1.875 4.066-.913 1.271-5.514 2.065-6.934q.27-.493.558-.906c-1.302-6.556-1.685 4.812-1.865 5.049-4.515 6.178-8.77-4.663-13.399.806-.24.321-1.811 13.491-3.165 2.301-.096-.744-1.403-12.194-1.935-4.316-.035.493.737 6.386-.282 5.817-1.013-.569-2.532 3.429-4.083-3.034-.499-2.036-1.758-13.471-2.868-4.311-.043.64-1.785 21.334-2.732 7.089-.154-2.345-.211-17.428-1.686-9.679-.288 1.502.295 4.862-.489 6.97-1.223 3.248-2.87-.786-4.456 5.928-.27 1.189-1.536 11.422-2.446 3.641-.139-1.219.197-6.251-.299-6.82-2.337-2.73-4.981.582-7.46-2.998-.879-1.259-.09-9.375-.921-11.593-.829-2.218-2.566-4.408-3.83-.762-1.284 3.646-.916 16.676-2.713 17.593-3.361 1.673-6.888 1.099-11.244-.58-9.058-2.847-12.993-7.167-16.973-9.046-.968-.486-1.55 4.207-3.079 3.801-5.709-1.512-13.59.218-13.287-10.128.204-8.309 5.27-12.9 4.474-16.591-.413-1.772-6.355 12.132-6.71 12.511-3.643 3.84-2.84-2.945-5.299-1.605-.507.279-2.074 6.202-2.48 6.377-1.362.665-1.648-2.3-2.775-2.138-.518.084-1.858 4.558-2.154 4.085-.747-1.086-.968-3.212-.657-7.696.025-.41 2.346-5.773 1.656-6.212-1.076-.679-1.391-5.282-4.021-1.405-.793 1.167-3.77 11.415-2.602 4.081.247-1.53 3.995-13.788-.062-3.43-.696 1.715-6.376 15.634-4.628 6.133.456-2.502 2.621-12.781 1.679-11.327-.136.236-1.349 5.846-1.906 6.275-1.892 1.432-3.274.442-5.16 1.82-.509.379-1.372 6.278-2.077 6.661-1.951 1.058-3.53-.873-4.672-3.041-.417-.809 1.077-5.508 1.156-6.039 1.248-8.637-1.774 2.717-2.143 3.335-2.308 3.683-2.156-1.927-3.798-.784-.445.303-1.343 5.834-1.518 6.308-1.723 4.621.883-5.104.645-6.286-.662-3.344-2.294-3.215-3.758-2.771-.546.169-1.233 6.648-1.703 6.728a6.3 6.3 0 0 1-1.855.131c-2.42-.236-4.737-1.684-6.566-4.849-.44-.78.833-5.627.924-6.771.654-8.003-2.583 2.476-3.033 3.447-2.11 4.427-1.791-.009-3.068.592-6.185 3.028-12.358-1.09-17.182-3.819-6.287-3.525-10.64-9.16-17.271-9.12-.421-.004-1.21 6.611-1.587 6.692-4.816.747-8.812-2.626-13.7-1.567-.398.075-.995 6.374-1.673 6.703-1.4.719-2.888.099-3.771-2.108-.431-1.065 1.353-6.237.899-7.2-1.055-2.254-2.492-2.973-4.134-2.246-.7.324-.922 6.837-1.741 6.763-5.607-.373-11.198-.264-15.255-9.487-.277-.633 1.735-13.585.483-11.259-.712 3.567-1.474 7.775-2.196 11.595-8.396.6-15.468-5.301-23.382-7.45-.33-.088-.99 6.848-1.635 6.712-2.249-.471-4.627-.228-6.667-1.544-1.448-.9-2.696-2.495-3.766-5.508-.267-.734 2.144-12.709.646-11.103-.281.291-2.218 1.597-3.166 4.119-.131.383-.831 6.05-1.415 6.113-3.352.274-6.426-1.603-8.998-5.604-.401-.654 1.206-6.533.932-7.051-2.03-3.638-5.622.406-7.056-5.443-.924-3.931 1.477-14.163 2.404-24.486.103-1.462-.718-1.834.23-7.768 2.23-14.948 5.496-31.182 7.858-47.118.16-1.728-.042-1.708-1.321-2.44a23 23 0 0 0-.755-.335l-.62-.218c-.112-.038-.211-.075-.343-.117l-.489-.131c-.351-.09-.601-.175-1.042-.271a14 14 0 0 1-1.092-.274c-.665-.181-.818-.369-.828-.59.07-.431-.467-1.033 1.885-1.661 2.18-.6 3.402-1.28 4.193-2.235 1.156-.41 2.957-2.922 3.723-5.677.544-1.902 1.178-7.995 2.054-10.399.856-2.404.44 2.723 1.578-.08 1.173-2.834 2.084-9.734 3.465-10.326m295.203 154.294c.915-5.844-5.9 14.427-3.305 9.893.133-.244 3.263-9.605 3.305-9.893m121.754-7.207c-2.99-8.997-.203 4.607 1.956 11.578 1.986 7.006-1.135-8.83-1.956-11.578m9.226-8.344c-2.104-7.257 1.077 22.902 1.602 16.682.032-.352-1.484-16.26-1.602-16.682m-440.175-51.297c.046-.281-.652-.686-.716-.411-1.577 6.618-.206 7.419.716.411m451.457 42.995c-.623-4.079-1.64.71-.863 5.78.604 4.079 1.613-.704.863-5.78m-181.122-7.25c-.029-.317-.586-.579-.494 1.22.3 5.794.991 4.123.494-1.22m203.008 4.993c-3.382-.705-8.218-25.354-4.632-22.957.665.43-.271 8.088.777 10.231 1.956 3.897.829-11.821 3.399-3.66.469 1.493.659 16.482.455 16.422zm-156.665 1.532c.069-.275-.562-.765-.666-.504-2.512 6.321-1.231 7.315.666.504m-77.487-19.501c-.01-.601-1.58-1.256-1.662-.708-1.62 11.027 1.832 12.402 1.662.708m128.203 13.193c1.356-6.741 2.345-7.468 2.303 1.132-.756-.516-1.547-.648-2.303-1.132"/></g></g></g><defs><filter id="a" width="699.59" height="402" x="0" y="0" color-interpolation-filters="sRGB" filterUnits="userSpaceOnUse"><feFlood flood-opacity="0" result="BackgroundImageFix"/><feColorMatrix in="SourceAlpha" result="hardAlpha" values="0 0 0 0 0 0 0 0 0 0 0 0 0 0 0 0 0 0 127 0"/><feMorphology in="SourceAlpha" operator="dilate" radius="1" result="effect1_dropShadow_79_17"/><feOffset/><feComposite in2="hardAlpha" operator="out"/><feColorMatrix values="0 0 0 0 0 0 0 0 0 0 0 0 0 0 0 0 0 0 0.05 0"/><feBlend in2="BackgroundImageFix" result="effect1_dropShadow_79_17"/><feBlend in="SourceGraphic" in2="effect1_dropShadow_79_17" result="shape"/></filter><filter id="c" width="1080.21" height="774.435" x="-316.203" y="-194.824" color-interpolation-filters="sRGB" filterUnits="userSpaceOnUse"><feFlood flood-opacity="0" result="BackgroundImageFix"/><feBlend in="SourceGraphic" in2="BackgroundImageFix" result="shape"/><feGaussianBlur result="effect1_foregroundBlur_79_17" stdDeviation="100"/></filter><clipPath id="b"><rect width="697.59" height="400" x="1" y="1" fill="#fff" rx="6"/></clipPath></defs></svg>