<svg width="700" height="402" viewBox="0 0 700 402" fill="none" xmlns="http://www.w3.org/2000/svg">
<g filter="url(#filter0_d_79_17)">
<g clip-path="url(#clip0_79_17)">
<rect x="1" y="1" width="697.59" height="400" rx="6" fill="#AFCAB9"/>
<g filter="url(#filter1_f_79_17)">
<path d="M-84.8345 130.098C-81.2453 125.314 -74.9885 123.725 -69.8386 123.801C-68.2243 123.815 -66.8633 127.421 -65.6783 127.591C-63.3709 127.924 -62.8989 125.488 -60.5013 126.125C-59.7071 126.359 -57.3046 131.905 -56.5472 132.035C-52.4247 132.714 -50.5634 129.913 -47.1317 129.486C-38.1899 128.4 -29.9819 126.671 -21.6938 124.686C-12.9517 122.311 -5.84664 120.887 1.4674 119.564C6.58661 118.649 14.0008 121.859 18.0306 118.019C18.4973 117.566 16.5133 112.672 16.4831 112.224C16.0894 105.354 18.8673 115.639 20.3812 116.631C26.429 120.526 31.2791 119.505 34.7902 116.298C36.2848 114.918 31.4622 105.449 34.9506 110.525C35.1877 110.868 36.3834 116.354 37.0321 116.78C38.5008 117.734 40.2726 116.153 41.2375 116.326C43.1301 116.68 43.3478 116.556 44.9076 116.159C46.06 115.893 47.5013 116.336 48.9258 116.504C50.1374 116.655 51.3213 116.606 52.2128 115.736C52.6115 115.322 50.3842 109.994 50.8828 108.835C51.3787 107.677 53.5948 107.55 54.6407 108.66C55.6999 109.766 56.6326 114.188 57.0357 115.148C60.4076 123.258 59.4794 110.974 59.7182 110.598C63.9385 104.143 70.5342 109.505 75.7275 108.141C79.6647 107.092 83.3465 103.825 87.2185 103.198C91.8178 102.478 96.3216 104.602 100.577 103.066C101.022 102.911 98.9633 96.4649 99.5071 96.2626C105.337 94.1082 111.491 93.4913 118.413 96.6592C119.102 96.9843 119.585 102.937 120.346 103.609C125.017 107.58 133.078 117.84 130.026 92.1479C132.736 92.6184 135.904 93.0386 139.166 97.6871C141.231 100.686 141.121 107.286 142.313 104.242C142.585 103.563 140.975 98.1225 141.468 97.5226C143.57 94.9973 146.616 96.2731 148.545 92.9282C148.935 92.2346 147.84 87.2903 147.811 86.3675C147.625 78.8847 151.897 90.4934 152.498 91.2821C157.073 97.1438 158.926 94.1496 162.058 93.7346C162.772 93.6439 160.701 87.1113 161.346 86.7835C164.732 85.168 168.523 85.0753 172.574 87.4184C173.468 87.9575 173.773 93.7864 174.25 94.3363C176.331 96.6934 174.785 85.857 176.767 87.908C177.183 88.3266 177.855 93.2431 178.01 93.7688C180.431 102.023 179.163 89.9479 179.364 89.6413C181.768 85.5123 185.933 97.6257 188.548 95.3627C188.862 95.079 187.013 89.0296 187.96 88.6099C191.42 87.0658 195.117 86.5266 199.031 86.9698C202.238 87.3553 205.658 88.4244 208.97 90.2125C210.108 90.8113 210.13 95.5814 210.287 96.1447C212.763 104.941 211.514 92.8231 211.776 92.3173C213.913 88.6368 217.893 98.3356 217.438 83.7415C229.316 86.966 239.167 77.2531 252.041 88.486C252.202 88.6144 252.82 94.5783 253.137 94.8089C256.967 97.6487 254.978 88.5302 255.573 76.9374C255.731 74.0251 259.392 87.3866 259.686 88.3623C260.764 91.9589 261.47 100.862 261.756 101.547C264.072 106.919 259.622 77.7814 261.678 77.4765C261.749 77.5159 262.25 82.9247 262.499 83.4339C263.275 85.0334 263.5 82.8234 264.289 84.5969C266.104 88.7025 268.542 102.821 269.19 94.3099C269.269 93.2061 266.56 76.7039 268.505 77.2255C269.282 77.4474 272.483 76.7058 273.536 77.6521C274.591 78.5965 274.72 84.019 274.817 84.241C278.241 90.9542 277.729 94.0079 280.408 104.283C283.077 114.519 279.271 89.7463 279.382 86.9064C279.496 84.074 282.092 89.647 282.81 91.6104C283.529 93.5744 283.455 97.0411 284.003 98.1329C287.617 105.262 283.425 85.6542 283.73 81.5961C284.451 71.988 288.562 90.1827 290.641 91.7356C291.204 92.1546 290.224 88.0166 290.612 87.5637C292.161 85.8253 293.999 91.4271 295.276 85.8867C295.484 84.9839 295.596 73.6914 297.744 81.6758C298.05 82.8276 298.253 87.474 299.139 88.4009C300.464 89.7925 302.608 90.5245 303.601 88.829C304.333 87.5747 302.3 80.1477 303.733 82.3472C304.37 83.3298 304.045 87.878 305.192 89.3549C306.333 90.8319 308.673 90.3208 309.553 90.0481C310.43 89.7722 309.174 84.0995 309.195 83.7033C309.34 81.4301 310.697 78.4335 310.852 78.4199C318.473 76.695 326.842 85.4433 333.912 81.2784C334.469 80.9597 333.3 74.9552 333.377 74.8441C335.075 72.0476 335.546 88.3507 337.645 93.5588C335.867 81.2974 336.985 83.4154 338.231 81.8867C338.83 81.1401 337.851 76.4294 337.851 75.9344C337.944 68.5778 339.838 77.823 340.262 79.7097C341.825 86.6493 341.499 78.2564 342.555 82.8936C343.604 87.4961 343.428 94.5388 344.779 94.2776C344.604 89.8298 342.134 78.4617 342.934 76.4671C345.948 68.923 354.369 77.0325 357.62 77.5826C360.877 78.1302 361.774 77.1959 363.79 78.5628C367.454 81.0331 365.194 72.6478 366.767 68.491C368.341 64.3351 369.9 85.4567 370.743 89.9352C371.579 94.4127 371.328 89.7295 371.986 92.1668C372.643 94.6038 372.246 97.7668 373.196 98.5965C374.158 99.4236 375.494 91.116 375.223 86.3592C374.648 76.2814 372.345 65.9091 375.021 69.3287C375.176 69.5322 375.425 75.105 375.982 75.6042C380.413 79.3844 384.475 79.1682 388.849 82.4668C389.447 82.9296 389.691 89.1318 390.047 89.4707C393.747 93.0213 391.35 82.7972 391.81 71.0733C393.194 86.4417 395.292 95.6973 397.757 95.5027C399.237 95.3916 398.207 88.7291 398.612 83.9024C398.726 82.4483 400.326 86.9201 400.152 83.751C399.598 73.3898 397.282 61.9858 400.368 66.2783C400.504 66.4834 400.794 72.1564 401.22 72.4532C403.964 74.401 403.027 63.6046 405.609 61.9914C407.606 60.7288 412.147 66.8662 414.662 67.6685C416.523 84.9107 418.343 80.7136 417.979 68.7245C419.619 69.0364 421.194 68.1843 422.905 69.661C423.494 70.1638 423.688 75.1933 423.813 75.7254C425.749 84.076 425.177 72.4373 425.467 71.9472C426.3 70.6928 427.176 70.3434 428.057 70.353C430.676 70.3669 433.179 73.27 435.188 66.6608C435.28 66.3393 434.244 54.3354 436.087 62.9876C436.209 63.5845 435.622 69.1553 437.304 69.4076C438.939 69.6657 442.782 75.7653 444.475 69.9872C444.904 68.5938 445.365 58.7207 447.227 66.2155C447.477 67.2335 447.652 70.6879 448.053 72.5803C449.336 78.6101 448.532 66.4547 450.369 76.6692C452.218 86.8823 454.577 94.4368 456.226 87.1138C456.279 86.9004 455.929 77.2402 456.667 77.3249C457.83 77.4695 459.664 79.3203 460.869 79.1488C461.442 79.0636 460.537 73.1282 460.628 73.01C464.217 69.3174 467.494 74.3968 471.834 76.3734C472.633 76.7472 474.193 68.4275 476.181 74.7577C478.318 81.6915 478.84 111.148 481.945 103.899C483.131 101.006 482.594 63.6297 486.549 82.762C491.484 77.664 496.704 87.3179 501.667 80.355C501.885 80.0465 502.402 69.6155 502.997 69.7467C503.861 69.962 504.358 74.8246 504.973 75.1383C507.453 76.5778 509.739 72.4194 512.177 73.1193C513.106 73.3763 512.659 78.4001 513.705 78.7121C514.757 79.0224 515.755 72.4245 517.081 75.6947C518.106 78.1901 518.325 91.7758 519.502 93.4443C520.31 82.7463 521.092 80.8564 522.432 78.7878C522.767 78.28 523.135 77.7616 523.546 77.0996C523.949 76.4485 523.997 71.7822 524.212 71.2355C525.121 68.9101 525.38 72.8081 526.294 70.2777C526.516 69.6704 526.991 65.1308 527.206 64.3788C529.08 57.812 529.867 68.245 529.909 70.0544C530.25 76.9401 531.56 71.129 532.107 73.9081C532.612 76.6835 530.821 79.7979 531.586 81.5505C533.135 85.1709 535.744 84.8895 537.681 85.5353C538.45 85.7637 539.258 79.7016 539.398 79.5959C541.589 78.506 541.443 85.1783 545.883 73.8401C537.942 104.235 547.816 71.1949 548.698 78.2077C548.772 78.782 543.393 92.61 542.186 94.481C541.027 96.3666 541.719 91.6999 539.922 94.7047C539.434 95.387 534.758 108.515 534.505 109.323C532.114 115.498 537.207 93.9237 537.401 92.7161C539.618 79.7261 534.696 93.9912 534.214 94.9552C531.599 99.2682 530.665 95.9551 528.659 99.0811C527.358 101.104 525.322 115.488 524.737 114.963C522.834 113.244 523.726 93.0468 519.813 110.152C519.805 110.187 519.797 110.222 519.79 110.258C518.973 113.952 518.222 129.812 517.508 117.243C517.493 116.451 516.881 104.965 515.719 112.139C515.577 113.043 515.336 117.664 515.198 118.046C514.291 120.517 513.921 116.811 512.986 118.544C512.035 120.278 510.964 122.884 509.968 121.301C509.379 120.354 508.623 111.728 508.285 109.617C507.391 103.534 506.409 113.507 505.791 106.151C505.103 98.7583 506.258 87.5072 504.483 82.7469C504.581 94.7676 504.618 107.106 504.71 119.195C501.509 118.819 497.974 115.053 494.479 115.753C494.055 115.851 494.805 122.285 494.363 122.557C492.478 123.678 490.469 119.176 488.53 121.133C486.981 122.676 485.702 129.618 484.146 131.455C482.167 117.803 479.957 122.645 477.987 121.538C477.292 121.156 477.068 117.489 476.511 116.33C474.414 112.049 476.193 124.102 475.868 126.047C474.428 134.354 472.102 106.938 469.619 107.83C469.468 107.869 469.167 122.614 469.026 123.544C468.154 129.597 468.357 118.478 467.385 117.475C465.568 115.647 464.224 112.25 462.69 116.703C462.22 118.024 461.816 127.24 460.085 120.301C459.859 119.392 459.486 114.558 459.346 114.286C456.824 109.77 458.223 124.938 457.563 130.183C456.918 135.425 454.05 125.14 453.413 122.157C451.707 114.447 453.803 118.753 453.801 117.98C453.537 108.807 452.352 110.506 451.284 109.834C449.682 94.9842 448.341 96.0174 450.165 109.198C450.367 110.638 451.016 109.174 451.284 109.834C451.845 124.502 450.453 126.525 447.391 113.071C445.949 106.766 445.972 99.2422 443.779 102.216C442.777 103.56 444.253 113.746 443.546 116.637C442.031 123.222 438.043 113.993 435.936 115.736C435.155 116.37 436.565 121.881 436.051 122.508C435.315 123.417 434.445 122.648 433.588 122.118C432.887 121.665 432.195 121.385 431.603 122.447C431.487 122.664 432.454 128.487 431.99 128.612C428.435 129.683 424.925 126.271 421.138 126.586C419.337 126.737 416.393 130.337 414.469 129.897C411.058 129.177 406.103 121.12 403.496 123.517C401.842 125.049 402.915 130.858 402.602 134.937C402.008 142.842 397.701 129.307 397.09 127.205C397.062 127.137 398.493 125.571 397.294 122.665C396.068 116.461 397.104 127.176 397.09 127.205C396.699 125.847 393.418 124.885 392.921 126.078C392.654 126.73 393.498 132.253 393.346 132.488C389.733 137.946 385.701 139.857 381.162 137.775C381.074 137.672 380.438 131.458 380.239 131.293C377.433 128.835 376.777 136.611 375.306 141.361C373.834 146.108 372.02 144.801 369.523 134.305C368.166 135.832 365.387 131.399 363.761 128.702C362.134 126.005 363.455 138.093 363.375 138.345C360.882 146.407 357.983 139.757 354.267 139.133C352.499 138.815 349.299 140.998 347.633 142.551C346.309 143.8 345.066 141.086 343.947 143.066C343.796 143.331 344.668 148.677 344.639 148.891C343.956 155.508 342.997 142.289 342.384 139.984C340.156 131.605 338.884 127.152 337.47 131.412C337.142 132.388 338.29 151.453 337.625 152.663C336.754 154.202 336.273 147.376 335.381 149.161C335.304 149.307 335.866 153.483 335.165 153.387C331.919 152.995 328.147 151.016 324.934 151.866C324.492 151.966 325.94 158.517 325.317 158.771C322.388 159.957 319.041 160.152 315.674 157.447C314.842 156.761 314.676 152.061 314.333 150.705C312.244 142.503 312.494 154.795 312.3 155.056C307.686 161.6 302.058 151.21 297.268 157.182C297.008 157.53 296.5 170.82 293.932 159.837C293.76 159.107 291.161 147.867 291.343 155.773C291.355 156.268 292.803 162.039 291.616 161.596C290.427 161.154 289.194 165.314 286.774 159.091C286.01 157.13 283.273 145.94 283.114 155.19C283.109 155.834 283.784 176.604 280.998 162.602C280.541 160.297 278.556 145.343 277.929 153.244C277.813 154.775 278.879 158.022 278.315 160.224C277.454 163.617 275.136 159.867 274.466 166.752C274.351 167.97 274.609 178.276 272.54 170.723C272.216 169.54 271.784 164.515 271.195 164.03C268.397 161.702 266.329 165.406 263.375 162.317C262.329 161.233 261.594 153.112 260.371 151.087C259.154 149.061 256.996 147.258 256.589 151.079C256.181 154.901 259.116 167.583 257.848 168.82C252.356 174.192 245.114 167.587 238.811 167.431C237.871 167.407 239.335 171.879 238.006 172.174C233.146 173.271 225.29 178.921 219.5 169.867C214.789 162.626 218.17 155.983 215.012 153.238C213.486 151.932 214.556 167.043 214.333 167.56C213.819 168.799 213.255 169.396 212.662 169.618C210.702 170.343 208.435 167.142 206.672 169.026C206.197 169.537 207.744 175.477 207.33 175.845C205.899 177.161 203.756 174.755 202.325 175.506C201.686 175.856 202.598 180.438 201.915 180.189C200.277 179.649 198.599 177.947 196.392 173.887C196.19 173.518 196.098 167.638 194.948 167.618C193.117 167.598 190.072 163.748 188.789 168.504C188.408 169.934 190.263 180.443 187.65 173.422C187.102 171.956 185.201 159.277 185.6 170.455C185.653 172.314 185.742 187.474 182.778 178.228C181.989 175.796 179.248 165.635 178.801 167.393C178.748 167.67 180.18 173.235 179.669 173.897C177.86 176.13 175.495 175.946 173.621 178.124C173.126 178.716 175.088 184.383 174.32 185.079C172.219 186.998 168.933 186.086 166.245 184.714C165.245 184.198 164.913 179.258 164.748 178.745C162.075 170.403 163.71 182.045 163.509 182.781C162.238 187.205 159.555 182.112 157.934 183.922C157.484 184.407 158.948 189.823 158.941 190.334C158.816 195.331 157.655 185.312 156.755 184.362C154.18 181.676 152.137 182.548 150.314 183.65C149.647 184.063 151.758 190.257 151.147 190.554C147.599 192.422 143.548 192.636 139.117 189.928C138.285 189.405 137.667 184.426 137.284 183.341C134.612 175.745 135.415 186.719 135.311 187.803C134.795 192.765 133.281 188.572 132.095 189.679C126.409 195.137 117.782 194.129 111.227 193.865C102.756 193.532 95.3807 190.514 88.176 193.739C87.7219 193.937 89.9369 200.225 89.5711 200.477C84.997 203.291 79.4945 202.508 74.9585 205.281C74.6924 205.441 74.4307 205.611 74.1737 205.793C73.7765 206.062 76.1856 211.924 75.6128 212.557C74.4665 213.895 72.5591 214.104 70.5444 212.608C69.5606 211.891 68.9507 206.427 67.9897 205.812C65.7616 204.364 63.8571 204.474 62.456 205.962C61.8713 206.606 64.8425 212.437 63.9419 212.792C57.8171 215.351 52.2179 218.315 43.4928 212.479C42.8995 212.077 38.2686 199.813 38.1848 202.502C39.3101 205.96 40.7173 210 41.9638 213.681C35.459 217.805 27.0882 217.819 22.4792 218.463C21.2026 218.786 19.9248 219.178 18.6829 219.665C18.3456 219.799 21.9546 225.761 21.3267 226.048C17.6772 227.728 15.1137 231.214 8.14111 227.142C7.45177 226.749 1.8174 215.909 1.57692 218.145C1.53871 218.549 0.64799 220.901 1.52425 223.45C1.66308 223.831 4.73602 228.644 4.29958 229.078C1.71719 231.516 -1.95307 232.152 -6.4824 230.854C-7.22204 230.637 -9.94336 225.182 -10.5046 224.987C-14.5175 223.68 -14.2615 229.027 -18.8598 225.54C-21.9727 223.208 -27.7733 214.453 -34.6177 206.672C-35.5939 205.58 -36.4486 205.951 -40.2366 201.288C-49.8358 189.613 -59.4962 176.155 -69.7506 163.728C-71.9444 161.024 -72.1201 166.002 -75.9279 158.279C-76.1585 157.734 -76.0483 154.092 -77.3253 151.496C-78.2027 149.692 -82.4974 145.281 -83.3641 142.776C-84.2097 140.26 -80.4162 143.819 -81.1654 140.707C-81.894 137.541 -86.4028 132.207 -84.8345 130.098ZM356.468 116.654C354.565 111.008 357.05 132.249 357.685 127.013C357.712 126.735 356.564 116.931 356.468 116.654ZM497.352 98.9501C495.458 89.5845 495.098 103.486 496.411 110.72C497.698 117.948 497.9 101.791 497.352 98.9501ZM512.228 91.8993C510.66 84.4265 509.994 114.746 511.69 108.649C511.788 108.305 512.314 92.3334 512.228 91.8993ZM-32.8118 201.783C-32.9864 201.558 -33.8237 201.794 -33.6853 202.041C-30.182 207.873 -28.5804 207.444 -32.8118 201.783ZM527.587 85.4919C527.533 81.3504 525.446 85.8831 525.547 91.0269C525.583 95.1575 527.6 90.6342 527.587 85.4919ZM292.111 102.07C292.049 101.757 291.327 101.567 291.586 103.349C292.422 109.091 293.148 107.338 292.111 102.07ZM545.598 86.7418C545.78 87.8411 546.808 88.729 547.665 88.5437C548.546 88.4144 549.294 87.5912 549.946 86.5377C551.24 84.3936 552.306 81.3235 553.507 78.5237C556.014 73.2265 558.343 67.0633 563.666 73.6118C564.699 75.1104 561.769 74.817 559.491 75.7991C557.152 76.7073 555.325 78.4166 555.296 79.8177C555.076 82.4391 558.459 81.0573 561.731 84.4197C564.858 87.7206 564.974 92.5246 560.782 91.582C559.979 91.5066 556.434 89.344 552.918 87.5395C551.151 86.6691 549.298 86.1203 547.873 86.1498C546.448 86.1532 545.531 86.6422 545.564 86.7586C545.576 86.753 545.587 86.7473 545.598 86.7418ZM352.599 91.2516C352.54 90.9739 351.556 90.827 351.568 91.1081C351.899 97.909 353.879 98.2092 352.599 91.2516ZM250.355 94.6438C250.214 94.0552 247.927 93.8227 247.937 94.3826C248.413 105.535 253.026 106.039 250.355 94.6438ZM414.751 68.1241C415.017 61.2226 416.199 60.2829 417.973 68.7163C416.88 68.3785 415.818 68.4285 414.751 68.1241Z" fill="#CFD5B2"/>
<path d="M3.08762 147.956C1.54512 145.567 1.24304 147.625 1.39684 150.422C1.44942 151.295 0.65809 155.003 0.690211 155.777C0.774355 157.29 1.50109 155.529 1.65344 157.332C1.71091 157.949 0.557152 163.844 0.649854 164.357C1.21582 167.135 2.48731 165.776 3.46958 167.197C8.5696 174.237 15.5 177.161 22.5754 180.497C24.9258 181.594 27.4827 187.263 30.2323 185.084C30.5525 184.824 30.7779 179.556 30.8678 179.128C32.2638 172.566 31.1565 183.151 31.6336 184.605C33.5253 190.345 36.0949 191.023 38.4993 189.16C39.5236 188.352 39.3255 177.843 39.8629 183.773C39.9011 184.173 39.2491 189.737 39.4692 190.351C39.969 191.734 41.1786 190.819 41.6112 191.295C42.4431 192.241 42.5951 192.195 43.4393 192.32C44.593 192.541 45.7689 195.415 47.1159 194.242C47.404 193.975 47.4671 188.228 47.9645 187.285C48.4631 186.344 49.5529 186.912 49.8394 188.289C50.1232 189.666 49.6304 194.151 49.6225 195.186C49.54 203.926 51.7327 191.974 51.9241 191.689C54.3064 188.35 56.0747 190.659 57.8809 192.489C58.64 193.312 59.358 194.031 60.1221 194.076C61.9902 194.173 63.8774 191.987 65.4471 192.335C67.3015 192.771 68.9549 195.875 70.8637 195.29C71.0627 195.234 70.6418 188.499 70.8733 188.417C73.3057 187.559 75.7491 188.142 78.821 192.428C79.1334 192.863 79.3373 198.792 79.6923 199.579C81.7739 204.278 86.3294 215.511 83.9997 189.808C85.2507 190.66 86.7667 191.495 88.5873 196.475C89.7794 199.676 90.0852 206.157 90.5392 203.301C90.6364 202.664 89.5136 197.122 89.7185 196.591C90.5764 194.362 92.1915 195.953 92.8667 192.869C92.9982 192.229 92.0464 187.257 91.9522 186.348C91.5019 181.924 92.4158 184.433 93.331 187.316C93.9305 189.235 94.5256 191.321 94.6728 191.654C97.4819 197.856 98.2194 195.058 99.7545 194.909C100.116 194.877 98.3365 188.3 98.6295 188.03C100.164 186.72 102.067 186.909 104.465 189.467C104.999 190.052 105.904 195.785 106.226 196.353C107.644 198.787 105.424 188.073 106.731 190.2C107.003 190.635 108.013 195.49 108.164 196.014C110.55 204.238 108.265 192.334 108.323 192.047C109.043 188.13 112.934 200.204 114.059 198.094C114.187 197.829 112.315 191.827 112.763 191.457C115.737 188.961 119.713 189.738 124.374 193.712C125.097 194.322 125.906 198.981 126.085 199.535C128.921 208.178 126.208 196.314 126.262 195.827C126.78 192.283 130.683 201.801 127.873 187.556C134.938 190.872 138.429 181.451 147.736 192.271C147.851 192.395 149.383 198.188 149.606 198.409C152.308 201.128 149.377 192.283 147.341 181.016C146.826 178.188 151.568 191.124 151.932 192.067C153.268 195.546 155.478 204.185 155.778 204.847C158.183 210.026 149.734 181.789 150.783 181.469C150.83 181.507 152.229 186.75 152.47 187.241C153.226 188.784 152.891 186.635 153.696 188.344C155.549 192.302 159.863 205.961 158.44 197.687C158.252 196.614 153.288 180.648 154.461 181.121C154.93 181.325 156.521 180.547 157.299 181.443C158.077 182.338 159.32 187.591 159.42 187.804C162.75 194.239 163.136 197.208 166.85 207.103C170.561 216.956 163.073 193.039 162.513 190.285C161.946 187.542 164.616 192.872 165.442 194.755C166.272 196.639 166.99 200 167.535 201.043C171.109 207.851 164.47 188.971 163.742 185.033C162.003 175.713 168.305 193.217 169.819 194.653C170.223 195.041 168.752 191.067 168.862 190.617C168.901 190.465 168.955 190.368 169.02 190.314C169.7 189.755 171.573 193.767 171.022 188.855C170.932 187.974 168.29 177.086 171.353 184.714C171.794 185.814 173.007 190.289 173.714 191.15C174.777 192.442 176.11 193.069 176.242 191.394C176.339 190.154 173.402 183.089 174.72 185.148C175.309 186.067 176.255 190.458 177.249 191.83C178.25 193.199 179.371 192.611 179.801 192.3C180.217 191.99 178.076 186.605 177.987 186.223C177.488 184.033 177.427 181.099 177.501 181.08C181.005 179.11 187.933 186.945 190.52 182.453C190.722 182.11 188.284 176.51 188.291 176.399C188.324 173.635 193.532 189.03 196.254 193.794C191.563 182.327 192.805 184.248 193.01 182.701C193.101 181.947 191.12 177.574 190.968 177.106C188.728 170.153 192.598 178.738 193.418 180.482C196.418 186.907 193.628 179.008 195.648 183.295C197.664 187.546 199.772 194.21 200.438 193.839C198.94 189.66 194.026 179.151 193.819 177.205C192.986 169.869 200.079 176.733 202.053 176.91C204 177.1 204.189 176.126 205.75 177.199C208.572 179.137 204.552 171.508 204.048 167.44C203.555 163.368 211.389 183.028 213.335 187.141C215.275 191.255 213.589 186.887 214.757 189.105C215.923 191.323 216.75 194.333 217.544 195.013C218.336 195.693 216.319 187.761 214.614 183.319C210.998 173.91 206.317 164.41 208.948 167.33C209.102 167.504 211.051 172.719 211.529 173.128C215.222 176.215 217.456 175.574 220.905 178.267C221.383 178.645 223.447 184.485 223.75 184.771C226.868 187.785 222.386 178.341 219.081 167.182C224.541 181.611 228.523 190.182 229.767 189.795C230.53 189.564 227.974 183.33 226.772 178.705C226.408 177.311 228.597 181.427 227.567 178.429C224.218 168.623 219.56 157.988 222.608 161.772C222.747 161.954 224.547 167.334 224.879 167.576C227.006 169.18 223.383 158.969 224.47 157.176C225.29 155.78 229.621 161.251 231.277 161.816C236.943 178.206 236.816 174.048 233.46 162.56C234.455 162.739 235.214 161.771 236.53 163.076C236.987 163.518 238.381 168.345 238.587 168.849C241.786 176.755 238.506 165.588 238.553 165.093C239.202 160.216 243.475 168.109 242.783 159.301C242.756 158.985 239.304 147.443 242.42 155.686C242.63 156.256 243.619 161.686 244.64 161.815C244.999 161.86 245.676 162.585 246.388 163.261C246.704 163 247.996 163.066 248.358 162.873C249.377 164.365 250.51 165.717 251.012 162.034C251.198 160.668 251.128 150.856 252.421 158.413C252.595 159.439 252.805 162.889 253.091 164.794C254.003 170.864 253.173 158.714 254.515 168.981C255.861 179.247 257.411 186.889 258.08 179.673C258.102 179.463 257.61 169.821 258.021 169.94C258.674 170.14 259.75 172.07 260.402 171.956C260.715 171.898 260.043 165.939 260.09 165.826C261.994 162.308 263.925 167.521 266.391 169.668C266.831 170.074 267.488 161.835 268.745 168.225C270.117 175.22 271.236 204.631 272.752 197.504C273.359 194.653 271.96 157.339 274.71 176.541C277.29 171.574 280.538 181.293 283.027 174.292C283.14 173.982 282.942 163.558 283.256 163.682C283.719 163.886 284.255 168.731 284.602 169.032C286.041 170.417 287.044 166.186 288.394 166.756C288.899 166.962 289.025 171.997 289.64 172.243C290.253 172.483 290.244 165.843 291.245 168.99C291.984 171.39 293.45 184.875 294.362 186.4C293.555 173.059 294.138 173.299 294.888 169.714C295.034 169.018 294.523 164.39 294.575 163.822C294.78 161.405 295.362 165.23 295.525 162.603C295.566 161.972 295.256 157.418 295.271 156.645C295.367 149.901 297.003 160.076 297.308 161.846C298.42 168.57 298.287 162.626 298.956 165.254C299.651 167.879 299.194 171.27 299.908 172.839C301.292 175.896 302.747 175.289 304.012 175.25C304.202 175.304 304.775 175.038 304.971 175.063C305.077 175.04 305.184 175.019 305.29 175C306.034 174.83 303.691 169.177 303.759 169.016C303.977 168.137 304.875 169.106 305.304 168.772C305.677 168.48 305.428 166.855 301.307 162.387C311.812 174.061 312.399 172.395 309.554 169.682C306.941 166.698 301.008 162.906 303.838 164.271C304.248 164.578 317.783 170.743 319.102 172.886C320.292 175.192 315.451 174.242 316.184 178.18C316.26 178.656 318.02 182.056 319.139 185.82C320.313 189.556 320.903 193.533 320.798 194.082C318.48 202.893 309.703 182.149 309.236 181.104C305.951 174.792 305.937 175.92 305.969 178.677C305.659 178.638 304.752 179.06 304.451 178.974C304.378 181.282 304.427 184.747 304.332 185.238C303.406 190.107 301.97 187.102 301.15 190.567C300.633 192.804 301.675 207.292 301.048 206.894C298.962 205.577 297.045 185.395 296.505 203.038C296.392 206.8 297.758 222.622 295.662 210.246C295.534 209.465 293.872 198.126 293.781 205.369C293.769 206.282 294.053 210.9 293.987 211.294C293.54 213.84 292.903 210.185 292.37 211.985C291.823 213.786 291.209 216.459 290.381 214.936C289.874 214.025 288.828 205.451 288.492 203.357C287.541 197.322 287.499 207.31 286.706 199.982C285.906 192.616 285.972 181.356 284.723 176.64C285.39 188.643 286.028 200.965 286.678 213.036C284.562 212.736 282.297 208.977 280.264 209.634C280.012 209.727 280.671 216.161 280.412 216.428C279.326 217.523 278.027 212.989 276.963 214.896C276.125 216.397 275.588 223.289 274.75 225.073C273.26 211.387 272.143 216.143 271.038 214.96C270.648 214.552 270.413 210.886 270.07 209.709C268.79 205.356 270.108 217.449 269.982 219.375C269.45 227.599 267.355 200.165 266.048 200.944C265.976 200.976 266.198 215.666 266.159 216.585C265.865 222.58 265.648 211.505 265.094 210.46C264.08 208.552 263.194 205.108 262.523 209.471C262.325 210.763 262.355 219.931 261.217 212.93C261.067 212.014 260.712 207.179 260.628 206.901C259.136 202.276 260.357 217.459 260.183 222.65C260.01 227.84 258.16 217.446 257.695 214.445C256.503 206.679 257.801 211.073 257.763 210.304C257.31 201.154 256.723 202.786 256.118 202.063C254.738 187.192 254.038 188.153 255.49 201.373C255.649 202.817 255.95 201.393 256.118 202.063C256.92 216.702 256.286 218.642 254.136 205.087C253.124 198.735 252.856 191.245 251.775 194.094C251.513 194.778 251.727 197.985 251.944 201.267L257.618 200.15C258.388 202.944 259.173 205.794 259.328 207.12C260.088 213.576 255.899 204.833 255.185 206.646C254.944 207.298 257.044 212.537 256.943 213.166C256.687 214.851 254.783 211.027 254.708 213.327C254.706 213.542 256.691 219.092 256.494 219.236C255.061 220.424 252.424 217.328 250.664 217.827C249.811 218.071 249.435 221.651 248.384 221.338C246.582 220.82 241.745 213.48 241.213 215.914C240.861 217.477 243.163 222.906 244.273 226.783C246.458 234.283 240.206 221.762 239.223 219.83C239.19 219.766 239.394 218.191 237.897 215.53C235.347 209.759 239.219 219.802 239.223 219.83C238.604 218.574 236.68 217.904 236.812 219.068C236.889 219.701 239.076 224.84 239.078 225.072C239.085 230.462 237.792 232.542 234.752 230.998C234.672 230.91 232.279 225.14 232.122 225.004C229.85 222.953 232.082 230.31 232.875 234.907C233.662 239.505 232.242 238.464 227.375 228.886C227.119 230.466 224.089 226.61 222.278 224.257C220.47 221.904 225.167 233.118 225.201 233.365C226.337 241.247 222.458 235.335 220.002 235.189C218.812 235.107 217.518 237.55 216.916 239.228C216.454 240.571 214.846 238.146 214.723 240.157C214.704 240.427 216.819 245.411 216.863 245.618C218.341 252.001 213.894 239.527 212.838 237.403C209.003 229.677 206.918 225.579 207.28 229.778C207.369 230.737 213.459 248.812 213.331 250.054C213.166 251.632 210.987 245.153 210.899 246.956C210.889 247.105 212.398 251.039 211.906 251.026C209.622 251.028 206.614 249.521 204.741 250.638C204.474 250.778 207.084 256.943 206.729 257.25C205.045 258.691 202.823 259.199 199.993 256.853C199.285 256.257 198.074 251.726 197.532 250.443C194.26 242.674 197.288 254.541 197.208 254.813C196.019 260.104 192.012 255.133 189.517 255.836C188.921 256.002 188.416 256.566 188.074 257.821C188.001 258.167 190.551 271.086 186.637 260.54C186.373 259.839 182.429 249.031 184.222 256.698C184.334 257.178 186.433 262.722 185.621 262.34C184.799 261.963 184.95 266.047 182.18 260.096C181.297 258.224 177.354 247.442 179.177 256.436C179.314 257.061 183.987 277.23 179.439 263.713C178.69 261.487 174.441 247.014 175.683 254.715C175.925 256.207 177.229 259.329 177.335 261.49C177.515 264.816 175.356 261.243 176.335 267.96C176.513 269.148 178.713 279.174 175.957 271.884C175.526 270.742 174.271 265.862 173.818 265.408C171.673 263.221 171.151 266.882 168.772 263.943C167.931 262.912 165.926 255.017 164.803 253.07C163.682 251.124 162.074 249.403 162.555 253.135C163.035 256.869 167.197 269.174 166.661 270.407C164.305 275.769 158.669 269.441 154.786 269.347C154.208 269.332 155.874 273.69 155.105 273.991C152.295 275.117 148.268 280.687 143.224 271.795C139.212 264.668 140.275 258.183 137.932 255.465C136.815 254.168 139.723 268.993 139.652 269.501C139.038 274.633 136.162 268.463 135.027 270.854C134.791 271.35 136.582 277.206 136.363 277.563C135.626 278.836 133.933 276.438 133.1 277.152C132.729 277.486 133.895 282.008 133.415 281.752C132.277 281.193 130.973 279.484 129.058 275.436C128.885 275.067 128.122 269.28 127.383 269.231C126.169 269.172 123.837 265.278 123.502 269.923C123.41 271.318 125.718 281.739 123.269 274.733C122.755 273.27 120.221 260.706 121.621 271.736C121.863 273.567 123.341 288.532 120.461 279.301C119.706 276.871 116.979 266.73 116.848 268.441C116.836 268.712 118.276 274.268 117.991 274.899C116.944 277.03 115.325 276.736 114.147 278.797C113.835 279.358 115.588 285.06 115.078 285.712C114.217 286.835 112.885 286.846 111.555 286.315C110.734 286 109.907 285.49 109.148 284.917C108.4 284.343 107.982 279.427 107.843 278.908C105.629 270.466 107.204 282.107 107.067 282.825C106.229 287.127 104.126 281.882 102.953 283.543C102.613 283.988 103.756 289.475 103.753 289.981C103.653 294.931 102.747 284.899 102.058 283.884C100.146 281.002 98.61 281.678 97.215 282.588C96.7009 282.93 98.1866 289.28 97.7064 289.514C94.8781 291.02 91.5752 290.776 88.2343 287.501C87.6037 286.872 87.4889 281.862 87.2647 280.737C85.7554 272.858 85.5845 283.808 85.3784 284.867C84.5363 289.692 83.6584 285.326 82.627 286.228C77.4611 290.735 70.0775 288.028 64.7406 286.112C59.2785 284.202 54.8878 280.586 51.2108 279.545C50.3351 279.268 49.4143 279.185 48.4255 279.379C48.1385 279.43 47.9248 286.081 47.6715 286.21C44.4097 287.573 41.466 284.754 38.0915 286.434C37.8156 286.56 37.7412 292.875 37.2829 293.289C36.339 294.181 35.252 293.759 34.5075 291.687C34.1434 290.688 35.1188 285.336 34.7444 284.44C33.8731 282.344 32.811 281.816 31.6838 282.747C31.2028 283.156 31.4083 289.636 30.8192 289.667C26.7975 290.013 22.723 290.822 19.2372 282.172C18.9989 281.578 19.7901 268.497 18.989 270.954C18.6536 274.575 18.3146 278.839 17.9845 282.711C11.8147 284.316 6.14884 279.272 -0.232909 277.899C-0.503427 277.843 -0.752605 284.797 -1.28473 284.722C-4.36713 284.293 -7.75804 285.843 -10.3065 278.551C-10.5655 277.836 -8.79709 265.751 -10.0197 267.451C-10.244 267.762 -11.9148 269.175 -12.7232 271.736C-12.8366 272.124 -13.3514 277.81 -13.892 277.9C-16.9706 278.329 -20.1634 276.504 -23.1368 272.363C-23.599 271.687 -21.8017 265.855 -22.1072 265.324C-24.2619 261.597 -28.8936 265.303 -31.6291 258.658C-33.3435 254.183 -28.9979 244.555 -26.5702 234.444C-26.1638 233.049 -27.6346 232.191 -25.2369 226.669C-19.0964 212.86 -12.4156 197.722 -5.9929 182.949C-4.66599 179.726 -4.42148 183.983 -1.9278 175.881C-1.79371 175.314 -2.02222 172.174 -1.22321 169.441C-0.699555 167.533 1.95485 162.01 2.39957 159.48C2.8014 156.938 0.564323 161.573 1.00539 158.598C1.49 155.604 3.80486 149.038 3.08762 147.956ZM214.179 213.737C211.275 208.627 219.515 228.361 218.213 223.356C218.141 223.09 214.324 213.987 214.179 213.737ZM281.345 192.876C279.931 183.511 280.185 197.391 281.225 204.626C282.259 211.853 281.771 195.714 281.345 192.876ZM289.767 185.481C288.336 178.116 289.951 208.398 290.668 202.215C290.711 201.866 289.851 185.909 289.767 185.481ZM-21.0392 233.143C-20.9785 232.866 -21.6191 232.4 -21.7136 232.664C-24.0144 239.073 -22.553 240.052 -21.0392 233.143ZM298.236 177.425C297.61 173.359 297.044 178.146 297.797 183.207C298.4 187.278 299.027 182.484 298.236 177.425ZM172.955 204.609C172.851 204.308 172.404 204.147 172.947 205.864C174.698 211.395 174.717 209.674 172.955 204.609ZM315.975 163.747C314.052 166.583 290.167 158.755 293.117 158.813C293.69 158.669 300.637 161.57 302.905 161.853C307.132 162.028 291.998 157.7 300.401 158.777C301.953 158.919 316.148 163.563 316.008 163.76C315.997 163.755 315.986 163.751 315.975 163.747ZM203.794 190.241C203.672 189.986 203.083 189.943 203.181 190.207C205.558 196.573 206.758 196.656 203.794 190.241ZM148.023 198.275C147.83 197.703 146.515 197.494 146.629 198.039C149.07 208.889 151.767 209.335 148.023 198.275ZM231.449 162.245C229.791 155.591 230.244 154.586 233.455 162.553C232.752 162.311 232.165 162.442 231.449 162.245Z" fill="#CFD5B2"/>
<path d="M-61.9814 139.904C-61.8333 138.038 -59.771 139.886 -58.0232 142.472C-57.4669 143.274 -57.3625 147.069 -56.9598 147.792C-56.1525 149.198 -55.6677 147.285 -54.8099 148.966C-54.5179 149.54 -54.2286 155.544 -53.9314 156.01C-52.303 158.516 -51.1249 156.858 -49.5483 157.973C-47.26 159.592 -44.9542 160.845 -42.6594 161.856L-43.9169 162.019C-38.5733 164.311 -31.786 165.035 -25.566 166.274C-22.5968 166.832 -18.6613 171.897 -16.0405 169.251C-15.7372 168.936 -16.4409 163.71 -16.4197 163.272C-16.066 156.559 -15.3796 167.18 -14.6 168.526C-11.506 173.839 -8.65947 174.078 -6.40541 171.853C-5.43835 170.891 -7.33467 160.544 -5.79857 166.313C-5.69309 166.703 -5.51011 172.302 -5.17391 172.874C-4.3977 174.158 -3.31101 173.069 -2.76606 173.472C-1.73499 174.278 -1.56547 174.208 -0.679897 174.206C0.548095 174.25 2.24368 176.915 3.44437 175.56C3.70555 175.253 2.92854 169.557 3.31224 168.552C3.6939 167.548 4.95465 167.948 5.42495 169.272C5.91239 170.595 6.04863 175.105 6.18836 176.131C7.34308 184.796 7.91138 172.65 8.07932 172.34C10.9457 167.051 14.1495 173.749 17.1448 173.556C19.4114 173.394 21.7042 170.992 23.9118 171.187C26.4793 171.444 28.8835 174.435 31.2979 173.782C31.5585 173.72 30.9221 166.998 31.2411 166.908C34.6688 165.956 38.0968 166.536 41.6623 170.94C42.0243 171.387 41.839 177.322 42.2153 178.123C42.8054 179.348 43.4979 181.02 44.2067 182.391C46.1773 186.362 48.2808 187.815 48.45 168.631C49.9082 169.58 51.6191 170.554 53.092 175.698C54.037 179.01 53.4887 185.487 54.3885 182.698C54.5925 182.076 54.0822 176.442 54.4051 175.937C55.7434 173.816 57.3268 175.595 58.6354 172.626C58.9003 172.009 58.6381 166.953 58.6865 166.039C59.1058 158.636 60.6954 170.791 60.9583 171.669C63.0429 178.212 64.3173 175.564 66.0907 175.664C66.5028 175.69 65.7842 168.911 66.1731 168.692C68.1313 167.65 70.244 168.165 72.3501 171.115C72.8113 171.787 72.5981 177.59 72.8262 178.207C73.8253 180.861 73.6745 169.92 74.634 172.254C74.8359 172.732 74.8901 177.692 74.9416 178.235C75.7467 186.762 75.8228 174.641 75.9524 174.369C77.5752 170.662 79.1169 183.265 80.7065 181.424C80.8987 181.191 80.2552 174.934 80.808 174.662C84.5242 172.815 88.5175 174.42 92.4159 179.328C93.0091 180.083 92.737 184.806 92.7897 185.386C93.6354 194.444 93.6665 182.274 93.8407 181.811C95.2225 178.473 96.8991 188.63 97.5099 174.119C103.917 178.97 110.001 170.669 116.547 183.486C116.63 183.634 116.641 189.626 116.806 189.896C118.794 193.21 118.191 183.912 119.171 172.497C119.417 169.63 120.743 183.349 120.846 184.354C121.247 188.059 121.151 196.977 121.273 197.693C122.267 203.317 121.389 173.856 122.547 173.817C122.585 173.866 122.568 179.293 122.678 179.83C123.022 181.515 123.269 179.353 123.611 181.212C124.397 185.515 124.991 199.827 125.824 191.468C125.93 190.384 125.315 173.675 126.379 174.439C126.806 174.757 128.636 174.426 129.167 175.497C129.704 176.566 129.484 181.961 129.526 182.193C131.073 189.282 130.624 192.246 131.568 202.774C132.511 213.262 131.716 188.212 131.93 185.409C132.145 182.614 133.301 188.466 133.599 190.502C133.898 192.54 133.669 195.97 133.918 197.121C135.57 204.642 134.267 184.67 134.658 180.682C135.591 171.238 136.896 189.798 137.98 191.594C138.273 192.08 137.944 187.853 138.185 187.451C139.141 185.917 139.874 191.7 140.885 186.358C141.049 185.487 141.709 174.295 142.495 182.479C142.607 183.659 142.475 188.295 142.925 189.322C143.607 190.864 144.751 191.85 145.396 190.287C145.87 189.13 145.121 181.514 145.806 183.869C146.111 184.921 145.693 189.397 146.257 191C146.818 192.604 148.155 192.377 148.665 192.211C149.172 192.042 148.761 186.261 148.793 185.87C148.992 183.631 149.913 180.818 150 180.823C154.334 180.018 158.615 189.683 162.762 186.362C163.089 186.11 162.734 180.012 162.783 179.91C163.869 177.328 163.323 193.575 164.238 198.989C163.853 186.606 164.373 188.838 165.15 187.463C165.524 186.79 165.208 181.999 165.233 181.507C165.652 174.21 166.258 183.61 166.403 185.532C166.938 192.604 167.177 184.23 167.535 188.956C167.894 193.648 167.452 200.623 168.216 200.518C168.336 196.079 167.517 184.506 168.059 182.616C170.098 175.466 174.438 184.468 176.23 185.375C178.014 186.281 178.569 185.451 179.635 187.031C181.562 189.889 180.698 181.308 181.778 177.349C182.862 173.39 182.736 194.552 182.998 199.096C183.257 203.637 183.339 198.955 183.596 201.449C183.852 203.943 183.475 207.043 183.974 207.971C184.474 208.898 185.603 200.786 185.675 196.028C185.824 185.949 185.017 175.39 186.357 179.078C186.434 179.297 186.313 184.863 186.603 185.42C188.896 189.656 191.225 189.873 193.501 193.615C193.814 194.138 193.67 200.331 193.854 200.705C195.77 204.625 194.902 194.207 195.675 182.598C195.762 198.024 196.51 207.448 197.911 207.511C198.753 207.554 198.472 200.821 198.921 196.063C199.055 194.629 199.745 199.241 199.789 196.072C199.937 185.71 199.143 174.13 200.681 178.716C200.748 178.934 200.661 184.606 200.886 184.945C202.338 187.164 202.289 176.33 203.788 174.987C204.964 173.934 207.228 180.496 208.618 181.543C208.936 198.883 210.141 194.887 210.424 182.922C211.316 183.394 212.256 182.699 213.143 184.334C213.449 184.892 213.355 189.916 213.402 190.458C214.139 198.955 214.294 187.317 214.476 186.857C216.461 182.384 218.326 191.166 220.124 182.512C220.188 182.201 220.066 170.154 220.765 178.938C220.811 179.544 220.267 185.036 221.203 185.442C222.139 185.849 224.017 192.271 225.202 186.665C225.487 185.315 226.094 175.522 226.872 183.149C226.976 184.185 226.951 187.641 227.11 189.561C227.621 195.678 227.6 183.5 228.262 193.834C228.924 204.166 230.034 211.893 231.197 204.732C231.234 204.524 231.355 194.869 231.768 195.014C232.425 195.253 233.392 197.245 234.074 197.169C234.401 197.13 234.076 191.142 234.131 191.031C236.268 187.632 237.919 192.943 240.317 195.216C240.756 195.645 241.84 187.451 242.799 193.894C243.851 200.948 243.474 230.38 245.443 223.332C246.236 220.513 246.599 183.175 248.493 202.481C251.362 197.633 254.291 207.477 257.125 200.58C257.252 200.274 257.478 189.851 257.794 189.987C258.265 190.209 258.612 195.072 258.951 195.386C260.372 196.826 261.577 192.637 262.928 193.259C263.442 193.485 263.359 198.522 263.972 198.792C264.585 199.057 264.865 192.421 265.749 195.607C266.417 198.035 267.295 211.571 268.151 213.134C267.931 199.771 268.504 200.035 269.447 196.489C269.628 195.801 269.332 191.154 269.414 190.588C269.742 188.184 270.161 192.032 270.467 189.416C270.541 188.788 270.459 184.224 270.515 183.453C270.988 176.721 272.167 186.968 272.37 188.752C273.147 195.528 273.339 189.586 273.887 192.25C274.435 194.913 273.754 198.269 274.365 199.879C275.633 203.212 277.168 202.445 278.396 202.632C278.886 202.679 278.438 196.593 278.506 196.458C279.488 194.894 280.63 201.355 280.962 189.21C282.25 220.571 281.513 186.156 283.073 192.409C283.196 192.915 283.619 207.749 283.224 209.936C282.828 212.12 282.08 207.495 281.539 210.901C281.41 211.701 280.85 225.619 280.754 226.463C280 233.062 279.459 210.893 279.39 209.676C278.616 196.544 277.892 211.541 277.647 212.58C276.526 217.345 275.44 214.247 274.493 217.65C273.873 219.851 274.081 234.375 273.554 233.94C271.802 232.503 270.818 212.255 269.519 229.852C269.24 233.605 269.886 249.472 268.4 237.014C268.307 236.228 267.164 224.827 266.764 232.06C266.714 232.972 266.803 237.598 266.721 237.988C266.174 240.513 265.708 236.835 265.093 238.612C264.479 240.39 263.75 243.036 262.982 241.48C262.518 240.551 261.781 231.943 261.528 229.837C260.809 223.769 260.35 233.748 259.837 226.394C259.321 219.003 259.845 207.754 258.767 202.993C258.957 215.012 259.106 227.35 259.276 239.438C257.101 239.056 254.907 235.209 252.741 235.782C252.473 235.865 252.871 242.321 252.587 242.576C251.387 243.626 250.235 239.04 249.008 240.898C248.058 242.361 247.118 249.223 246.132 250.966C245.25 237.225 243.816 241.923 242.69 240.687C242.295 240.26 242.251 236.587 241.953 235.394C240.832 230.982 241.55 243.126 241.303 245.044C240.242 253.229 239.61 225.723 238.189 226.431C238.114 226.459 237.467 241.14 237.357 242.055C236.66 248.025 237.125 236.954 236.596 235.88C235.631 233.918 234.912 230.429 233.903 234.745C233.609 236.023 233.021 245.177 232.267 238.12C232.168 237.196 232.12 232.348 232.049 232.066C230.773 227.357 231.037 242.587 230.461 247.758C229.885 252.927 228.64 242.435 228.369 239.409C227.662 231.582 228.729 236.051 228.744 235.281C228.92 226.121 228.19 227.711 227.595 226.949C227.222 212.019 226.423 212.931 226.977 226.219C227.039 227.671 227.465 226.269 227.595 226.949C227.371 241.609 226.506 243.503 225.251 229.832C224.662 223.424 224.954 215.935 223.6 218.699C222.986 219.947 223.433 230.223 222.925 233.037C221.764 239.458 219.909 229.9 218.617 231.437C218.145 231.995 218.726 237.614 218.407 238.189C217.562 239.733 216.707 235.526 215.872 237.706C215.797 237.911 216.107 243.798 215.836 243.879C213.781 244.604 211.917 240.866 209.759 240.804C208.712 240.777 206.911 244.063 205.819 243.432C203.925 242.372 201.471 233.851 199.901 235.964C198.883 237.318 199.232 243.206 198.866 247.229C198.161 255.029 196.355 241.12 196.106 238.966C196.098 238.895 196.965 237.487 196.426 234.472C196.02 228.175 196.115 238.938 196.106 238.966C195.942 237.574 194.129 236.273 193.798 237.407C193.619 238.026 193.84 243.607 193.744 243.824C191.447 248.869 189.07 250.338 186.598 247.777C186.553 247.665 186.488 241.419 186.384 241.234C184.93 238.487 184.18 246.145 183.112 250.704C182.045 255.262 181.095 253.763 180.184 243.057C179.339 244.425 177.989 239.712 177.21 236.852C176.431 233.991 176.585 246.149 176.527 246.391C174.699 254.124 173.404 247.191 171.329 246.152C170.341 245.638 168.46 247.442 167.418 248.794C166.601 249.883 166.035 247.046 165.304 248.884C165.205 249.13 165.428 254.539 165.4 254.749C164.682 261.243 164.807 248.003 164.578 245.644C163.747 237.064 163.249 232.496 162.24 236.563C162.007 237.494 161.69 256.561 161.255 257.685C160.69 259.112 160.764 252.279 160.168 253.947C160.117 254.083 160.221 258.296 159.826 258.118C157.996 257.352 155.974 254.944 154.12 255.408C153.866 255.456 154.343 262.13 153.979 262.308C152.278 263.139 150.342 262.936 148.588 259.847C148.155 259.065 148.308 254.381 148.186 252.994C147.44 244.601 146.936 256.832 146.813 257.067C143.882 263.007 141.208 252.011 138.21 257.347C138.049 257.66 137.04 270.783 136.178 259.569C136.12 258.823 135.259 247.349 134.93 255.216C134.91 255.708 135.415 261.613 134.766 261.026C134.116 260.439 133.192 264.413 132.168 257.937C131.844 255.896 130.916 244.453 130.322 253.607C130.288 254.246 129.52 274.931 128.714 260.692C128.583 258.348 128.289 243.267 127.493 251.023C127.342 252.526 127.766 255.881 127.322 257.994C126.643 261.25 125.541 257.236 124.783 263.976C124.651 265.169 124.221 275.422 123.478 267.667C123.361 266.452 123.398 261.414 123.094 260.858C121.643 258.19 120.249 261.595 118.754 258.148C118.223 256.937 118.27 248.792 117.694 246.624C117.117 244.457 116.017 242.387 115.573 246.12C115.127 249.855 116.057 262.81 115.271 263.869C111.798 268.47 108.144 260.953 104.541 259.937C104.012 259.786 104.573 264.415 103.805 264.524C101.007 264.946 96.1694 269.437 93.4278 259.648C91.2033 251.807 93.5389 245.721 91.92 242.551C91.1387 241.04 90.7918 256.141 90.6306 256.621C89.055 261.494 87.6872 254.849 86.1754 256.946C85.8667 257.381 86.3673 263.483 86.1029 263.786C85.2021 264.874 84.1444 262.176 83.2793 262.702C82.8918 262.952 83.1092 267.617 82.7359 267.268C81.8534 266.487 81.0025 264.55 80.0054 260.202C79.9143 259.806 80.2599 253.983 79.5999 253.788C78.5333 253.488 77.0921 249.215 76.0428 253.71C75.7299 255.062 76.073 265.729 75.0616 258.388C74.8484 256.854 74.6353 244.039 74.0927 255.136C73.998 256.98 72.9839 271.957 71.9306 262.36C71.6523 259.834 70.8048 249.37 70.4337 251.031C70.3849 251.296 70.8097 257.017 70.4761 257.588C69.3173 259.499 67.9403 258.935 66.721 260.774C66.3948 261.276 67.1129 267.187 66.6212 267.747C65.2692 269.294 63.5003 267.846 62.0337 266.041C61.5001 265.365 61.6721 260.441 61.6157 259.908C60.7018 251.238 60.7822 262.983 60.6123 263.674C59.538 267.816 58.4578 262.338 57.3563 263.84C57.0571 264.239 57.4928 269.825 57.4493 270.326C56.9903 275.224 57.0871 265.16 56.6363 264.068C55.3722 260.977 54.1296 261.475 53.0343 262.235C52.6325 262.522 53.3536 268.989 52.9912 269.172C51.2995 270.09 49.5564 270.007 47.8367 268.384C47.2699 267.872 46.7054 267.207 46.1452 266.372C45.7054 265.704 45.7483 260.7 45.6136 259.563C44.6762 251.609 44.2924 262.53 44.1447 263.576C43.4602 268.349 42.9497 263.947 42.1681 264.808C38.4785 269.085 33.605 266.391 29.9042 264.775C25.0589 262.699 21.1335 258.161 16.7616 259.671C16.4808 259.761 17.185 266.379 16.9499 266.541C13.9796 268.335 10.6807 265.953 7.77327 268.091C7.52981 268.255 8.35501 274.515 7.98326 274.99C7.21923 276.007 6.20662 275.74 5.19744 273.799C4.71661 272.864 4.84517 267.429 4.36772 266.597C3.26021 264.649 2.21068 264.282 1.31257 265.37C0.938652 265.846 2.08251 272.22 1.56041 272.338C-2.00857 273.275 -5.29796 274.689 -9.6596 266.749C-9.95844 266.204 -11.5234 253.193 -11.7937 255.749C-11.4493 259.369 -10.9941 263.622 -10.5997 267.488C-15.4702 270.113 -20.3112 266.159 -26.0343 266.293C-26.2806 266.3 -24.859 273.109 -25.3313 273.158C-26.1606 273.248 -27.0184 273.527 -27.9541 273.702C-28.2984 273.616 -29.3714 274.025 -29.7132 273.929C-31.7463 274.259 -33.8686 273.986 -36.5349 269.419C-36.9051 268.78 -38.0674 256.622 -38.7583 258.554C-38.8706 258.905 -40.0555 260.668 -40.126 263.34C-40.1327 263.743 -39.2957 269.387 -39.7166 269.598C-42.2219 270.727 -45.1168 269.702 -48.2271 266.472C-48.7224 265.939 -48.7622 259.85 -49.1136 259.417C-51.6421 256.393 -53.801 261.196 -57.1633 255.825C-59.488 252.196 -59.0606 241.678 -60.3063 231.367C-60.4004 229.921 -62.1908 229.66 -62.0952 223.631C-61.1255 208.549 -60.5064 192.013 -59.7114 175.924C-59.5159 174.219 -59.2419 174.187 -56.2329 174.041C-55.3759 174.034 -54.5692 173.985 -53.0518 174.084C-51.6894 174.147 -50.2565 174.259 -49.7535 173.962C-49.2141 173.684 -49.8175 172.861 -51.2604 171.731C-51.9615 171.173 -52.8428 170.559 -53.6912 169.95C-54.3179 169.382 -54.9934 168.784 -55.6509 168.162C-56.3135 167.767 -58.4747 166.719 -59.1886 165.582C-60.0207 164.423 -60.3329 163.022 -60.4714 161.597C-60.6604 159.63 -60.2589 153.519 -60.7048 151.001C-61.1488 148.488 -61.2958 153.617 -61.4819 150.664C-61.6462 147.673 -61.9656 140.728 -61.9814 139.904ZM173.677 224.068C172.882 218.244 173.239 239.627 173.855 234.496C173.884 234.223 173.718 224.353 173.677 224.068ZM254.609 219.082C253.557 209.667 253.222 223.546 253.976 230.817C254.73 238.081 254.93 221.935 254.609 219.082ZM263.559 212.025C262.397 204.608 262.808 234.931 263.787 228.781C263.844 228.434 263.627 212.455 263.559 212.025ZM-56.39 228.275C-56.4142 227.992 -57.0629 227.752 -57.0651 228.034C-57.0498 234.836 -55.6782 235.307 -56.39 228.275ZM272.429 204.359C272.033 200.264 271.203 205.016 271.695 210.108C272.092 214.205 272.922 209.454 272.429 204.359ZM138.254 202.03C138.236 201.711 137.843 201.433 137.893 203.234C138.056 209.034 138.555 207.384 138.254 202.03ZM287.739 203.723C285.453 202.624 283.612 177.604 286.13 180.384C286.586 180.887 285.317 188.389 285.928 190.636C287.045 194.73 287.441 178.992 288.66 187.399C288.881 188.938 287.87 203.841 287.736 203.758C287.737 203.746 287.738 203.734 287.739 203.723ZM172.744 198.395C172.724 198.113 172.18 197.856 172.173 198.137C172.027 204.931 173.122 205.451 172.744 198.395ZM115.261 189.368C115.215 188.767 113.96 188.235 113.935 188.791C113.576 199.906 116.11 201.014 115.261 189.368ZM208.649 182.005C209.105 175.165 209.783 174.347 210.421 182.913C209.829 182.469 209.249 182.414 208.649 182.005Z" fill="#CFD5B2"/>
<path d="M50.8681 156.475C49.4814 157.786 50.005 155.749 50.9136 153.089C51.1947 152.263 53.3078 149.115 53.5874 148.398C54.1259 146.995 52.902 148.422 53.5648 146.768C53.7934 146.203 57.0648 141.168 57.2291 140.691C58.0958 138.107 56.7623 139.085 56.8472 137.647C57.2068 130.519 55.0411 126.707 52.9881 122.513C52.3172 121.138 53.4476 115.581 51.1939 117.106C50.9286 117.289 48.6145 122.024 48.3914 122.398C44.9802 128.122 49.9391 118.709 50.3135 117.314C51.7967 111.809 50.7776 110.761 48.8955 112.11C48.0819 112.694 43.955 122.325 46.0899 116.832C46.2323 116.46 48.7683 111.47 48.9097 110.876C49.2214 109.536 48.2937 110.202 48.2735 109.702C48.2529 108.716 48.162 108.735 47.8203 108.505C47.367 108.144 47.932 105.342 46.8594 106.25C46.628 106.461 44.4201 111.757 43.8473 112.57C43.2743 113.381 43.0407 112.745 43.4296 111.439C43.8229 110.134 45.6959 106.032 46.0833 105.074C49.3284 96.9718 43.98 107.822 43.8142 108.077C40.6884 112.277 42.4028 105.557 41.6467 105.307C41.2976 105.202 40.6767 106.196 40.9101 106.845C40.7826 107.06 40.677 107.176 40.6194 107.066C40.4208 106.614 40.5329 103.467 39.8542 103.908C39.7891 103.949 38.887 110.633 38.8245 110.699C38.1689 111.402 37.7766 110.621 37.1107 106.04C37.038 105.575 37.3574 99.6604 37.2799 98.8412C36.9553 93.9477 34.9413 82.2765 35.4651 108.064C35.0968 107.069 34.6729 106.049 33.9023 100.896C33.3878 97.5818 33.1194 91.1306 32.9843 93.9047C32.9582 94.5227 33.5502 100.142 33.491 100.642C33.2724 102.737 32.6122 100.965 32.6147 103.91C32.6213 104.522 33.3325 109.534 33.4405 110.439C34.3704 117.763 32.3987 105.719 32.1503 104.861C30.6005 98.4123 30.5614 101.067 30.0919 101.003C29.9775 100.987 31.5374 107.606 31.5007 107.825C31.3296 108.771 30.967 108.446 29.9775 106.283C29.9538 106.047 29.9205 105.793 29.8768 105.522C29.7553 104.84 27.9884 99.3234 27.8208 98.7212C26.9656 96.1763 30.4866 106.535 29.8561 104.25C29.7122 103.787 27.9807 99.1409 27.7948 98.629C24.7489 90.6413 29.0358 101.971 29.1936 102.196C30.815 105.478 25.5096 93.9898 25.9217 95.788C26.0052 96.0004 28.9336 101.549 29.027 101.788C29.7152 103.388 28.5561 102.039 24.5403 98.8108C23.9223 98.3161 21.082 94.5531 20.7154 94.1022C14.852 87.1665 22.3547 96.7439 22.6164 97.1218C24.3903 99.9282 17.2355 92.6335 26.605 103.69C21.6246 101.411 25.833 108.76 14.1177 102.468C13.9779 102.4 9.49986 98.4197 9.23866 98.3026C6.03672 96.8638 13.2043 102.811 21.4927 110.641C23.5835 112.596 12.7748 104.087 11.968 103.481C9.02098 101.215 2.30925 95.3493 1.72296 94.9291C-2.91721 91.6732 19.7255 110.541 19.3716 110.981C19.3219 110.964 15.2013 107.434 14.7549 107.128C13.3527 106.165 14.9122 107.662 13.3761 106.589C9.82629 104.1 -1.31722 95.1022 4.75708 100.839C5.54801 101.58 18.5353 112.109 17.5841 112.024C17.1935 111.981 16.8047 112.912 15.7884 112.445C14.7735 111.978 10.71 108.436 10.5166 108.304C4.50494 104.406 2.39163 102.324 -6.05056 95.9897C-14.4657 89.685 5.08659 105.363 7.16319 107.244C9.23449 109.118 4.30617 105.865 2.62783 104.691C0.949511 103.515 -1.60351 101.228 -2.58178 100.598C-8.98094 96.4916 6.86667 108.697 9.78893 111.41C16.7096 117.831 1.93032 106.549 0.144841 105.86C-0.338518 105.675 3.03198 108.239 3.24856 108.6C4.061 109.998 -0.653642 106.604 3.04682 110.479C3.65316 111.107 11.9428 118.621 5.3799 113.69C4.43535 112.977 0.949839 109.924 -0.0100479 109.457C-1.45012 108.756 -2.65103 108.619 -1.71905 109.917C-1.03145 110.88 5.0432 115.513 2.97508 114.29C2.05376 113.741 -1.16315 110.629 -2.6039 109.831C-4.04169 109.031 -4.40025 109.757 -4.47929 110.085C-4.55672 110.417 -0.059062 114.065 0.221508 114.337C1.81703 115.909 3.51055 118.218 3.46592 118.258C2.02546 120.977 -6.84694 116.22 -6.79155 120.555C-6.8039 120.898 -2.56732 125.296 -2.52671 125.395C-1.51748 127.932 -11.8749 115.416 -15.8499 111.683C-7.57458 120.901 -9.30569 119.442 -8.86927 120.856C-8.65737 121.548 -5.44144 125.11 -5.14272 125.501C-0.84535 131.408 -7.17332 124.426 -8.42551 122.963C-13.1036 117.64 -8.128 124.372 -11.218 120.78C-14.2323 117.172 -18.247 111.473 -18.5078 111.787C-15.939 115.405 -8.52997 124.328 -7.79678 126.131C-7.0347 128.107 -7.28063 129.161 -8.03502 129.608C-9.39944 130.377 -13.3929 127.189 -14.4223 127.027C-15.8865 126.814 -15.7797 127.698 -17.1491 126.644C-19.6039 124.72 -14.9218 131.943 -13.636 135.742C-12.3652 139.546 -22.4518 120.945 -24.7808 117.038C-27.0948 113.124 -24.882 117.249 -26.2062 115.126C-27.5251 113.002 -28.8362 110.192 -29.5143 109.496C-30.1799 108.796 -26.8671 116.206 -24.6706 120.424C-19.9986 129.352 -14.5901 138.445 -17.0754 135.57C-17.2202 135.398 -19.7591 130.446 -20.177 130.034C-23.3967 126.912 -24.6938 127.3 -27.576 124.535C-27.9753 124.146 -30.7106 118.593 -30.9742 118.304C-33.7213 115.274 -28.5598 124.35 -23.7268 134.901C-30.7325 121.158 -35.365 112.931 -36.0965 113.207C-36.5407 113.37 -33.3706 119.315 -31.4602 123.673C-30.8843 124.986 -33.3084 121.032 -31.9064 123.874C-27.325 133.164 -21.7188 143.317 -24.5606 139.59C-24.693 139.411 -27.1976 134.324 -27.4645 134.076C-29.2013 132.444 -24.3067 142.109 -24.4399 143.656C-24.5415 144.869 -28.6064 139.539 -29.7543 138.931C-37.8325 123.585 -36.638 127.446 -31.2517 138.125C-31.8961 137.914 -32.015 138.745 -33.195 137.505C-33.5995 137.083 -35.9079 132.623 -36.1839 132.156C-40.5277 124.83 -35.1448 135.146 -35.0076 135.591C-33.7958 139.982 -38.9185 132.748 -35.4829 140.715C-35.3618 141.004 -29.3471 151.441 -33.9873 143.965C-34.3117 143.452 -36.7908 138.553 -37.4077 138.423C-37.9946 138.28 -42.0233 133.371 -39.8753 138.118C-39.8463 138.189 -39.8151 138.26 -39.7826 138.334C-39.2281 139.571 -34.5328 148.164 -38.847 141.846C-39.4306 140.987 -41.1842 138.009 -42.2464 136.405C-45.6259 131.291 -39.4147 141.764 -45.0097 133.06C-50.6062 124.356 -55.0081 117.965 -51.9517 124.451C-51.8637 124.64 -47.0761 133.022 -47.3608 133.013C-47.8148 132.989 -49.2777 131.517 -49.5814 131.766C-49.724 131.888 -46.6081 137.008 -46.5808 137.119C-46.0085 140.67 -49.4838 136.502 -51.7706 135.121C-52.1826 134.85 -48.8948 142.369 -52.4116 136.927C-56.2407 130.958 -69.8211 104.858 -67.3537 111.488C-66.3204 114.115 -49.5186 147.453 -59.2167 130.697C-58.5093 135.724 -64.1766 127.487 -62.6666 134.335C-62.5991 134.639 -58.4122 144.18 -58.6517 144.135C-59.0067 144.045 -61.1725 139.682 -61.4748 139.467C-62.7975 138.458 -61.7693 142.558 -62.7657 142.28C-63.1311 142.18 -65.0068 137.508 -65.4248 137.378C-65.8286 137.248 -63.5187 143.467 -65.1708 140.683C-66.4349 138.562 -71.7355 126.088 -72.6197 124.737C-67.7989 137.202 -68.1668 137.052 -67.4597 140.553C-67.3236 141.233 -65.5919 145.552 -65.4461 146.099C-64.8314 148.429 -66.3629 144.884 -65.6781 147.411C-65.5161 148.019 -63.9753 152.315 -63.7607 153.056C-61.9161 159.537 -65.981 150.078 -66.6261 148.408C-69.1701 142.101 -67.475 147.792 -68.5973 145.345C-69.6871 142.886 -70.3 139.575 -71.09 138.124C-71.4288 137.491 -71.7123 137.029 -71.9544 136.695L-71.7105 136.627C-72.5444 135.325 -72.9323 135.845 -73.4051 135.768C-73.6348 135.755 -72.353 141.713 -72.3587 141.85C-72.6785 143.483 -74.2214 137.166 -72.6899 149.21C-77.8223 118.25 -72.5891 152.274 -74.3707 146.185C-74.5098 145.692 -76.6845 131.013 -76.7666 128.823C-76.8549 126.637 -75.8428 131.177 -76.0813 127.778C-76.106 126.976 -78.0057 113.198 -78.1595 112.369C-79.1379 105.859 -75.2966 127.698 -75.0388 128.889C-72.4584 141.781 -74.7964 126.974 -75.0329 125.964C-75.4843 122.8 -75.2916 123.129 -75.2283 122.652L-76.1434 122.906C-76.1119 122.669 -76.1335 122.245 -76.3733 121.157C-76.8355 119.007 -81.3589 105.203 -81.1616 105.606C-80.5538 106.954 -73.2818 125.875 -78.9525 109.236C-80.1735 105.692 -85.9515 90.9047 -81.205 102.454C-80.9258 103.19 -76.456 113.704 -78.975 106.931C-79.2961 106.078 -81.0287 101.788 -81.1532 101.419C-81.9605 99.0335 -80.4584 102.401 -80.9661 100.7C-81.4733 98.999 -82.3235 96.5007 -81.504 97.8557C-81.0216 98.6694 -77.3801 106.485 -76.4449 108.379C-73.7591 113.839 -77.6188 104.645 -74.4515 111.292C-71.2356 117.958 -66.9215 128.341 -64.4711 132.478C-69.4586 121.541 -74.567 110.31 -79.5947 99.3156C-78.7718 99.4036 -76.3672 102.562 -75.8289 101.701C-75.7692 101.584 -78.7455 95.8472 -78.762 95.576C-78.8351 94.4649 -76.3856 98.3877 -76.7829 96.5276C-77.1072 95.0684 -79.9331 88.8237 -80.426 87.1329C-73.7494 99.1618 -75.3903 94.7419 -74.4058 95.635C-74.0581 95.9396 -72.2966 99.1635 -71.6139 100.156C-69.077 103.818 -75.1499 93.2862 -75.9778 91.558C-79.5403 84.1973 -66.0702 108.188 -65.7954 107.251C-65.7665 107.204 -72.67 94.2587 -73.0864 93.4446C-75.7535 88.1091 -70.4999 97.8458 -69.7665 98.6742C-68.4272 100.188 -66.4007 103.062 -68.1451 99.1052C-68.659 97.9316 -73.0272 89.896 -69.1914 95.8414C-68.6883 96.6194 -66.2314 100.798 -66.0609 101.027C-63.1686 104.813 -70.9619 91.7253 -73.3805 87.1605C-75.8088 82.6029 -69.9933 91.3729 -68.3262 93.9057C-64.0317 100.469 -66.7508 96.869 -66.3622 97.533C-61.7552 105.446 -62.2603 103.909 -61.6213 104.425C-53.8025 117.15 -53.904 116.161 -60.9866 104.907C-61.7596 103.677 -61.2176 104.978 -61.6213 104.425C-67.1562 95.0126 -68.9496 91.6257 -66.3602 95.2261C-65.4047 96.4147 -63.9369 98.4221 -61.9518 101.299C-58.3097 106.596 -54.6943 113.152 -55.2817 110.311C-55.5402 109.025 -60.9569 100.283 -62.0193 97.6529C-64.4049 91.6305 -58.497 99.2967 -58.4518 97.5365C-58.423 96.8903 -61.4796 92.1516 -61.5496 91.5379C-61.7321 89.888 -59.1984 93.3119 -59.7034 91.1203C-59.7515 90.9149 -62.7139 85.8193 -62.5766 85.6582C-61.5838 84.3328 -58.7032 87.0715 -57.4163 86.5098C-56.7931 86.2343 -57.2533 82.8072 -56.3656 83.0822C-54.8339 83.5224 -49.7212 90.5257 -49.8939 88.2712C-49.9953 86.8233 -52.8194 81.6487 -54.453 77.9725C-57.6249 70.8495 -50.5058 82.8625 -49.4097 84.7256C-49.3725 84.7869 -49.1463 86.2355 -47.5273 88.8035C-44.4855 94.3268 -49.4011 84.752 -49.4097 84.7256C-48.7013 85.9295 -47.2711 86.6915 -47.6426 85.6136C-47.8444 85.0241 -50.4902 80.1065 -50.5473 79.8931C-51.8462 74.9301 -51.6519 73.2162 -49.583 75.0571C-49.514 75.1478 -46.5208 80.6299 -46.3946 80.7742C-44.5459 82.9256 -47.9585 76.0783 -49.8935 71.9595C-51.8216 67.8388 -50.9063 69.0626 -45.2714 78.1879C-45.7251 76.8885 -42.9807 80.7694 -41.2754 83.0976C-39.5662 85.4233 -45.9521 75.0766 -46.0687 74.8662C-49.5544 68.5085 -46.3877 73.2885 -45.2269 74.4429C-45.2379 74.5717 -45.2571 74.6869 -45.2873 74.7852C-45.5422 75.6049 -47.3211 74.7505 -48.4527 73.9649C-49.3848 73.3464 -47.6169 75.5855 -48.943 74.3259C-49.1219 74.1594 -52.6962 70.0936 -52.8404 69.9428C-57.3608 65.2961 -48.4155 75.0509 -46.8561 76.827C-41.1489 83.2548 -37.9383 86.5226 -40.6521 83.5228C-41.2432 82.8065 -54.5315 69.1486 -55.3786 68.4189C-56.4125 67.453 -51.5709 72.2708 -52.7454 71.1055C-52.8412 71.0099 -55.8414 68.0512 -55.7172 68.1898C-55.1775 68.7932 -53.2034 70.278 -53.2466 69.6923C-53.2421 69.6251 -58.2677 65.2185 -58.3505 65.056C-58.7389 64.3014 -58.2429 64.1079 -55.4883 65.695C-54.793 66.0979 -51.2744 69.1843 -50.1924 70.0566C-43.6284 75.3145 -52.7774 67.2132 -52.932 67.0351C-56.6981 62.3864 -47.4468 68.5337 -50.4816 63.9173C-50.6635 63.651 -60.404 54.8698 -51.4579 61.668C-50.8626 62.1202 -41.7184 69.0861 -47.6418 63.9165C-48.0122 63.593 -52.7467 60.04 -52.0457 60.1318C-51.3461 60.2231 -54.0345 57.265 -48.6434 60.9358C-46.9436 62.0903 -37.7935 69.0048 -44.5569 62.8399C-45.0387 62.4212 -60.5203 48.7143 -49.2837 57.4912C-47.4346 58.9366 -35.7968 68.533 -41.3681 63.1301C-42.4473 62.0817 -45.1945 60.1254 -46.6051 58.5326C-48.7755 56.0737 -45.2202 58.1127 -49.9529 53.2948C-50.7961 52.4482 -58.3169 45.4803 -52.0832 50.1405C-51.1083 50.8721 -47.3294 54.2031 -46.7569 54.3976C-44.0237 55.3464 -45.8516 52.2957 -42.4673 53.7093C-41.2792 54.2077 -35.2609 59.6938 -33.3535 60.8251C-31.4451 61.954 -29.3499 62.7476 -31.8477 59.958C-34.3383 57.1577 -44.3674 48.9094 -44.665 47.6833C-45.8854 42.2844 -37.9076 44.9005 -34.4811 43.1213C-33.9578 42.8454 -37.5356 39.8455 -36.9683 39.1771C-35.0796 36.8234 -32.8062 29.0756 -23.9294 34.765C-17.0674 39.485 -16.0004 46.2112 -12.6061 47.6846C-11.0688 48.451 -19.0222 35.5964 -19.0516 35.0369C-19.7537 29.6377 -14.484 34.1764 -13.5267 31.2084C-13.3046 30.5802 -16.8792 25.5931 -16.6275 25.1008C-15.7548 23.3505 -12.8901 24.8778 -11.7021 23.6964C-11.1594 23.1467 -13.4097 19.0529 -12.6002 19.047C-10.6922 18.9923 -8.40896 20.0893 -5.13444 23.4343C-4.85285 23.7467 -3.38854 29.4451 -2.23228 29.1774C-0.301317 28.7082 3.28448 31.9392 4.03081 26.9968C4.23632 25.519 1.09293 15.3082 4.82219 21.8788C5.40996 22.9408 7.46871 30.536 7.69916 28.9125C7.69812 28.4479 7.51023 27.167 7.06275 24.646C6.65837 22.8437 4.79256 7.87131 8.14535 16.9606C9.02602 19.3517 12.0978 29.3947 12.1779 27.6823C12.1865 27.4101 10.5834 21.8984 10.8806 21.2536C11.9663 19.0763 13.6796 19.3374 14.8953 17.28C15.2278 16.718 13.4853 11.0093 14.0427 10.3536C15.5937 8.53764 18.1465 9.66153 20.1042 11.2741C20.8307 11.8789 21.0366 16.8091 21.1564 17.3325C22.9719 25.8658 21.8808 14.1727 22.0615 13.461C23.1046 9.20777 24.8486 14.5738 26.0585 13.004C26.4036 12.5852 25.6631 7.03019 25.6971 6.52633C26.1237 1.59721 26.3357 11.6667 26.9216 12.7314C28.545 15.7507 29.9747 15.214 31.3266 14.4415C31.823 14.15 30.9802 7.68783 31.4479 7.50092C34.2358 6.27134 37.3122 6.88302 39.9271 10.5448C40.4179 11.2461 39.932 16.2315 39.9995 17.3758C40.3909 25.3786 41.8153 14.5385 42.1473 13.5168C43.5123 8.84277 43.7211 13.2848 44.7519 12.5305C49.954 8.76419 56.1445 12.5709 60.8205 15.4934C62.1404 16.2967 63.3881 17.229 64.5803 18.2071C70.808 22.3829 72.1175 25.9905 75.7526 26.3698C76.0309 26.4053 78.2863 20.1443 78.5658 20.099C82.0792 19.8066 83.4499 23.2596 86.5872 22.5881C86.8421 22.545 89.1972 16.6897 89.7014 16.4312C90.766 15.8664 91.4185 16.5497 91.1944 18.6702C91.0872 19.6923 88.3647 24.3879 88.2985 25.3142C88.1338 27.4802 88.6496 28.2253 89.7947 27.6572C90.2851 27.4018 92.6495 21.3835 93.0703 21.5051C96.0066 22.2204 99.0961 22.5371 97.752 31.2476C97.6604 31.8463 91.7498 43.5407 93.2603 41.4951C94.9721 38.2868 96.9536 34.4961 98.7673 31.0586C103.348 31.0932 104.675 36.9917 107.835 39.601C107.971 39.7111 111.148 33.5309 111.434 33.7157C113.071 34.7685 115.76 34.1093 113.982 41.0841C113.811 41.7682 107.457 52.1985 108.901 50.9102C109.161 50.6731 110.748 49.7283 112.321 47.5818C112.556 47.2566 115.372 42.2971 115.708 42.3068C117.634 42.4645 118.524 44.549 118.178 48.4616C118.113 49.1001 114.583 54.0489 114.504 54.5455C113.933 58.0056 117.829 55.0426 115.957 60.4306C114.669 64.0417 108.476 72.5213 103.004 81.2933C102.23 82.5297 102.519 83.0099 99.106 87.9572C90.5206 100.394 80.9393 113.887 71.8144 127.162C69.849 130.021 72.2523 127.141 67.2972 133.907C66.9652 134.36 65.1976 136.52 63.5424 138.834C62.3988 140.434 58.9757 145.498 57.4985 147.537C56.028 149.578 58.8671 145.312 57.1096 147.694C55.3376 150.11 51.4755 155.892 50.8681 156.475ZM-33.5022 93.3959C-30.1058 98.1528 -41.7711 80.2291 -39.147 84.6255C-39.0064 84.8593 -33.6679 93.162 -33.5022 93.3959ZM-69.3121 117.063C-64.8029 125.359 -70.6629 112.785 -74.1165 106.365C-77.5282 99.9335 -70.66 114.539 -69.3121 117.063ZM-70.2675 125.07C-66.8693 131.705 -78.8805 103.859 -76.8026 109.639C-76.6846 109.965 -70.4611 124.683 -70.2675 125.07ZM99.7085 82.6161C99.5567 82.8561 99.696 83.2818 99.8593 83.0525C103.8 77.5167 103.488 76.6491 99.7085 82.6161ZM-71.5217 133.59C-70.034 137.417 -71.1667 132.796 -73.0382 128.046C-74.5109 124.215 -73.325 128.813 -71.5217 133.59ZM-7.97316 99.2972C-7.72197 99.4934 -7.36155 99.5044 -8.76389 98.3738C-13.281 94.7328 -12.1979 95.9969 -7.97316 99.2972ZM-78.5345 135.271C-76.9908 136.194 -72.7903 160.902 -74.4512 158.285C-74.7605 157.814 -75.1022 150.308 -75.7276 148.116C-76.9123 144.131 -74.9094 159.735 -76.7352 151.49C-77.0919 149.984 -78.6487 135.166 -78.5374 135.236C-78.5364 135.248 -78.5355 135.26 -78.5345 135.271ZM-19.3918 114.86C-19.2316 115.094 -18.8304 115.152 -18.9777 114.913C-22.5766 109.155 -23.3364 109.001 -19.3918 114.86ZM10.1931 98.0713C10.6572 98.4555 11.5031 98.349 11.1017 97.9655C3.04754 90.3138 1.22052 90.611 10.1931 98.0713ZM-29.9805 138.527C-27.0683 144.713 -26.9926 145.583 -31.2464 138.132C-30.76 138.388 -30.4534 138.302 -29.9805 138.527Z" fill="#CFD5B2"/>
<path d="M-95.0947 187.783C-91.9044 186.456 -88.7115 189.053 -86.4853 192.231C-85.7956 193.216 -86.8943 196.869 -86.4332 197.72C-85.5659 199.374 -84.1515 197.74 -83.3467 199.669C-83.0738 200.328 -84.6126 206.151 -84.3007 206.707C-82.6545 209.7 -80.2858 208.574 -78.3876 210.214C-76.5725 211.75 -74.7875 213.134 -72.9006 214.421C-65.0157 219.915 -56.7562 223.347 -48.409 227.12C-45.0122 228.649 -41.6362 234.802 -37.5434 233.125C-37.0621 232.925 -36.3745 227.694 -36.2148 227.281C-33.7379 220.974 -36.0645 231.364 -35.4856 232.906C-33.1747 238.999 -29.5506 240.153 -25.9993 238.734C-24.4798 238.116 -23.9663 227.57 -23.6487 233.6C-23.6247 234.008 -24.9755 239.45 -24.7087 240.105C-24.1019 241.581 -22.3229 240.889 -21.7453 241.445C-20.6395 242.544 -20.4188 242.527 -19.2371 242.808C-17.6292 243.24 -16.1842 246.332 -14.2044 245.405C-13.7786 245.191 -13.2417 239.458 -12.4693 238.607C-11.6967 237.757 -10.2038 238.525 -9.91416 239.953C-9.6247 241.381 -10.6636 245.775 -10.7554 246.808C-11.5501 255.531 -7.54913 243.981 -7.25957 243.731C-2.05222 239.509 0.384693 246.953 4.41074 247.673C7.47838 248.206 11.1583 246.573 14.0042 247.415C17.4096 248.442 19.751 252.035 23.241 252.138C23.6041 252.154 24.4164 245.445 24.8621 245.452C29.6223 245.535 34.0771 247.109 37.8435 252.444C38.2184 252.985 36.5399 258.695 36.8486 259.583C38.3426 263.75 40.1332 272.256 43.8846 263.584C44.9601 261.223 46.1921 257.581 47.6257 252.22C49.4906 253.602 51.8102 255.129 52.5531 260.594C53.0256 264.11 50.5699 270.186 52.5535 267.791C53.0033 267.26 53.7554 261.644 54.3469 261.266C56.8392 259.682 58.6609 261.967 61.3391 259.589C61.8852 259.092 62.9136 254.134 63.2367 253.273C65.8928 246.309 64.8168 258.596 64.939 259.538C66.0785 266.613 68.628 264.569 71.1212 265.383C71.693 265.574 72.7183 258.814 73.3367 258.763C76.507 258.585 79.4759 260.007 81.4585 263.717C81.91 264.562 79.7179 269.958 79.8478 270.646C80.4137 273.605 83.7788 263.191 84.3714 265.832C84.5046 266.377 82.9378 271.084 82.8318 271.621C81.1463 280.038 85.2712 268.631 85.5523 268.436C89.0952 265.693 86.9026 278.256 89.7589 277.291C90.1063 277.164 91.3956 270.988 92.2606 270.999C98.0821 271.052 103.117 274.626 106.328 281.102C106.842 282.105 104.706 286.347 104.56 286.911C102.301 295.744 106.886 284.466 107.285 284.122C110.348 281.716 108.711 291.963 114.806 278.75C118.21 283.055 123.336 283.076 124.117 283.845C126.141 284.681 129.143 286.624 132.218 292.241C132.314 292.395 131.891 298.374 132.089 298.656C134.484 302.108 134.347 292.782 136.151 281.435C136.574 278.585 137.576 292.35 137.69 293.358C138.053 297.077 137.514 305.983 137.644 306.704C138.787 312.364 138.87 282.891 140.327 282.888C140.374 282.938 140.157 288.362 140.282 288.902C140.675 290.597 141.065 288.442 141.454 290.309C142.34 294.629 142.757 308.95 144.118 300.604C144.285 299.521 143.879 282.806 145.227 283.581C145.767 283.905 148.148 283.579 148.846 284.645C149.543 285.712 149.203 291.109 149.255 291.341C151.274 298.419 150.646 301.387 151.888 311.906C153.157 322.382 152.172 297.338 152.468 294.531C152.762 291.732 154.311 297.564 154.725 299.593C155.137 301.625 154.828 305.061 155.173 306.207C157.48 313.687 155.607 293.743 156.11 289.744C157.256 280.276 159.19 298.796 160.727 300.548C161.136 301.022 160.625 296.808 160.947 296.397C162.218 294.823 163.34 300.573 164.588 295.181C164.807 294.302 165.381 283.078 166.657 291.217C166.84 292.391 166.789 297.034 167.427 298.035C168.372 299.539 170.012 300.45 170.832 298.843C171.432 297.655 170.14 290.093 171.157 292.4C171.61 293.43 171.208 297.933 172.038 299.496C172.219 299.839 172.448 300.091 172.698 300.273C174.542 300.855 176.148 300.967 176.88 300.952C177.795 300.942 178.298 295.16 178.429 294.785C179.338 292.662 181.875 290.344 182.033 290.395C190.212 291.684 191.911 302.781 198.685 301.607C199.207 301.524 200.864 295.64 200.964 295.568C203.282 293.651 196.902 308.628 196.222 314.132C200.039 302.346 199.924 304.675 201.427 303.749C202.143 303.288 203.402 298.651 203.605 298.201C206.678 291.549 204.209 300.647 203.724 302.515C201.959 309.393 205.171 301.645 204.007 306.247C202.849 310.814 199.855 317.155 200.894 317.41C202.586 313.3 205.521 302.062 206.88 300.536C210.316 296.673 212.534 300.045 214.26 303.19C215.015 304.712 215.688 306.179 216.316 306.695C218.225 308.252 219.153 307.654 220.02 309.553C221.622 312.979 222.959 304.436 225.291 300.968C227.591 297.483 221.925 317.873 221.057 322.343C220.212 326.816 221.556 322.327 221.254 324.823C220.962 327.322 219.622 330.182 220.088 331.256C220.578 332.338 224.222 324.869 225.444 320.266C228.065 310.526 229.575 300.038 230.327 303.997C230.372 304.232 228.927 309.612 229.164 310.237C231.107 315.021 234.087 315.837 236.444 320.045C236.772 320.633 235.436 326.687 235.622 327.099C237.591 331.408 238.276 320.954 241.235 309.673C238.741 324.897 238.17 334.356 240.193 334.717C241.392 334.935 242.051 328.226 243.387 323.609C243.782 322.216 244.045 326.908 244.572 323.78C246.284 313.553 246.911 301.957 248.226 306.755C248.284 306.983 247.38 312.586 247.629 312.959C249.259 315.402 250.635 304.654 252.722 303.545C254.35 302.674 256.55 309.505 258.316 310.728C256.833 328.007 258.964 324.197 260.613 312.332C260.643 312.347 260.673 312.361 260.703 312.375C261.796 312.884 262.939 312.358 263.924 314.025C264.266 314.607 263.757 319.608 263.775 320.153C264.112 328.693 265.169 317.094 265.422 316.648C268.111 312.321 270.301 321.154 272.537 312.474C272.626 312.161 272.345 300.119 273.229 308.888C273.309 309.491 272.715 315 273.865 315.378C274.939 315.764 277.733 322.048 278.737 316.316C279.033 314.932 278.576 305.139 280.296 312.61C280.538 313.623 280.921 317.059 281.345 318.94C282.772 324.922 281.095 312.862 283.362 322.97C285.601 333.084 288.874 340.377 289.369 332.935C289.405 332.713 287.602 323.225 288.149 323.243C289.048 323.278 290.816 324.868 291.724 324.511C292.149 324.34 290.028 318.727 290.068 318.599C291.461 314.597 294.939 318.96 298.93 319.5C299.734 319.571 296.947 311.767 301.193 316.733C305.965 322.084 320.499 347.74 319.864 339.778C319.676 337.767 311.664 324.264 308.992 318.478L308.728 318.638C307.473 315.197 308.211 314.291 311.533 320.568C313.28 314.701 319.186 323.482 321.616 316.128C321.722 315.802 320.596 305.428 321.103 305.491C321.817 305.612 322.918 310.37 323.417 310.622C325.536 311.796 326.803 307.447 328.792 307.89C329.534 308.05 329.803 313.082 330.652 313.282C331.499 313.479 331.477 306.823 332.91 309.917C333.991 312.277 335.842 325.724 336.996 327.228C336.117 313.892 336.905 314.111 338.089 310.507C338.318 309.808 337.757 305.181 337.853 304.611C338.25 302.186 338.956 306.009 339.318 303.376C339.408 302.744 339.178 298.185 339.242 297.411C339.801 290.65 341.723 300.842 342.028 302.619C343.222 309.364 343.424 303.416 344.222 306.063C345.01 308.71 344.094 312.086 344.951 313.679C345.219 314.179 345.495 314.584 345.776 314.914C345.798 314.919 345.867 314.904 345.889 314.909C347.559 316.714 349.353 316.092 350.855 316.153C351.558 316.154 350.6 310.117 350.69 309.976C351.942 308.328 354.002 314.646 353.584 302.492C357.662 333.619 354.117 299.385 356.688 305.421C356.891 305.909 358.785 320.629 358.381 322.866C357.97 325.102 356.509 320.594 355.954 324.061C355.842 324.874 355.886 338.838 355.762 339.694C354.91 346.381 352.836 324.298 352.676 323.09C350.834 310.056 350.58 325.097 350.217 326.16C349.106 329.788 347.819 329.025 346.702 329.841C346.613 329.82 346.332 329.884 346.243 329.861C345.908 330.128 345.586 330.579 345.285 331.448C344.508 333.665 344.978 348.184 344.34 347.764C342.263 346.381 340.33 326.19 339.385 343.848C339.195 347.615 340.632 363.429 338.399 351.068C338.274 350.287 336.337 338.977 336.276 346.229C336.273 347.143 336.646 351.755 336.581 352.15C336.144 354.708 335.402 351.073 334.868 352.895C334.341 354.718 333.844 357.413 332.952 355.934C332.431 355.048 330.835 346.557 330.342 344.492C328.922 338.542 329.585 348.511 328.192 341.273C326.717 334.01 326.043 322.752 324.085 318.207C325.813 330.104 327.555 342.319 329.321 354.278C327.482 354.124 325.093 350.654 324.386 351.4C324.322 351.499 326.112 357.709 326.136 357.962C326.205 358.476 325.992 357.608 325.87 356.81C325.764 356.005 325.713 355.294 326.608 355.907C327.204 356.317 328.383 357.533 329.998 358.668L334.558 355.911C335.229 358.329 335.875 361.134 335.445 362.612C326.823 351.834 326.714 357.487 323.619 357.828C322.572 357.934 320.806 354.71 319.646 353.989C315.349 351.301 322.161 361.418 322.404 363.463C323.08 372.317 310.519 347.839 308.057 349.677C308.005 349.737 311.516 364.163 311.435 365.169C311.53 371.521 309.244 360.548 307.642 359.998C304.731 358.962 302.296 356.09 301.042 360.939C300.723 362.362 301.163 371.724 297.943 365.228C297.537 364.374 296.495 359.639 296.286 359.397C292.68 355.385 295.918 370.248 295.169 375.661C294.386 381.075 290.011 371.131 289.181 368.186C286.812 360.615 289.591 364.736 289.537 363.961C288.795 354.805 287.521 356.615 286.252 356.01C283.975 341.251 282.793 342.308 284.978 355.432C285.229 356.865 285.919 355.369 286.252 356.01C287.335 370.659 285.127 372.829 281.888 359.378C280.398 353.067 280.533 345.559 278.328 348.472C277.296 349.781 278.388 360.015 277.472 362.877C275.183 369.414 271.729 359.899 269.382 361.395C268.518 361.939 269.332 367.573 268.72 368.138C267.045 369.651 265.714 365.395 264.056 367.5C263.899 367.697 264.05 373.6 263.526 373.655C260.786 374.025 258.489 372.193 256.071 370.897C255.223 370.347 254.333 369.905 253.355 369.791C251.814 369.617 248.669 372.602 247.03 371.786C244.176 370.412 241.491 361.498 238.718 363.249C236.894 364.363 236.5 370.252 235.241 374.138C232.751 381.665 232.074 367.484 232.095 365.302C232.1 365.231 233.755 364.067 233.413 360.961C233.878 354.658 232.12 365.278 232.095 365.302C232.073 363.893 229.356 362.121 228.593 363.133C228.175 363.689 227.451 369.229 227.246 369.413C222.393 373.681 217.787 374.253 214.091 370.763C214.041 370.637 215.498 364.562 215.367 364.341C213.604 361.105 210.361 368.185 207.176 372.065C204.004 375.943 202.625 373.998 204.305 363.337C202.434 364.223 201.582 359.037 201.237 355.924C200.896 352.814 197.118 364.368 196.931 364.562C195.476 366.155 194.376 366.862 193.502 366.998C191.361 367.537 191.198 363.191 189.324 361.717C188.129 360.756 184.911 361.538 183.061 362.317C181.588 362.951 181.819 360.021 180.224 361.406C180.007 361.589 178.416 366.766 178.306 366.949C175.091 372.699 179.877 360.347 180.398 358.028C182.312 349.603 183.248 345.087 180.535 348.44C179.917 349.209 172.91 366.957 172.011 367.832C170.832 368.93 173.266 362.541 171.994 363.862C171.888 363.97 170.571 367.972 170.182 367.648C168.389 366.205 166.992 363.191 165.787 363.29C165.642 363.292 163.972 369.766 163.774 369.886C163.348 370.174 163.224 370.309 164.258 370.169C165.452 369.971 167.114 369.808 174.34 368.294C178.406 367.381 175.611 362.78 176.405 361.36C176.585 361.031 176.771 360.729 176.963 360.454C175.661 353.898 175.278 365.266 175.098 365.503C170.583 371.681 166.328 360.84 161.699 366.309C161.459 366.63 159.888 379.8 158.534 368.61C158.438 367.866 157.131 356.416 156.599 364.294C156.564 364.787 157.336 370.68 156.317 370.111C155.304 369.542 153.785 373.54 152.234 367.077C151.735 365.041 150.476 353.606 149.366 362.766C149.323 363.406 147.581 384.1 146.634 369.855C146.48 367.51 146.423 352.427 144.948 360.176C144.66 361.678 145.243 365.038 144.459 367.146C143.236 370.394 141.589 366.36 140.003 373.074C139.733 374.263 138.467 384.496 137.557 376.715C137.418 375.496 137.754 370.464 137.258 369.895C134.921 367.165 132.277 370.477 129.798 366.897C128.919 365.638 129.708 357.522 128.877 355.304C128.048 353.086 126.311 350.896 125.047 354.542C123.763 358.188 124.131 371.218 122.334 372.135C118.973 373.808 115.446 373.234 111.09 371.555C102.032 368.708 98.0965 364.388 94.1174 362.509C93.1486 362.023 92.5679 366.716 91.0384 366.31C85.3295 364.798 77.4472 366.528 77.7515 356.182C77.9553 347.873 83.0201 343.282 82.2254 339.591C81.8119 337.819 75.8699 351.723 75.5149 352.102C71.8719 355.942 72.6758 349.157 70.2164 350.497C69.7092 350.776 68.1419 356.699 67.7358 356.874C66.3743 357.539 66.0883 354.574 64.9613 354.736C64.4432 354.82 63.1025 359.294 62.8065 358.821C62.06 357.735 61.839 355.609 62.1496 351.125C62.1753 350.715 64.4965 345.352 63.8064 344.913C62.73 344.234 62.4146 339.631 59.7846 343.508C58.9918 344.675 56.0157 354.923 57.1828 347.589C57.4299 346.059 61.1784 333.801 57.1214 344.159C56.4251 345.874 50.7453 359.793 52.4934 350.292C52.9491 347.79 55.1142 337.511 54.1717 338.965C54.036 339.201 52.823 344.811 52.266 345.24C50.3744 346.672 48.9924 345.682 47.1063 347.06C46.5972 347.439 45.7337 353.338 45.0295 353.721C43.078 354.779 41.4995 352.848 40.3572 350.68C39.9403 349.871 41.434 345.172 41.5131 344.641C42.7611 336.004 39.7394 347.358 39.3698 347.976C37.0624 351.659 37.2142 346.049 35.572 347.192C35.1268 347.495 34.2294 353.026 34.0539 353.5C32.331 358.121 34.9365 348.396 34.6986 347.214C34.0371 343.87 32.405 343.999 30.9412 344.443C30.3949 344.612 29.7082 351.091 29.2384 351.171C28.6112 351.305 27.9914 351.353 27.3829 351.302C24.9633 351.066 22.6458 349.618 20.8174 346.453C20.3765 345.673 21.6501 340.826 21.7413 339.682C22.3954 331.679 19.1581 342.158 18.7082 343.129C16.5987 347.556 16.9169 343.12 15.6404 343.721C9.4552 346.749 3.2824 342.631 -1.54208 339.902C-7.82856 336.377 -12.1826 330.742 -18.8132 330.782C-19.2344 330.778 -20.0227 337.393 -20.3996 337.474C-25.2158 338.221 -29.2116 334.848 -34.0994 335.907C-34.4985 335.982 -35.0946 342.281 -35.7731 342.61C-37.1735 343.329 -38.6614 342.709 -39.5441 340.502C-39.9755 339.437 -38.1913 334.265 -38.6454 333.302C-39.7001 331.048 -41.1371 330.329 -42.7795 331.056C-43.4794 331.38 -43.7012 337.893 -44.5204 337.819C-50.1266 337.446 -55.7183 337.555 -59.7748 328.332C-60.0518 327.699 -58.0398 314.747 -59.2923 317.073C-60.0037 320.64 -60.7661 324.848 -61.4882 328.668C-69.8844 329.268 -76.9562 323.367 -84.87 321.218C-85.2006 321.13 -85.8597 328.066 -86.5047 327.93C-88.7539 327.459 -91.1324 327.702 -93.1724 326.386C-94.6202 325.486 -95.8678 323.891 -96.9377 320.878C-97.2049 320.144 -94.7942 308.169 -96.2921 309.775C-96.5731 310.066 -98.5095 311.372 -99.458 313.894C-99.5893 314.277 -100.289 319.944 -100.873 320.007C-104.225 320.281 -107.299 318.404 -109.871 314.403C-110.272 313.749 -108.665 307.87 -108.939 307.352C-110.969 303.714 -114.561 307.758 -115.995 301.909C-116.919 297.978 -114.518 287.746 -113.591 277.423C-113.488 275.961 -114.309 275.589 -113.361 269.655C-111.131 254.707 -107.865 238.473 -105.503 222.537C-105.343 220.809 -105.545 220.829 -106.824 220.097C-107.031 220 -107.28 219.889 -107.579 219.762C-107.772 219.693 -107.98 219.62 -108.199 219.544C-108.311 219.506 -108.41 219.469 -108.542 219.427C-108.701 219.384 -108.865 219.34 -109.031 219.296C-109.382 219.206 -109.632 219.121 -110.073 219.025C-110.498 218.931 -110.88 218.841 -111.165 218.751C-111.83 218.57 -111.983 218.382 -111.993 218.161C-111.923 217.73 -112.46 217.128 -110.108 216.5C-107.928 215.9 -106.706 215.22 -105.915 214.265C-104.759 213.855 -102.958 211.343 -102.192 208.588C-101.648 206.686 -101.014 200.593 -100.138 198.189C-99.2816 195.785 -99.6972 200.912 -98.56 198.109C-97.3872 195.275 -96.4759 188.375 -95.0947 187.783ZM200.108 342.077C201.023 336.233 194.208 356.504 196.803 351.97C196.936 351.726 200.066 342.365 200.108 342.077ZM321.862 334.87C318.872 325.873 321.659 339.477 323.818 346.448C325.804 353.454 322.683 337.618 321.862 334.87ZM331.088 326.526C328.984 319.269 332.165 349.428 332.69 343.208C332.722 342.856 331.206 326.948 331.088 326.526ZM-109.087 275.229C-109.041 274.948 -109.739 274.543 -109.803 274.818C-111.38 281.436 -110.009 282.237 -109.087 275.229ZM342.37 318.224C341.747 314.145 340.73 318.934 341.507 324.004C342.111 328.083 343.12 323.3 342.37 318.224ZM161.248 310.974C161.219 310.657 160.662 310.395 160.754 312.194C161.054 317.988 161.745 316.317 161.248 310.974ZM364.256 315.967C360.874 315.262 356.038 290.613 359.624 293.01C360.289 293.44 359.353 301.098 360.401 303.241C362.357 307.138 361.23 291.42 363.8 299.581C364.269 301.074 364.459 316.063 364.255 316.003C364.256 315.991 364.256 315.979 364.256 315.967ZM207.591 317.499C207.66 317.224 207.029 316.734 206.925 316.995C204.413 323.316 205.694 324.31 207.591 317.499ZM130.104 297.998C130.094 297.397 128.524 296.742 128.442 297.29C126.822 308.317 130.274 309.692 130.104 297.998ZM258.307 311.191C259.663 304.45 260.652 303.723 260.61 312.323C259.854 311.807 259.063 311.675 258.307 311.191Z" fill="#CFD5B2"/>
</g>
</g>
</g>
<defs>
<filter id="filter0_d_79_17" x="0" y="0" width="699.59" height="402" filterUnits="userSpaceOnUse" color-interpolation-filters="sRGB">
<feFlood flood-opacity="0" result="BackgroundImageFix"/>
<feColorMatrix in="SourceAlpha" type="matrix" values="0 0 0 0 0 0 0 0 0 0 0 0 0 0 0 0 0 0 127 0" result="hardAlpha"/>
<feMorphology radius="1" operator="dilate" in="SourceAlpha" result="effect1_dropShadow_79_17"/>
<feOffset/>
<feComposite in2="hardAlpha" operator="out"/>
<feColorMatrix type="matrix" values="0 0 0 0 0 0 0 0 0 0 0 0 0 0 0 0 0 0 0.05 0"/>
<feBlend mode="normal" in2="BackgroundImageFix" result="effect1_dropShadow_79_17"/>
<feBlend mode="normal" in="SourceGraphic" in2="effect1_dropShadow_79_17" result="shape"/>
</filter>
<filter id="filter1_f_79_17" x="-316.203" y="-194.824" width="1080.21" height="774.435" filterUnits="userSpaceOnUse" color-interpolation-filters="sRGB">
<feFlood flood-opacity="0" result="BackgroundImageFix"/>
<feBlend mode="normal" in="SourceGraphic" in2="BackgroundImageFix" result="shape"/>
<feGaussianBlur stdDeviation="100" result="effect1_foregroundBlur_79_17"/>
</filter>
<clipPath id="clip0_79_17">
<rect x="1" y="1" width="697.59" height="400" rx="6" fill="white"/>
</clipPath>
</defs>
</svg>
