<svg width="20" height="20" viewBox="0 0 20 20" fill="none" xmlns="http://www.w3.org/2000/svg">
<path fill-rule="evenodd" clip-rule="evenodd" d="M13.9333 6.43376C14.0505 6.31672 14.2094 6.25098 14.375 6.25098C14.5406 6.25098 14.6995 6.31672 14.8167 6.43376L17.9417 9.55876C18.0587 9.67595 18.1244 9.8348 18.1244 10.0004C18.1244 10.1661 18.0587 10.3249 17.9417 10.4421L14.8167 13.5671C14.7594 13.6285 14.6904 13.6778 14.6138 13.7119C14.5371 13.7461 14.4544 13.7644 14.3704 13.7659C14.2865 13.7674 14.2032 13.752 14.1253 13.7205C14.0475 13.6891 13.9768 13.6423 13.9175 13.583C13.8581 13.5236 13.8113 13.4529 13.7799 13.3751C13.7485 13.2973 13.733 13.2139 13.7345 13.13C13.736 13.0461 13.7544 12.9633 13.7885 12.8866C13.8227 12.81 13.8719 12.741 13.9333 12.6838L15.9917 10.6254H2.5C2.33424 10.6254 2.17527 10.5596 2.05806 10.4424C1.94085 10.3252 1.875 10.1662 1.875 10.0004C1.875 9.83467 1.94085 9.6757 2.05806 9.55848C2.17527 9.44127 2.33424 9.37543 2.5 9.37543H15.9917L13.9333 7.31709C13.8163 7.19991 13.7505 7.04105 13.7505 6.87543C13.7505 6.7098 13.8163 6.55095 13.9333 6.43376Z" fill="white"/>
</svg>
