<svg width="1440" height="1171" viewBox="0 0 1440 1171" fill="none" xmlns="http://www.w3.org/2000/svg">
<mask id="mask0_1441_7775" style="mask-type:alpha" maskUnits="userSpaceOnUse" x="0" y="0" width="1440" height="1171">
<rect width="1440" height="1171" fill="#D9D9D9"/>
</mask>
<g mask="url(#mask0_1441_7775)">
<rect width="1440" height="1047" fill="url(#paint0_linear_1441_7775)"/>
<g opacity="0.3" filter="url(#filter0_f_1441_7775)">
<path d="M-20.2268 -91.2302C3.36565 -91.2136 23.6596 -90.5737 40.2039 -88.3503C52.2103 -86.7367 86.3036 -81.9623 113.805 -54.5124L114.454 -53.8601L115.228 -53.0651C119.166 -48.9826 124.195 -43.1022 128.981 -35.3884C132.449 -36.6991 138.026 -38.7424 144.791 -40.7194C161.926 -45.7271 181.391 -48.8697 205.845 -49.5495C235.673 -50.3787 253.678 -50.3864 256.505 -50.3864C311.733 -50.3862 356.504 -5.61465 356.505 49.6136C356.505 99.8742 319.425 141.472 271.129 148.549C274.095 153.091 276.963 158.273 279.439 164.1C285.689 178.804 291.178 201.931 284.149 228.722C277.074 255.692 260.727 273.385 247.463 283.365C225.657 299.769 203.458 302.267 200.186 302.705C196.567 303.191 193.125 303.441 190.017 303.551C181.983 304.299 173.088 304.375 163.085 303.351C159.386 302.972 155.633 302.452 151.815 301.794L150.83 303.574C150.428 304.298 150.047 304.971 149.696 305.586C149.214 306.71 148.67 307.967 148.042 309.382C125.642 359.864 66.5608 382.63 16.0789 360.231C14.4658 359.515 12.8808 358.761 11.325 357.972C5.93796 358.372 0.261108 358.357 -5.70922 357.838C-49.0519 354.072 -71.9558 324.92 -75.6301 320.325C-82.7363 311.437 -86.7567 303.289 -88.302 300.051C-93.7391 288.658 -96.7758 276.463 -97.2395 274.725C-101.007 260.602 -100.883 259.475 -103.278 251.243C-109.241 230.742 -115.862 197.727 -119.512 173.929C-125.657 133.865 -122.573 100.087 -114.635 71.7581C-116.38 66.396 -118.212 60.728 -120.091 54.8265C-121.136 51.5429 -123.278 44.7778 -124.846 37.3206C-125.949 32.073 -130.113 12.5351 -124.613 -10.9099C-116.921 -43.695 -94.3359 -69.4822 -65.1223 -82.2126C-44.2202 -91.3211 -25.2876 -91.2337 -20.2268 -91.2302Z" fill="#A5E7A3"/>
<path d="M87.5015 682.568C126.628 665.237 170.9 675.027 199.258 703.805C213.342 697.503 248.32 683.583 293.255 692.491L294.449 692.733L296.885 693.242C309.364 695.897 326.173 700.133 342.814 707.875C361.336 716.492 384.936 731.904 401.674 759.504L402.465 760.827L403.688 762.924C410.474 774.74 426.645 806.292 419.618 845.997C417.721 856.711 412.103 883.599 389.989 907.707C389.731 907.988 389.999 907.697 389.482 908.262C389.198 908.571 388.752 909.059 388.226 909.621C387.178 910.744 385.566 912.437 383.563 914.382C379.525 918.303 373.426 923.716 365.256 929.006C347.163 940.723 325.424 947.626 301.652 947.612C275.488 947.597 251.344 947.652 225.101 941.248C218.16 939.554 212.716 938.617 204.935 937.214C201.478 936.591 196.122 935.62 190.652 934.353C185.174 933.084 176.913 930.931 167.763 927.16C141.837 916.477 102.562 895.926 77.1441 871.27C67.1784 861.603 59.083 851.166 53.7349 843.665C49.2879 837.428 41.8348 826.386 36.5699 814.5C14.2024 764.004 37.0053 704.936 87.5015 682.568Z" fill="#A5E7A3"/>
<path d="M1405.36 547C1460.59 547 1505.36 591.772 1505.36 647C1505.36 649.574 1505.33 668.226 1503.65 702.898C1502.13 734.242 1498.13 759.314 1490.91 780.766C1487.12 791.99 1482.94 800.791 1479.17 807.739C1478.06 809.787 1476.9 811.799 1476.26 812.916C1471.04 823.275 1464.67 833.138 1457.69 842.432C1450.6 855.4 1439.59 872.16 1422.78 886.666C1412.17 895.821 1399.23 904.996 1384.21 913.308C1374.4 919.746 1364.8 924.882 1355.53 929.021C1346.07 933.245 1338.01 935.948 1332.74 937.625C1330.5 938.339 1329.18 938.759 1328.5 938.971C1311.79 945.249 1295.76 946.771 1289.73 947.328C1280.16 948.212 1270.5 948.48 1262.25 948.48C1260.94 948.48 1257.9 948.461 1254.03 948.143C1253.96 948.137 1239.5 947.441 1223.27 940.573C1218.24 938.446 1185.95 925.199 1170 887.113C1148.8 836.513 1175.13 796.226 1186.83 782.794C1192.88 775.849 1199.1 770.698 1204.08 767.123C1203.91 764.714 1203.81 762.282 1203.81 759.829C1203.81 754.698 1203.77 744.459 1204.29 736.204L1204.96 725.832L1207.74 715.817C1214.55 691.291 1226.92 668.798 1238.17 650.837L1241.56 645.413L1245.62 640.467C1247.07 638.707 1259.71 622.344 1270.59 610.878C1276.8 604.339 1285.81 595.58 1297.17 587.556C1307.15 580.516 1324.13 570.302 1346.86 565.888C1363.31 554.004 1383.52 547 1405.36 547Z" fill="#A5E7A3"/>
<path d="M1435.78 -78.4121C1491.01 -78.4119 1535.78 -33.6405 1535.78 21.5879C1535.78 29.4323 1534.88 37.0655 1533.17 44.3896L1534.4 53.7324C1536.09 66.4671 1537.02 80.8453 1536.23 95.5586C1535.51 108.879 1533.06 129.551 1523.3 150.649C1520.49 156.734 1515.15 167.605 1506.55 178.607C1498.11 189.416 1480.03 208.726 1449.63 217.266C1428.58 223.176 1410.24 221.724 1397.36 219.449C1375.41 215.57 1339.02 203.299 1299.51 182.633C1287.62 176.414 1275.26 169.719 1265.1 163.085C1260.18 159.876 1252.4 154.528 1244.64 147.224C1239.58 142.463 1219.8 123.758 1212.88 91.9922C1211.26 84.545 1203.54 49.7718 1224.06 12.915L1224.94 11.3438C1234.19 -4.85613 1246.4 -20.0287 1261.62 -31.9414L1263.28 -33.2324C1271.89 -39.9001 1285.18 -49.6502 1301.21 -58.1064C1317.57 -66.7406 1343.9 -77.8978 1376.16 -78.1436L1388.78 -78.2314C1416.84 -78.4113 1434.7 -78.4121 1435.78 -78.4121Z" fill="#A5E7A3"/>
</g>
</g>
<defs>
<filter id="filter0_f_1441_7775" x="-527.395" y="-491.23" width="2463.91" height="1839.71" filterUnits="userSpaceOnUse" color-interpolation-filters="sRGB">
<feFlood flood-opacity="0" result="BackgroundImageFix"/>
<feBlend mode="normal" in="SourceGraphic" in2="BackgroundImageFix" result="shape"/>
<feGaussianBlur stdDeviation="200" result="effect1_foregroundBlur_1441_7775"/>
</filter>
<linearGradient id="paint0_linear_1441_7775" x1="720" y1="738" x2="720" y2="1047" gradientUnits="userSpaceOnUse">
<stop stop-color="#F9FDF7"/>
<stop offset="1" stop-color="white"/>
</linearGradient>
</defs>
</svg>
