<svg width="127" height="69" viewBox="0 0 127 69" fill="none" xmlns="http://www.w3.org/2000/svg">
<g clip-path="url(#clip0_1_517)">
<path fill-rule="evenodd" clip-rule="evenodd" d="M0.0237035 36.3843C0.116406 36.2401 0.234392 36.2628 0.352377 36.3108C1.3384 36.6247 2.20924 37.1562 3.00986 37.8319C4.63075 39.1862 5.8078 40.8515 6.39491 42.955C6.53537 43.461 6.63088 43.9926 6.77134 44.5015C6.79382 44.6231 6.86405 44.7192 6.9118 44.8153C6.93427 44.8153 6.95956 44.7899 6.98203 44.7899V44.6457C6.79382 43.5091 6.55785 42.398 6.39491 41.2642C6.27693 40.5405 6.25445 39.8138 6.2067 39.0901C6.15894 38.3182 6.18422 37.5435 6.06624 36.7717C6.01848 36.3843 5.78532 36.0224 5.61958 35.6605C5.59711 35.6125 5.52688 35.587 5.45384 35.587C4.37231 35.3948 3.6672 34.6936 3.10256 33.8002C2.44521 32.7117 2.0435 31.5299 1.74011 30.2717C1.41144 28.8468 1.17547 27.4218 1.24569 25.9714C1.24569 25.7537 1.26817 25.5134 1.31592 25.2957C1.36368 25.0554 1.40863 25.0554 1.59684 25.1741C2.91434 26.1411 3.90036 27.3738 4.65322 28.8468C5.21787 29.9325 5.63924 31.0945 5.75723 32.3243C5.84993 33.1952 5.80499 34.0886 5.84993 34.9566C5.84993 35.1743 5.89769 35.4146 5.92016 35.6323C5.92016 35.6803 5.94264 35.7058 5.99039 35.7765C6.03815 35.6803 6.06062 35.6323 6.06062 35.6068C6.10838 34.4703 6.13085 33.3591 6.22636 32.2254C6.31907 31.1143 6.46233 30.0031 6.58032 28.892C6.60279 28.6008 6.67302 28.335 6.6983 28.0467C6.6983 27.9025 6.62807 27.7554 6.6056 27.6367C6.55785 27.3964 6.53537 27.1532 6.46514 26.9129C6.41739 26.7913 6.34716 26.6472 6.22917 26.5736C5.47631 26.1637 4.9819 25.5106 4.65322 24.7133C4.29927 23.8905 4.15881 23.0452 4.11386 22.1772C4.06611 21.0661 4.02116 19.955 4.06611 18.8438C4.11386 17.7808 4.27679 16.7432 4.65322 15.7508C4.6757 15.6773 4.74593 15.6292 4.79368 15.5585C4.84144 15.6066 4.91167 15.632 4.95942 15.7027C5.80499 16.7177 6.46514 17.8769 6.86405 19.1577C7.14496 20.0765 7.28823 21.018 7.33318 21.985C7.38093 23.4834 7.12249 24.9564 6.76853 26.3814C6.72078 26.5991 6.74606 26.7913 6.88652 27.0345C6.93427 26.8649 6.97922 26.7433 7.02698 26.6245C7.45116 24.4249 8.10851 22.2762 8.95407 20.1981C9.11981 19.7881 9.00183 19.4008 9.07206 18.9909C9.11981 18.6996 9.00183 18.5074 8.79114 18.3151C8.13379 17.662 7.80512 16.794 7.70961 15.8752C7.52139 14.2071 7.77984 12.6125 8.17874 10.9953C8.41471 10.0764 8.67315 9.16036 9.07206 8.31218C9.21252 8.02097 9.37826 7.7552 9.51872 7.48944C9.54119 7.44137 9.61142 7.39331 9.68446 7.29718C9.80244 7.5375 9.92043 7.7552 10.0131 7.9729C10.4823 9.06141 10.766 10.1952 10.8587 11.3798C10.9992 13.3363 10.7885 15.2221 10.0356 17.0344C9.86986 17.4443 9.6367 17.8543 9.44849 18.2671C9.37826 18.4367 9.37826 18.629 9.3305 18.7986C9.37826 18.824 9.40073 18.824 9.44849 18.8467C9.51872 18.7025 9.58895 18.5809 9.65917 18.4367C10.1761 17.4217 10.6452 16.3841 11.2098 15.3917C11.8222 14.3032 12.5498 13.2656 13.1847 12.2025C13.3027 11.9848 13.3027 11.6964 13.3729 11.4533C13.3954 11.4052 13.3729 11.3317 13.3954 11.261C13.4431 11.0207 13.4179 10.803 13.2296 10.5853C12.8055 10.1019 12.6425 9.47419 12.5948 8.84653C12.4065 6.6469 13.1594 4.73848 14.2634 2.92619C14.7578 2.08083 15.3449 1.3316 16.0725 0.678495C16.3085 0.460793 16.4012 0.486239 16.4265 0.800068C16.4967 1.50124 16.5669 2.2024 16.5669 2.92619C16.5894 4.73848 16.2607 6.50271 15.5332 8.16798C15.109 9.10947 14.5471 9.93221 13.8645 10.7041C13.6538 10.9444 13.6285 11.1875 13.6285 11.5494C13.7465 11.4533 13.8168 11.4052 13.8645 11.3317C14.8505 10.0029 15.9096 8.74758 17.0614 7.56294C17.5558 7.05403 18.0951 6.57339 18.5895 6.06448C18.6598 5.99097 18.73 5.89484 18.73 5.79872C18.6373 4.73566 19.0362 3.86485 19.6935 3.06755C20.4689 2.12607 21.4802 1.52103 22.5842 1.08562C23.4073 0.771795 24.2304 0.457966 25.0535 0.144137C25.1012 0.118691 25.1462 0.118691 25.2192 0.0960729C25.2192 0.192201 25.2417 0.26571 25.2192 0.336392C24.7248 2.05256 23.9017 3.57364 22.5392 4.73283C21.5279 5.57819 20.3762 6.0871 19.0587 6.10972C18.966 6.10972 18.8227 6.15778 18.7525 6.23129C18.0698 6.8844 17.3647 7.51205 16.7299 8.18778C16.1175 8.81543 15.5781 9.5166 15.0135 10.1923C14.9432 10.2658 14.8955 10.362 14.8477 10.4326C15.1286 10.5768 15.3871 10.4807 15.4826 10.2404C15.8815 9.22539 16.6344 8.6458 17.6232 8.2839C18.539 7.94463 19.4576 7.94463 20.3958 8.09165C21.1712 8.18778 21.924 8.33197 22.6994 8.45354C22.7471 8.45354 22.7921 8.47616 22.8398 8.47616C23.0505 8.52422 23.0758 8.59773 22.9325 8.74192C22.5786 9.12926 22.2274 9.56467 21.8285 9.90111C20.5812 10.9896 19.1261 11.5183 17.4799 11.3741C16.845 11.3261 16.2326 11.1338 15.6933 10.7945C15.5275 10.6984 15.3871 10.6503 15.1989 10.721C15.0809 10.7691 14.9404 10.7945 14.8 10.7945C14.5893 10.7945 14.4713 10.8907 14.3533 11.0349C13.106 12.7256 12.002 14.5379 11.061 16.4237C11.0132 16.4972 10.9907 16.5679 10.943 16.664V16.7375C11.2239 16.811 11.5076 16.664 11.5554 16.4237C11.8363 14.9507 12.7774 14.0798 14.1173 13.5964C15.0107 13.2826 15.9264 13.1864 16.8675 13.1384C17.5024 13.1129 18.1597 13.0649 18.7946 13.0168C19.0306 12.9942 19.0755 13.0649 18.9604 13.2571C17.8086 15.191 16.2804 16.6159 14.0246 17.0739C13.2971 17.2181 12.592 17.1701 11.884 16.9298C11.6958 16.8562 11.5301 16.8562 11.3447 16.9778C11.2267 17.0513 11.1087 17.0994 10.9907 17.122C10.7098 17.1446 10.6143 17.3397 10.4963 17.5574C9.76873 19.1266 9.13386 20.7212 8.61697 22.3666C8.35853 23.1639 8.14784 23.9838 7.91187 24.7811C7.88939 24.8547 7.88939 24.9253 7.88939 24.9988C8.24335 24.9734 8.40628 24.7811 8.40628 24.4673C8.40628 23.0424 8.94564 21.9058 10.0047 20.9869C10.898 20.2377 11.9093 19.7542 12.9656 19.3188C13.6707 19.0276 14.3758 18.7618 15.0809 18.4735C15.1511 18.448 15.2213 18.4254 15.3618 18.3999C15.2916 18.6657 15.2438 18.858 15.1736 19.0757C14.8196 20.1133 14.373 21.1057 13.7156 21.9736C12.7746 23.277 11.6003 24.3175 10.0497 24.7755C9.65075 24.8971 9.17881 24.8716 8.75743 24.9451C8.61697 24.9677 8.49899 25.0186 8.381 25.0893C8.2883 25.1374 8.21526 25.259 8.12256 25.307C7.7686 25.4767 7.62814 25.7905 7.58319 26.1778C7.39498 27.3144 7.15901 28.4255 6.97079 29.5593C6.83033 30.382 6.76011 31.2274 6.68988 32.0473C6.61965 32.8191 6.59717 33.5938 6.57189 34.3657C6.57189 34.4137 6.57189 34.4872 6.59436 34.5353C6.85281 34.4872 7.08878 34.1734 7.04102 33.9076C6.71235 32.1915 7.20676 30.6704 8.19279 29.2935C8.96812 28.1824 10.0019 27.3596 11.0385 26.5397C11.4851 26.2004 11.9093 25.8385 12.356 25.4767C12.4037 25.4286 12.474 25.3805 12.592 25.307C12.592 25.6208 12.6144 25.864 12.592 26.1043C12.4037 28.0608 11.8869 29.8985 10.7576 31.5157C9.912 32.7484 8.87822 33.738 7.44274 34.1988C7.35003 34.2243 7.25452 34.343 7.18429 34.4392C7.06631 34.5834 6.99608 34.7784 6.85562 34.8972C6.64493 35.0894 6.59717 35.3071 6.61965 35.5729C6.68988 36.8763 6.68988 38.2051 6.80786 39.5113C6.94832 40.9137 7.20676 42.3132 7.42026 43.7155C7.42026 43.789 7.46802 43.8597 7.49049 43.9332C7.79669 43.6929 7.84445 43.3282 7.67871 43.0398C7.37251 42.5563 7.30228 42.0022 7.2798 41.4452C7.25733 40.2606 7.586 39.1494 8.12536 38.0864C8.80799 36.783 9.70131 35.621 10.5693 34.4392C10.8503 34.0773 11.1087 33.6899 11.3924 33.3026C11.4402 33.2291 11.4851 33.181 11.5807 33.0623C11.6284 33.2065 11.6734 33.3026 11.6734 33.4015C11.8616 34.7304 11.8616 36.0592 11.6256 37.3626C11.4149 38.6179 10.943 39.8025 10.3334 40.9137C9.81649 41.8071 9.15914 42.5818 8.33605 43.184C8.19559 43.2801 8.10008 43.4497 8.02985 43.6194C7.91187 43.8597 7.79388 44.1028 7.70118 44.3686C7.65342 44.4902 7.63095 44.6344 7.65342 44.7305C8.31077 47.5323 9.27432 50.2381 10.5693 52.7996C10.6171 52.8731 10.6621 52.9438 10.7098 53.0399C10.8755 52.8476 10.9205 52.4829 10.78 52.3387C10.1227 51.6856 9.93447 50.8403 9.76873 49.9949C9.51029 48.7877 9.74626 47.6285 10.0497 46.4665C10.4486 44.968 11.061 43.543 11.6003 42.0926C11.6705 41.9004 11.7661 41.6827 11.8588 41.4395C11.9515 41.5611 11.9992 41.6318 12.0245 41.7279C12.5414 42.9125 12.8476 44.1198 12.9656 45.4006C13.106 46.9952 12.9431 48.5643 12.4487 50.1108C12.238 50.7866 11.9318 51.4142 11.5076 51.9712C11.2492 52.3331 11.1537 52.7204 11.061 53.1304C10.9683 53.5658 11.0834 53.8796 11.2716 54.2415C12.4459 56.2715 13.8111 58.1545 15.3843 59.848C15.477 59.9441 15.5725 59.9922 15.6905 60.0657C15.7129 59.9441 15.7382 59.7999 15.7129 59.6784C15.6905 59.5822 15.6202 59.4381 15.5472 59.39C14.8421 59.0027 14.4179 58.375 14.0415 57.6993C13.6875 57.0462 13.4768 56.3224 13.4544 55.5732C13.4319 54.8239 13.3617 54.0747 13.4066 53.3255C13.4544 52.4066 13.6173 51.4651 13.7128 50.5462C13.7606 50.0401 13.8308 49.5312 13.8786 48.9997C13.8786 48.9036 13.9263 48.8074 13.9488 48.6378C14.0892 48.782 14.1848 48.8555 14.255 48.9516C15.5023 50.5462 16.3001 52.3331 16.5585 54.3885C16.7243 55.6919 16.699 56.9981 16.3478 58.2534C16.3001 58.4457 16.2298 58.6634 16.1596 58.833C16.0191 59.1723 16.0191 59.5087 15.9939 59.848C15.9939 60.306 16.1343 60.6453 16.4883 60.9591C18.2524 62.5792 20.1543 63.9306 22.2948 64.9711C22.3875 65.0191 22.5055 65.1633 22.601 64.9937C22.6713 64.8721 22.5308 64.5583 22.3904 64.5357C20.7695 64.1964 19.8986 63.0146 19.334 61.5387C18.9098 60.4276 18.6991 59.2684 18.5334 58.1092C18.4154 57.3119 18.2749 56.5146 18.1569 55.7173C18.1345 55.6438 18.1569 55.5477 18.1569 55.477C18.2496 55.5025 18.3451 55.477 18.4154 55.5251C19.7778 56.2969 20.8846 57.3374 21.66 58.7623C22.0589 59.4861 22.3651 60.2354 22.5758 61.0326C22.7864 61.8045 22.8567 62.6018 22.8117 63.3991C22.7893 63.9561 22.7415 64.4876 22.9044 65.0191C22.9747 65.2114 23.0449 65.333 23.2331 65.4065C24.854 66.0822 26.5255 66.6137 28.2391 66.9049C28.52 66.953 28.6632 67.0972 28.7082 67.3884C28.7307 67.5807 28.6604 67.6542 28.4722 67.6287C26.8963 67.3884 25.3681 67.0011 23.9129 66.396C23.4185 66.2038 23.0196 66.3734 22.573 66.4441C22.5027 66.4695 22.4325 66.5402 22.3847 66.6363C21.7976 67.7729 20.8565 68.3751 19.6823 68.6663C19.1879 68.7879 18.671 68.836 18.1541 68.9321C18.1064 68.9321 18.0614 68.9575 18.0137 68.9802H17.1203C17.0726 68.9575 17.0501 68.9321 17.0024 68.9321C16.1315 68.8586 15.286 68.6918 14.4629 68.426C13.8055 68.2083 13.1706 67.968 12.6285 67.5071C12.3476 67.2668 12.3476 67.2188 12.6285 66.9756C13.6398 66.1302 14.7691 65.4545 16.036 65.0672C17.8002 64.5102 19.5166 64.5583 21.1599 65.4065C21.5139 65.5761 21.865 65.7938 22.219 65.9634C22.3847 66.0369 22.5252 66.1331 22.7134 65.9408C22.6207 65.8928 22.5477 65.8447 22.4774 65.8193C20.3621 64.8297 18.435 63.5235 16.6709 61.9289C16.5529 61.8328 16.39 61.7593 16.2467 61.7112C16.0809 61.6631 15.918 61.6631 15.7523 61.6377C15.5865 61.6122 15.4714 61.6603 15.3534 61.7819C14.8842 62.3134 14.2943 62.6272 13.6145 62.7488C12.6509 62.9411 11.7099 62.7969 10.7941 62.5311C9.50186 62.1918 8.37257 61.5416 7.29104 60.7669C6.79663 60.405 6.34997 59.995 5.97354 59.4635C5.73757 59.1242 5.76285 59.0535 6.13928 58.9065C7.38655 58.375 8.70125 58.1347 10.0665 58.2054C11.5469 58.2789 12.8869 58.7114 14.0162 59.6784C14.5106 60.0883 14.932 60.5492 15.3787 61.0072C15.4966 61.1288 15.6146 61.2984 15.8731 61.1995C15.8028 61.1033 15.7551 61.0298 15.6849 60.9818C15.1202 60.3541 14.5106 59.7264 13.9685 59.0733C12.9571 57.8661 12.0638 56.5599 11.2407 55.2084C11.193 55.1123 11.1228 55.0388 11.0301 54.9681C10.8194 54.8239 10.5834 54.6769 10.3727 54.5327C10.2547 54.4366 10.1367 54.4592 9.99628 54.5101C9.76031 54.6062 9.50186 54.7278 9.2687 54.7759C7.99895 55.0162 6.84719 54.6543 5.81341 53.9051C4.45096 52.9381 3.3919 51.6828 2.54634 50.2324C2.26543 49.7489 2.09968 49.2174 1.91147 48.6859C1.81877 48.3947 1.86371 48.2985 2.16991 48.324C2.75703 48.3466 3.34415 48.3466 3.90879 48.4456C6.0241 48.8329 7.69275 50.0147 8.9625 51.7789C9.43163 52.432 9.80806 53.1813 10.2098 53.9051C10.3025 54.0747 10.3755 54.2189 10.634 54.2189C10.6115 54.1228 10.5862 54.0492 10.5413 54.0012C10.1171 53.1304 9.64794 52.285 9.27151 51.3916C8.73215 50.1108 8.23773 48.8074 7.76579 47.5012C7.45959 46.7039 7.34161 45.8331 6.75449 45.1829C6.61403 45.0387 6.49604 44.9906 6.30783 44.9906C6.00163 45.0132 5.69543 45.0132 5.39204 44.9425C4.45096 44.7503 3.72339 44.1707 3.11099 43.4441C1.65303 41.7534 0.711951 39.7488 0.150116 37.5718C0.079887 37.3315 0.032131 37.0657 -0.015625 36.8226C0.0068484 36.6529 0.0068484 36.5087 0.0068484 36.3645L0.0237035 36.3843ZM108.89 68.9293C108.514 68.8812 108.163 68.8331 107.786 68.7596C106.705 68.5674 105.719 68.18 104.989 67.2866C104.823 67.0944 104.708 66.8512 104.564 66.6335C104.517 66.56 104.494 66.4639 104.424 66.4639C104.025 66.3423 103.649 66.1246 103.224 66.2942C101.674 66.8993 100.075 67.3318 98.4516 67.575C98.2634 67.6004 98.1931 67.5269 98.2156 67.3347C98.2381 67.0689 98.3814 66.8993 98.6623 66.8512C100.401 66.56 102.047 66.0285 103.668 65.3527C103.879 65.2792 103.949 65.135 104.022 64.9173C104.188 64.4113 104.163 63.9023 104.115 63.3963C103.997 61.8271 104.396 60.3767 105.101 58.9744C105.854 57.4759 106.98 56.3422 108.416 55.5194C108.508 55.4714 108.626 55.4459 108.744 55.3979C108.744 55.5194 108.792 55.6382 108.767 55.7371C108.556 56.9925 108.368 58.2732 108.132 59.5314C107.944 60.569 107.663 61.584 107.121 62.4802C106.652 63.2775 105.991 63.9052 105.146 64.2925C105.005 64.366 104.84 64.3886 104.677 64.4141C104.396 64.4367 104.278 64.6544 104.371 64.9711L104.724 64.8269C106.817 63.8119 108.674 62.483 110.391 60.9139C110.745 60.5746 110.955 60.2382 110.93 59.7293C110.907 59.39 110.907 59.0762 110.789 58.7623C110.365 57.6512 110.225 56.492 110.273 55.3074C110.365 53.1332 111 51.1767 112.225 49.4125C112.391 49.1722 112.579 48.9545 112.764 48.7368C112.812 48.6887 112.882 48.6406 112.975 48.5445C113.023 48.8103 113.045 49.0025 113.068 49.1976C113.186 50.1165 113.304 51.0325 113.396 51.9514C113.489 52.8703 113.562 53.7863 113.514 54.7306C113.492 55.4544 113.422 56.181 113.186 56.8567C112.905 57.654 112.481 58.3778 111.846 58.9348C111.728 59.0309 111.587 59.1271 111.447 59.2006C111.236 59.3221 111.093 59.636 111.188 59.8763C111.211 59.8989 111.306 59.9498 111.329 59.9244C111.422 59.8763 111.495 59.7802 111.565 59.7066C113.211 57.9424 114.599 55.9859 115.795 53.8853C115.913 53.6676 115.961 53.4499 115.913 53.2095C115.843 52.9918 115.843 52.7515 115.795 52.5084C115.773 52.4122 115.748 52.3161 115.677 52.2426C114.644 50.8883 114.172 49.2937 113.984 47.6285C113.773 45.5504 114.102 43.5685 114.925 41.6601C114.972 41.5639 115.017 41.4904 115.09 41.3717C115.138 41.4678 115.183 41.4932 115.208 41.5639C115.677 42.7966 116.172 44.0293 116.596 45.2846C116.972 46.3223 117.231 47.3853 117.301 48.4993C117.371 49.3701 117.183 50.2381 116.902 51.0608C116.737 51.5188 116.548 51.9316 116.197 52.2454C116.057 52.3896 116.057 52.7035 116.22 52.9947C116.29 52.8985 116.338 52.825 116.385 52.7289C117.09 51.3266 117.725 49.9016 118.22 48.4031C118.619 47.1704 118.947 45.9378 119.301 44.7079C119.324 44.5863 119.301 44.4167 119.254 44.2979C119.161 44.0322 119.043 43.7918 118.925 43.5261C118.855 43.4045 118.784 43.2349 118.666 43.1642C117.515 42.3669 116.762 41.2558 116.175 40.0004C115.658 38.8893 115.329 37.7047 115.211 36.472C115.118 35.4344 115.141 34.3713 115.281 33.3309C115.281 33.2574 115.304 33.1867 115.329 33.1386C115.329 33.116 115.352 33.116 115.377 33.0651C115.425 33.1132 115.47 33.1386 115.495 33.1867C116.366 34.3939 117.281 35.604 118.127 36.8339C118.762 37.7527 119.256 38.7423 119.515 39.8308C119.703 40.6762 119.773 41.4989 119.537 42.3443C119.467 42.562 119.397 42.7797 119.279 42.9493C119.138 43.1416 119.113 43.3112 119.231 43.5289C119.279 43.625 119.324 43.7466 119.419 43.9162C119.49 43.772 119.537 43.724 119.537 43.6505C119.748 42.3952 119.961 41.137 120.124 39.8817C120.313 38.3606 120.383 36.8367 120.36 35.3156C120.36 35.194 120.29 35.0753 120.22 34.9763C120.172 34.8802 120.054 34.8067 120.009 34.7106C119.821 34.3487 119.54 34.131 119.164 33.9868C118.034 33.5995 117.211 32.7795 116.506 31.8352C115.402 30.3622 114.767 28.6941 114.509 26.8592C114.439 26.4238 114.416 25.9658 114.368 25.5304C114.368 25.4569 114.391 25.3862 114.391 25.2646C114.484 25.3127 114.531 25.3381 114.579 25.3862C115.495 26.1354 116.413 26.8592 117.307 27.6339C118.388 28.6008 119.304 29.6865 119.751 31.1369C120.009 32.0077 120.15 32.9011 119.916 33.82C119.846 34.0858 120.034 34.3515 120.363 34.4957V34.1084C120.293 33.0934 120.223 32.1038 120.152 31.0888C120.012 29.4462 119.728 27.8261 119.377 26.2089C119.329 26.0393 119.307 25.8696 119.259 25.7028C119.259 25.6878 119.252 25.6717 119.237 25.6548C118.956 25.3409 118.624 25.0497 118.251 24.8829C116.534 24.9564 115.217 24.1111 114.065 22.9491C112.865 21.7644 112.138 20.266 111.643 18.6714C111.621 18.5979 111.621 18.5272 111.596 18.4056C111.688 18.4282 111.761 18.4056 111.806 18.4282C112.888 18.8636 113.992 19.299 115.073 19.7825C115.919 20.1698 116.694 20.6533 117.355 21.3516C118.178 22.2224 118.577 23.2855 118.554 24.4928C118.554 24.7331 118.695 24.9027 119.048 24.9762C119.048 24.8801 119.048 24.8066 119.026 24.7359C118.369 22.2224 117.498 19.8079 116.416 17.4641C116.324 17.2719 116.18 17.1729 115.97 17.0542C115.5 16.8138 115.054 16.8619 114.559 17.0061C113.5 17.2945 112.492 17.0061 111.503 16.5707C110.115 15.943 109.082 14.9026 108.236 13.6218C108.143 13.4776 108.048 13.3306 107.978 13.1864C107.86 12.9942 107.907 12.9207 108.143 12.9461C108.683 12.9715 109.247 13.0196 109.789 13.0422C110.705 13.0903 111.599 13.1638 112.492 13.4296C113.245 13.6473 113.925 13.9865 114.489 14.5661C114.958 15.0496 115.265 15.6546 115.382 16.3304C115.43 16.6216 115.711 16.7658 116.04 16.6923C116.017 16.6188 115.97 16.5226 115.947 16.4519C114.984 14.5181 113.88 12.6832 112.585 10.967C112.492 10.8228 112.374 10.7974 112.208 10.7493C111.714 10.6051 111.292 10.7747 110.846 10.967C109.388 11.6201 107.907 11.4505 106.497 10.7747C105.511 10.3167 104.71 9.61556 104.053 8.74475C103.887 8.52705 103.913 8.47899 104.171 8.43092C105.275 8.26129 106.404 8.04358 107.508 7.9729C108.826 7.89939 110.048 8.26411 110.964 9.32717C111.152 9.54488 111.292 9.83326 111.433 10.099C111.599 10.4129 111.714 10.4864 112.115 10.3902C111.95 10.1725 111.787 9.95483 111.621 9.76258C110.75 8.69952 109.834 7.68452 108.823 6.74303C108.612 6.52533 108.354 6.33307 108.118 6.16344C108.048 6.11537 107.978 6.06731 107.882 6.06731C106.166 6.01924 104.803 5.24739 103.651 3.98925C102.688 2.95164 102.075 1.69349 101.699 0.316601C101.677 0.243092 101.677 0.146964 101.677 0.0253906C101.957 0.121518 102.171 0.217646 102.404 0.291156C103.275 0.630431 104.168 0.94426 105.036 1.32877C106.188 1.8603 107.177 2.6576 107.786 3.84223C108.093 4.42183 108.233 5.02687 108.185 5.70259C108.185 5.79872 108.233 5.92029 108.303 5.96835C110.042 7.56294 111.596 9.32717 113.028 11.2356C113.076 11.3091 113.121 11.4052 113.217 11.4533C113.287 11.1395 113.287 10.8963 113.076 10.6814C111.972 9.44875 111.197 8.04924 110.773 6.4292C110.444 5.14844 110.256 3.81961 110.326 2.49079C110.348 1.91119 110.419 1.30615 110.466 0.726558C110.489 0.460793 110.584 0.435348 110.795 0.604985C111.806 1.49841 112.512 2.60953 113.146 3.79417C113.641 4.7611 114.017 5.7761 114.205 6.83916C114.394 7.87677 114.416 8.89177 114.04 9.88415C113.922 10.1499 113.733 10.3902 113.593 10.656C113.545 10.7521 113.5 10.8737 113.5 10.9953C113.5 11.2356 113.571 11.4787 113.571 11.7191C113.593 12.0074 113.736 12.2025 113.877 12.4202C115.169 14.2806 116.276 16.2625 117.239 18.3406C117.31 18.4848 117.38 18.6318 117.498 18.7505C117.59 18.5328 117.546 18.3151 117.428 18.1229C116.933 17.2521 116.582 16.3106 116.346 15.3436C116.065 14.1364 115.97 12.9037 116.04 11.6484C116.11 10.3676 116.394 9.13492 116.885 7.95311C116.978 7.71279 117.121 7.49509 117.214 7.25194H117.307C117.447 7.49226 117.588 7.70996 117.731 7.95311C118.178 8.82392 118.506 9.73996 118.717 10.7069C118.905 11.6003 119.093 12.4937 119.211 13.4126C119.377 14.6199 119.377 15.8299 118.953 16.9637C118.742 17.4952 118.459 17.9787 118.037 18.366C117.944 18.4395 117.897 18.6063 117.897 18.7279C117.874 19.0672 117.849 19.4036 117.897 19.7175C117.919 19.9578 118.037 20.2009 118.133 20.4413C118.886 22.4232 119.495 24.4277 119.919 26.5058C119.942 26.6274 119.99 26.7716 120.037 26.9638C120.203 26.7461 120.226 26.5539 120.178 26.3588C120.012 25.5615 119.824 24.7642 119.709 23.9669C119.543 22.9773 119.543 21.9623 119.661 20.9473C119.827 19.4743 120.296 18.0974 121.094 16.8647C121.374 16.4293 121.681 16.0194 122.009 15.584C122.127 15.4398 122.22 15.4624 122.268 15.6801C122.434 16.2851 122.622 16.8873 122.714 17.4924C122.95 18.8467 122.95 20.1981 122.88 21.5524C122.81 22.59 122.714 23.6304 122.316 24.5974C121.987 25.4173 121.492 26.1184 120.695 26.5312C120.602 26.5793 120.506 26.7009 120.484 26.797C120.391 27.1363 120.296 27.4727 120.226 27.8346C120.203 27.9788 120.226 28.1484 120.248 28.2926C120.366 29.2341 120.506 30.1784 120.602 31.1199C120.695 32.0133 120.72 32.9068 120.768 33.8002C120.79 34.3798 120.815 34.9848 120.838 35.5644C120.838 35.587 120.86 35.6379 120.886 35.686C121.074 35.5644 121.096 35.3722 121.096 35.2025C121.074 34.7191 121.074 34.2356 121.074 33.7521C121.051 31.1906 121.897 28.9429 123.448 26.9638C123.965 26.2881 124.599 25.683 125.282 25.177C125.518 24.9847 125.611 25.0328 125.636 25.3466C125.658 25.9516 125.706 26.5539 125.684 27.1589C125.614 28.4623 125.378 29.743 125.001 31.0012C124.672 32.0642 124.296 33.1273 123.661 34.0462C123.167 34.7473 122.58 35.3269 121.734 35.4966C121.405 35.5701 121.265 35.7369 121.147 36.0281C120.911 36.5342 120.866 37.0657 120.841 37.6227C120.818 38.3945 120.77 39.1438 120.7 39.9184C120.582 41.007 120.442 42.0926 120.301 43.1811C120.231 43.6392 120.113 44.1 120.02 44.558C119.998 44.6315 119.998 44.7022 119.998 44.7757C120.02 44.7757 120.046 44.8012 120.091 44.8012C120.138 44.7051 120.209 44.6089 120.231 44.4874C120.467 43.6646 120.63 42.8192 120.914 42.0474C121.759 39.7997 123.265 38.1344 125.288 36.9244C125.712 36.6586 126.181 36.4889 126.65 36.2967C126.931 36.1751 127.049 36.2486 127.004 36.5625C126.911 37.1901 126.793 37.8432 126.605 38.4454C126.136 39.8223 125.546 41.1511 124.726 42.3358C124.091 43.2292 123.408 44.0746 122.4 44.5835C121.86 44.8719 121.271 45.0189 120.661 44.8973C120.495 44.8719 120.402 44.9454 120.284 45.0669C119.697 45.72 119.557 46.588 119.273 47.3853C118.779 48.6887 118.31 50.0175 117.767 51.2983C117.391 52.1917 116.922 53.0371 116.498 53.9079C116.475 53.9814 116.45 54.0521 116.405 54.1256C116.663 54.1256 116.734 53.9559 116.829 53.8118C117.228 53.1106 117.605 52.3614 118.076 51.6856C119.346 49.9214 121.015 48.7368 123.13 48.3523C123.695 48.2561 124.304 48.2561 124.869 48.2307C125.175 48.2052 125.246 48.3042 125.128 48.5926C124.939 49.1241 124.751 49.6556 124.493 50.1391C123.67 51.5895 122.588 52.8448 121.226 53.8118C120.192 54.561 119.04 54.9229 117.77 54.6826C117.512 54.6345 117.276 54.5129 117.043 54.4168C116.902 54.3433 116.784 54.3433 116.666 54.4394C116.456 54.5836 116.22 54.7306 116.009 54.8748C115.916 54.9229 115.843 55.019 115.798 55.1151C114.998 56.4694 114.082 57.7728 113.071 58.98C112.531 59.6331 111.919 60.2608 111.354 60.8885C111.306 60.962 111.236 61.0326 111.166 61.1062C111.424 61.2023 111.52 61.0581 111.66 60.9139C112.107 60.4785 112.531 59.995 113.023 59.5851C114.175 58.6181 115.515 58.1827 116.972 58.1121C118.335 58.0385 119.63 58.2817 120.9 58.8132C121.254 58.9574 121.276 59.0309 121.065 59.3702C120.711 59.8763 120.265 60.3117 119.748 60.6736C118.666 61.4454 117.537 62.0985 116.245 62.4378C115.304 62.6781 114.388 62.8478 113.424 62.6555C112.742 62.5113 112.155 62.1975 111.686 61.6886C111.568 61.567 111.45 61.4963 111.287 61.5444C111.121 61.567 110.958 61.567 110.792 61.6179C110.652 61.666 110.486 61.7395 110.368 61.8356C108.604 63.4047 106.677 64.711 104.562 65.726C104.491 65.7486 104.421 65.7995 104.326 65.8475C104.514 66.0398 104.654 65.9436 104.82 65.873C105.174 65.6807 105.525 65.4856 105.879 65.316C107.548 64.4706 109.264 64.4226 111.003 64.9767C112.273 65.3641 113.377 66.0398 114.411 66.8851C114.691 67.1255 114.691 67.1763 114.411 67.4421C113.871 67.9001 113.259 68.1433 112.601 68.361C111.778 68.6267 110.933 68.7964 110.062 68.8699C110.014 68.8699 109.969 68.8925 109.944 68.918C109.52 68.966 109.216 68.966 108.91 68.966L108.89 68.9293Z" fill="black"/>
<path d="M23.9664 38.2675C23.9664 39.0677 23.3625 39.5879 22.3231 39.5879C21.2837 39.5879 20.4297 39.0507 20.4297 38.1205H21.4747C21.4747 38.5644 21.8567 38.7284 22.3231 38.7284C22.7107 38.7284 22.9214 38.5757 22.9214 38.3665C22.9214 38.0329 22.4748 37.9565 21.8877 37.7813C21.1741 37.5692 20.5449 37.261 20.5449 36.4892C20.5449 35.576 21.2528 35.2197 22.1489 35.2197C23.1181 35.2197 23.8794 35.7343 23.9074 36.5825H22.8624C22.8147 36.2658 22.5478 36.0792 22.1489 36.0792C21.8343 36.0792 21.5899 36.1782 21.5899 36.4128C21.5899 36.6701 21.8511 36.7521 22.3736 36.8991C23.1574 37.114 23.9664 37.3713 23.9664 38.2675Z" fill="black"/>
<path d="M25.2626 36.1749H24.0547V35.3154H27.51V36.1749H26.3076V39.4942H25.2626V36.1749Z" fill="black"/>
<path d="M29.5994 39.5883C28.3437 39.5883 27.8633 39.0257 27.8633 37.9853V35.3135H28.9083V37.9853C28.9083 38.5281 29.1415 38.726 29.5994 38.726C30.0572 38.726 30.2904 38.5281 30.2904 37.9853V35.3135H31.3354V37.9853C31.3354 39.0257 30.8522 39.5883 29.5994 39.5883Z" fill="black"/>
<path d="M31.8778 35.3154H33.7178C34.8724 35.3154 35.5691 36.0647 35.5691 37.4076C35.5691 38.7506 34.9314 39.4942 33.774 39.4942H31.875V35.3154H31.8778ZM32.9228 38.6347H33.6139C34.2656 38.6347 34.5269 38.1682 34.5269 37.4076C34.5269 36.6471 34.2656 36.1749 33.6139 36.1749H32.9228V38.6347Z" fill="black"/>
<path d="M38.8296 36.9157V37.7752H37.0177V38.6347H39.1555V39.4942H35.9727V35.3154H39.1217V36.1749H37.0205V36.9157H38.8324H38.8296Z" fill="black"/>
<path d="M39.6211 35.3154H40.6661L42.1185 37.8006H42.1297V35.3154H43.1747V39.4942H42.1297L40.6773 37.009H40.6661V39.4942H39.6211V35.3154Z" fill="black"/>
<path d="M44.6767 36.1749H43.4688V35.3154H46.924V36.1749H45.7217V39.4942H44.6767V36.1749Z" fill="black"/>
<path d="M50.5914 38.2675C50.5914 39.0677 49.9875 39.5879 48.9481 39.5879C47.9087 39.5879 47.0547 39.0507 47.0547 38.1205H48.0997C48.0997 38.5644 48.4846 38.7284 48.9481 38.7284C49.3385 38.7284 49.5464 38.5757 49.5464 38.3665C49.5464 38.0329 49.0998 37.9565 48.5127 37.7813C47.7991 37.5692 47.1699 37.261 47.1699 36.4892C47.1699 35.576 47.8778 35.2197 48.7739 35.2197C49.7431 35.2197 50.5044 35.7343 50.5324 36.5825H49.4874C49.4397 36.2658 49.1728 36.0792 48.7739 36.0792C48.4593 36.0792 48.2177 36.1782 48.2177 36.4128C48.2177 36.6701 48.4789 36.7521 49.0014 36.8991C49.7852 37.114 50.5942 37.3713 50.5942 38.2675H50.5914Z" fill="black"/>
<path d="M51.6634 35.3154L51.5482 36.8874H50.9667L50.8516 35.3154H51.6634Z" fill="black"/>
<path d="M54.1947 38.6234L53.9278 39.4942H52.8828L54.3857 35.3154H55.4307L56.928 39.4942H55.883L55.6161 38.6234H54.1919H54.1947ZM55.3858 37.8232L54.9167 36.2795H54.9054L54.4363 37.8232H55.3886H55.3858Z" fill="black"/>
<path d="M58.2716 35.3154V39.4942H57.2266V35.3154H58.2716Z" fill="black"/>
<path d="M60.8525 36.1749H59.6445V35.3154H63.0998V36.1749H61.8975V39.4942H60.8525V36.1749Z" fill="black"/>
<path d="M63.1404 37.4024C63.1404 36.1471 63.8792 35.2225 65.1967 35.2225C66.5142 35.2225 67.253 36.1471 67.253 37.4024C67.253 38.6577 66.503 39.5879 65.1967 39.5879C63.8904 39.5879 63.1404 38.6634 63.1404 37.4024ZM66.2052 37.4024C66.2052 36.6786 65.9496 36.082 65.1939 36.082C64.4382 36.082 64.1826 36.6786 64.1826 37.4024C64.1826 38.1262 64.4326 38.7284 65.1939 38.7284C65.9552 38.7284 66.2052 38.1318 66.2052 37.4024Z" fill="black"/>
<path d="M67.4844 37.4025C67.4844 36.1472 68.2232 35.2227 69.5407 35.2227C70.8582 35.2227 71.597 36.1472 71.597 37.4025C71.597 38.6578 70.847 39.588 69.5407 39.588C68.2344 39.588 67.4844 38.6635 67.4844 37.4025ZM70.552 37.4025C70.552 36.6787 70.2964 36.0822 69.5407 36.0822C68.785 36.0822 68.5294 36.6787 68.5294 37.4025C68.5294 38.1263 68.7794 38.7285 69.5407 38.7285C70.302 38.7285 70.552 38.1319 70.552 37.4025Z" fill="black"/>
<path d="M73.0411 35.3154V38.6347H74.8895V39.4942H71.9961V35.3154H73.0411Z" fill="black"/>
<path d="M76.0977 37.4025C76.0977 36.1472 76.8365 35.2227 78.154 35.2227C79.4715 35.2227 80.2103 36.1472 80.2103 37.4025C80.2103 38.6578 79.4602 39.588 78.154 39.588C76.8477 39.588 76.0977 38.6635 76.0977 37.4025ZM79.1625 37.4025C79.1625 36.6787 78.9068 36.0822 78.1512 36.0822C77.3955 36.0822 77.1399 36.6787 77.1399 37.4025C77.1399 38.1263 77.3899 38.7285 78.1512 38.7285C78.9124 38.7285 79.1625 38.1319 79.1625 37.4025Z" fill="black"/>
<path d="M83.3241 37.0939V37.9534H81.6583V39.4971H80.6133V35.3184H83.7034V36.1779H81.6583V37.0967H83.3241V37.0939Z" fill="black"/>
<path d="M86.8961 36.0822C86.2051 36.0822 85.9719 36.6193 85.9719 37.4025C85.9719 38.1857 86.2051 38.7285 86.8961 38.7285C87.4523 38.7285 87.663 38.3949 87.7332 37.9284H88.7783C88.6856 38.9094 88.0816 39.588 86.9439 39.588C85.632 39.588 84.9297 38.6635 84.9297 37.4025C84.9297 36.1415 85.632 35.2227 86.9439 35.2227C88.076 35.2227 88.6799 35.9012 88.7783 36.871H87.7332C87.6574 36.4158 87.4495 36.0822 86.8961 36.0822Z" fill="black"/>
<path d="M90.1895 35.3154V36.9524H91.6138V35.3154H92.6588V39.4942H91.6138V37.8091H90.1895V39.4942H89.1445V35.3154H90.1895Z" fill="black"/>
<path d="M93.0898 37.4025C93.0898 36.1472 93.8287 35.2227 95.1462 35.2227C96.4637 35.2227 97.2025 36.1472 97.2025 37.4025C97.2025 38.6578 96.4524 39.588 95.1462 39.588C93.8399 39.588 93.0898 38.6635 93.0898 37.4025ZM96.1547 37.4025C96.1547 36.6787 95.899 36.0822 95.1434 36.0822C94.3877 36.0822 94.132 36.6787 94.132 37.4025C94.132 38.1263 94.3821 38.7285 95.1434 38.7285C95.9046 38.7285 96.1547 38.1319 96.1547 37.4025Z" fill="black"/>
<path d="M98.6544 35.3154V39.4942H97.6094V35.3154H98.6544Z" fill="black"/>
<path d="M101.052 36.0822C100.361 36.0822 100.128 36.6193 100.128 37.4025C100.128 38.1857 100.361 38.7285 101.052 38.7285C101.609 38.7285 101.819 38.3949 101.889 37.9284H102.935C102.842 38.9094 102.238 39.588 101.1 39.588C99.7882 39.588 99.0859 38.6635 99.0859 37.4025C99.0859 36.1415 99.7882 35.2227 101.1 35.2227C102.232 35.2227 102.836 35.9012 102.935 36.871H101.889C101.814 36.4158 101.606 36.0822 101.052 36.0822Z" fill="black"/>
<path d="M106.158 36.9157V37.7752H104.346V38.6347H106.484V39.4942H103.301V35.3154H106.45V36.1749H104.346V36.9157H106.158Z" fill="black"/>
<path d="M47.3643 45.8446V50.5436H49.9797V51.7593H45.8867V45.8418H47.3672L47.3643 45.8446Z" fill="black"/>
<path d="M52.8213 51.8922C51.0459 51.8922 50.3633 51.0977 50.3633 49.6247V45.8418H51.8437V49.6247C51.8437 50.3937 52.1724 50.6765 52.8213 50.6765C53.4702 50.6765 53.7989 50.3937 53.7989 49.6247V45.8418H55.2793V49.6247C55.2793 51.0977 54.5967 51.8922 52.8213 51.8922Z" fill="black"/>
<path d="M58.5942 46.9274C57.6166 46.9274 57.2879 47.688 57.2879 48.7963C57.2879 49.9046 57.6166 50.6736 58.5942 50.6736C59.3836 50.6736 59.6785 50.2014 59.7769 49.5399H61.2573C61.1253 50.9309 60.2713 51.8893 58.6588 51.8893C56.8019 51.8893 55.8047 50.5831 55.8047 48.7935C55.8047 47.0038 56.7991 45.7061 58.6588 45.7061C60.2628 45.7061 61.1168 46.6645 61.2573 48.0386H59.7769C59.6701 47.3939 59.3751 46.9218 58.5942 46.9218V46.9274Z" fill="black"/>
<path d="M63.0159 50.5266L62.6367 51.7593H61.1562L63.2856 45.8418H64.766L66.887 51.7593H65.4065L65.0273 50.5266H63.0131H63.0159ZM64.7014 49.3929L64.0357 47.2074H64.0188L63.353 49.3929H64.7014Z" fill="black"/>
<path d="M71.9044 50.0234C71.9044 51.1572 71.0504 51.8923 69.5784 51.8923C68.1064 51.8923 66.8984 51.1317 66.8984 49.8142H68.3789C68.3789 50.4419 68.921 50.6737 69.5784 50.6737C70.129 50.6737 70.424 50.4588 70.424 50.162C70.424 49.6898 69.7919 49.5824 68.9604 49.3336C67.9491 49.0367 67.0614 48.5985 67.0614 47.5043C67.0614 46.2122 68.0642 45.709 69.3312 45.709C70.7049 45.709 71.7808 46.4384 71.8229 47.6372H70.3425C70.2779 47.1905 69.8986 46.9247 69.3312 46.9247C68.8873 46.9247 68.5418 47.0661 68.5418 47.3969C68.5418 47.7616 68.9126 47.8775 69.6514 48.0839C70.7611 48.3893 71.9044 48.754 71.9044 50.0206V50.0234Z" fill="black"/>
<path d="M75.344 50.5266L74.9648 51.7593H73.4844L75.6137 45.8418H77.0942L79.2151 51.7593H77.7347L77.3554 50.5266H75.3412H75.344ZM77.0296 49.3929L76.3638 47.2074H76.3469L75.6812 49.3929H77.0296Z" fill="black"/>
<path d="M81.1172 45.8447V51.7622H79.6367V45.8447H81.1172Z" fill="black"/>
<path d="M64.7769 27.0343C63.3695 27.0343 62.2261 25.8836 62.2261 24.4671C62.2261 23.1665 63.1925 22.0695 64.4763 21.9169C64.7685 21.8829 65.01 21.6794 65.0971 21.3967C65.1842 21.1139 65.0971 20.8086 64.8752 20.6163C64.5746 20.3562 64.3386 20.0254 64.187 19.6607C64.0718 19.3836 63.8021 19.2027 63.5043 19.2027C63.2065 19.2027 62.9369 19.3836 62.8217 19.6607C62.4228 20.622 61.4986 21.244 60.4648 21.244C59.0574 21.244 57.9141 20.0933 57.9141 18.6768C57.9141 17.3762 58.8804 16.2793 60.1642 16.1266C60.4564 16.0927 60.698 15.8891 60.785 15.6064C60.8721 15.3236 60.785 15.0183 60.5631 14.826C60.0013 14.3369 59.681 13.6301 59.681 12.8865C59.681 11.47 60.8244 10.3193 62.2318 10.3193C63.6392 10.3193 64.7825 11.47 64.7825 12.8865C64.7825 14.1871 63.8161 15.2841 62.5323 15.4367C62.2402 15.4707 61.9986 15.6742 61.9115 15.957C61.8244 16.2397 61.9115 16.545 62.1334 16.7373C62.434 16.9974 62.67 17.3282 62.8217 17.6929C62.9369 17.97 63.2065 18.1509 63.5043 18.1509C63.8021 18.1509 64.0718 17.97 64.187 17.6929C64.5859 16.7316 65.5101 16.1096 66.5438 16.1096C67.9512 16.1096 69.0946 17.2603 69.0946 18.6768C69.0946 19.9774 68.1282 21.0743 66.8444 21.227C66.5523 21.2609 66.3107 21.4645 66.2236 21.7472C66.1365 22.03 66.2236 22.3353 66.4455 22.5276C67.0074 23.0167 67.3276 23.7235 67.3276 24.4671C67.3276 25.8836 66.1843 27.0343 64.7769 27.0343Z" fill="black"/>
</g>
<defs>
<clipPath id="clip0_1_517">
<rect width="127" height="69" fill="white"/>
</clipPath>
</defs>
</svg>
