<svg xmlns="http://www.w3.org/2000/svg" width="127" height="69" fill="none" viewBox="0 0 127 69"><g fill="#000" clip-path="url(#a)"><path fill-rule="evenodd" d="M.024 36.384c.092-.144.21-.121.328-.073.986.314 1.857.845 2.658 1.52 1.62 1.355 2.798 3.02 3.385 5.124.14.506.236 1.038.376 1.547.023.121.093.217.14.313.023 0 .049-.025.071-.025v-.144c-.188-1.137-.424-2.248-.587-3.382-.118-.724-.14-1.45-.188-2.174-.048-.772-.023-1.547-.14-2.318-.049-.388-.282-.75-.447-1.111-.023-.049-.093-.074-.166-.074-1.082-.192-1.787-.893-2.351-1.787-.658-1.088-1.06-2.27-1.363-3.528-.329-1.425-.565-2.85-.494-4.3 0-.218.022-.459.07-.676.048-.24.093-.24.28-.122 1.318.967 2.304 2.2 3.057 3.673.565 1.085.986 2.247 1.104 3.477.093.871.048 1.765.093 2.633 0 .217.048.458.07.675 0 .048.023.074.07.145a.6.6 0 0 0 .07-.17c.048-1.137.07-2.248.166-3.382.093-1.11.236-2.222.354-3.333.023-.291.093-.557.118-.845 0-.145-.07-.292-.092-.41-.048-.24-.07-.484-.14-.724-.049-.122-.119-.266-.237-.34-.753-.41-1.247-1.062-1.576-1.86-.354-.823-.494-1.668-.54-2.536-.047-1.11-.092-2.222-.047-3.333.048-1.063.21-2.1.587-3.093.023-.074.093-.122.14-.192.048.048.119.073.166.144a10.1 10.1 0 0 1 1.905 3.455c.281.918.424 1.86.47 2.827.047 1.498-.212 2.971-.565 4.396-.048.218-.023.41.118.654.047-.17.092-.292.14-.41a34.3 34.3 0 0 1 1.927-6.427c.166-.41.048-.797.118-1.207.048-.291-.07-.484-.28-.676-.658-.653-.987-1.521-1.082-2.44-.189-1.668.07-3.262.469-4.88.236-.919.494-1.835.893-2.683.14-.291.306-.557.447-.823.022-.048.092-.096.165-.192.118.24.236.458.33.676q.704 1.63.845 3.407c.14 1.956-.07 3.842-.823 5.654-.166.41-.4.82-.588 1.233-.07.17-.07.362-.117.532.047.025.07.025.117.048.07-.145.141-.266.211-.41.517-1.015.986-2.053 1.55-3.045.613-1.089 1.34-2.126 1.976-3.19.118-.217.118-.506.188-.749.022-.048 0-.121.022-.192.048-.24.023-.458-.165-.676-.425-.483-.588-1.11-.635-1.738-.189-2.2.564-4.109 1.668-5.92a9.2 9.2 0 0 1 1.81-2.249c.235-.217.328-.192.354.122.07.701.14 1.402.14 2.126.022 1.812-.306 3.577-1.034 5.242-.424.941-.986 1.764-1.668 2.536-.211.24-.236.483-.236.845.117-.096.188-.144.236-.217a37 37 0 0 1 3.196-3.77c.495-.508 1.034-.989 1.529-1.498.07-.073.14-.17.14-.265-.093-1.063.306-1.934.963-2.731.776-.942 1.787-1.547 2.891-1.982l2.47-.942c.047-.025.092-.025.165-.048 0 .096.023.17 0 .24-.494 1.717-1.317 3.238-2.68 4.397-1.011.845-2.163 1.354-3.48 1.377a.5.5 0 0 0-.306.121c-.683.653-1.388 1.281-2.023 1.957-.613.627-1.152 1.329-1.716 2.004-.07.074-.118.17-.166.24.28.145.54.049.635-.192.399-1.015 1.151-1.594 2.14-1.956.916-.34 1.835-.34 2.773-.192.775.096 1.528.24 2.303.362.048 0 .093.022.14.022.212.048.237.122.094.266-.354.387-.706.823-1.105 1.16-1.247 1.088-2.702 1.616-4.348 1.472a3.9 3.9 0 0 1-1.787-.58c-.165-.096-.306-.144-.494-.073a1.1 1.1 0 0 1-.399.073c-.21 0-.329.097-.447.24a36.7 36.7 0 0 0-3.292 5.39c-.048.073-.07.144-.118.24v.073c.28.074.565-.073.612-.313.281-1.473 1.222-2.344 2.562-2.828.894-.313 1.81-.41 2.75-.458a55 55 0 0 0 1.928-.121c.236-.023.28.048.165.24-1.151 1.934-2.68 3.359-4.935 3.817a4.06 4.06 0 0 1-2.141-.144.54.54 0 0 0-.54.048 1 1 0 0 1-.353.144c-.281.023-.377.218-.495.435a40 40 0 0 0-1.879 4.81c-.258.797-.47 1.617-.705 2.414-.023.074-.023.144-.023.218.354-.026.517-.218.517-.532 0-1.425.54-2.561 1.599-3.48.893-.75 1.904-1.233 2.96-1.668.706-.291 1.41-.557 2.116-.845.07-.026.14-.049.28-.074-.07.266-.117.458-.187.676-.354 1.037-.801 2.03-1.458 2.898-.941 1.303-2.116 2.343-3.666 2.802-.4.121-.871.096-1.293.17-.14.022-.258.073-.376.143-.093.048-.166.17-.258.218-.354.17-.495.484-.54.87-.188 1.137-.424 2.249-.612 3.382-.14.823-.21 1.668-.281 2.488-.07.772-.093 1.547-.118 2.319 0 .048 0 .121.022.17.259-.049.495-.363.447-.628-.329-1.717.166-3.238 1.152-4.614.775-1.112 1.809-1.934 2.846-2.754.446-.34.87-.701 1.317-1.063.048-.048.118-.096.236-.17 0 .314.022.557 0 .797-.188 1.957-.705 3.794-1.834 5.412-.846 1.232-1.88 2.222-3.315 2.683-.093.025-.188.144-.259.24-.118.144-.188.34-.328.458-.211.192-.259.41-.236.676.07 1.303.07 2.632.188 3.938.14 1.403.399 2.802.612 4.204 0 .074.048.145.07.218a.676.676 0 0 0 .189-.893c-.306-.484-.377-1.038-.4-1.595-.022-1.184.307-2.296.846-3.359.683-1.303 1.576-2.465 2.444-3.647.281-.362.54-.75.823-1.136.048-.074.093-.122.189-.24.047.143.092.24.092.338.189 1.33.189 2.658-.047 3.962-.211 1.255-.683 2.44-1.293 3.55-.517.894-1.174 1.669-1.997 2.271-.14.096-.236.266-.306.435-.118.24-.236.484-.329.75a.7.7 0 0 0-.048.361 36 36 0 0 0 2.916 8.07c.048.073.093.144.14.24.167-.192.212-.557.071-.701-.657-.653-.846-1.499-1.011-2.344-.259-1.207-.023-2.366.28-3.528.4-1.499 1.012-2.924 1.551-4.374.07-.193.166-.41.259-.654.092.122.14.193.165.289.517 1.185.824 2.392.942 3.673a11.9 11.9 0 0 1-.517 4.71 6 6 0 0 1-.941 1.86c-.259.362-.354.75-.447 1.16-.093.435.022.749.21 1.11a31 31 0 0 0 4.113 5.607c.093.096.188.144.306.218.023-.122.048-.266.023-.388-.022-.096-.093-.24-.166-.288-.705-.387-1.13-1.015-1.506-1.69a4.76 4.76 0 0 1-.587-2.127c-.022-.75-.092-1.498-.047-2.248.047-.918.21-1.86.306-2.779.048-.506.118-1.015.166-1.546 0-.096.047-.193.07-.362.14.144.236.218.306.314 1.247 1.594 2.045 3.381 2.303 5.437.166 1.303.141 2.61-.21 3.864a4 4 0 0 1-.188.58c-.14.34-.14.676-.166 1.015 0 .458.14.797.494 1.111 1.764 1.62 3.666 2.972 5.807 4.012.092.048.21.192.306.023.07-.122-.07-.436-.21-.458-1.621-.34-2.492-1.521-3.057-2.997-.424-1.111-.635-2.27-.8-3.43-.119-.797-.26-1.594-.377-2.392-.023-.073 0-.17 0-.24.093.026.188 0 .258.048 1.363.772 2.47 1.812 3.245 3.237.399.724.705 1.473.916 2.27.21.773.28 1.57.236 2.367-.023.557-.07 1.089.092 1.62.07.192.14.314.33.387 1.62.676 3.291 1.208 5.005 1.499.281.048.424.192.47.483.022.193-.049.266-.237.24-1.576-.24-3.104-.627-4.56-1.232-.493-.192-.892-.023-1.339.048a.38.38 0 0 0-.188.192c-.587 1.137-1.529 1.74-2.703 2.03-.494.122-1.011.17-1.528.266-.048 0-.093.025-.14.048h-.894c-.047-.023-.07-.048-.118-.048q-1.305-.108-2.54-.506c-.656-.218-1.291-.458-1.833-.919-.281-.24-.281-.288 0-.531 1.01-.846 2.14-1.522 3.407-1.909 1.764-.557 3.48-.509 5.124.34.354.17.705.387 1.059.556.166.074.306.17.494-.022-.092-.048-.165-.096-.236-.122-2.115-.99-4.042-2.296-5.806-3.89a1.4 1.4 0 0 0-.424-.218c-.166-.048-.329-.048-.495-.073-.166-.026-.28.022-.399.144a2.96 2.96 0 0 1-1.739.967c-.963.192-1.904.048-2.82-.218-1.292-.34-2.421-.99-3.503-1.764-.494-.362-.941-.772-1.317-1.303-.236-.34-.211-.41.165-.557a8.76 8.76 0 0 1 3.927-.702c1.48.074 2.82.506 3.95 1.473.495.41.916.871 1.363 1.33.118.12.236.29.494.191-.07-.096-.118-.17-.188-.217-.565-.628-1.174-1.256-1.716-1.909-1.012-1.207-1.905-2.513-2.728-3.865a.7.7 0 0 0-.21-.24c-.212-.144-.448-.291-.658-.435-.118-.096-.236-.074-.377-.023-.236.096-.494.218-.727.266-1.27.24-2.422-.122-3.456-.87-1.362-.968-2.421-2.223-3.267-3.674-.28-.483-.446-1.015-.635-1.546-.092-.291-.047-.388.259-.362.587.023 1.174.023 1.739.122 2.115.387 3.784 1.569 5.054 3.333.469.653.845 1.402 1.247 2.126.092.17.165.314.424.314a.5.5 0 0 0-.093-.218c-.424-.87-.893-1.716-1.27-2.61a81 81 0 0 1-1.505-3.89c-.306-.797-.424-1.668-1.012-2.318a.55.55 0 0 0-.446-.192 3 3 0 0 1-.916-.048c-.941-.193-1.669-.772-2.281-1.499-1.458-1.69-2.399-3.695-2.96-5.872-.071-.24-.119-.506-.167-.75.023-.17.023-.313.023-.458zM108.89 68.93a17 17 0 0 1-1.104-.17c-1.081-.192-2.067-.579-2.797-1.472-.166-.193-.281-.436-.425-.654-.047-.073-.07-.17-.14-.17-.399-.12-.775-.338-1.2-.169a22 22 0 0 1-4.772 1.281c-.189.025-.259-.048-.236-.24.022-.266.165-.436.446-.484 1.739-.291 3.385-.823 5.006-1.498.211-.074.281-.218.354-.436.166-.506.141-1.015.093-1.52-.118-1.57.281-3.02.986-4.423.753-1.498 1.879-2.632 3.315-3.455.092-.048.21-.073.328-.121 0 .121.048.24.023.34-.211 1.255-.399 2.535-.635 3.793-.188 1.038-.469 2.053-1.011 2.95-.469.797-1.13 1.424-1.975 1.812-.141.073-.306.096-.469.121-.281.023-.399.24-.306.557l.353-.144c2.093-1.015 3.95-2.344 5.667-3.913.354-.34.564-.676.539-1.185-.023-.339-.023-.653-.141-.967-.424-1.11-.564-2.27-.516-3.455.092-2.174.727-4.13 1.952-5.895.166-.24.354-.457.539-.675.048-.048.118-.096.211-.193.048.266.07.459.093.654.118.919.236 1.834.328 2.753.093.92.166 1.835.118 2.78-.022.723-.092 1.45-.328 2.126-.281.797-.705 1.52-1.34 2.078a2.5 2.5 0 0 1-.399.266c-.211.121-.354.435-.259.675.023.023.118.074.141.048.093-.048.166-.144.236-.217 1.646-1.765 3.034-3.721 4.23-5.822a.97.97 0 0 0 .118-.675c-.07-.218-.07-.459-.118-.702a.53.53 0 0 0-.118-.265c-1.033-1.355-1.505-2.95-1.693-4.614-.211-2.079.118-4.06.941-5.969.047-.096.092-.17.165-.288.048.096.093.121.118.192.469 1.233.964 2.465 1.388 3.72.376 1.038.635 2.101.705 3.215.07.871-.118 1.74-.399 2.562-.165.458-.354.87-.705 1.184-.14.145-.14.459.023.75.07-.096.118-.17.165-.266.705-1.402 1.34-2.827 1.835-4.326.399-1.233.727-2.465 1.081-3.695a.8.8 0 0 0-.047-.41c-.093-.266-.211-.506-.329-.772-.07-.122-.141-.291-.259-.362-1.151-.797-1.904-1.908-2.491-3.164a10.8 10.8 0 0 1-.964-3.528c-.093-1.038-.07-2.1.07-3.141a.4.4 0 0 1 .048-.192c0-.023.023-.023.048-.074.048.048.093.074.118.122.871 1.207 1.786 2.417 2.632 3.647.635.919 1.129 1.908 1.388 2.997.188.845.258 1.668.022 2.513-.07.218-.14.436-.258.605-.141.193-.166.362-.048.58.048.096.093.218.188.387.071-.144.118-.192.118-.265.211-1.256.424-2.514.587-3.77a33 33 0 0 0 .236-4.565c0-.122-.07-.24-.14-.34-.048-.096-.166-.17-.211-.265-.188-.362-.469-.58-.845-.724-1.13-.388-1.953-1.208-2.658-2.152-1.104-1.473-1.739-3.14-1.997-4.976-.07-.435-.093-.893-.141-1.329 0-.073.023-.144.023-.265.093.048.14.073.188.121.916.75 1.834 1.473 2.728 2.248 1.081.967 1.997 2.052 2.444 3.503.258.87.399 1.764.165 2.683-.07.266.118.532.447.676v-.388l-.211-3.02c-.14-1.642-.424-3.262-.775-4.88-.048-.169-.07-.338-.118-.505q0-.022-.022-.048c-.281-.314-.613-.605-.986-.772-1.717.073-3.034-.772-4.186-1.934-1.2-1.185-1.927-2.683-2.422-4.278-.022-.073-.022-.144-.047-.265.092.022.165 0 .21.022 1.082.436 2.186.871 3.267 1.354.846.388 1.621.871 2.282 1.57.823.87 1.222 1.933 1.199 3.14 0 .241.141.41.494.484 0-.096 0-.17-.022-.24a43.6 43.6 0 0 0-2.61-7.272c-.092-.192-.236-.291-.446-.41-.47-.24-.916-.192-1.411-.048-1.059.288-2.067 0-3.056-.435-1.388-.628-2.421-1.668-3.267-2.95a4 4 0 0 1-.258-.435c-.118-.192-.071-.265.165-.24.54.026 1.104.074 1.646.096.916.048 1.81.122 2.703.388.753.217 1.433.556 1.997 1.136a3.33 3.33 0 0 1 .893 1.764c.048.292.329.436.658.362-.023-.073-.07-.17-.093-.24-.963-1.934-2.067-3.769-3.362-5.485-.093-.144-.211-.17-.377-.218-.494-.144-.916.026-1.362.218-1.458.653-2.939.483-4.349-.192-.986-.458-1.787-1.16-2.444-2.03-.166-.218-.14-.266.118-.314 1.104-.17 2.233-.387 3.337-.458 1.318-.074 2.54.291 3.456 1.354.188.218.328.506.469.772.166.314.281.387.682.291-.165-.218-.328-.435-.494-.627a31 31 0 0 0-2.798-3.02 5 5 0 0 0-.705-.58c-.07-.048-.14-.096-.236-.096-1.716-.048-3.079-.82-4.231-2.078-.963-1.037-1.576-2.296-1.952-3.672-.022-.074-.022-.17-.022-.292.28.097.494.193.727.266.871.34 1.764.653 2.632 1.038 1.152.531 2.141 1.329 2.75 2.513.307.58.447 1.185.399 1.86 0 .097.048.218.118.266 1.739 1.595 3.293 3.36 4.725 5.268.048.073.093.17.189.217.07-.313.07-.557-.141-.772a10.1 10.1 0 0 1-2.303-4.252c-.329-1.28-.517-2.61-.447-3.938.022-.58.093-1.185.14-1.764.023-.266.118-.292.329-.122 1.011.893 1.717 2.005 2.351 3.19.495.966.871 1.981 1.059 3.044.189 1.038.211 2.053-.165 3.045-.118.266-.307.506-.447.772a.8.8 0 0 0-.093.34c0 .24.071.483.071.723.022.288.165.484.306.701 1.292 1.86 2.399 3.842 3.362 5.92.071.145.141.292.259.41.092-.217.048-.435-.07-.627a10.8 10.8 0 0 1-1.082-2.78 13 13 0 0 1-.306-3.695q.107-1.921.845-3.695c.093-.24.236-.458.329-.701h.093c.14.24.281.458.424.701q.67 1.304.986 2.754c.188.893.376 1.787.494 2.706.166 1.207.166 2.417-.258 3.55-.211.532-.494 1.016-.916 1.403-.093.073-.14.24-.14.362-.023.34-.048.676 0 .99.022.24.14.483.236.723.753 1.982 1.362 3.987 1.786 6.065.023.121.071.266.118.458.166-.218.189-.41.141-.605-.166-.798-.354-1.595-.469-2.392-.166-.99-.166-2.005-.048-3.02.166-1.473.635-2.85 1.433-4.082.28-.436.587-.846.915-1.281.118-.144.211-.122.259.096.166.605.354 1.207.446 1.812.236 1.355.236 2.706.166 4.06-.07 1.038-.166 2.078-.564 3.045-.329.82-.824 1.521-1.621 1.934a.47.47 0 0 0-.211.266c-.093.34-.188.676-.258 1.038-.023.144 0 .313.022.458.118.941.258 1.885.354 2.827.093.893.118 1.787.166 2.68.022.58.047 1.185.07 1.764a.4.4 0 0 0 .048.122c.188-.122.21-.314.21-.483-.022-.484-.022-.967-.022-1.45-.023-2.562.823-4.81 2.374-6.79a9.3 9.3 0 0 1 1.834-1.786c.236-.192.329-.144.354.17.022.605.07 1.207.048 1.812a16.4 16.4 0 0 1-.683 3.842c-.329 1.063-.705 2.126-1.34 3.045-.494.701-1.081 1.28-1.927 1.45-.329.074-.469.24-.587.532-.236.506-.281 1.038-.306 1.595a38 38 0 0 1-.141 2.295 158 158 0 0 1-.399 3.263c-.07.458-.188.919-.281 1.377-.022.074-.022.144-.022.218.022 0 .048.025.093.025.047-.096.118-.192.14-.314.236-.822.399-1.668.683-2.44.845-2.247 2.351-3.913 4.374-5.123.424-.265.893-.435 1.362-.627.281-.122.399-.048.354.266-.093.627-.211 1.28-.399 1.882-.469 1.377-1.059 2.706-1.879 3.89-.635.894-1.318 1.74-2.326 2.249-.54.288-1.129.435-1.739.313-.166-.025-.259.048-.377.17-.587.653-.727 1.521-1.011 2.318-.494 1.304-.963 2.633-1.506 3.913-.376.894-.845 1.74-1.269 2.61a1 1 0 0 1-.093.218c.258 0 .329-.17.424-.314.399-.701.776-1.45 1.247-2.126 1.27-1.765 2.939-2.95 5.054-3.334.565-.096 1.174-.096 1.739-.121.306-.026.377.073.259.362-.189.531-.377 1.063-.635 1.546-.823 1.45-1.905 2.706-3.267 3.673-1.034.749-2.186 1.11-3.456.87-.258-.047-.494-.17-.727-.265-.141-.074-.259-.074-.377.022-.21.145-.446.292-.657.436a.5.5 0 0 0-.211.24 29 29 0 0 1-2.727 3.865c-.54.653-1.152 1.28-1.717 1.909-.048.073-.118.144-.188.217.258.096.354-.048.494-.192.447-.436.871-.919 1.363-1.329 1.152-.967 2.492-1.402 3.949-1.473 1.363-.074 2.658.17 3.928.701.354.144.376.218.165.557a5.3 5.3 0 0 1-1.317 1.304c-1.082.771-2.211 1.425-3.503 1.764-.941.24-1.857.41-2.821.218-.682-.145-1.269-.459-1.738-.967-.118-.122-.236-.193-.399-.145-.166.023-.329.023-.495.074-.14.048-.306.121-.424.218a25 25 0 0 1-5.806 3.89c-.071.023-.141.073-.236.121.188.193.328.097.494.026.354-.192.705-.387 1.059-.557 1.669-.845 3.385-.893 5.124-.34 1.27.388 2.374 1.064 3.408 1.91.28.24.28.29 0 .556-.54.458-1.152.701-1.81.919q-1.234.399-2.539.509a.17.17 0 0 0-.118.048c-.424.048-.728.048-1.034.048z" clip-rule="evenodd"/><path d="M23.966 38.268c0 .8-.604 1.32-1.643 1.32s-1.893-.537-1.893-1.468h1.045c0 .444.382.608.848.608.388 0 .598-.152.598-.361 0-.334-.446-.41-1.033-.586-.714-.212-1.343-.52-1.343-1.292 0-.913.708-1.27 1.604-1.27.97 0 1.73.515 1.758 1.364h-1.045c-.047-.317-.314-.504-.713-.504-.315 0-.56.1-.56.334 0 .257.262.34.785.486.783.215 1.592.472 1.592 1.368m1.297-2.092h-1.208v-.86h3.455v.86h-1.202v3.32h-1.045zm4.337 3.413c-1.256 0-1.737-.562-1.737-1.603v-2.672h1.045v2.672c0 .543.233.741.691.741s.691-.198.691-.74v-2.672h1.045v2.671c0 1.04-.483 1.603-1.736 1.603m2.279-4.273h1.84c1.154 0 1.851.75 1.851 2.093s-.638 2.086-1.795 2.086h-1.899v-4.179zm1.045 3.32h.69c.653 0 .914-.467.914-1.227s-.261-1.233-.913-1.233h-.691zm5.907-1.719v.86h-1.812v.859h2.138v.86h-3.183v-4.18h3.149v.86H37.02v.74h1.812zm.791-1.601h1.045l1.453 2.486h.01v-2.486h1.046v4.18H42.13l-1.453-2.486h-.01v2.485H39.62zm5.056.86h-1.208v-.86h3.455v.86h-1.202v3.32h-1.045zm5.914 2.093c0 .8-.604 1.32-1.643 1.32s-1.893-.537-1.893-1.468H48.1c0 .444.385.608.848.608.39 0 .598-.152.598-.361 0-.334-.446-.41-1.033-.586-.714-.212-1.343-.52-1.343-1.292 0-.913.708-1.27 1.604-1.27.97 0 1.73.515 1.758 1.364h-1.045c-.047-.317-.314-.504-.713-.504-.315 0-.556.1-.556.334 0 .257.26.34.783.486.784.215 1.593.472 1.593 1.368zm1.072-2.953-.115 1.572h-.581l-.115-1.572zm2.532 3.308-.267.871h-1.045l1.503-4.179h1.045l1.497 4.18h-1.045l-.267-.872h-1.424zm1.19-.8-.468-1.544h-.012l-.469 1.544h.953zm2.887-2.508v4.18h-1.045v-4.18zm2.581.86h-1.209v-.86H63.1v.86h-1.203v3.32h-1.044zm2.287 1.227c0-1.255.74-2.18 2.057-2.18s2.056.925 2.056 2.18-.75 2.186-2.056 2.186-2.057-.925-2.057-2.186m3.065 0c0-.723-.255-1.32-1.011-1.32s-1.011.597-1.011 1.32.25 1.326 1.01 1.326c.762 0 1.012-.596 1.012-1.326m1.279.001c0-1.256.74-2.18 2.057-2.18s2.056.924 2.056 2.18c0 1.255-.75 2.185-2.056 2.185s-2.057-.925-2.057-2.185m3.068 0c0-.724-.256-1.32-1.011-1.32-.756 0-1.012.596-1.012 1.32 0 .723.25 1.325 1.012 1.325.761 0 1.011-.596 1.011-1.325m2.489-2.088v3.32h1.849v.86h-2.894v-4.18zm3.057 2.088c0-1.256.739-2.18 2.056-2.18s2.056.924 2.056 2.18c0 1.255-.75 2.185-2.056 2.185s-2.056-.925-2.056-2.185m3.064 0c0-.724-.255-1.32-1.01-1.32-.757 0-1.012.596-1.012 1.32 0 .723.25 1.325 1.011 1.325s1.011-.596 1.011-1.325m4.162-.309v.86h-1.666v1.543h-1.045v-4.179h3.09v.86h-2.045v.919h1.666zm3.572-1.012c-.69 0-.924.537-.924 1.32 0 .784.233 1.326.924 1.326.556 0 .767-.333.837-.8h1.045c-.092.981-.696 1.66-1.834 1.66-1.312 0-2.014-.925-2.014-2.185s.702-2.18 2.014-2.18c1.132 0 1.736.678 1.834 1.648h-1.045c-.076-.455-.284-.789-.837-.789m3.294-.767v1.637h1.424v-1.637h1.045v4.18h-1.045v-1.686h-1.425v1.685h-1.044v-4.179zm2.9 2.088c0-1.256.739-2.18 2.056-2.18s2.057.924 2.057 2.18c0 1.255-.75 2.185-2.057 2.185s-2.056-.925-2.056-2.185m3.065 0c0-.724-.256-1.32-1.012-1.32-.755 0-1.011.596-1.011 1.32 0 .723.25 1.325 1.011 1.325.762 0 1.012-.596 1.012-1.325m2.499-2.088v4.18H97.61v-4.18zm2.398.767c-.691 0-.924.537-.924 1.32 0 .784.233 1.326.924 1.326.557 0 .767-.333.837-.8h1.046c-.093.981-.697 1.66-1.835 1.66-1.312 0-2.014-.925-2.014-2.185s.702-2.18 2.014-2.18c1.132 0 1.736.678 1.835 1.648h-1.046c-.075-.455-.283-.789-.837-.789m5.106.834v.86h-1.812v.859h2.138v.86h-3.183v-4.18h3.149v.86h-2.104v.74zm-58.794 8.929v4.699h2.616v1.215h-4.093v-5.917h1.48zm5.457 6.047c-1.775 0-2.458-.794-2.458-2.267v-3.783h1.48v3.783c0 .769.33 1.051.978 1.051.65 0 .978-.282.978-1.051v-3.783h1.48v3.783c0 1.473-.682 2.267-2.458 2.267m5.773-4.965c-.977 0-1.306.761-1.306 1.87s.329 1.877 1.306 1.877c.79 0 1.084-.473 1.183-1.134h1.48c-.132 1.39-.986 2.35-2.598 2.35-1.857 0-2.854-1.307-2.854-3.096s.994-3.088 2.854-3.088c1.604 0 2.458.958 2.598 2.333h-1.48c-.107-.645-.402-1.117-1.183-1.117zm4.422 3.6-.38 1.232h-1.48l2.13-5.917h1.48l2.121 5.917h-1.48l-.38-1.232h-2.014zm1.685-1.134-.665-2.186h-.017l-.666 2.186zm7.203.63c0 1.134-.854 1.87-2.326 1.87s-2.68-.761-2.68-2.079h1.48c0 .628.543.86 1.2.86.551 0 .846-.215.846-.512 0-.472-.632-.58-1.464-.828-1.01-.297-1.899-.736-1.899-1.83 0-1.292 1.003-1.795 2.27-1.795 1.374 0 2.45.73 2.492 1.928h-1.48c-.065-.447-.444-.712-1.012-.712-.444 0-.79.141-.79.472 0 .365.372.48 1.11.687 1.11.305 2.253.67 2.253 1.937zm3.44.504-.38 1.232h-1.48l2.13-5.917h1.48l2.121 5.917h-1.48l-.38-1.232h-2.014zm1.686-1.134-.666-2.186h-.017l-.666 2.186zm4.087-3.548v5.917h-1.48v-5.917zm-16.34-18.811a2.56 2.56 0 0 1-2.55-2.567c0-1.3.966-2.397 2.25-2.55a.74.74 0 0 0 .62-.52.74.74 0 0 0-.222-.78 2.6 2.6 0 0 1-.688-.956.74.74 0 0 0-.683-.458.74.74 0 0 0-.682.458 2.55 2.55 0 0 1-2.357 1.583 2.56 2.56 0 0 1-2.55-2.567c0-1.3.965-2.398 2.25-2.55a.74.74 0 0 0 .62-.52.74.74 0 0 0-.222-.781 2.57 2.57 0 0 1-.882-1.94 2.56 2.56 0 0 1 2.55-2.567 2.56 2.56 0 0 1 2.551 2.567 2.56 2.56 0 0 1-2.25 2.55.74.74 0 0 0-.62.521.74.74 0 0 0 .221.78c.301.26.537.591.689.956a.74.74 0 0 0 .682.458.74.74 0 0 0 .683-.458 2.55 2.55 0 0 1 2.357-1.583 2.56 2.56 0 0 1 2.55 2.567c0 1.3-.966 2.397-2.25 2.55a.74.74 0 0 0-.62.52.74.74 0 0 0 .221.78c.562.49.883 1.197.883 1.94a2.56 2.56 0 0 1-2.551 2.567"/></g><defs><clipPath id="a"><path fill="#fff" d="M0 0h127v69H0z"/></clipPath></defs></svg>