<svg xmlns="http://www.w3.org/2000/svg" width="295" height="43" fill="none" viewBox="0 0 295 43"><path fill="#edff4d" d="M23.446 41.793c.181-.053.917.047 1.234.02-.348.518-1.887.17-1.234-.02M55.118 3.939l-.781.398c.75.064 1.754-.052 2.451.05.114.018-.172.39.097.4.27.01.206-.488.596-.55.437-.07 2.453.23 3.148.206 2.6-.096 5.217-.444 7.828-.298-2.682.433.038.745.788.567.166-.041.117-.97 2.822-.8 1.72.108.166 1.473 3.013.74-2.223-.876-.057-.863 1.668-.935.297-.012 2.703.07 3.763.004.363-.023.904-.523 1.386-.547.331-.016.588.244 1.08.218 2.293-.114 4.549-.189 6.85-.153-1.314 1.281 1.066.507 1.175.564.556.327-1.918.482-.934.671l4.104-.214c-1.127-.127 1.462-1.088 1.952-.69-.238-1.1 6.261.813 7.234.42.203-.082-1.149-.596 1.962-.42.337.02.218.355.394.32.105-.021.719-1.095 1.414-.526.254.207-1.321.94 2.167.578-1.418-1.045 4.831-.7 5.985-.456q-.348-.21-.698-.418c1.144.363 1.34-.008 1.596.006 1.032.055 2.456.391 3.415.335 1.121-.066 1.109-.736 2.424-.507l-.942-.421 2.714.042c-2.072.937.453.031.62.008.266-.038-.109.334.337.278.046-.008-.029-.349.659-.404 1.439-.113 1.221.323 1.826.303.055-.003-.146-.307.896-.405 3.314-.31-.011.237-.137.283-.166.06 1.003 1.32-1.827.931.95.123 1.059.69 1.166.702.094.01 1.732-.11 1.822-.131.802-.213.083-.586.239-.66.127-.059 2.115.402 2.55-.78.972 1.057-.52.994-2.102 1.198-.226.227 1.52.401 1.612.398 2.246-.055.981-.914 1.459-1.494.25-.304 1.18.281.316-.496 2.037-.133.811.359.945.424.201.096.909-.15.999-.122.132.042-.317.33.202.414.086.012.907-.483-.172-.684 1.436.033 1.308-.369 1.814.436.951-1.568.739.895 1.13.972 1.039.204.71-1.001.764-1.061.367-.388 3.24-.04 3.945-.232-.259.88-2.269.064-2.71.244-1.471.599 2.101.387 1.05 1.51l1.333-.937c.845.686-.322 1.021 1.901.71.35-.617-1.574.134-1.196-.355.223-.287 1.514-.378 1.536-.527.021-.179-1.142.06-.965-.219.388-.602 4.662-.139 1.427.262.904-.032 1.398 1.136 2.174.75.501-.25-2.391-1.811 1.898-1.614.104.554-1.708.205-1.754.248-.064.064.292 1.312.35 1.373.204.2 4.561-.578 5.5.032-.383-.718 3.301-.209 3.695-.44.105-.063-.303-.498-.19-.548.703-.297 2.641.451 3.532.45.997 0 .862-.381.917-.382.439.011.095.28.363.273.405-.011 3.189-.024 3.327-.082.041-.018-.424-.446.181-.543.105-.017.05.505 1.842.237 2.157-.322-1.518-.611-.632-1.177 1.408.742 1.345-.025 1.723.026.131.019 1.118.65 2.172.583l-2.264.372c.747.097 2.189-.079 2.805.036.301.056.067.599.716.569.138-.01.654-1.33-1.034-.703-.147-.464.67-.18 1.043-.32.056-.022.262-.808.753-.335.118.117-1.082 2.423 2.113.699.103-.056-.266-.332-.165-.394.068-.042.897.054.987.011.093-.045-.314-.347-.204-.41.562-.33 1.339.887.162.82l1.189.43c-.442-.92.61-.276 1.153-.318 3.476-.266 1.131-.815 1.722-1.143.951-.525.253 1.084 1.671.572.131-.048-1.612-.683 1.77-.382l-1.492.115c.309.893 1.796-.105 1.912-.12 1.322-.155.434.19 2.39-.32.174-.045.562.168.935.048 1.546-.493-2.061-.228-2.168-.59-.051-.177 3.833-.225 3.969-.143.575.362-1.757.207-1.302.663.165.162 5.693-.31 6.808-.155 1.286.18 1.892 1.387 1.867.016.394 1.337.692.411.856.416 1.985.078 1.989.091 3.685-.078.374-.037.701.364.832.292.076-.044-.078-.477.297-.621.521-.197 3.691.177 3.931.413s-1.331.137-1.041.527c1.137.013 2.224-.111 3.368-.096.475.007.238.29.443.291.088.002 1.721-.282 1.649-.383-.168-.235-5.227.046-3.906-.472.255-.1 1.179.519 1.016-.257l13.583.207c-2.585.644-5.522.193-8.243.313-.373.015-1.636-.03-1.473.36 2.317.047 5.19-.227 7.419-.023.071.007-.182.366.086.416.501.093 2.109-.516 2.385-.375.048.033-.864.521-.577.811.739.743.882-.945 1.502-.94.479.005 3.717.742 4.507.209.839-.569-2.38-.262-2.153-.716 2.171-.503 4.392-.074 6.452-.18.037-.002-.287-.345.172-.405.798-.105 1.02.388 1.412.459.422.075 1.906-.032 2.109.145.026.023-.263.524-.309.54-.642.219-.887-.418-.946-.424-.222-.02-.434.232-.636.222-.333-.017-.521-.24-.961-.25-.303-.007 0 .423-.292.41-.108-.007-1.286-.976-1.37.044-.026.322 9.43.509 10.368.23l-2.438-.31c1.651.26 3.607-.601 3.776.599l18.303-.14c1.091.076.512.863 2.298.595l-1.406-.706c.922.151 4.999.392 5.654.217.085-.023.186-.726 1.202-.81.901-.074 1.058.446 1.543.535.407.074.858-.075.979-.049.093.021.137.341.36.392.705.156.116-.733.836.287l-.505.13c.849.13 2.015.573.775.835-.213.045-.037-.27-.196-.265-6.252.206-1.244.69.936.157.573.446 3.721.09 3.828.178.149.128-.382.508.333.808.15.064 4.361-.294 2.857.353-.31.133-2.335.05-2.822.079 1.17.946 3.825-.513 4.128-.484 1.223.122-2.323.9.428.947 2.114.037.115-.566.921-.863.453-.167 2.861.493 2.774-.434.818-.118.35.384.452.417.099.029 1.706-.287 2.235-.104.064.023-.125.51-.058.548.129.064 1.683-.07 1.744-.112.04-.029-.341-.442-.191-.548.174-.123 1.674-.059 1.754-.182.112-.185-1.733-.02-1.437-.5.855.099 2.236-.25 2.789-.643-.135.112-.961.147-1.248.116.118-.695 1.892-.728 1.299-.166.378-.303.111-.453.322-.735.055-.072.602-.1.705-.222.013-.024-.558-.271-.448-.414.199-.26 1.861-.242 1.998-.178.387.18-.961.44-1.067.734-.015.045 1.15.59 1.168.64.081.54-1.21.18-1.052.664l.958.286c-1.21.523-3.478.323-4.048.899 1.809-.21 3.706-.236 3.732 1.029.011.533-.763.864-.73.998.127.482 1.2-.07 1.241-.045q.049.043.05.085c.006.284-1.536.525-1.61.656-.125.233.586 1.164.59 1.374-.023.043-1.119.293-.739.65.385.36 1.35.345 1.384.383.19.216-1.492.458-1.539.59-.025.067.89.45.919.566.026.117-.657.388-.919.764-.196.279.398.475.295.52-.073.03-1.667.064-1.744.114-.115.074.266.393.214.476-.075.12-.592.014-.522.133.052.09 2.074 1.172 2.069 1.474-.011.515-2.152-.619-.137 1.365.014.013.489-.143.502-.13.305.366-1.216.978.658.833-3.475.732-.416.784-.912 1.662-.191.338-1.541.508-1.546.558.141.42.565.081.716.285.084.114-1.116.59-.837.873.144.146 1.428.063 1.482.09.515.263-.102.575.015.767.077.13.853.121.873.145.034.048-1.006.602-1.221.793-.163.147.468.357.353.422-.692.39-2.206-.526-.737.773.09.08.632.034.649.05.345.37-.655.426-.827.74-.295.54 1.137.21-.051.613.906.327 1.406.3 2.453.178-2.901.34-3.894 1.746-.667 1.634-1.027.003-.895.78-1.201.8-.19.013-1.697-.726-.973.995.091.216.988-.082.716.37-2.174-.062-.04.283-.036.342-.004 1.024-5.328.312-6.236.45-1.055.161-1.975.99-2.205.997-.756.018-.138-.406-.311-.553-.175-.145-2.307.69-2.416.65-.42-.163-.009-.658-.053-.682-.523-.285-3.402.164-4.214.07.033.315 1.657.3.656.83-1.167.619-1.267-.768-1.3-.828l-16.223.425c.085.738 3.607.096 3.69.192.486.564-5.487.696-6.226.452l1.681.44c-.93.87-3.06-.182-4.426.226-.441.132.42.439.403.462-.492.341-1.299.106-.71-.35-1.209.453-1.042-.02-1.978-.033-.048 0 .362.333-.375.493-.345.074-2.194.12-2.434.425-.099.129.871 1.435.959.289 2.024.51.63-.537 1.412-.529.12.003-.14.648 1.82.3-.348 1.16-2.633.354-3.019.503-.793.305 2.521.821 3.105-.09-.262.905.237.115.974.134.806.021.461.297.897.288 1.192-.021.683-.644 1.679-.096-1-1.747 1.676-.273 2.456.172l-3.748.359.221.274-.99-.016.152-.271c-1.685.62-2.116-.022-2.255-.026-1.786-.033-3.846.022-5.65.063-.271.006-.071.58-2.055.174-.632-.13-.049-.594-.761-.51-.863 1.247-.869.27-1.135.274-.761.019-1.219.333-1.289.338-.939.07-2.318.052-3.35.121-.019.005.527.369-.146.273-.237-.034-2.389-1.59-4.224-1.022l1.449.291c-.569-.138-4.519.361-3.54.768.6.249 2.024-.821 2.207.17-1.325-.266-8.592.353-9.164.135-.079-.031.395-.366.286-.404-.085-.03-1.75.087-1.974-.032-.134-.07.598-.286.535-.401-.054-.082-2.139-.17-2.248.237.507-.175 1.947-.067 1.202.292-.096.045-.605-.204-.721-.148-1.081.522 2.182.325 2.687.318-2.039.564-5.226.032-7.594.424-.968-.314 1.411-.549.318-.802-2.268-.525-.588.48-.657.525-.552.353-2.502-1.424-2.47-.037-.823-.19-.562-.37-1.711-.161l.462.277c-1.261.834-4.019-1.128-3.82-1.288.536-.426 1.963.185 2.083.167.178-.027.637-1.446 2.62-.235.777-.962-3.11-.563-1.353-1.248-1.194.134-6.133-.406-6.831.025-.084.056.333.987-.895.538-.583-.215.809-.259.54-.467-.829-.638-11.875.046-13.974.13-.136.005-.093-.288-.227-.282-.411.018-1.901.489-2.64.372 1.538.504-1.424.617-2.179.575-1.147-.063-1.088-.579-1.585-.676-1.915-.376-4.838.914-6.345-.19.108 1.129-2.573-.494-3.774-.476-.941.015-2.289.796-1.008 1.222-1.626-.014-3.33.238-4.852.343-.252.017.087-.325-.342-.285-.039.006-.085.335-.453.378-3.04.359-1.574-.373-2.149-.565a3.3 3.3 0 0 0-.732-.173c1.774-.106 3.819-.284 4.367-.306-.485-.713-3.932.233-4.953.062-.035-.006.078-.408.042-.41h-.002c-.381-.022-2.802.183-2.292.647.137.124 1.253.097 2.576.023-.356.098-.078.538-.141.559-.761.239-2.65-.153-3.317-.196-.153-.009-.135.277-.16.278-.607-.05-.378-.874-.98-.016-1.121-.993 2.053-.2 1.815-.857-.183-.505-7.18-.065-7.14.738-.027-.086-.125-.19-.326-.306-.444-.26-2.392-.129-2.725.027-.056.03-.014.81-.085.818-.175.022-2.573-.532-3.452-.05l1.45.293c-2.902.076-2.448.297-1.476.507.049.001.097.03.143.032.753.154 1.718.297 1.734.358.061.233-4.86.481-3.93-.264.13-.102 2.415.165 1.275-.323-.199-.086-1.659.096-1.737.04-.523-.365 2.66-.943 2.256-1.47-.763.529-1.764.283-2.651.437-.403.069-.493.462-.543.47-.743.12-.334-.3-.583-.283-.134.01-1.583.917-1.334-.292-4.823 1-1.319.916 1.651.777-.929.46-2.775.292-3.598.413-.296.044-.11.441-.609.533-1.027.19-5.958-.154-7.242-.232.784-.16.543-.591-.064-.547-.607.045-.083.616-.2.681-.125.068-2.982-.139-3.455-.052 2.141-.262 1.647-.686-.176-.689l.781-.395c-1.063.202-3.324-.41-3.937-.197-.096.034.261.392.207.412-.538.168-2.388-.162-2.471-.035-.07.106.723.395.435.553-.06.033-.83-.444-1.573-.305-.275.052-.1.394-.17.416-.577.18-.248-.411-1.308-.292-.776.088-1.342.672-2.422.508 3.548.643.573.41-.898.666-.236.04-.018.664-1.439.392 2.981-1.209-.872-.58-1.663-.574-.043-.003-.068-.417-.456-.415-.033.002.021.28-.339.31-3.414.285-1.236-.084-1.892-.345-.279-.111-1.932.325-2.38.345-.103.003-.062-.289-.46-.268-.705.038-1.329.363-1.793.398-.054.003-.068-.456-.946-.286-.247.047-.521.217-.166.34 1.178.407 3.375-.397 4.706.005 1.213.366-2.582.494-2.779.5-.073.004.663-.242-.091-.269-.644-.022-1.8.8-2.763.65-.073-.012-.855-.666-.821-.706.032-.03 1.204-.204 1.029-.395-.021-.021-.768.001-.869-.142-.124-.173-.487-1.897-.648-1.937-.412-.097-.136.291-.402.27-.569-.044-2.552-.51-2.602.092l.98.084c-1.81.105-1.032.342-1.286.46-.273.129-.208-.4-.82-.436-.133-.007-2.685.164-2.633.384 1.404-.386.896.278.962.288.248.037.555-.336.888-.337 2.336.002-.005.635.55.77.191.046.561-.275.642-.261.263.045.277.454.451.417.405-.087-.084-.654-.052-.685.355-.37 1.792.046.919.697.539.214.583-.553 1.013-.257.854.586-.408.46-.747.569-1.215.392-1.585.107-3.314.248-.623.05-1.353.44-1.642.467-.182.018-1.934-1.235-1.936.79-.674-.18-1.756-1.488-2.443-1.41-.618.07-.404.78-.461.81-.088.046-.837.007-1.088.114-.294.127-.14.397-.607.52-1.165.303-1.152-.428-1.273-.473-1.41-.515-.774.51-1.082.6-.287.084-4.341-.22-5.186.063l1.028-.464c-.63-.44-1.27.319-1.301-.499-.094 1.323-1.395.471-1.779.515-.151.017-.134.242-.323.256-.74.057-2.415-.082-2.814.041-1.726.533 2.737 1.244 3.088 1.285-.7.002-4.655.392-2.819.983.284.09.769-.512.926-.538 1.067-.178.238.371.323.42.144.077.836-.451 1.024-.395.062.019-.326.507.695.493-.49.477-3.368.166-3.742.285-.133.042.73 1.014-1.747.108l.092.275-4.098.211c.144-.215.901-.66-.063-.547-.555.066-.132.529-.183.544-.496.142-9.339.195-11.05.289-.583.03-2.198.45-2.321.46-.74.055-3.368-.13-3.89-.064-.326.042-.006.43-.298.419-.272-.011 0-.4-.08-.414-.671-.123-5.729.499-6.94.167.738.09 4.39-.76 4.31-1.028-.017-.036-.916-.306-1.096-.16-.312-.323-1.332.709-1.905.525-.065-.021.175-.592-.841-.67-.35-.028-1.254.435-2.186-.037-1.326.269-8.347-.297-8.813.321-.013.033.978.218.318.483-.878.353-.11-.782-1.144-.853-.156-.011-3.025.17-3.118.241-.855.647 1.661.84 1.628.914-.084.186-2.166.346-2.252.305-.082-.043 1.6-.913-.437-.55l.71.281c-.957.216-1.062-.356-1.296-.385-.727-.094-1.489.796-2.674-.253-.314-.278.188-.608.149-.65-.378-.375-.824.665-1.396-.09-.043-.056 1.235-.546-1.018-.494l.47.21c-.313.172-2.592.324-2.9.292-.9-.092-.13-.639-1.03-.554.595.71-2.143.87-2 .243-.364.791-2.706.243-3.801.25-.69.006-2.091.381-2.311.346-.269-.042-.2-.578-.686-.685-.138-.031-1.565.395-2.84-.128-.246-.1-.781-.994-.332-1.231.768-.406 2.256.288 2.224-.246-.035-.572-2.008-.184-2.543-.246-2.47-.287-1.063-.93-1.13-1.113-.176-.443-1.52-.397-1.577-.436-.237-.174.708-.55.715-.824.01-.356-1.303-.967-1.01-1.094.417-.18 1.622.326 1.696.299.976-.369-.392-1.158-.773-1.553-.116-.122.328-.336.234-.37-1.438-.52-.273 1.161-1.224 1.07-.848-.082.228-.648.195-.677-.043-.031-1.055-.037-1.218-.224-.08-.094 2.523-1.207 2.402-1.675l-2.508.371c-.08-.612 1.136-.19 1.26-.255.248-.133-.46-.428-.435-.622.014-.124.825-.585.078-.748-.256-.057-.782.386-1.722-.032 3.222-.638.972-.93.871-1.145-.098-.216 1.434-.764-.439-.63-.11-1.192.032-.378.56-.6.646-.274-.872-.632 1.52-.39-.149-.556-2.065-.471-2.167-.514-.089-.038.33-.323.177-.413-1.823-1.038-.577-.574-1.114-1.252-.048-.06-1.753-.276-.462-.407 2.352-.24 3.355.53 3.71-1.174-1.76-.695-3.845.45-4.374.48-.81.046.022-.32-.08-.414-.036-.03-.734.015-.744-.012-.53-1.281 3.11-.096 4.24-.348l-.927-.559 1.24-.052c-1.979-.343-.074-.146.392-1.205.105-.238-1.179.197.28-.492-1.09-.125-.749-.347-1.727-.029.015-.42 2.22-.946 3.09-1.182-3.1-.398-1.302 1.099-3.991.348-.483.531.789.4.687.488-.366.317-1.251-.151-2.28.954-.168.182.572.71-.504.71-.119-.001-.815-.452-.806-.486.082-.367.763-.247.787-.4.023-.145-.731-.04-.735-.08-.034-.457.627-.19.529-.33-.213-.308-2.957-1.228.6-1.024-2.936.588-.365.514.779.288.291-.057.36-.332.774-.437.534-.135 1.166-.02 1.442-.076.298-.062-1.415-.668 1.044-.534-1.264-.613-3.455.125-4.693-.297-2.498-.854 1.7-1.15 2.136-1.248.116-.027-.284-.387-.207-.412.126-.037 2.516.077 2.744-.235.227-.31-.874.035-.955-.281-.055-.213 2.813-.662 1.252-.772-1.076-.075-3.034.834-3.39-.084l4.732-.343-2.618-.995c1.77-.154 3.31.207 4.982-.337-4.071-1.033 1.292-.933 1.347-1.072.018-.082-1.596-.96-1.856-1.122 1.402-.386 5.685-.66 3.15-1.733.461.245 1.548-.412 1.533-.46-.152-.496-2.549-.115-2.167-.575.442-.535 1.095.16 1.793.087 3.58-.381 2.534-2.968 6.14-2.64l-.221-.274 11.74.164c1.51-.833 5.569-1.415 7.57-1.375.404.008 2.39.379 2.541.449.28.134-1.238.224-.545.47.146.051 3.496.147 3.247-.293-.377-.043-1.545.21-1.74.109-1.367-.718 8.965-.364 9.468-.679l-.695-.418zM26.055 40.466c-.38.457-1.367.144-1.942.283-.796.195-2.113 1.95-1.57.21zm17.174.258c-.793-.221-.206-1.2.45-.815.072.044.622 1.113-.45.815m-8.264-.26a7 7 0 0 1 .738.01c.62.372-1.434.342-.738-.01m39.855-1.445c-.866.062-.217.924.313.55.034-.023-.256-.553-.313-.55m-.617-.008c-.693-.77-2.012.854-.937.668.104-.019.969-.631.937-.669m-33.79 1.397c.082-.303.897-.177 1.246-.114-.003.275-.906.072-1.245.114M61 39.834c.028-.237-2.794-.157-2.978.16.442-.144 2.95.053 2.977-.16m7.23-.505c-.073-.039-1.046.047-1.013.255.483.262 1.34-.077 1.013-.255m14.386-.328c.052-.054-.71-1.365 1.04-.532.258.122-.64.49-.55.536.192.089.342.129.462.133-.803.13-1.639.202-1.722.123-.389-.372.747-.238.77-.26m7.53-1.17c.16-.22 1.223-.13 1.466-.046.042.016-.125.59.352.535.382-.044-.204-.614.544-.538.757.076-.24.515-.174.543.089.037 1.25-.253 1.222.087-.021.252-1.276.112-1.584.173-.394.078.096.485-.568.411-.417-.046-.204-.788-.293-.823-.074-.028-1.517.43-.964-.34zm-6.36 1.27a.5.5 0 0 1-.218.038zm-55.464.988c.415.217-.793.537-1.26.25-.014-.239 1.194-.284 1.26-.25m56.197-1.605c1.201.155.327.43-.734.617.335-.147.33-.67.734-.617M50.54 39.599c.051.054.086.139.093.28-.136-.151-.15-.233-.093-.28m2.798.185c.947-.451-.997-.388-.978-.081.009.115.94.099.978.08m22.595-.75c-.089-.04 1.24-1.365-.711-.348 1.057.128-.052.295-.032.408.05.325 1.814-.03 2.21.1.292-.59-1.175-.028-1.465-.16zm27.83-1.213c-.231.347-.995.255-1.509.247.232-.347.995-.255 1.509-.247m134.415-3.152c-3.512.4-4.001-.98-.767-.507.063.01.978.361.767.507m-30.214.36c-.346-.599.749-.722 1.476-.49.164.053.782.653.096.789.004-.735-1.067-.99-1.572-.3m-122.78 3.05c.34-.412 1.42-.15 1.986-.103-.337.341-1.482.218-1.985.104m141.412-3.86c-.372-.036-.61.497-.545.54.291.193.975-.25.545-.54M81.721 38.1c-.055-.24 1.36-.506 1.474.088-.305-.036-1.435.063-1.474-.088m21.07-.436c-.223-.118.914-.365 1.263-.251-.022.257-1.116.327-1.263.25m117.837-3.122c-.333-.038-1.163-.032-1.25.183-.108.27 1.107.15 1.25-.183m61.802-1.932c.044.095-1.225.815-1.801.654-1.093-.308 1.754-.72 1.801-.654m-52.328 1.255c1.059.477-.115.019-.057.546.706.002 2.46-.014 1.242-.504-.237-.095-.856-.015-1.185-.042m-.971-.153c-.108.173-.85.73-.198.676.301-.026.773-.636.198-.676m45.34-.678c-.95-.445 3.361-.296 3.486-.218q.099.064.136.116c.154-.152.967-.198 1.07.174-.245-.025-.91.024-.988-.016a.3.3 0 0 1-.076-.049c-.28.332-3.446.078-3.628-.007m-7.144-.31c1.058-.716 1.277.452 1.185.492-1.158.507-.416-.375-.453-.415-.083-.065-.905.356-.728-.078zm5.678.152c.043-.016.946-.001.984.016.749.377-1.806.337-.984-.016m-177.186 4c.648.102.025.548-.408.403-.036-.014-.165-.492.407-.402m132.799-3.036c-.152-.078-3.989-.294-3.744.352.324-.085 4.686.147 3.744-.352m-28.629.524c.676-.011-.046.62-.412.4-.135-.082.242-.397.412-.4M79.792 37.587c-.694.354-.576-.781.042-.408.024.015-.015.394-.042.408m125.602-3c-2.321.428-1.815-1.532 1.229-.947l-.278.267c3.502.209.242.131-.611.26-.325.05-.044.369-.338.423zm-8.958-.177c-2.276-1.329 2.028-.53 3.252-.74-1.177.6-2.729.55-.607 1.084-3.08.186-1.81-.395-1.934-.437-.147-.048-.614.15-.711.093m5.918-.15c.128-.043 1.112.215 1.463.16-.481.484-2.318.135-1.463-.16m57.504-1.04c.072-.371.266-.648 1.041-.528-.234.191-.723.363-1.041.529m-234.59 5.317c-.532-.014-1.593-.128-1.26.253.037.032 1.263-.035 1.26-.253m192.218-4.733c-.114-.043-3.036-.003-2.017.38.307.117 2.964.001 2.017-.38m15.127-.313c-.245.002-1.236.095-1.255.183-.06.304 1.155.109 1.255-.183M22.58 38.22c-.071-.036-1.692.07-1.51.246.347.331 1.752-.119 1.51-.245m75.568-2.268c.135-.017.324.38.37.384.111.003 2.59-.21 1.654.328-.157.09-3.732-.023-4.198-.063-.193-.547 1.345-.059 1.715-.124.065-.013.096-.475.458-.523zm165.718-3.218c.101-.353 3.013-.655 2.99-.23zm-1.484-.023c-.628-.233.828-.35 1.26-.25.01.235-1.168.284-1.26.25m-35.335-.4c-.291.093.623.583.423.687-.127.065-.787-.11-.992.054-.058.053.621.518.814.492.274-.034-.001-.406.298-.416.995-.032 1.883.217 2.816.189.084-.004-.575-.255.143-.269.111-.002.787.38 1.645.3 1.869-1.278 3.291-.1 5.689-.602-.094-.114-1.902-.383-2.009-.392-2.018-.155-5.624-.091-7.733-.043-.541.011-.272.266-.505.281-.184.012.024-.477-.589-.28m-201.504 5.95c-.264-.476-1.145-.15-1.713-.16.21.43 1.157.067 1.713.16m223.73-5.612c-.284.025-1.169-.099-1.238.048-.089.192 1.185.282 1.238-.048m-137.127 3.107c.027-.014.712-.004.738.01.62.373-1.433.342-.738-.01m16.36-.297c.517-.072 1.037-.235 1.221.153-.332-.053-1.275.121-1.221-.153m22.568-.549c-.119-.51 1.45-.215 1.745-.176-.103.23-1.658.544-1.745.176m108.633-3.298c.955.008.735-.764 1.349-.427.1.057.459 1.667-.605 1.086-.191-.104.538-.506-.744-.659m-52.59 2.031c.234-.345.995-.262 1.508-.247-.109.255-1.144.215-1.508.247m-187.476 4.26c-.46-.469-2.519-.064-2 .24.074.04 1.71-.252 2-.24m67.934-1.43c.842-.397-.923-.472-1.47-.09.25-.03 1.413.117 1.47.09m58.072-1.712c.04-.017.943-.002.984.016.748.376-1.806.336-.984-.016m-22.535.204c.318-.318 2.461-.119 2.947.18-.45.465-3.341.217-2.947-.18m132.674-3.038c.68-.033 1.328.048 1.957.167-.125.264-1.881.026-1.957-.167M148.957 34.65c.049.001.097.03.143.032zm91.588-2.543c-.573-.09-.443.386-.408.4.433.145 1.056-.299.408-.4m-215.67 5.46c-.209-.427-1.16-.069-1.715-.159.169.338 1.27.215 1.715.16m169.138-3.985c-.728-.451 2.175-1.065 2.797-.778.052.289-2.691.84-2.797.778M84.918 35.89c-.066-.337-1.28.1-1.016.254.167.098 1.055-.044 1.016-.254m113.363-2.922c.271-.11.918.209.698.418-.283.268-.768-.387-.698-.418m24.575-.857c-.121-.05-1.724.337-1.05.666.468.23.53-.262.638-.266.121-.001 2.722.536.412-.4m-45.183 1.566c.605-.145 1.344-.011 1.979-.036-.254.216-1.713.308-1.979.036m-88.035 2.01c-.151-.133-4.175-.12-1.88.247.134.02 2.338.157 1.88-.247m170.069-4.073a2.5 2.5 0 0 1-.422-.043c.161.01.3.03.422.043m-10.839.207c.214-.251-.894-.29-1.217-.152-.094.304 1.188.188 1.217.152m-69.175 1.475c.363-.15 1.032-.015 1.485-.042-.071.231-1.321.272-1.485.042m-25.746.355c.731.12 1.625.035 1.633-.245q.023.066.112.134c.06.045.837-.104 1.178-.016 2.041.52-7.824.52-2.128-.408zm-33.742.725c-.421-.332-1.568.123-1.264.25.211.088 1.686.083 1.264-.25m15.892-.58c-.125-.059-1.249.207-1.274.387.654.174 1.843-.118 1.274-.388m-19.077.256c-.261-.046-.578.512-.547.536.268.194.99-.24.547-.536m140.675-3.873c-.389-.148-1.61.28-1.869.65-.051-.07-.188-.158-.437-.262h.002c-.336-.14-10.279-.063-3.595.478.209.017-.084-.302.767-.265.056.003.091.269.264.278.4.018 2.529.135 2.951-.09.005.05.033.096.093.138.533.372 2.126-.812 1.824-.927m-119.36 3.514c-.229-.093-.947.018-1.016.254.36.107 1.549-.036 1.016-.254M89.49 34.725c-.468-.182-1.633.207-1.274.39.22.113 1.813-.181 1.274-.39m41.64-.736c2.663.215.634-.037 1.032-.392zm138.878-3.213c-.426-.07.056-.762.531-.404.149.114-.293.44-.531.404m19.117-.667c-.376-.595 1.398-.282.72.148-.032.014-.693-.126-.72-.148m-13.368.072c-.278.417-.464.47-1.276.388 1.196-.144.076-.48 1.276-.388m-120.186 3.18q.008.022.009.044a.1.1 0 0 1-.009-.044m-41.045.856c-.341-.34-1.272-.292-.986.051.027.032.855.21.986-.05m141.3-3.39c.046.061.024.102-.048.14q-.006-.067.048-.14m-136.304 2.988c-.027.26 1.393.327 1.449.295.803-.47-.864-.325-1.449-.295m-39.417.768c-.073.03.415.688.698.418.219-.209-.427-.527-.698-.418m198.398-4.635c.449-.01 1.081-.026 1.205.29-.302-.042-1.209-.056-1.205-.29m9.921-.26c-.522.387-1.734.415-2.51.372-.026-.492 2.015-.244 2.51-.372m-29.506.645c-.038-.02-1.167-.14-1.006.187.236.477 1.328-.015 1.006-.187M82.3 34.887c.498-.24-.677-.91-1.196-.358-.266.283 1.112.398 1.196.358m29.305-1.056c-.66.206.995.507 1.217.157-.306-.02-.982-.23-1.217-.157m22.603-.887c-2.118-.944-.934.842-.567.674.052-.024.618-.652.567-.674m-119.81 3.097c-.294.145.823.619.958.286.084-.208-.771-.379-.959-.286m151.358-3.202-.262.016a.8.8 0 0 1 .262-.016m-60.215-.196c1.508 1.368 1.327.29 1.456.293.277.009.929.373 1.449.298l-1.781.517c.474.09 4.587.509 4.667.28.116-.328-1.172-.195-1.21-.223-.055-.04-.278-.935-.399-.967-.198-.05-3.627.013-4.182-.198m24.291.561c.34.1.444.454.598.365.053-.03.053-.371.233-.464zm-26.9.764c-.427-.406 1.447-.293 1.508-.248.327.275-1.159.58-1.508.248m15.875-.439c-.069-.022-1.509-.118-1.492.112.384.168 2.306.173 1.492-.112m12.08-.452c.506.027 1.468.347 1.347-.163h-.002zm-46.889.686c-.955-.794-.487.227.347.47.243-.372-.19-.34-.347-.47m-3.008-.538c-.264-.14-2.942.085-2.522.507.149.15 1.682-.275 1.753-.246.11.041-.371.53.449.417-.052-.161.41-.63.32-.678m2.221.034c-.944-.6-1.126.551-.427.538.274-.005.562-.452.427-.538m3.8.007c-.337-.1-1.232-.238-1.837.157l2.468.04c.09-.219-.336-.109-.633-.197zm206.93-6.646c-.746-.307.952-.472 1.026-.394.22.26-.692.531-1.026.394M8.38 25.774c-.208-.124-.352-.547-.799-.313l1.386.91c.336-.728-.36-.46-.587-.597m-1.798-2.59c.064-.02-.313-1.12.534-.4.572.487-2.463 1.046-3.025.568.603-.243 1.942-.013 2.491-.169m-5.45-4.67c-.038-.087 1.117-.244 1.252-.185.712.312-1.051.655-1.252.186m3.697.124c-.548-.202.652-.37 1.013-.254.04.206-.928.284-1.013.254m281.249-7.884c-.605-.739-1.092.895-.196.546.043-.016.222-.51.196-.546M2.237 17.37c.548.203-.652.37-1.013.255-.038-.206.93-.284 1.013-.255m283.385-8.4c-.793-.523-.475 1.289-.376 1.36.409.28 1.769-.467 2.046-.65-2.055.321-1.296-.463-1.67-.71m-3.572 1.178c-.719.211 1.139.538 1.48.023-.359.033-1.276-.084-1.48-.023m-4.407-.479c-.39-.055-1.551-.184-1.739.107.424-.062 1.582.192 1.739-.107m-.901-.836c-.618-.374-.736.762-.043.408.027-.014.066-.387.043-.408m-3.429-.327c-.41-.441-.839.666-.192.68.192.003.235-.63.192-.68m11.286-1.469c-.576-.18-1.293.624-.071.68l-1.277.392c1.608.402 1.465-.685 1.925-.65.643.048.613.948.491 1.234.513-.564 2.746-.626 4.034-.761-1.14-.204-2.99-.561-4.113-.681-.321-.035-.625.219-.898.198-.438-.035-.059-.4-.089-.412zm-15.782 1.56c-1.185-.483-.417.601.241.389.028-.016-.211-.378-.241-.39M.602 14.06c1.578.423.453 1.06 3.71.055-1.362.69-.066.474-.328.745-.21.215-1.023.06-.543.47-.629-.443-3.306-.253-3.427-.324h.003c-.073-.043.081-1.081.585-.947m276.967-7.271c-.423-1.328-.526.798-1.321-.292-.986 1.633 2.828-.067 3.327 1.28-4.187-.058 2.796 1.281-.173-.683 2.424.68.783-.271 1.148-.54.391-.285 1.759-.017 1.678-.513h-.003l-2.494.164c.84 1.054-.868.773-1.466-.089zm4.735.896c-.083-.023-1.889.17-1.767.384.245.131 2.81-.095 1.767-.384m7.962-.425c-.65.013-1.66-.172-2.005.241.65-.013 1.66.173 2.005-.24m-33.473.72c-.82.353 1.733.39.986.014-.037-.017-.945-.03-.986-.013m18.897-.944c-.853-.389-.423.902.192.548.036-.02-.153-.53-.192-.548M1.868 13.87c.048-.32 2.327-.15 2.73-.162-.222.301-2.786.529-2.73.162m289.513-7.83c-1.32-1.115-3.044.25-3.237.226-.192-.025.096-.533.052-.545-.1-.026-2.137.065-2.235.102-.07.029.316.724-.1.955.811-.419 4.543-.258 4.735-.34.148-.066-.999-.778.783-.398zm-3.722.084c.516.283-.911.354-1.259.253-.773-.225 1.193-.286 1.259-.253m-3.44-.19c-.165-.062-1.638-.087-1.755.244.706.41 2.128-.098 1.755-.244m-16.374.434c-.382.051-1.439-.176-1.492.112.382-.05 1.438.177 1.492-.112M9.565 11.182c-.64-.225.828-.358 1.26-.253.028.19-1.205.272-1.26.253m265.916-6.887c-.228-.082-4.839.246-5.484.396.639.202 5.214.11 5.42-.002.06-.033.094-.38.064-.394m9.982-.37c.413-.433.701.068.755.073.525.052 1.608-.07 1.38.343-.928-.142-2.958.443-2.135-.416m-17.992.54c-1.564.194 1.458.568 1.052.135-.026-.026-.89-.155-1.052-.135m8.523-.305c.338-.35 4.963-.166 5.704-.183-.649.646-1.195.18-2.086.234-.241.015-.17.275-.196.276-.417.022-.112-.288-.369-.286-.163.002-3.528.451-3.053-.041m9.703-.534c.253-.248 3.134-.42 3.251-.358.88.458-3.025.437-3.251.358m-10.14-.016c.479-.744 2.785-.308 1.224.094-.149.037-.792-.266-1.224-.094m-7.935.154c-.078-.02-1.716-.127-1.739.106.238.085 2.622.11 1.739-.106m.828-.808c-.039.007.355.446-.413.407-.064-.003-.195-.505-1.154-.298-.194.043-.489.384-.467.404 1.022.769 4.007-.82 2.034-.513m17.29.26c-.16-.21.2-.85.545-.538.148.135-.113.52-.545.538m-23.306.467c.941-.406-2.043-.408-2.193-.306.102.237 2.099.346 2.193.306M10.981 8.187h-.002c.802.068.314.398.352.407 1.713.428 1.245-.283 1.509-.375.566-.198.495.683 1.45.296-1.58.576-.136.316-.083.627.208 1.271-2.134-.547-2.921-.26-.11.04.716.427.436.55-.912.397-3.815-1.505-.74-1.245m275.564-5.571c.361-.384 3.182-.087 2.444.24-.119.052-2.976.319-2.444-.24M155.155 5.19c.668-.34-.907-.684-1.192-.425-.141.13.899.574 1.192.425m-11.016-1.126c-.802.085-1.616 1.458-.622 1.224.106-.025.718-1.038.622-1.224m52.756-.56c-.851-.464-.779.433-.164.406.217-.01.19-.392.164-.407m-32.006.878c-.085-.03-1.053.05-1.013.256.362.116 1.561-.054 1.013-.256m32.269-1.013c-.493.174.378.803.971.154-.308.06-.92-.171-.971-.154m76.619-1.703c-.407.379-1.588.295-2.263.375-.085-.476 1.782-.277 2.263-.375M147.561 4.528c-.752.355.883.592.723.15-.021-.024-.693-.165-.723-.15m76.387-1.844c-.546.298 1.218.64.723.15-.024-.02-.693-.167-.723-.15m7.667-.018c-.422-.086-2.209-.014-1.507.248.109.04 1.481.014 1.507-.248M12.879 7.874c-.238-.485 1.076-.4 1.266-.318.075.034-.956.95-1.266.318m178.567-4.317c-.432.072-1.561-.018-1.753.244.53-.065 1.908.266 1.753-.244m-40.418.886c-.675-.517-1.805-.438-1.509.252 1.249-.076-.169-.622 1.509-.252m48.911-1.713c-.349-.032-.6.643-.56.673.384.291.912-.421.56-.673M173.84 3.902c-.027-.285-1.14-.129-.986.052.05.06 1.008.18.986-.052m85.325-2.05c-.518-.249 1.037-.54 1.506-.247.235.433-1.441.276-1.506.247m-49.572.815c.041-.425-1.696-.144-1.001.192.174.084.986-.05 1.001-.192m16.678-.906c-1.157.534 3.762.776 2.457.177-.094-.043-2.356-.222-2.457-.177m8.028.125c-.203-.05-.137-1.479.712-.949.111.069-.393.458-.301.542.054.048 1.874.205 1.957.17.089-.04-.028-.495.062-.548.102-.06 1.229.315 1.814.305 1.103-.018 1.213-.402 1.304-.405.263-.009.713.25 1.247.238 2.692-.068 6.803-.488 8.956.268-1.907-.279-3.709.108-5.596.258.534-.807-2.766.678-.838-.284-.893.22-8.652.564-9.315.405zm-93.34 1.855c.482-.498-2.047-.328-2.248.24.336.07 2.188-.183 2.248-.24m11.652-1.465c.233-.09.434-1.046 1.678-.593h.003c.364.132-.041.374.027.455.025.033 1.16.48.229.578-1.422.15-.151-.705-.911-.697-.093.002-1.517.55-1.431.662.009.013.439-.106.511-.061.274.17.15.47.188.484.125.033 2.386-.527 2.727-.093.111.14-3.612.557-3.759.487-.093-.045-.074-.87-.171-.95-.05-.039-1.543.306-1.739.235a1 1 0 0 1-.133-.062c.233.25-1.126.264-1.091-.025.02-.114.957-.07.991-.052.015.008.028.02.04.027-.201-.306 2.966-.367 2.271-.814.912-.275-.114.682.57.419m4.4-.614-.278.267c1.601-.25 3.465.123 5.316.076.47-.012-.083-.53.536-.399.496.105 1.054.584.788.7-.065.029-1.076-.268-1.578-.223-1.482.133-1.096.579-1.182.593-.096.015-1.037-.283-1.547-.256-1.281.067-1.86.36-3.621.037 1.004-.324.435-.962 1.566-.795m59.915-.457c.054-.288 1.112-.059 1.493-.11-.054.289-1.112.059-1.493.11M60.227 4.564c-.312.478 2.112.536 1.465.16-.144-.083-1.16-.164-1.465-.16m10.882.027c.32-.138-.992-.445-.98-.081.004.116.938.099.98.08m106.683-2.96c.061-.016.954.067.982.09.602.485-2.336.267-.982-.09M84.314 3.698c-1.121.334 2.28.387 1.232.019a15 15 0 0 0-1.232-.02m4.72-.199c-.27.023-1.475-.101-1.487.043-.019.231 1.36.357 1.487-.043M200.132.95c-.143-.526 1.45-.163 2-.243.143.527-1.451.163-2 .243m-10.01-.152c6.669-.576 5.224.59-.392.267-.016-.339-.029-.23.392-.267m8.554-.14c-.234.344-.995.262-1.508.247.086-.238 1.14-.178 1.508-.248M57.328 3.904c.408-.438 2.276.046 1.95.23-.076.04-2.099.01-1.95-.23m121.012-2.74c-.168-.512 1.843-.35 1.999-.239.63.446-1.84.121-1.999.239M209.6.271c.344-.412 1.355-.229 2.002-.239-.286.352-1.453.233-2.002.239m-4.678-.205c.04-.017.943-.002.984.016.749.376-1.806.336-.984-.016M9.781 4.34c.03-.014.714-.004.738.01.62.373-1.433.343-.738-.01"/></svg>