<svg width="295" height="43" viewBox="0 0 295 43" fill="none" xmlns="http://www.w3.org/2000/svg">
<path d="M23.4459 41.7928C23.627 41.7402 24.363 41.8401 24.6798 41.8122C24.3322 42.3314 22.7927 41.9837 23.4459 41.7928ZM55.1178 3.93939C54.8575 4.0719 54.5972 4.2044 54.3368 4.33691C55.0871 4.40111 56.0908 4.28451 56.7881 4.38781C56.9021 4.40523 56.6162 4.77774 56.8853 4.78765C57.1545 4.79747 57.0908 4.29922 57.4805 4.23649C57.9176 4.16764 59.9339 4.4678 60.6291 4.4428C63.2292 4.34716 65.8456 3.99945 68.4567 4.14485C65.775 4.57844 68.4951 4.88999 69.2449 4.7119C69.411 4.67084 69.3622 3.7429 72.0671 3.91243C73.7862 4.01996 72.2333 5.38522 75.0801 4.652C72.8567 3.77571 75.0229 3.78926 76.7478 3.7173C77.0451 3.70475 79.4509 3.78708 80.5111 3.72068C80.8739 3.69773 81.4155 3.19817 81.8968 3.17394C82.2281 3.15763 82.4851 3.41757 82.9769 3.39231C85.2699 3.27775 87.5258 3.20335 89.8264 3.23853C88.513 4.52042 90.8933 3.74612 91.0024 3.80332C91.558 4.12964 89.0838 4.28521 90.0683 4.47414C91.4361 4.40283 92.8039 4.33152 94.1717 4.26021C93.0447 4.13349 95.6338 3.17226 96.124 3.56979C95.8862 2.47036 102.385 4.38255 103.358 3.99034C103.561 3.90756 102.209 3.39357 105.32 3.56935C105.657 3.58909 105.538 3.92535 105.714 3.89009C105.819 3.8689 106.433 2.79454 107.128 3.36359C107.382 3.57128 105.807 4.30478 109.295 3.94198C107.877 2.89712 114.126 3.24281 115.28 3.48564C115.048 3.34627 114.815 3.20691 114.582 3.06755C115.726 3.43122 115.922 3.05983 116.178 3.07372C117.21 3.12943 118.634 3.46508 119.593 3.40853C120.714 3.34302 120.702 2.67253 122.017 2.90215C121.703 2.76162 121.389 2.6211 121.075 2.48057C121.98 2.49467 122.884 2.50878 123.789 2.52288C121.717 3.46015 124.242 2.55447 124.409 2.53137C124.675 2.49271 124.3 2.86516 124.746 2.80928C124.792 2.80073 124.717 2.4602 125.405 2.40536C126.844 2.29196 126.626 2.72754 127.231 2.70827C127.286 2.70474 127.085 2.40114 128.127 2.30336C131.441 1.99221 128.116 2.53995 127.99 2.58558C127.824 2.64576 128.993 3.90671 126.163 3.51711C127.113 3.63997 127.222 4.20769 127.329 4.2193C127.423 4.22869 129.061 4.10935 129.151 4.08756C129.953 3.87481 129.234 3.5022 129.39 3.42865C129.517 3.36932 131.505 3.82988 131.94 2.64728C132.912 3.70541 131.42 3.64186 129.838 3.84571C129.612 4.07298 131.358 4.24715 131.45 4.24438C133.696 4.18894 132.431 3.32965 132.909 2.74976C133.159 2.44632 134.089 3.03097 133.225 2.25404C135.262 2.12138 134.036 2.61267 134.17 2.67789C134.371 2.77359 135.079 2.52817 135.169 2.55647C135.301 2.5984 134.852 2.8852 135.371 2.9701C135.457 2.98219 136.278 2.4875 135.199 2.28608C136.635 2.31944 136.507 1.91734 137.013 2.72177C137.964 1.15444 137.752 3.61724 138.143 3.69449C139.182 3.89788 138.853 2.69293 138.907 2.63252C139.274 2.24479 142.147 2.59299 142.852 2.40142C142.593 3.28111 140.583 2.465 140.142 2.64496C138.671 3.24376 142.243 3.03165 141.192 4.15424C141.636 3.84222 142.081 3.5302 142.525 3.21819C143.37 3.90375 142.203 4.23926 144.426 3.92846C144.776 3.31103 142.852 4.06213 143.23 3.57336C143.453 3.28648 144.744 3.19527 144.766 3.04629C144.787 2.86709 143.624 3.10656 143.801 2.82749C144.189 2.22513 148.463 2.68802 145.228 3.08876C146.132 3.05709 146.626 4.22505 147.402 3.839C147.903 3.58846 145.011 2.028 149.3 2.22467C149.404 2.77926 147.592 2.42984 147.546 2.47332C147.482 2.53656 147.838 3.78517 147.896 3.84584C148.1 4.04526 152.457 3.26839 153.396 3.87761C153.013 3.16018 156.697 3.66937 157.091 3.4386C157.196 3.37498 156.788 2.93966 156.901 2.88987C157.604 2.59277 159.542 3.34107 160.433 3.34044C161.43 3.34003 161.295 2.95888 161.35 2.95828C161.789 2.96927 161.445 3.23804 161.713 3.23092C162.118 3.22003 164.902 3.20704 165.04 3.14937C165.081 3.13146 164.616 2.70344 165.221 2.60575C165.326 2.58883 165.271 3.11071 167.063 2.84319C169.22 2.52137 165.545 2.23194 166.431 1.66568C167.839 2.40838 167.776 1.64067 168.154 1.69207C168.285 1.71094 169.272 2.34146 170.326 2.27499C169.571 2.39912 168.817 2.52324 168.062 2.64737C168.809 2.74426 170.251 2.56799 170.867 2.68287C171.168 2.73877 170.934 3.2816 171.583 3.25162C171.721 3.24234 172.237 1.92111 170.549 2.54863C170.402 2.08475 171.219 2.36965 171.592 2.22858C171.648 2.20664 171.854 1.42092 172.345 1.89449C172.463 2.01107 171.263 4.31735 174.458 2.59271C174.561 2.53713 174.192 2.26066 174.293 2.19914C174.361 2.15745 175.19 2.25311 175.28 2.21049C175.373 2.16487 174.966 1.86313 175.076 1.79924C175.638 1.47011 176.415 2.68672 175.238 2.62063C175.635 2.76385 176.031 2.90707 176.427 3.05029C175.985 2.12995 177.037 2.77385 177.58 2.73226C181.056 2.46627 178.711 1.91668 179.302 1.58937C180.253 1.06378 179.555 2.67338 180.973 2.16097C181.104 2.11309 179.361 1.4784 182.743 1.77943C182.245 1.81761 181.748 1.8558 181.251 1.89398C181.56 2.787 183.047 1.78946 183.163 1.77407C184.485 1.61898 183.597 1.96469 185.553 1.45449C185.727 1.4087 186.115 1.62167 186.488 1.50196C188.034 1.00851 184.427 1.27393 184.32 0.911975C184.269 0.734582 188.153 0.687069 188.289 0.768659C188.864 1.13091 186.532 0.976066 186.987 1.43197C187.152 1.59374 192.68 1.12177 193.795 1.27685C195.081 1.45756 195.687 2.66386 195.662 1.29282C196.056 2.62981 196.354 1.70412 196.518 1.70948C198.503 1.78686 198.507 1.80036 200.203 1.63105C200.577 1.59411 200.904 1.99484 201.035 1.92273C201.111 1.87926 200.957 1.44578 201.332 1.30196C201.853 1.10503 205.023 1.47919 205.263 1.71513C205.504 1.95106 203.932 1.85163 204.222 2.24204C205.359 2.25514 206.446 2.13096 207.59 2.14559C208.065 2.15286 207.828 2.4366 208.033 2.43724C208.121 2.43858 209.754 2.15479 209.682 2.05392C209.514 1.81941 204.455 2.1002 205.776 1.58203C206.031 1.48192 206.955 2.10075 206.792 1.32538C211.32 1.39425 215.848 1.46312 220.375 1.532C217.79 2.1764 214.853 1.72507 212.132 1.8445C211.759 1.86013 210.496 1.81504 210.659 2.20503C212.976 2.25182 215.849 1.9782 218.078 2.18181C218.149 2.1886 217.896 2.54849 218.164 2.59819C218.665 2.69094 220.273 2.08193 220.549 2.22293C220.597 2.25618 219.685 2.7444 219.972 3.03402C220.711 3.77725 220.854 2.08878 221.474 2.09399C221.953 2.09873 225.191 2.83639 225.981 2.30283C226.82 1.73417 223.601 2.04096 223.828 1.58693C225.999 1.08442 228.22 1.51296 230.28 1.40775C230.317 1.40545 229.993 1.06161 230.452 1.0015C231.25 0.896889 231.472 1.39026 231.864 1.46071C232.286 1.53558 233.77 1.42878 233.973 1.60576C233.999 1.62898 233.71 2.13047 233.664 2.14546C233.022 2.3646 232.777 1.72849 232.718 1.72166C232.496 1.7026 232.284 1.95352 232.082 1.94369C231.749 1.9272 231.561 1.7042 231.121 1.69458C230.818 1.68709 231.121 2.11673 230.829 2.10371C230.721 2.09717 229.543 1.12773 229.459 2.14794C229.433 2.4696 238.889 2.65675 239.827 2.37765C239.014 2.27457 238.201 2.17149 237.389 2.06841C239.04 2.32711 240.996 1.46696 241.165 2.66659C247.266 2.61975 253.367 2.57289 259.468 2.52605C260.559 2.60261 259.98 3.38986 261.766 3.12222C261.298 2.88697 260.829 2.65172 260.36 2.41646C261.282 2.56736 265.359 2.80801 266.014 2.63287C266.099 2.60994 266.2 1.90748 267.216 1.82317C268.117 1.74861 268.274 2.26936 268.759 2.35829C269.166 2.4315 269.617 2.28333 269.738 2.30941C269.831 2.33038 269.875 2.65006 270.098 2.70067C270.803 2.85682 270.214 1.96779 270.934 2.98764C270.765 3.03117 270.597 3.07469 270.429 3.11822C271.278 3.2481 272.444 3.69111 271.204 3.95291C270.991 3.99808 271.167 3.68359 271.008 3.68792C264.756 3.89444 269.764 4.3784 271.944 3.84464C272.517 4.29075 275.665 3.93509 275.772 4.02315C275.921 4.15084 275.39 4.53093 276.105 4.83118C276.255 4.89477 280.466 4.53705 278.962 5.18391C278.652 5.31735 276.627 5.23313 276.14 5.26274C277.31 6.20936 279.965 4.74999 280.268 4.77855C281.491 4.90129 277.945 5.67838 280.696 5.72613C282.81 5.76268 280.811 5.15959 281.617 4.86266C282.07 4.69603 284.478 5.35552 284.391 4.42933C285.209 4.31072 284.741 4.81339 284.843 4.84631C284.942 4.87501 286.549 4.55887 287.078 4.74195C287.142 4.76475 286.953 5.25173 287.02 5.28962C287.149 5.35413 288.703 5.22069 288.764 5.17834C288.804 5.14901 288.423 4.73566 288.573 4.62964C288.747 4.50735 290.247 4.57105 290.327 4.44839C290.439 4.26314 288.594 4.42737 288.89 3.94792C289.745 4.04651 291.126 3.69846 291.679 3.305C291.544 3.41695 290.718 3.45223 290.431 3.42075C290.549 2.72609 292.323 2.69328 291.73 3.25498C292.108 2.9519 291.841 2.80224 292.052 2.5197C292.107 2.44808 292.654 2.42057 292.757 2.29833C292.77 2.27415 292.199 2.02672 292.309 1.88359C292.508 1.62494 294.17 1.64249 294.307 1.70583C294.694 1.88541 293.346 2.14594 293.24 2.44027C293.225 2.48545 294.39 3.02956 294.408 3.07962C294.489 3.61959 293.198 3.25981 293.356 3.74396C293.675 3.83942 293.995 3.93487 294.314 4.03033C293.104 4.55324 290.836 4.35316 290.266 4.92871C292.075 4.71842 293.972 4.69303 293.998 5.95803C294.009 6.49078 293.235 6.82168 293.268 6.95641C293.395 7.43831 294.468 6.88597 294.509 6.91061C294.542 6.93936 294.558 6.96776 294.559 6.99575C294.559 6.99576 294.559 6.99577 294.559 6.99578C294.565 7.27954 293.023 7.52072 292.949 7.65212C292.824 7.88537 293.535 8.81632 293.539 9.02588C293.516 9.06855 292.42 9.31898 292.8 9.67579C293.185 10.0362 294.15 10.0214 294.184 10.0589C294.374 10.2755 292.692 10.5172 292.645 10.6489C292.62 10.7155 293.535 11.0992 293.564 11.2151C293.59 11.3315 292.907 11.603 292.645 11.9786C292.449 12.2576 293.043 12.4538 292.94 12.4992C292.867 12.5295 291.273 12.5628 291.196 12.6128C291.081 12.6869 291.462 13.0057 291.41 13.089C291.335 13.2086 290.818 13.1026 290.888 13.2223C290.94 13.3114 292.962 14.3936 292.957 14.6957C292.946 15.2109 290.805 14.077 292.82 16.0612C292.834 16.0742 293.309 15.9184 293.322 15.9306C293.627 16.2973 292.106 16.9086 293.98 16.7635C290.505 17.4956 293.564 17.5475 293.068 18.4264C292.877 18.7643 291.527 18.9338 291.522 18.984C291.663 19.4034 292.087 19.0654 292.238 19.2691C292.322 19.383 291.122 19.8586 291.401 20.1422C291.545 20.2883 292.829 20.2045 292.883 20.2324C293.398 20.4954 292.781 20.8065 292.898 20.9992C292.975 21.1285 293.751 21.1204 293.771 21.1435C293.805 21.1918 292.765 21.7461 292.55 21.9374C292.387 22.0845 293.018 22.2938 292.903 22.359C292.211 22.7489 290.697 21.8326 292.166 23.1321C292.256 23.2118 292.798 23.1658 292.815 23.1817C293.16 23.5518 292.16 23.6083 291.988 23.9221C291.693 24.4627 293.125 24.1311 291.937 24.5347C292.843 24.8621 293.343 24.8356 294.39 24.7134C291.489 25.0538 290.496 26.4588 293.723 26.3472C292.696 26.3501 292.828 27.1266 292.522 27.1476C292.332 27.1597 290.825 26.4205 291.549 28.1425C291.64 28.3576 292.537 28.0602 292.265 28.5113C290.091 28.4496 292.225 28.7952 292.229 28.8539C292.225 29.8785 286.901 29.1661 285.993 29.3046C284.938 29.4652 284.018 30.2944 283.788 30.3009C283.032 30.3193 283.65 29.8947 283.477 29.7481C283.302 29.6029 281.17 30.4389 281.061 30.3984C280.641 30.2352 281.052 29.7397 281.008 29.7162C280.485 29.431 277.606 29.8799 276.794 29.7863C276.827 30.1006 278.451 30.0869 277.45 30.6169C276.283 31.2347 276.183 29.848 276.15 29.7877C270.742 29.9296 265.335 30.0715 259.927 30.2135C260.012 30.9505 263.534 30.3093 263.617 30.4046C264.103 30.9691 258.13 31.1007 257.391 30.8573C257.951 31.0036 258.512 31.1499 259.072 31.2962C258.142 32.1679 256.012 31.1148 254.646 31.5225C254.205 31.6546 255.066 31.962 255.049 31.9848C254.557 32.3264 253.75 32.0914 254.339 31.6344C253.13 32.0877 253.297 31.6153 252.361 31.6024C252.313 31.6021 252.723 31.9352 251.986 32.0949C251.641 32.1694 249.792 32.2145 249.552 32.5201C249.453 32.6488 250.423 33.9552 250.511 32.8088C252.535 33.3184 251.141 32.2724 251.923 32.28C252.043 32.2832 251.783 32.9281 253.743 32.5808C253.395 33.7409 251.11 32.934 250.724 33.0827C249.931 33.3884 253.245 33.9043 253.829 32.9925C253.567 33.8976 254.066 33.108 254.803 33.1274C255.609 33.1483 255.264 33.4241 255.7 33.4152C256.892 33.3935 256.383 32.7712 257.379 33.3195C256.379 31.5725 259.055 33.0459 259.835 33.4911C258.586 33.6107 257.336 33.7304 256.087 33.85C256.161 33.9412 256.234 34.0325 256.308 34.1237C255.978 34.1184 255.648 34.1131 255.318 34.1077C255.369 34.0174 255.42 33.9271 255.47 33.8368C253.785 34.4563 253.354 33.8154 253.215 33.8114C251.429 33.7784 249.369 33.8331 247.565 33.8739C247.294 33.88 247.494 34.4549 245.51 34.0484C244.878 33.9189 245.461 33.4542 244.749 33.5388C243.886 34.7845 243.88 33.8075 243.614 33.8122C242.853 33.8305 242.395 34.1449 242.325 34.1498C241.386 34.2195 240.007 34.2017 238.975 34.2714C238.956 34.2765 239.502 34.6399 238.829 34.5445C238.592 34.5104 236.44 32.9548 234.605 33.5223C235.088 33.6193 235.571 33.7162 236.054 33.8132C235.485 33.6752 231.535 34.1742 232.514 34.581C233.114 34.8296 234.538 33.76 234.721 34.7516C233.396 34.4851 226.129 35.1039 225.557 34.8861C225.478 34.855 225.952 34.5205 225.843 34.4818C225.758 34.4523 224.093 34.5685 223.869 34.4497C223.735 34.3792 224.467 34.1637 224.404 34.0488C224.35 33.967 222.265 33.8783 222.156 34.2859C222.663 34.1113 224.103 34.219 223.358 34.5781C223.262 34.6228 222.753 34.3737 222.637 34.4302C221.556 34.9523 224.819 34.7555 225.324 34.7475C223.285 35.3121 220.098 34.7796 217.73 35.1724C216.762 34.8583 219.141 34.6231 218.048 34.3698C215.78 33.8448 217.46 34.85 217.391 34.8946C216.839 35.2478 214.889 33.4714 214.921 34.8581C214.098 34.6688 214.359 34.4877 213.21 34.6965C213.364 34.789 213.518 34.8814 213.672 34.9738C212.411 35.8075 209.653 33.8456 209.852 33.6862C210.388 33.2595 211.815 33.8712 211.935 33.8528C212.113 33.8256 212.572 32.4068 214.555 33.6184C215.332 32.6557 211.445 33.0552 213.202 32.3697C212.008 32.5038 207.069 31.9642 206.371 32.3952C206.287 32.4513 206.704 33.3822 205.476 32.9326C204.893 32.7185 206.285 32.6744 206.016 32.4664C205.187 31.8284 194.141 32.5122 192.042 32.5969C191.906 32.6012 191.949 32.3082 191.815 32.3141C191.404 32.332 189.914 32.8029 189.175 32.6861C190.713 33.1899 187.751 33.3025 186.996 33.261C185.849 33.1978 185.908 32.6825 185.411 32.5851C183.496 32.2095 180.573 33.499 179.066 32.3944C179.174 33.5238 176.493 31.9007 175.292 31.9194C174.351 31.9337 173.003 32.7148 174.284 33.1406C172.658 33.1272 170.954 33.379 169.432 33.484C169.18 33.5015 169.519 33.1587 169.09 33.1992C169.051 33.2053 169.005 33.5344 168.637 33.5773C165.597 33.9356 167.063 33.2036 166.488 33.0124C166.166 32.9053 165.93 32.8539 165.756 32.8392C167.53 32.7328 169.575 32.5553 170.123 32.533C169.638 31.8202 166.191 32.7657 165.17 32.5951C165.135 32.5889 165.248 32.1869 165.212 32.185C165.212 32.185 165.211 32.185 165.21 32.185C164.829 32.1635 162.408 32.3685 162.918 32.8324C163.055 32.9563 164.171 32.9295 165.494 32.8547C165.138 32.9525 165.416 33.3931 165.353 33.4137C164.592 33.6529 162.703 33.2614 162.036 33.2184C161.883 33.2091 161.901 33.4952 161.876 33.4965C161.269 33.4459 161.498 32.6222 160.896 33.4803C159.775 32.4873 162.949 33.28 162.711 32.6234C162.528 32.1179 155.531 32.5584 155.571 33.3607C155.544 33.2754 155.446 33.1711 155.245 33.0546C154.801 32.7956 152.853 32.9263 152.52 33.0823C152.464 33.1127 152.506 33.8914 152.435 33.9003C152.26 33.9223 149.862 33.3682 148.983 33.8499C149.467 33.9477 149.95 34.0454 150.433 34.1432C147.531 34.2191 147.985 34.4403 148.957 34.6502C149.006 34.6512 149.054 34.6796 149.1 34.6817C149.853 34.8361 150.818 34.9792 150.834 35.0403C150.895 35.2735 145.974 35.5213 146.904 34.7758C147.034 34.6739 149.319 34.9415 148.179 34.4526C147.98 34.3669 146.52 34.549 146.442 34.4939C145.919 34.1282 149.102 33.55 148.698 33.0222C147.935 33.552 146.934 33.3064 146.047 33.4596C145.644 33.5289 145.554 33.9219 145.504 33.9305C144.761 34.0502 145.17 33.6306 144.921 33.6468C144.787 33.657 143.338 34.5638 143.587 33.3554C138.764 34.3548 142.268 34.2705 145.238 34.1321C144.309 34.5921 142.463 34.4242 141.64 34.5455C141.344 34.5894 141.53 34.9863 141.031 35.0784C140.004 35.2679 135.073 34.9244 133.789 34.8463C134.573 34.6859 134.332 34.2546 133.725 34.2992C133.118 34.3441 133.642 34.915 133.525 34.9805C133.4 35.0484 130.543 34.8411 130.07 34.9279C132.211 34.6656 131.717 34.2416 129.894 34.2394C130.154 34.1076 130.415 33.9759 130.675 33.8442C129.612 34.0459 127.351 33.4349 126.738 33.6473C126.642 33.6814 126.999 34.0394 126.945 34.0585C126.407 34.227 124.557 33.8974 124.474 34.0244C124.404 34.1301 125.197 34.4185 124.909 34.5766C124.849 34.6099 124.079 34.1328 123.336 34.2723C123.061 34.3237 123.236 34.6661 123.166 34.6878C122.589 34.8682 122.918 34.2768 121.858 34.3958C121.082 34.4837 120.516 35.0677 119.436 34.9045C122.984 35.5473 120.009 35.3144 118.538 35.5698C118.302 35.6106 118.52 36.2345 117.099 35.962C120.08 34.7534 116.227 35.3815 115.436 35.3879C115.393 35.3851 115.368 34.9708 114.98 34.9734C114.947 34.9745 115.001 35.2536 114.641 35.2837C111.227 35.5676 113.405 35.199 112.749 34.9381C112.47 34.827 110.817 35.2628 110.369 35.2831C110.266 35.2865 110.307 34.9942 109.909 35.0151C109.204 35.0528 108.58 35.3778 108.116 35.4134C108.062 35.4162 108.048 34.9568 107.17 35.1268C106.923 35.1743 106.649 35.3441 107.004 35.4678C108.182 35.8745 110.379 35.0698 111.71 35.472C112.923 35.8383 109.128 35.9659 108.931 35.9729C108.858 35.976 109.594 35.7303 108.84 35.7031C108.196 35.6808 107.04 36.5023 106.077 36.3523C106.004 36.3412 105.222 35.6866 105.256 35.6466C105.288 35.6172 106.46 35.4431 106.285 35.2525C106.264 35.2308 105.517 35.2531 105.416 35.1104C105.292 34.9368 104.929 33.2128 104.768 33.1731C104.356 33.0756 104.632 33.4642 104.366 33.4431C103.797 33.3987 101.814 32.9335 101.764 33.5352C102.091 33.5631 102.417 33.591 102.744 33.6189C100.934 33.7237 101.712 33.9608 101.458 34.0795C101.185 34.2079 101.25 33.6784 100.638 33.6434C100.505 33.6357 97.9533 33.8066 98.005 34.0269C99.4093 33.6409 98.901 34.3054 98.9665 34.3155C99.215 34.3521 99.5224 33.9788 99.8546 33.9782C102.191 33.9799 99.8499 34.6132 100.405 34.7485C100.596 34.794 100.966 34.4728 101.047 34.4868C101.31 34.5323 101.324 34.9411 101.498 34.9038C101.903 34.8174 101.414 34.2502 101.446 34.2193C101.801 33.8486 103.238 34.2651 102.365 34.9157C102.904 35.1299 102.948 34.3634 103.378 34.6592C104.232 35.2448 102.97 35.1192 102.631 35.2279C101.416 35.6198 101.046 35.3348 99.3168 35.4765C98.694 35.5268 97.964 35.916 97.6751 35.9433C97.4931 35.9605 95.7411 34.7084 95.7386 36.7333C95.0649 36.5534 93.9833 35.2449 93.2955 35.3223C92.678 35.3927 92.8918 36.1039 92.8347 36.1329C92.7472 36.1786 91.9975 36.14 91.7468 36.2472C91.453 36.3738 91.6076 36.6435 91.1396 36.7661C89.975 37.0704 89.9883 36.3389 89.8668 36.2943C88.4563 35.7786 89.0929 36.8035 88.7848 36.8942C88.4983 36.9777 84.4437 36.674 83.5985 36.9573C83.9415 36.8027 84.2845 36.648 84.6275 36.4934C83.9966 36.0524 83.3569 36.8115 83.3259 35.9944C83.2315 37.317 81.9307 36.4654 81.547 36.5086C81.3959 36.5263 81.4131 36.7509 81.2237 36.7651C80.4839 36.8221 78.8094 36.6829 78.4104 36.8065C76.6844 37.3388 81.1471 38.0496 81.4981 38.0906C80.7976 38.0927 76.8431 38.4826 78.6791 39.0736C78.9629 39.1648 79.4476 38.5624 79.6051 38.5355C80.6716 38.358 79.8426 38.9072 79.9277 38.9555C80.0723 39.0334 80.7644 38.505 80.9516 38.5615C81.0141 38.5796 80.6263 39.0683 81.647 39.0541C81.1562 39.5306 78.2788 39.2204 77.9051 39.3385C77.772 39.3806 78.6359 40.3533 76.1582 39.4475C76.1888 39.5389 76.2195 39.6304 76.2501 39.7219C74.8842 39.7924 73.5183 39.8629 72.1523 39.9334C72.2958 39.7175 73.0531 39.2728 72.0887 39.3863C71.5335 39.4519 71.9565 39.915 71.906 39.9299C71.4097 40.072 62.5674 40.1251 60.8558 40.2186C60.2735 40.2496 58.6584 40.6684 58.5348 40.6784C57.7952 40.734 55.167 40.5491 54.6452 40.6152C54.3194 40.6574 54.6393 41.0454 54.3471 41.0338C54.0754 41.0225 54.3473 40.6337 54.2664 40.6196C53.5957 40.497 48.5385 41.1189 47.3262 40.7872C48.0645 40.8778 51.7176 40.027 51.6373 39.7593C51.6205 39.7227 50.7213 39.4533 50.5406 39.5994C50.2287 39.2759 49.2086 40.308 48.636 40.1237C48.5713 40.1027 48.8107 39.5317 47.7948 39.4533C47.4448 39.4265 46.5411 39.8887 45.6093 39.417C44.2829 39.6859 37.2622 39.1199 36.7962 39.7384C36.7827 39.7708 37.7739 39.9563 37.1135 40.2213C36.2356 40.5736 37.0046 39.4392 35.9699 39.3675C35.814 39.3566 32.9446 39.5379 32.8522 39.6091C31.9972 40.2559 34.513 40.4499 34.4796 40.5235C34.3964 40.7088 32.3137 40.8694 32.2279 40.8282C32.1462 40.7851 33.8271 39.9151 31.791 40.2783C32.0274 40.3719 32.2639 40.4654 32.5004 40.559C31.5439 40.7749 31.4386 40.2032 31.2049 40.1737C30.4784 40.08 29.7161 40.9703 28.5308 39.9212C28.2173 39.6428 28.7189 39.3134 28.6795 39.2714C28.3019 38.8956 27.8564 39.9356 27.2842 39.1815C27.2412 39.1252 28.5193 38.6348 26.2661 38.6873C26.423 38.7572 26.5798 38.8271 26.7366 38.8969C26.4228 39.0688 24.1438 39.2207 23.8359 39.1892C22.9366 39.097 23.706 38.5503 22.8063 38.6348C23.4015 39.3449 20.6634 39.5046 20.8062 38.8777C20.4421 39.6694 18.0998 39.1212 17.005 39.1286C16.3143 39.1339 14.914 39.509 14.6937 39.4743C14.4252 39.4317 14.4937 38.8959 14.0083 38.7885C13.8699 38.7579 12.4427 39.1835 11.1685 38.6609C10.9216 38.5602 10.3868 37.6669 10.8356 37.4298C11.6039 37.024 13.092 37.7185 13.0605 37.1838C13.0248 36.612 11.0519 36.9995 10.5169 36.9375C8.04701 36.6506 9.45402 36.0083 9.38632 35.8254C9.21149 35.3817 7.86675 35.4276 7.80967 35.3887C7.5728 35.2155 8.51751 34.8385 8.52539 34.565C8.5343 34.2089 7.2225 33.5978 7.51439 33.4709C7.93225 33.2906 9.13651 33.7972 9.21145 33.7699C10.1866 33.4014 8.81911 32.6117 8.438 32.2168C8.32243 32.0953 8.76628 31.8805 8.67205 31.8463C7.23358 31.3275 8.39909 33.0084 7.44836 32.9169C6.60011 32.8353 7.67553 32.2694 7.64251 32.2404C7.59997 32.2087 6.58796 32.2033 6.42509 32.016C6.34479 31.9222 8.94833 30.8092 8.82735 30.3409C7.99113 30.4646 7.15492 30.5883 6.31871 30.7121C6.23834 30.0996 7.45541 30.5229 7.57867 30.4566C7.82683 30.3236 7.11903 30.0295 7.14447 29.8346C7.15766 29.7107 7.9692 29.2505 7.22223 29.0866C6.96551 29.0299 6.44013 29.4732 5.50007 29.0555C8.72177 28.4167 6.4717 28.1249 6.37117 27.9096C6.27258 27.6943 7.80484 27.1456 5.93231 27.2808C5.82257 26.0877 5.96372 26.9021 6.49142 26.6793C7.13784 26.4056 5.62026 26.048 8.01242 26.2898C7.86341 25.7335 5.94732 25.8187 5.84477 25.7765C5.75617 25.7381 6.17573 25.4528 6.02157 25.3631C4.19868 24.3248 5.44481 24.7891 4.90786 24.1111C4.8601 24.0505 3.15541 23.835 4.44616 23.7036C6.79772 23.4648 7.80122 24.2342 8.15676 22.5297C6.39664 21.8348 4.3113 22.9793 3.78202 23.0104C2.97185 23.0564 3.80354 22.6908 3.70132 22.5962C3.66587 22.5658 2.96785 22.611 2.95781 22.5837C2.42881 21.3027 6.06776 22.4882 7.19856 22.2363C6.88941 22.05 6.58027 21.8636 6.27113 21.6773C6.6841 21.6597 7.09708 21.6421 7.51006 21.6245C5.53249 21.2822 7.43715 21.4788 7.90303 20.4203C8.00761 20.1824 6.72412 20.6166 8.18364 19.9277C7.09209 19.8027 7.43401 19.5806 6.45591 19.8991C6.47135 19.4789 8.67655 18.9528 9.54565 18.7167C6.446 18.3187 8.24386 19.8159 5.55455 19.0651C5.07181 19.5965 6.34379 19.465 6.24192 19.5532C5.87641 19.8704 4.99072 19.4016 3.96191 20.5071C3.79443 20.6886 4.53398 21.2173 3.45821 21.2165C3.33921 21.2156 2.64303 20.7653 2.65172 20.7313C2.73384 20.3637 3.41503 20.4845 3.43938 20.3313C3.46221 20.1863 2.70795 20.2911 2.70438 20.2511C2.67024 19.7939 3.33127 20.0612 3.23283 19.9201C3.02018 19.6133 0.276203 18.6929 3.83362 18.8969C0.896836 19.4847 3.46808 19.4114 4.6118 19.1852C4.90349 19.1284 4.97116 18.8532 5.38622 18.7483C5.9201 18.6126 6.55153 18.7289 6.8281 18.6722C7.12553 18.6097 5.41269 18.0038 7.8723 18.1382C6.60755 17.525 4.4169 18.263 3.17882 17.8408C0.680913 16.9875 4.87894 16.6916 5.31465 16.5927C5.43073 16.566 5.03088 16.206 5.1081 16.1815C5.23442 16.1438 7.62369 16.2577 7.8516 15.9465C8.07888 15.6356 6.97829 15.9814 6.89704 15.6647C6.842 15.4515 9.71035 15.0028 8.14922 14.8933C7.07324 14.8185 5.11485 15.7272 4.75947 14.809C6.3365 14.6947 7.91352 14.5805 9.49055 14.4662C8.61801 14.1344 7.74546 13.8026 6.87292 13.4708C8.64235 13.3169 10.1838 13.6782 11.8549 13.1337C7.78361 12.1008 13.1466 12.2013 13.2022 12.0625C13.22 11.9798 11.6063 11.1012 11.3461 10.9397C12.7483 10.5535 17.0305 10.2792 14.4959 9.20721C14.9571 9.4519 16.0444 8.79489 16.0287 8.74762C15.8768 8.251 13.4804 8.63244 13.8618 8.17156C14.3037 7.63673 14.9573 8.33246 15.655 8.25904C19.235 7.87767 18.1888 5.29112 21.7953 5.61848C21.7216 5.52725 21.6478 5.43602 21.574 5.34479C25.4871 5.39963 29.4001 5.45446 33.3131 5.5093C34.8237 4.67584 38.883 4.09358 40.8845 4.13415C41.2875 4.14174 43.2741 4.51298 43.425 4.58276C43.7046 4.71674 42.187 4.80653 42.8797 5.05371C43.0259 5.10435 46.3765 5.20043 46.1266 4.76021C45.7504 4.71743 44.5821 4.96953 44.3875 4.86903C43.0204 4.15118 53.3516 4.50469 53.8555 4.19029C53.6236 4.05091 53.3916 3.91153 53.1597 3.77215C53.8124 3.8279 54.4651 3.88365 55.1178 3.93939ZM26.0555 40.466C25.6755 40.9228 24.6882 40.61 24.1126 40.7494C23.3174 40.9443 21.9995 42.6997 22.5434 40.9588C23.7141 40.7945 24.8848 40.6303 26.0555 40.466ZM43.2286 40.7243C42.4357 40.5027 43.0233 39.5237 43.6781 39.9093C43.7507 39.9532 44.3014 41.0224 43.2286 40.7243ZM34.965 40.4631C34.9978 40.4496 35.6787 40.4589 35.7028 40.4734C36.3221 40.8462 34.2692 40.8159 34.965 40.4631ZM74.8201 39.019C73.9537 39.0813 74.6027 39.9432 75.1334 39.5695C75.1667 39.5458 74.8771 39.0156 74.8201 39.019ZM74.2026 39.0105C73.5103 38.2414 72.1914 39.865 73.2662 39.679C73.3704 39.6604 74.2347 39.048 74.2026 39.0105ZM40.4135 40.4078C40.4949 40.1047 41.3104 40.2307 41.6589 40.2944C41.656 40.5694 40.7528 40.3661 40.4135 40.4078ZM60.9995 39.834C61.0283 39.5966 58.2063 39.6768 58.0215 39.9932C58.4638 39.8503 60.9722 40.0473 60.9995 39.834ZM68.2296 39.3294C68.1571 39.2902 67.1836 39.3756 67.217 39.5836C67.6995 39.8461 68.5562 39.5068 68.2296 39.3294ZM82.6161 39.0008C82.6677 38.9471 81.906 37.6361 83.6569 38.4692C83.914 38.5912 83.0151 38.9599 83.1064 39.0054C83.2977 39.0938 83.4481 39.1336 83.5683 39.1385C82.7651 39.2678 81.9293 39.3395 81.8464 39.2609C81.4571 38.8894 82.5931 39.0232 82.6161 39.0008ZM90.1451 37.8312C90.306 37.6106 91.3691 37.7012 91.6125 37.7847C91.6543 37.8005 91.4872 38.3742 91.9637 38.3203C92.3461 38.276 91.7597 37.7064 92.5085 37.7819C93.2654 37.8576 92.2671 38.2973 92.3337 38.3254C92.423 38.3622 93.5839 38.0725 93.5557 38.4125C93.5346 38.6644 92.2802 38.5243 91.9722 38.5851C91.5779 38.6631 92.068 39.0703 91.4041 38.9961C90.9869 38.9499 91.1999 38.2083 91.1113 38.1732C91.037 38.145 89.5935 38.6032 90.1475 37.8335C90.1467 37.8327 90.1459 37.832 90.1451 37.8312ZM83.7855 39.1008C83.7255 39.1271 83.6546 39.142 83.5683 39.1385C83.6412 39.1268 83.7138 39.1135 83.7855 39.1008ZM28.3223 40.0889C28.7368 40.3062 27.5292 40.6262 27.0622 40.3398C27.0485 40.1001 28.2563 40.0551 28.3223 40.0889ZM84.5186 38.4836C85.72 38.6395 84.8456 38.9141 83.7855 39.1008C84.12 38.9542 84.1152 38.4316 84.5186 38.4836ZM50.5406 39.5994C50.5924 39.6531 50.6265 39.738 50.6339 39.8785C50.4975 39.7279 50.4836 39.6455 50.5406 39.5994ZM53.3391 39.7839C54.2862 39.3327 52.3416 39.3963 52.3612 39.7026C52.3698 39.8181 53.3012 39.8018 53.3391 39.7839ZM75.9336 39.0344C75.845 38.9945 77.1746 37.6686 75.2226 38.6863C76.2804 38.8137 75.1715 38.981 75.1907 39.0939C75.2414 39.4185 77.0048 39.0633 77.4002 39.1947C77.6933 38.6049 76.226 39.1656 75.9358 39.0343C75.9351 39.0343 75.9343 39.0344 75.9336 39.0344ZM103.764 37.8208C103.533 38.1678 102.769 38.0761 102.255 38.0683C102.487 37.7212 103.25 37.8129 103.764 37.8208ZM238.179 34.6692C234.667 35.0686 234.178 33.6894 237.412 34.1622C237.475 34.1722 238.39 34.5233 238.179 34.6692ZM207.965 35.0283C207.619 34.4304 208.714 34.3068 209.441 34.5399C209.605 34.5923 210.223 35.1916 209.537 35.328C209.541 34.5931 208.47 34.3379 207.965 35.0283ZM85.1858 38.0795C85.5248 37.6671 86.6045 37.9292 87.1713 37.9764C86.8342 38.3173 85.6887 38.194 85.1858 38.0795ZM226.597 34.2197C226.225 34.1827 225.987 34.7158 226.052 34.7581C226.343 34.9524 227.027 34.5097 226.597 34.2197ZM81.721 38.0992C81.6662 37.8589 83.0817 37.5927 83.1949 38.1873C82.8901 38.1514 81.7598 38.2499 81.721 38.0992ZM102.791 37.6626C102.568 37.5451 103.705 37.2981 104.054 37.4117C104.032 37.6694 102.938 37.739 102.791 37.6626ZM220.628 34.5408C220.295 34.503 219.465 34.5088 219.378 34.724C219.27 34.9931 220.485 34.8733 220.628 34.5408ZM282.43 32.6091C282.474 32.7038 281.205 33.4243 280.629 33.2633C279.536 32.9551 282.383 32.5426 282.43 32.6091ZM230.102 33.8643C231.161 34.3406 229.987 33.8829 230.045 34.4096C230.751 34.4118 232.505 34.3961 231.287 33.9058C231.05 33.811 230.431 33.8906 230.102 33.8643ZM229.131 33.7107C229.023 33.8844 228.281 34.4414 228.933 34.3873C229.234 34.3614 229.706 33.7509 229.131 33.7107ZM274.471 33.0334C273.521 32.5884 277.832 32.7367 277.957 32.8155C278.024 32.8572 278.067 32.8969 278.093 32.9309C278.247 32.779 279.06 32.733 279.163 33.1053C278.918 33.0802 278.253 33.129 278.175 33.0893C278.141 33.0724 278.116 33.0564 278.099 33.04C277.819 33.372 274.653 33.1177 274.471 33.0334ZM267.327 32.7223C268.385 32.0073 268.604 33.1748 268.512 33.2148C267.354 33.7223 268.096 32.8398 268.059 32.8001C267.976 32.7347 267.154 33.1556 267.331 32.7222C267.33 32.7222 267.329 32.7222 267.327 32.7223ZM273.005 32.8753C273.048 32.859 273.951 32.8738 273.989 32.8914C274.738 33.2677 272.183 33.2276 273.005 32.8753ZM95.8185 36.8755C96.4671 36.9767 95.8438 37.423 95.4109 37.2781C95.3753 37.2637 95.2463 36.7862 95.8185 36.8755ZM228.618 33.8392C228.466 33.7613 224.629 33.5452 224.874 34.191C225.198 34.1064 229.56 34.338 228.618 33.8392ZM199.989 34.3627C200.665 34.3517 199.943 34.9835 199.577 34.7631C199.442 34.6812 199.819 34.3659 199.989 34.3627ZM79.7917 37.5872C79.0984 37.9414 79.2165 36.8058 79.8337 37.1794C79.8579 37.194 79.8189 37.5734 79.7917 37.5872ZM205.394 34.5874C203.073 35.0151 203.579 33.0546 206.623 33.6399C206.53 33.7289 206.437 33.8179 206.345 33.9069C209.847 34.1158 206.587 34.0384 205.734 34.1678C205.409 34.217 205.69 34.5356 205.396 34.5897C205.396 34.5889 205.395 34.5882 205.394 34.5874ZM196.436 34.4101C194.16 33.0814 198.464 33.8795 199.688 33.6702C198.511 34.2693 196.959 34.2198 199.081 34.754C196.001 34.9404 197.271 34.3593 197.147 34.3165C197 34.2686 196.533 34.4672 196.436 34.4101ZM202.354 34.2599C202.482 34.2165 203.466 34.4747 203.817 34.4204C203.336 34.9043 201.499 34.5547 202.354 34.2599ZM259.858 33.2209C259.93 32.849 260.124 32.5718 260.899 32.6917C260.665 32.8832 260.176 33.0548 259.858 33.2209ZM25.2675 38.5367C24.7358 38.5228 23.675 38.4086 24.0086 38.7899C24.0449 38.8222 25.271 38.7551 25.2675 38.5367ZM217.486 33.8043C217.372 33.7615 214.45 33.8006 215.469 34.1848C215.776 34.3007 218.433 34.1851 217.486 33.8043ZM232.613 33.4907C232.368 33.4926 231.377 33.586 231.358 33.674C231.298 33.9781 232.513 33.7827 232.613 33.4907ZM22.5795 38.2218C22.5086 38.1851 20.8882 38.2917 21.0708 38.4669C21.4173 38.7983 22.8223 38.3483 22.5795 38.2218ZM98.1476 35.953C98.2829 35.9361 98.4717 36.3337 98.5188 36.337C98.6292 36.3401 101.108 36.1265 100.172 36.665C100.015 36.7552 96.4396 36.6421 95.9739 36.6022C95.7811 36.0548 97.3191 36.5433 97.689 36.4777C97.7541 36.4653 97.785 36.0028 98.1465 35.9553C98.1469 35.9546 98.1472 35.9538 98.1476 35.953ZM263.866 32.7349C263.967 32.3816 266.879 32.0799 266.856 32.5057C265.859 32.5821 264.862 32.6585 263.866 32.7349ZM262.382 32.7121C261.754 32.4789 263.21 32.3621 263.642 32.4613C263.652 32.6971 262.474 32.7463 262.382 32.7121ZM227.047 32.3121C226.756 32.4048 227.67 32.8951 227.47 32.9994C227.343 33.0644 226.683 32.8882 226.478 33.0533C226.42 33.1055 227.099 33.5707 227.292 33.5453C227.566 33.511 227.291 33.1388 227.59 33.129C228.585 33.0972 229.473 33.3462 230.406 33.3177C230.49 33.3144 229.831 33.0626 230.549 33.0493C230.66 33.0467 231.336 33.429 232.194 33.3495C234.063 32.0712 235.485 33.2488 237.883 32.7468C237.789 32.6329 235.981 32.3643 235.874 32.3553C233.856 32.2004 230.25 32.264 228.141 32.3116C227.6 32.3234 227.869 32.5782 227.636 32.5933C227.452 32.6047 227.66 32.1162 227.047 32.3121ZM25.5432 38.2628C25.2786 37.7861 24.398 38.1128 23.8303 38.1014C24.0403 38.532 24.9865 38.1691 25.5432 38.2628ZM249.273 32.65C248.989 32.6754 248.104 32.551 248.035 32.6981C247.946 32.8901 249.22 32.9795 249.273 32.65ZM112.146 35.7568C112.173 35.743 112.858 35.7526 112.884 35.7672C113.504 36.14 111.451 36.1095 112.146 35.7568ZM128.506 35.4603C129.023 35.3884 129.543 35.2251 129.727 35.6126C129.395 35.5605 128.452 35.7345 128.506 35.4603ZM151.074 34.9113C150.955 34.401 152.524 34.696 152.819 34.735C152.716 34.9655 151.161 35.279 151.074 34.9113ZM259.707 31.6135C260.662 31.6211 260.442 30.849 261.056 31.1862C261.156 31.2433 261.515 32.8534 260.451 32.2723C260.26 32.1678 260.989 31.7657 259.707 31.6135ZM207.117 33.6444C207.351 33.2993 208.112 33.382 208.625 33.397C208.516 33.6518 207.481 33.6115 207.117 33.6444ZM19.6406 37.9036C19.1817 37.4352 17.1224 37.8398 17.6416 38.1441C17.7153 38.1837 19.3501 37.8924 19.6406 37.9036ZM87.5751 36.4744C88.4169 36.0769 86.652 36.002 86.1045 36.3839C86.3558 36.3537 87.5184 36.5006 87.5751 36.4744ZM145.647 34.7616C145.687 34.7452 146.59 34.7601 146.631 34.7777C147.379 35.154 144.825 35.1139 145.647 34.7616ZM123.112 34.9657C123.43 34.6476 125.573 34.8472 126.059 35.1466C125.609 35.6115 122.718 35.363 123.112 34.9657ZM255.786 31.9277C256.466 31.8954 257.114 31.9757 257.743 32.095C257.618 32.3595 255.862 32.1212 255.786 31.9277ZM148.957 34.6502C149.006 34.6512 149.054 34.6796 149.1 34.6817C149.051 34.6718 149.004 34.6603 148.957 34.6502ZM240.545 32.1069C239.972 32.0173 240.102 32.4934 240.137 32.5072C240.57 32.6521 241.193 32.2081 240.545 32.1069ZM24.8745 37.5674C24.6664 37.14 23.7149 37.498 23.1605 37.4083C23.3288 37.7458 24.4309 37.6233 24.8745 37.5674ZM194.013 33.5821C193.285 33.1306 196.188 32.5169 196.81 32.8042C196.862 33.0926 194.119 33.6438 194.013 33.5821ZM84.9178 35.8891C84.8525 35.5518 83.6379 35.9896 83.9018 36.1434C84.0689 36.2413 84.957 36.0986 84.9178 35.8891ZM198.281 32.9668C198.552 32.8569 199.199 33.1759 198.979 33.3849C198.696 33.6528 198.211 32.998 198.281 32.9668ZM222.856 32.1097C222.735 32.0608 221.132 32.4467 221.806 32.7763C222.274 33.0053 222.336 32.5141 222.444 32.51C222.565 32.5087 225.166 33.0462 222.856 32.1097ZM177.673 33.6759C178.278 33.5313 179.017 33.6649 179.652 33.6404C179.398 33.856 177.939 33.9479 177.673 33.6759ZM89.6376 35.686C89.4867 35.5526 85.4634 35.5659 87.7579 35.933C87.8916 35.9537 90.0958 36.0901 89.6376 35.686ZM259.707 31.6135C259.587 31.6125 259.447 31.5997 259.285 31.5701C259.446 31.5794 259.585 31.5991 259.707 31.6135ZM248.868 31.8204C249.082 31.5687 247.974 31.5291 247.651 31.6681C247.557 31.9717 248.839 31.8556 248.868 31.8204ZM179.693 33.2954C180.056 33.1457 180.725 33.2803 181.178 33.2531C181.107 33.4841 179.857 33.5245 179.693 33.2954ZM153.947 33.6504C154.678 33.7692 155.572 33.6853 155.58 33.4046C155.596 33.4481 155.632 33.4938 155.692 33.5391C155.752 33.584 156.529 33.4351 156.87 33.5227C158.911 34.0428 149.046 34.043 154.742 33.1154C154.477 33.2937 154.212 33.4721 153.947 33.6504ZM120.205 34.3747C119.784 34.0433 118.637 34.4985 118.941 34.6257C119.152 34.7128 120.627 34.7084 120.205 34.3747ZM136.097 33.7941C135.972 33.7361 134.848 34.002 134.823 34.1824C135.477 34.3563 136.666 34.0636 136.097 33.7941ZM117.02 34.0507C116.759 34.0054 116.442 34.5635 116.473 34.5868C116.741 34.7814 117.463 34.3467 117.02 34.0507ZM257.695 30.1783C257.306 30.0299 256.085 30.4574 255.826 30.8272C255.775 30.7581 255.638 30.6697 255.389 30.5656C255.39 30.5656 255.391 30.5656 255.391 30.5655C255.055 30.4267 245.112 30.503 251.796 31.044C252.005 31.0615 251.712 30.7421 252.563 30.7793C252.619 30.7822 252.654 31.0478 252.827 31.0567C253.227 31.0753 255.356 31.1923 255.778 30.9678C255.783 31.0171 255.811 31.0634 255.871 31.1051C256.404 31.4767 257.997 30.2926 257.695 30.1783ZM138.335 33.692C138.106 33.5987 137.388 33.7096 137.319 33.9463C137.679 34.053 138.868 33.9096 138.335 33.692ZM89.4899 34.7248C89.0221 34.5426 87.857 34.9318 88.2163 35.1154C88.4366 35.2284 90.0293 34.934 89.4899 34.7248ZM131.13 33.9891C133.793 34.2036 131.764 33.9515 132.162 33.5972C131.818 33.7278 131.474 33.8585 131.13 33.9891ZM270.008 30.7755C269.582 30.7062 270.064 30.0144 270.539 30.3723C270.688 30.486 270.246 30.8129 270.008 30.7755ZM289.125 30.1087C288.749 29.5144 290.523 29.8266 289.845 30.2566C289.813 30.2713 289.152 30.1311 289.125 30.1087ZM275.757 30.1806C275.479 30.598 275.293 30.6512 274.481 30.569C275.677 30.4248 274.557 30.0882 275.757 30.1806ZM155.571 33.3607C155.576 33.3771 155.58 33.3893 155.58 33.4046C155.574 33.3897 155.571 33.3754 155.571 33.3607ZM114.526 34.2171C114.185 33.8772 113.254 33.925 113.54 34.2684C113.567 34.3002 114.395 34.4773 114.526 34.2171ZM255.826 30.8272C255.872 30.8884 255.85 30.9293 255.778 30.9678C255.773 30.9214 255.791 30.8771 255.826 30.8272ZM119.522 33.8145C119.495 34.0748 120.915 34.1419 120.971 34.1101C121.774 33.6407 120.107 33.7849 119.522 33.8145ZM80.1047 34.5833C80.0322 34.6121 80.5198 35.2707 80.8028 35.0014C81.0218 34.7924 80.3762 34.4737 80.1047 34.5833ZM278.503 29.9479C278.952 29.9376 279.584 29.9223 279.708 30.2376C279.406 30.196 278.499 30.1815 278.503 29.9479ZM288.424 29.6884C287.902 30.0751 286.69 30.1029 285.914 30.0597C285.888 29.5677 287.929 29.816 288.424 29.6884ZM258.918 30.3328C258.88 30.3137 257.751 30.1936 257.912 30.5195C258.148 30.9974 259.24 30.5045 258.918 30.3328ZM82.3 34.8867C82.7981 34.6477 81.6227 33.9778 81.1041 34.5293C80.8378 34.8117 82.216 34.9267 82.3 34.8867ZM111.605 33.8309C110.945 34.0375 112.6 34.338 112.822 33.9879C112.516 33.9676 111.84 33.7578 111.605 33.8309ZM134.208 32.9441C132.09 32.0001 133.274 33.786 133.641 33.6178C133.693 33.5938 134.259 32.9663 134.208 32.9441ZM14.3972 36.0408C14.104 36.186 15.2211 36.6599 15.3563 36.3272C15.4398 36.119 14.5847 35.9483 14.3972 36.0408ZM165.756 32.8392C165.668 32.8445 165.58 32.8498 165.494 32.8547C165.558 32.837 165.644 32.8297 165.756 32.8392ZM105.541 32.6433C107.049 34.0114 106.868 32.9336 106.997 32.9364C107.274 32.9449 107.926 33.309 108.446 33.2343C107.853 33.4065 107.259 33.5788 106.665 33.751C107.139 33.841 111.252 34.26 111.332 34.0304C111.448 33.7034 110.16 33.8358 110.122 33.8082C110.067 33.7688 109.844 32.8727 109.723 32.8413C109.525 32.7912 106.096 32.8542 105.541 32.6433ZM129.832 33.204C130.172 33.3031 130.276 33.6578 130.43 33.5687C130.483 33.5383 130.483 33.1976 130.663 33.1052C130.386 33.1381 130.109 33.1711 129.832 33.204ZM102.932 33.9677C102.505 33.5617 104.379 33.6751 104.44 33.7203C104.767 33.9946 103.281 34.2994 102.932 33.9677ZM118.807 33.5293C118.738 33.5067 117.298 33.411 117.315 33.6415C117.699 33.8085 119.621 33.814 118.807 33.5293ZM130.887 33.0766C131.393 33.1043 132.355 33.4244 132.234 32.9144C132.233 32.9144 132.232 32.9144 132.232 32.9144C131.783 32.9685 131.335 33.0226 130.887 33.0766ZM83.998 33.763C83.0431 32.9688 83.5109 33.9899 84.3454 34.2336C84.5876 33.8611 84.1545 33.8922 83.998 33.763ZM80.9899 33.2255C80.7262 33.0848 78.0481 33.3096 78.4676 33.7319C78.6167 33.8824 80.1497 33.4574 80.2214 33.4856C80.3302 33.5273 79.8495 34.0169 80.6698 33.9027C80.6179 33.7419 81.0802 33.2725 80.9899 33.2255ZM83.2113 33.2587C82.2669 32.6599 82.0853 33.81 82.7845 33.7965C83.0577 33.792 83.3461 33.3451 83.2113 33.2587ZM87.0108 33.2658C86.6737 33.1652 85.779 33.028 85.1739 33.4235C85.9965 33.4364 86.8191 33.4494 87.6417 33.4623C87.7313 33.2443 87.3056 33.3543 87.0085 33.2659C87.0093 33.2659 87.01 33.2658 87.0108 33.2658ZM293.94 26.621C293.194 26.3138 294.892 26.1489 294.966 26.227C295.186 26.4867 294.274 26.7582 293.94 26.621ZM8.38018 25.7742C8.17187 25.6497 8.02756 25.2269 7.58116 25.4608C8.04301 25.7644 8.50486 26.0681 8.96671 26.3717C9.30266 25.6428 8.60789 25.9117 8.38018 25.7742ZM6.58245 23.1832C6.64622 23.1642 6.26924 22.0647 7.11604 22.7846C7.68817 23.2707 4.65312 23.8299 4.09148 23.3518C4.69371 23.109 6.03334 23.3386 6.58245 23.1832ZM1.13164 18.5149C1.09441 18.4274 2.24882 18.2702 2.38428 18.3293C3.09558 18.6408 1.33297 18.9837 1.13164 18.5149ZM4.82928 18.6384C4.28132 18.4362 5.48058 18.2689 5.84191 18.3841C5.88158 18.5895 4.91389 18.6677 4.82928 18.6384ZM286.078 10.7541C285.473 10.0151 284.986 11.6485 285.882 11.3004C285.925 11.284 286.104 10.7903 286.078 10.7541ZM2.23664 17.3704C2.7846 17.5726 1.58534 17.7399 1.22401 17.6247C1.18577 17.4195 2.15324 17.3409 2.23664 17.3704ZM285.622 8.97029C284.829 8.44707 285.147 10.2589 285.246 10.3299C285.655 10.6097 287.015 9.8632 287.292 9.67908C285.237 10.001 285.996 9.21686 285.622 8.97029ZM282.05 10.1479C281.331 10.3592 283.189 10.6861 283.53 10.1708C283.171 10.2036 282.254 10.087 282.05 10.1479ZM277.643 9.66937C277.253 9.61351 276.092 9.48513 275.904 9.77586C276.328 9.71395 277.486 9.96768 277.643 9.66937ZM276.742 8.83303C276.124 8.45874 276.006 9.59494 276.699 9.24087C276.726 9.22716 276.765 8.85412 276.742 8.83303ZM273.313 8.50554C272.903 8.06457 272.474 9.1724 273.121 9.18658C273.313 9.18877 273.356 8.55617 273.313 8.50554ZM284.599 7.03729C284.023 6.85746 283.306 7.66057 284.528 7.71779C284.102 7.84803 283.676 7.97828 283.251 8.10852C284.859 8.5108 284.716 7.42415 285.176 7.45827C285.819 7.50701 285.789 8.40722 285.667 8.69258C286.18 8.12928 288.413 8.06729 289.701 7.93168C288.561 7.72754 286.711 7.37065 285.588 7.25086C285.267 7.21607 284.963 7.47 284.69 7.44892C284.252 7.41379 284.631 7.04955 284.601 7.03723C284.601 7.03725 284.6 7.03727 284.599 7.03729ZM268.817 8.5963C267.632 8.11394 268.4 9.198 269.058 8.98575C269.086 8.96995 268.847 8.60807 268.817 8.5963ZM0.601672 14.0595C2.17964 14.4827 1.05515 15.1201 4.31119 14.1153C2.9496 14.8042 4.24626 14.589 3.98374 14.86C3.77307 15.0745 2.96089 14.9204 3.44063 15.3309C2.81232 14.8866 0.134936 15.0774 0.0136645 15.0057C0.0147883 15.0057 0.015912 15.0056 0.0170357 15.0056C-0.0557867 14.9632 0.0981591 13.9249 0.601672 14.0595ZM277.569 6.78855C277.146 5.46108 277.043 7.5865 276.248 6.49688C275.262 8.13013 279.076 6.42978 279.575 7.77759C275.388 7.7193 282.371 9.0583 279.402 7.0936C281.826 7.77464 280.185 6.8229 280.55 6.55485C280.941 6.26928 282.309 6.53696 282.228 6.04068C282.227 6.04069 282.226 6.04071 282.225 6.04073C281.394 6.0954 280.562 6.15007 279.731 6.20473C280.571 7.25943 278.863 6.97786 278.265 6.11643C278.033 6.34047 277.801 6.56451 277.569 6.78855ZM282.304 7.68472C282.221 7.66208 280.415 7.85573 280.537 8.06853C280.782 8.20027 283.347 7.97423 282.304 7.68472ZM290.266 7.26037C289.616 7.27323 288.606 7.08761 288.261 7.50104C288.911 7.48828 289.921 7.67402 290.266 7.26037ZM256.793 7.98062C255.973 8.33269 258.526 8.3704 257.779 7.99435C257.742 7.97668 256.834 7.96413 256.793 7.98062ZM275.69 7.03555C274.837 6.64708 275.267 7.93794 275.882 7.58423C275.918 7.56339 275.729 7.05326 275.69 7.03555ZM1.86774 13.8713C1.9165 13.5513 4.1954 13.721 4.59834 13.7086C4.37642 14.0102 1.81179 14.238 1.86774 13.8713ZM291.381 6.04125C290.061 4.92648 288.337 6.29144 288.144 6.26711C287.952 6.24221 288.24 5.73429 288.196 5.7219C288.096 5.69618 286.059 5.78673 285.961 5.82393C285.891 5.85279 286.277 6.54773 285.861 6.77942C286.672 6.36002 290.404 6.52146 290.596 6.43887C290.744 6.37304 289.597 5.66094 291.379 6.04131C291.38 6.04129 291.38 6.04127 291.381 6.04125ZM287.659 6.12522C288.175 6.40808 286.748 6.47899 286.4 6.37836C285.627 6.15305 287.593 6.09183 287.659 6.12522ZM284.219 5.93516C284.054 5.87288 282.581 5.84782 282.464 6.17919C283.17 6.58861 284.592 6.08051 284.219 5.93516ZM267.845 6.36918C267.463 6.42036 266.406 6.19302 266.353 6.48141C266.735 6.43045 267.791 6.65759 267.845 6.36918ZM9.56527 11.182C8.92461 10.957 10.3934 10.8239 10.8253 10.9288C10.8531 11.1197 9.61982 11.2013 9.56527 11.182ZM275.481 4.29508C275.253 4.21321 270.642 4.54087 269.997 4.69067C270.636 4.89259 275.211 4.80035 275.417 4.68949C275.477 4.65633 275.511 4.30812 275.481 4.29508ZM285.463 3.92492C285.876 3.49227 286.164 3.99251 286.218 3.99761C286.743 4.04981 287.826 3.92868 287.598 4.34135C286.67 4.19913 284.64 4.78415 285.463 3.92492ZM267.471 4.46488C265.907 4.65903 268.929 5.03253 268.523 4.60023C268.497 4.57413 267.633 4.44456 267.471 4.46488ZM275.994 4.15966C276.332 3.80997 280.957 3.99449 281.698 3.97735C281.049 4.62296 280.503 4.15733 279.612 4.21069C279.371 4.22583 279.442 4.48631 279.416 4.48734C278.999 4.5094 279.304 4.19936 279.047 4.20089C278.884 4.20268 275.519 4.65234 275.994 4.15966ZM285.697 3.62643C285.95 3.37804 288.831 3.20613 288.948 3.26774C289.828 3.72586 285.923 3.70542 285.697 3.62643ZM275.557 3.60982C276.036 2.86605 278.342 3.30163 276.781 3.7039C276.632 3.74067 275.989 3.43849 275.557 3.60982ZM267.622 3.76389C267.544 3.7442 265.906 3.6368 265.883 3.87039C266.121 3.95527 268.505 3.97975 267.622 3.76389ZM268.45 2.9561C268.411 2.96263 268.805 3.40205 268.037 3.36346C267.973 3.35963 267.842 2.85781 266.883 3.06548C266.689 3.10817 266.394 3.44924 266.416 3.46947C267.438 4.23757 270.423 2.6488 268.45 2.9561ZM285.74 3.21626C285.58 3.00695 285.94 2.36578 286.285 2.67792C286.433 2.81272 286.172 3.19859 285.74 3.21626ZM262.434 3.68283C263.375 3.27678 260.391 3.2753 260.241 3.37705C260.343 3.61362 262.34 3.72255 262.434 3.68283ZM10.9815 8.18667C10.9808 8.18669 10.98 8.1867 10.9793 8.18672C11.7806 8.25458 11.2931 8.58534 11.3308 8.59447C13.0443 9.02245 12.5756 8.31074 12.8397 8.21914C13.4062 8.02115 13.3351 8.90191 14.2894 8.51473C12.7105 9.09054 14.1539 8.83054 14.2065 9.14204C14.4152 10.4133 12.0731 8.59522 11.2859 8.88147C11.1762 8.92113 12.0023 9.30878 11.7217 9.43134C10.8096 9.82852 7.90682 7.92744 10.9815 8.18667ZM286.545 2.61595C286.906 2.23245 289.727 2.52889 288.989 2.8553C288.87 2.90764 286.013 3.17503 286.545 2.61595ZM155.155 5.191C155.823 4.85066 154.248 4.50678 153.963 4.76607C153.822 4.89523 154.862 5.34037 155.155 5.191ZM144.139 4.06547C143.337 4.15042 142.523 5.52273 143.517 5.2891C143.623 5.26364 144.235 4.25084 144.139 4.06547ZM196.895 3.50445C196.044 3.0412 196.116 3.93784 196.731 3.91051C196.948 3.90101 196.921 3.51912 196.895 3.50445ZM164.889 4.38273C164.804 4.35339 163.836 4.4338 163.876 4.6393C164.238 4.75457 165.437 4.58494 164.889 4.38273ZM197.158 3.37033C196.665 3.54398 197.536 4.17298 198.129 3.52389C197.821 3.5833 197.209 3.35258 197.158 3.37033ZM273.777 1.66694C273.37 2.04552 272.189 1.96217 271.514 2.04163C271.429 1.56574 273.296 1.76505 273.777 1.66694ZM147.561 4.52796C146.809 4.88269 148.444 5.1195 148.284 4.67811C148.263 4.65444 147.591 4.51289 147.561 4.52796ZM223.948 2.68366C223.402 2.98173 225.166 3.3231 224.671 2.83381C224.647 2.81396 223.978 2.66709 223.948 2.68366ZM231.615 2.66617C231.193 2.58004 229.406 2.65218 230.108 2.91358C230.217 2.95372 231.589 2.92788 231.615 2.66617ZM12.8788 7.87416C12.6411 7.3889 13.9553 7.47447 14.1451 7.55575C14.2197 7.58966 13.1886 8.5055 12.8788 7.87416ZM191.446 3.55747C191.014 3.62919 189.885 3.53933 189.693 3.80144C190.223 3.73553 191.601 4.06681 191.446 3.55747ZM151.028 4.44309C150.353 3.92571 149.223 4.00526 149.519 4.6952C150.768 4.61877 149.35 4.07275 151.028 4.44309ZM199.939 2.72992C199.59 2.69753 199.339 3.37287 199.379 3.40345C199.763 3.69433 200.291 2.98197 199.939 2.72992ZM173.84 3.90227C173.813 3.61687 172.7 3.77318 172.854 3.95365C172.904 4.01426 173.862 4.13325 173.84 3.90227ZM259.165 1.85213C258.647 1.60335 260.202 1.31108 260.671 1.60472C260.906 2.03833 259.23 1.88057 259.165 1.85213ZM209.593 2.66745C209.634 2.24194 207.897 2.52333 208.592 2.85865C208.766 2.94255 209.578 2.80975 209.593 2.66745ZM226.271 1.76123C225.114 2.29502 230.033 2.5373 228.728 1.93754C228.634 1.89482 226.372 1.71609 226.271 1.76123ZM234.299 1.88626C234.096 1.83531 234.162 0.407246 235.011 0.937121C235.122 1.00581 234.618 1.39489 234.71 1.47896C234.764 1.52683 236.584 1.68383 236.667 1.64855C236.756 1.60862 236.639 1.1542 236.729 1.10077C236.831 1.04104 237.958 1.41583 238.543 1.40628C239.646 1.38755 239.756 1.00438 239.847 1.00097C240.11 0.992178 240.56 1.25167 241.094 1.23862C243.786 1.17148 247.897 0.751046 250.05 1.50658C248.143 1.22799 246.341 1.61465 244.454 1.76536C244.988 0.958303 241.688 2.44324 243.616 1.48077C242.723 1.70085 234.964 2.04457 234.301 1.8862C234.3 1.88622 234.3 1.88624 234.299 1.88626ZM140.959 3.74133C141.441 3.24281 138.912 3.41259 138.711 3.98085C139.047 4.05104 140.899 3.79796 140.959 3.74133ZM152.611 2.276C152.844 2.18638 153.045 1.22959 154.289 1.68278C154.29 1.68276 154.291 1.68273 154.292 1.6827C154.656 1.81504 154.251 2.05666 154.319 2.1377C154.344 2.17086 155.479 2.6174 154.548 2.71575C153.126 2.86644 154.397 2.0111 153.637 2.01911C153.544 2.02054 152.12 2.56978 152.206 2.68085C152.215 2.69381 152.645 2.57457 152.717 2.61986C152.991 2.79007 152.867 3.09032 152.905 3.10356C153.03 3.13683 155.291 2.57653 155.632 3.01074C155.743 3.15074 152.02 3.5684 151.873 3.49774C151.78 3.45323 151.799 2.62755 151.702 2.54871C151.652 2.50947 150.159 2.85425 149.963 2.78307C149.906 2.76248 149.862 2.73987 149.83 2.72114C150.063 2.97091 148.704 2.98488 148.739 2.69598C148.759 2.58226 149.696 2.6255 149.73 2.64448C149.745 2.6525 149.758 2.66374 149.77 2.67142C149.569 2.36507 152.736 2.30371 152.041 1.85719C152.953 1.58181 151.927 2.53919 152.611 2.276ZM157.011 1.66215C156.918 1.75114 156.825 1.84014 156.733 1.92913C158.334 1.67857 160.198 2.05197 162.049 2.00479C162.519 1.99345 161.966 1.47584 162.585 1.60614C163.081 1.71057 163.639 2.1896 163.373 2.3057C163.308 2.33463 162.297 2.03806 161.795 2.08291C160.313 2.21561 160.699 2.6616 160.613 2.67596C160.517 2.69117 159.576 2.39348 159.066 2.41987C157.785 2.48722 157.206 2.78046 155.445 2.45726C156.449 2.13337 155.88 1.49523 157.011 1.66215ZM216.926 1.20499C216.98 0.917196 218.038 1.14621 218.419 1.09505C218.365 1.38353 217.307 1.15381 216.926 1.20499ZM60.2272 4.56396C59.9154 5.04152 62.3389 5.10023 61.6916 4.72436C61.5484 4.64093 60.5315 4.56006 60.2272 4.56396ZM71.1085 4.59081C71.4292 4.4532 70.1173 4.14594 70.1283 4.50954C70.133 4.62611 71.0672 4.6087 71.1085 4.59081ZM177.792 1.62997C177.853 1.6138 178.746 1.69724 178.774 1.72048C179.376 2.20535 176.438 1.98679 177.792 1.62997ZM84.3144 3.69755C83.193 4.0324 86.5934 4.085 85.546 3.71704C85.4938 3.69914 84.3683 3.68129 84.3144 3.69755ZM89.0343 3.49915C88.7641 3.5221 87.559 3.39779 87.5466 3.54155C87.5281 3.77344 88.9071 3.89875 89.0343 3.49915ZM200.132 0.949292C199.989 0.422973 201.582 0.786184 202.132 0.706398C202.275 1.23308 200.681 0.869323 200.132 0.949292ZM190.122 0.797068C196.791 0.220692 195.346 1.38689 189.73 1.06443C189.714 0.724977 189.701 0.83339 190.122 0.797068ZM198.676 0.656162C198.442 1.00111 197.681 0.918597 197.168 0.903627C197.254 0.665625 198.308 0.725923 198.676 0.656162ZM57.3275 3.90538C57.7362 3.46696 59.6038 3.95099 59.2782 4.13557C59.2023 4.17556 57.1793 4.14466 57.3275 3.90538ZM178.341 1.16359C178.173 0.652412 180.184 0.814683 180.34 0.925373C180.97 1.37057 178.5 1.04608 178.341 1.16359ZM209.601 0.27053C209.945 -0.141205 210.956 0.0422791 211.603 0.03223C211.317 0.384093 210.15 0.264716 209.601 0.27053ZM204.923 0.0657522C204.963 0.0493062 205.866 0.0642301 205.907 0.0818367C206.656 0.458145 204.101 0.418039 204.923 0.0657522ZM9.78128 4.34003C9.81104 4.32632 10.4949 4.33577 10.5191 4.35036C11.1382 4.72305 9.08555 4.69276 9.78128 4.34003Z" fill="#EDFF4D"/>
</svg>
