<svg preserveAspectRatio="none" width="100%" height="100%" overflow="visible" style="display: block;" viewBox="0 0 80 64" fill="none" xmlns="http://www.w3.org/2000/svg">
<g id="Group 5">
<path id="Vector" d="M41.8958 32C39.2538 32 37.1045 29.7958 37.1045 27.0865C37.1045 24.5965 38.9208 22.4989 41.3293 22.207C41.8761 22.1409 42.3333 21.7498 42.4949 21.2102C42.6568 20.6705 42.4927 20.0838 42.0764 19.7141C41.5142 19.2148 41.0672 18.5814 40.7829 17.8823C40.5671 17.351 40.061 17.0052 39.4998 17.0052C38.9386 17.0052 38.4325 17.3512 38.2167 17.8825C37.4686 19.7236 35.7313 20.9134 33.7909 20.9134C31.1494 20.9134 29 18.7092 29 15.9999C29 13.5099 30.8164 11.4121 33.2249 11.1204C33.7717 11.0543 34.2289 10.6632 34.3905 10.1236C34.5523 9.58384 34.3881 8.99717 33.9719 8.62749C32.9178 7.69105 32.3131 6.33743 32.3131 4.91349C32.3131 2.20417 34.4625 0 37.1045 0C39.7464 0 41.8958 2.20417 41.8958 4.91349C41.8958 7.40332 40.0794 9.50107 37.6709 9.79274C37.1241 9.85892 36.6669 10.25 36.5053 10.7895C36.3434 11.3293 36.5075 11.916 36.9238 12.2857C37.486 12.785 37.933 13.4184 38.2169 14.1173C38.4327 14.6486 38.9388 14.9946 39.5 14.9946C40.0612 14.9946 40.5673 14.6486 40.7831 14.1175C41.5314 12.2761 43.2685 11.0864 45.2089 11.0864C47.8506 11.0864 50 13.2906 50 15.9999C50 18.4899 48.1836 20.5875 45.7753 20.8794C45.2285 20.9455 44.7713 21.3366 44.6097 21.8762C44.4479 22.416 44.6119 23.0026 45.0283 23.3723C46.0824 24.3089 46.6871 25.6628 46.6871 27.0865C46.6871 29.7958 44.5377 32 41.8958 32Z" fill="var(--fill-0, white)"/>
<g id="Vector_2">
<path d="M65.2969 51.4958C65.2969 48.4034 68.1707 46.4874 71.7462 46.4874C74.7208 46.4874 76.8647 47.584 78.9787 49.6392C79.4508 50.0981 79.3818 50.8671 78.8598 51.2674L78.0287 51.9049C77.5461 52.2751 76.8628 52.1825 76.4405 51.7441C75.0602 50.3112 73.4707 49.5126 71.7128 49.5126C70.0086 49.5126 68.9059 50.2521 68.9059 51.4622C68.9059 52.874 70.3093 53.1093 72.0804 53.3446L73.0495 53.479C77.5606 54.0504 80 55.1933 80 58.4538C80 61.7143 76.9591 64 72.6485 64C68.6404 64 66.1722 62.0702 64.6735 59.9982C64.3106 59.4966 64.4926 58.8037 65.0244 58.4897L66.0639 57.876C66.6356 57.5385 67.3659 57.7832 67.7484 58.3278C68.9067 59.9766 70.7467 60.9076 72.7487 60.9076C74.7871 60.9076 76.3911 60 76.3911 58.5546C76.3911 57.0756 74.4864 56.874 72.7153 56.6387L71.7462 56.5042C67.5692 55.9664 65.2969 54.6219 65.2969 51.4958Z" fill="var(--fill-0, white)"/>
<path d="M49.689 51.6021C49.1362 51.2878 48.9512 50.5684 49.3389 50.0626C50.9119 48.0098 53.2103 46.4874 56.6942 46.4874C61.172 46.4874 64.0457 49.0757 64.0457 53.0084V62.409C64.0457 63.0278 63.547 63.5294 62.9319 63.5294H61.5507C60.9355 63.5294 60.4368 63.0278 60.4368 62.409V61.329C60.4368 61.1705 60.3091 61.042 60.1515 61.042C60.0402 61.042 59.9399 61.1071 59.8896 61.2069C59.2447 62.4869 57.7877 64 54.4887 64C50.7796 64 48.3402 61.9832 48.3402 58.8908C48.3402 56.0672 50.5122 54.353 54.2214 53.9832L59.9713 53.3892C60.2167 53.3638 60.4034 53.1558 60.4034 52.9076C60.4034 50.9916 59.0333 49.7143 56.5605 49.7143C54.6038 49.7143 53.2706 50.4929 52.354 51.7552C51.9761 52.2755 51.2786 52.5059 50.7209 52.1888L49.689 51.6021ZM52.1496 58.7227C52.1496 60.0672 53.2523 60.9412 55.2573 60.9412C58.6657 60.9412 60.4034 58.8908 60.4034 56.3361C60.4034 56.1924 60.2796 56.0804 60.1375 56.0955L55.0234 56.6387C53.2858 56.8067 52.1496 57.3782 52.1496 58.7227Z" fill="var(--fill-0, white)"/>
<path d="M31.8453 55.2269C31.8453 50.1177 35.5545 46.4874 40.3999 46.4874C44.4723 46.4874 47.2104 48.6515 48.2699 51.8174C48.4629 52.3943 48.0826 52.9836 47.4931 53.1209L46.1477 53.4341C45.5042 53.584 44.8859 53.131 44.6469 52.5116C44.0435 50.9477 42.639 49.8152 40.4333 49.8152C37.5929 49.8152 35.5211 51.9664 35.5211 55.2269C35.5211 58.4874 37.5261 60.6723 40.4667 60.6723C42.8 60.6723 44.0509 59.4927 44.664 57.879C44.8878 57.2899 45.482 56.8905 46.0928 57.0327L47.51 57.3627C48.1061 57.5015 48.4863 58.1014 48.2831 58.6819C47.2416 61.6567 44.6809 64 40.4333 64C35.5545 64 31.8453 60.3361 31.8453 55.2269Z" fill="var(--fill-0, white)"/>
<path d="M31.0186 62.4089C31.0186 63.0277 30.52 63.5293 29.9048 63.5293H28.5236C27.9084 63.5293 27.4097 63.0277 27.4097 62.4089V61.0595C27.4097 60.9013 27.2822 60.773 27.1249 60.773C27.0134 60.773 26.9128 60.8387 26.8631 60.9391C26.1278 62.4235 24.5903 63.7982 21.5619 63.7982C18.0198 63.7982 15.146 61.3108 15.146 56.8739V48.0784C15.146 47.4596 15.6447 46.9579 16.2599 46.9579H17.7079C18.3231 46.9579 18.8218 47.4596 18.8218 48.0784V56.5377C18.8218 59.126 20.2587 60.5713 22.7983 60.5713C25.6721 60.5713 27.3429 58.7562 27.3429 55.563V48.0784C27.3429 47.4596 27.8416 46.9579 28.4567 46.9579H29.9048C30.52 46.9579 31.0186 47.4596 31.0186 48.0784V62.4089Z" fill="var(--fill-0, white)"/>
<path d="M0 41.1204C0 40.5016 0.498696 40 1.11387 40H2.7624C3.37757 40 3.87627 40.5016 3.87627 41.1204V58.8459C3.87627 59.4647 4.37496 59.9664 4.99013 59.9664H13.9234C14.5385 59.9664 15.0372 60.468 15.0372 61.0868V62.4089C15.0372 63.0277 14.5385 63.5294 13.9234 63.5294H1.11387C0.498697 63.5294 0 63.0277 0 62.4089V41.1204Z" fill="var(--fill-0, white)"/>
</g>
</g>
</svg>
