<svg width="28" height="42" viewBox="0 0 28 42" fill="none" xmlns="http://www.w3.org/2000/svg">
<g clip-path="url(#clip0_1_401)">
<path d="M17.1943 42C13.6717 42 10.8059 39.107 10.8059 35.5511C10.8059 32.2829 13.2278 29.5299 16.4391 29.1468C17.1682 29.0599 17.7777 28.5466 17.9933 27.8384C18.209 27.13 17.9903 26.36 17.4352 25.8748C16.6856 25.2194 16.0895 24.3881 15.7106 23.4705C15.4228 22.7732 14.7479 22.3193 13.9997 22.3193C13.2515 22.3193 12.5767 22.7735 12.2889 23.4708C11.2914 25.8873 8.97505 27.4488 6.38786 27.4488C2.86581 27.4488 0 24.5558 0 20.9999C0 17.7317 2.42185 14.9784 5.63318 14.5956C6.36224 14.5087 6.97181 13.9955 7.18732 13.2873C7.4031 12.5788 7.18409 11.8088 6.62926 11.3236C5.22374 10.0945 4.41753 8.31788 4.41753 6.44895C4.41753 2.89297 7.28334 0 10.8059 0C14.3285 0 17.1943 2.89297 17.1943 6.44895C17.1943 9.71686 14.7725 12.4701 11.5612 12.853C10.8321 12.9398 10.2225 13.4531 10.007 14.1613C9.79123 14.8698 10.01 15.6398 10.5651 16.125C11.3146 16.7803 11.9107 17.6116 12.2891 18.5289C12.5769 19.2262 13.2518 19.6804 14 19.6804C14.7482 19.6804 15.4231 19.2262 15.7109 18.5292C16.7086 16.1124 19.0247 14.5509 21.6119 14.5509C25.1342 14.5509 28 17.4439 28 20.9999C28 24.268 25.5782 27.0211 22.3671 27.4042C21.638 27.491 21.0285 28.0043 20.8129 28.7125C20.5972 29.4209 20.8159 30.1909 21.371 30.6761C22.7765 31.9055 23.5827 33.6824 23.5827 35.5511C23.5827 39.107 20.7169 42 17.1943 42Z" fill="white"/>
</g>
<defs>
<clipPath id="clip0_1_401">
<rect width="28" height="42" fill="white"/>
</clipPath>
</defs>
</svg>
