<svg width="98" height="24" viewBox="0 0 98 24" fill="none" xmlns="http://www.w3.org/2000/svg">
<g clip-path="url(#clip0_1261_1441)">
<path d="M9.82533 24C7.81243 24 6.17482 22.3469 6.17482 20.3149C6.17482 18.4474 7.55873 16.8742 9.39378 16.6553C9.81038 16.6057 10.1587 16.3124 10.2819 15.9077C10.4052 15.5028 10.2802 15.0628 9.96297 14.7856C9.53465 14.4111 9.19403 13.9361 8.97748 13.4117C8.81302 13.0133 8.4274 12.7539 7.99985 12.7539C7.5723 12.7539 7.18667 13.0134 7.02221 13.4119C6.45225 14.7927 5.1286 15.685 3.65021 15.685C1.63761 15.685 0 14.0319 0 11.9999C0 10.1324 1.38391 8.55908 3.21896 8.34032C3.63557 8.29069 3.98389 7.99741 4.10704 7.59272C4.23034 7.18788 4.10519 6.74788 3.78815 6.47062C2.98499 5.76829 2.5243 4.75307 2.5243 3.68511C2.5243 1.65313 4.16191 0 6.17482 0C8.18773 0 9.82533 1.65313 9.82533 3.68511C9.82533 5.55249 8.44142 7.1258 6.60638 7.34456C6.18977 7.39419 5.84144 7.68747 5.71829 8.09216C5.59499 8.497 5.71999 8.93701 6.03718 9.21426C6.4655 9.58877 6.80613 10.0638 7.02237 10.588C7.18682 10.9864 7.57245 11.2459 8 11.2459C8.42755 11.2459 8.81318 10.9864 8.97763 10.5881C9.54775 9.20711 10.8712 8.31481 12.3496 8.31481C14.3624 8.31481 16 9.96794 16 11.9999C16 13.8675 14.6161 15.4406 12.7812 15.6595C12.3646 15.7092 12.0163 16.0024 11.8931 16.4071C11.7698 16.812 11.8948 17.252 12.212 17.5292C13.0152 18.2317 13.4759 19.2471 13.4759 20.3149C13.4759 22.3469 11.8382 24 9.82533 24Z" fill="#245039"/>
</g>
<path d="M84.7702 11.26C84.7702 8.50004 87.3502 6.79004 90.5602 6.79004C93.2306 6.79004 95.1554 7.76876 97.0533 9.60297C97.4771 10.0125 97.4151 10.6989 96.9465 11.0562L96.2003 11.6252C95.7671 11.9555 95.1537 11.8729 94.7745 11.4816C93.5353 10.2028 92.1083 9.49004 90.5302 9.49004C89.0002 9.49004 88.0102 10.15 88.0102 11.23C88.0102 12.49 89.2702 12.7 90.8602 12.91L91.7302 13.03C95.7802 13.54 97.9702 14.56 97.9702 17.47C97.9702 20.38 95.2402 22.42 91.3702 22.42C87.7719 22.42 85.556 20.6977 84.2104 18.8484C83.8847 18.4007 84.0481 17.7824 84.5255 17.5021L85.4587 16.9544C85.972 16.6531 86.6276 16.8715 86.971 17.3576C88.0109 18.8292 89.6628 19.66 91.4602 19.66C93.2902 19.66 94.7302 18.85 94.7302 17.56C94.7302 16.24 93.0202 16.06 91.4302 15.85L90.5602 15.73C86.8102 15.25 84.7702 14.05 84.7702 11.26Z" fill="#245039"/>
<path d="M70.7578 11.3549C70.2615 11.0744 70.0954 10.4324 70.4435 9.98085C71.8557 8.14876 73.9191 6.79004 77.0469 6.79004C81.0669 6.79004 83.6469 9.10004 83.6469 12.61V21C83.6469 21.5523 83.1992 22 82.6469 22H81.4069C80.8546 22 80.4069 21.5523 80.4069 21V20.0362C80.4069 19.8947 80.2922 19.78 80.1508 19.78C80.0508 19.78 79.9608 19.8381 79.9156 19.9272C79.3366 21.0696 78.0286 22.42 75.0669 22.42C71.7369 22.42 69.5469 20.62 69.5469 17.86C69.5469 15.34 71.4969 13.81 74.8269 13.48L79.9889 12.9499C80.2093 12.9272 80.3769 12.7416 80.3769 12.52C80.3769 10.81 79.1469 9.67004 76.9269 9.67004C75.1702 9.67004 73.9733 10.3649 73.1504 11.4915C72.8111 11.9559 72.1849 12.1615 71.6842 11.8785L70.7578 11.3549ZM72.9669 17.71C72.9669 18.91 73.9569 19.69 75.7569 19.69C78.8169 19.69 80.3769 17.86 80.3769 15.58C80.3769 15.4518 80.2658 15.3518 80.1382 15.3652L75.5469 15.85C73.9869 16 72.9669 16.51 72.9669 17.71Z" fill="#245039"/>
<path d="M54.7383 14.59C54.7383 10.03 58.0683 6.79004 62.4183 6.79004C66.0744 6.79004 68.5326 8.72151 69.4837 11.5471C69.6571 12.062 69.3156 12.5879 68.7863 12.7104L67.5785 12.99C67.0008 13.1237 66.4457 12.7194 66.2312 12.1666C65.6894 10.7709 64.4285 9.76004 62.4483 9.76004C59.8983 9.76004 58.0383 11.68 58.0383 14.59C58.0383 17.5 59.8383 19.45 62.4783 19.45C64.5731 19.45 65.6961 18.3973 66.2465 16.9571C66.4474 16.4313 66.9809 16.0748 67.5293 16.2017L68.8016 16.4963C69.3367 16.6201 69.6781 17.1556 69.4956 17.6736C68.5606 20.3286 66.2617 22.42 62.4483 22.42C58.0683 22.42 54.7383 19.15 54.7383 14.59Z" fill="#245039"/>
<path d="M53.9961 21C53.9961 21.5522 53.5484 22 52.9961 22H51.7561C51.2038 22 50.7561 21.5522 50.7561 21V19.7956C50.7561 19.6544 50.6416 19.54 50.5004 19.54C50.4003 19.54 50.31 19.5986 50.2654 19.6882C49.6052 21.013 48.2249 22.24 45.5061 22.24C42.3261 22.24 39.7461 20.02 39.7461 16.06V8.20996C39.7461 7.65768 40.1938 7.20996 40.7461 7.20996H42.0461C42.5984 7.20996 43.0461 7.65768 43.0461 8.20996V15.76C43.0461 18.07 44.3361 19.36 46.6161 19.36C49.1961 19.36 50.6961 17.74 50.6961 14.89V8.20996C50.6961 7.65768 51.1438 7.20996 51.6961 7.20996H52.9961C53.5484 7.20996 53.9961 7.65768 53.9961 8.20996V21Z" fill="#245039"/>
<path d="M26.1484 2C26.1484 1.44772 26.5962 1 27.1484 1H28.6284C29.1807 1 29.6284 1.44772 29.6284 2V17.82C29.6284 18.3723 30.0762 18.82 30.6284 18.82H38.6484C39.2007 18.82 39.6484 19.2677 39.6484 19.82V21C39.6484 21.5523 39.2007 22 38.6484 22H27.1484C26.5962 22 26.1484 21.5523 26.1484 21V2Z" fill="#245039"/>
<defs>
<clipPath id="clip0_1261_1441">
<rect width="16" height="24" fill="white"/>
</clipPath>
</defs>
</svg>
