<svg width="40" height="41" viewBox="0 0 40 41" fill="none" xmlns="http://www.w3.org/2000/svg">
<rect y="0.5" width="40" height="40" rx="8" fill="url(#paint0_linear_17_18)"/>
<path d="M21.5972 31C19.8359 31 18.403 29.5535 18.403 27.7755C18.403 26.1414 19.6139 24.7649 21.2196 24.5734C21.5841 24.5299 21.8889 24.2733 21.9966 23.9192C22.1045 23.565 21.9951 23.18 21.7176 22.9374C21.3428 22.6097 21.0448 22.1941 20.8553 21.7353C20.7114 21.3866 20.374 21.1597 19.9999 21.1597C19.6258 21.1597 19.2883 21.3867 19.1444 21.7354C18.6457 22.9436 17.4875 23.7244 16.1939 23.7244C14.4329 23.7244 13 22.2779 13 20.4999C13 18.8658 14.2109 17.4892 15.8166 17.2978C16.1811 17.2544 16.4859 16.9977 16.5937 16.6436C16.7016 16.2894 16.592 15.9044 16.3146 15.6618C15.6119 15.0473 15.2088 14.1589 15.2088 13.2245C15.2088 11.4465 16.6417 10 18.403 10C20.1643 10 21.5972 11.4465 21.5972 13.2245C21.5972 14.8584 20.3862 16.2351 18.7806 16.4265C18.416 16.4699 18.1113 16.7265 18.0035 17.0806C17.8956 17.4349 18.005 17.8199 18.2825 18.0625C18.6573 18.3902 18.9554 18.8058 19.1446 19.2645C19.2885 19.6131 19.6259 19.8402 20 19.8402C20.3741 19.8402 20.7115 19.6131 20.8554 19.2646C21.3543 18.0562 22.5123 17.2755 23.8059 17.2755C25.5671 17.2755 27 18.7219 27 20.4999C27 22.134 25.7891 23.5105 24.1835 23.7021C23.819 23.7455 23.5142 24.0021 23.4065 24.3562C23.2986 24.7105 23.408 25.0955 23.6855 25.3381C24.3883 25.9527 24.7914 26.8412 24.7914 27.7755C24.7914 29.5535 23.3585 31 21.5972 31Z" fill="white"/>
<defs>
<linearGradient id="paint0_linear_17_18" x1="-7.5" y1="20.5" x2="49" y2="20.5" gradientUnits="userSpaceOnUse">
<stop stop-color="#DBEBBC"/>
<stop offset="0.5" stop-color="#BCD5A7"/>
<stop offset="1" stop-color="#B8D5A7"/>
</linearGradient>
</defs>
</svg>
