<svg width="48" height="48" viewBox="0 0 48 48" fill="none" xmlns="http://www.w3.org/2000/svg">
<g clip-path="url(#clip0_1_92)">
<path d="M10.5 16C10.5 16.552 10.948 17 11.5 17C12.052 17 12.5 16.552 12.5 16H10.5ZM35.5 16C35.5 16.552 35.948 17 36.5 17C37.052 17 37.5 16.552 37.5 16H35.5ZM15.5 24.5C14.948 24.5 14.5 24.948 14.5 25.5C14.5 26.052 14.948 26.5 15.5 26.5V24.5ZM23.5 26.5C24.052 26.5 24.5 26.052 24.5 25.5C24.5 24.948 24.052 24.5 23.5 24.5V26.5ZM39.51 20.7V34.1H41.51V20.7H39.51ZM34.11 39.5H13.9V41.5H34.11V39.5ZM8.5 34.1V20.7H6.5V34.1H8.5ZM10.7 18.5H37.31V16.5H10.7V18.5ZM13.9 39.5C12.763 39.5 11.971 39.5 11.354 39.449C10.749 39.399 10.401 39.307 10.138 39.173L9.23 40.955C9.822 41.257 10.462 41.383 11.191 41.442C11.908 41.501 12.796 41.5 13.9 41.5V39.5ZM6.5 34.1C6.5 35.204 6.5 36.091 6.558 36.809C6.618 37.538 6.743 38.178 7.045 38.77L8.827 37.862C8.693 37.599 8.601 37.251 8.551 36.646C8.501 36.029 8.5 35.236 8.5 34.1H6.5ZM10.138 39.173C9.574 38.885 9.115 38.426 8.827 37.862L7.045 38.77C7.524 39.711 8.289 40.476 9.23 40.955L10.138 39.173ZM39.51 34.1C39.51 35.237 39.51 36.029 39.459 36.646C39.409 37.251 39.317 37.599 39.183 37.862L40.965 38.77C41.267 38.178 41.393 37.537 41.452 36.809C41.511 36.091 41.51 35.204 41.51 34.1H39.51ZM34.11 41.5C35.214 41.5 36.101 41.5 36.819 41.442C37.547 41.382 38.188 41.257 38.78 40.955L37.872 39.173C37.609 39.307 37.261 39.399 36.656 39.449C36.039 39.499 35.246 39.5 34.11 39.5V41.5ZM39.183 37.862C38.895 38.426 38.436 38.885 37.872 39.173L38.78 40.955C39.721 40.476 40.486 39.711 40.965 38.77L39.183 37.862ZM41.51 20.7C41.51 20.156 41.51 19.689 41.48 19.305C41.447 18.91 41.376 18.516 41.183 18.138L39.401 19.046C39.426 19.096 39.464 19.196 39.486 19.468C39.509 19.751 39.51 20.123 39.51 20.7H41.51ZM37.31 18.5C37.887 18.5 38.259 18.5 38.542 18.524C38.814 18.546 38.914 18.584 38.964 18.609L39.872 16.827C39.494 16.634 39.1 16.563 38.705 16.531C38.321 16.499 37.853 16.5 37.31 16.5V18.5ZM41.183 18.138C40.895 17.574 40.436 17.115 39.872 16.827L38.964 18.609C39.152 18.705 39.305 18.858 39.401 19.046L41.183 18.138ZM8.5 20.7C8.5 20.123 8.5 19.751 8.524 19.468C8.546 19.196 8.584 19.096 8.609 19.046L6.827 18.138C6.634 18.516 6.563 18.91 6.531 19.305C6.499 19.689 6.5 20.156 6.5 20.7H8.5ZM10.7 16.5C10.156 16.5 9.689 16.5 9.305 16.53C8.91 16.563 8.516 16.634 8.138 16.827L9.046 18.609C9.096 18.584 9.196 18.546 9.468 18.524C9.751 18.501 10.123 18.5 10.7 18.5V16.5ZM8.609 19.046C8.705 18.858 8.858 18.705 9.046 18.609L8.138 16.827C7.574 17.115 7.115 17.574 6.827 18.138L8.609 19.046ZM12.5 16V7.5H10.5V16H12.5ZM13.5 6.5H19.343V4.5H13.5V6.5ZM21.465 7.379L23.707 9.621L25.121 8.207L22.879 5.964L21.465 7.379ZM25.828 10.5H34.5V8.5H25.828V10.5ZM35.5 11.5V16H37.5V11.5H35.5ZM34.5 10.5C35.052 10.5 35.5 10.948 35.5 11.5H37.5C37.5 9.843 36.157 8.5 34.5 8.5V10.5ZM23.707 9.621C24.269 10.184 25.032 10.5 25.828 10.5V8.5C25.563 8.5 25.308 8.395 25.121 8.207L23.707 9.621ZM19.343 6.5C20.139 6.5 20.902 6.816 21.465 7.379L22.879 5.964C21.941 5.026 20.669 4.5 19.343 4.5V6.5ZM12.5 7.5C12.5 6.948 12.948 6.5 13.5 6.5V4.5C11.843 4.5 10.5 5.843 10.5 7.5H12.5ZM15.5 26.5H23.5V24.5H15.5V26.5Z" fill="#3F8F24"/>
</g>
<defs>
<clipPath id="clip0_1_92">
<rect width="48" height="48" fill="white"/>
</clipPath>
</defs>
</svg>
