<svg width="214" height="15" viewBox="0 0 214 15" fill="none" xmlns="http://www.w3.org/2000/svg">
<path fill-rule="evenodd" clip-rule="evenodd" d="M4.56516 7.96704H6.7518C8.75588 7.96704 9.75526 8.93577 9.75526 10.8119C9.75526 12.5375 8.72657 13.4156 6.72115 13.4156H4.56516V7.96704ZM7.81513 14.6282C10.692 14.6282 12.3576 13.2931 12.3576 10.9625C12.3576 8.69325 10.692 7.32877 7.78582 7.23816C9.99778 7.23816 11.5981 5.93098 11.5981 4.10411C11.5981 1.97344 9.96713 0.606292 7.39007 0.606292H0V1.72959H2.27725V13.5036H0V14.6269L7.81513 14.6282ZM4.56516 1.82153H6.72115C8.20956 1.82153 8.99973 2.67434 8.99973 4.19606C8.99973 5.74842 8.02834 6.75313 6.50795 6.75313H4.56516V1.82153ZM23.0004 1.51106C25.5588 1.51106 27.6295 4.20805 27.6295 7.60194C27.6295 11.0265 25.5894 13.7248 23.0004 13.7248C20.4433 13.7248 18.4019 10.9972 18.4019 7.57262C18.4019 4.20805 20.4419 1.51106 23.0004 1.51106ZM23.031 15C26.8686 15 30.1972 11.5421 30.1972 7.57262C30.1972 3.66305 26.8673 0.235856 23.031 0.235856C19.1334 0.235856 15.8035 3.6324 15.8035 7.57262C15.8035 11.5728 19.1321 15 23.031 15ZM35.1248 14.7868H34.0148V11.0011H35.1248V12.5748C36.3387 13.3024 37.1915 13.5742 38.2255 13.5742C39.7486 13.5742 40.8439 12.7267 40.8439 11.5475C40.8439 10.3975 40.0218 9.61002 37.4953 8.34014C34.825 7.00764 33.9229 5.94963 33.9229 4.16407C33.9229 1.9841 35.8204 0.255843 38.2562 0.255843C39.2243 0.241743 40.1791 0.482047 41.0251 0.952735V0.194551H42.1351V3.82962H41.0251V2.31589C39.8379 1.68029 39.2902 1.52972 38.4681 1.52972C37.0383 1.52972 36.0949 2.31589 36.0949 3.55645C36.0949 4.34263 36.4293 4.7677 37.4647 5.37265C38.2562 5.82704 38.9864 6.24944 39.626 6.61321C42.2257 8.06697 42.9533 9.03437 42.9533 11.0011C42.9533 13.2704 41.0864 15 38.5613 15C37.4047 15 36.3094 14.6655 35.1248 13.9979V14.7868ZM57.0578 14.6282H49.5918V13.5049H52.1835V1.82153H47.7369V3.52047H46.6563V0H47.7369V0.607623H58.91V0H60.02V3.52047H58.91V1.82153H54.4714V13.5049H57.0578V14.6282ZM69.6247 1.51106C72.1817 1.51106 74.2538 4.20805 74.2538 7.60194C74.2538 11.0265 72.2137 13.7248 69.6247 13.7248C67.0663 13.7248 65.0262 10.9972 65.0262 7.57262C65.0262 4.20805 67.0663 1.51106 69.6247 1.51106ZM69.654 15C73.4916 15 76.8202 11.5421 76.8202 7.57262C76.8202 3.66305 73.4902 0.235856 69.654 0.235856C65.7564 0.235856 62.4265 3.6324 62.4265 7.57262C62.4265 11.5728 65.7564 15 69.654 15ZM93.5111 14.8707H92.609L83.8185 4.55183V13.5049H86.1237V14.6282H80.0408V13.5049H82.3168V2.61037L81.7105 1.82153H79.5851V0.607623H83.4867L92.0094 10.5001V1.82153H89.7042V0.607623H95.7884V1.82153H93.5111V14.8707ZM120.35 13.9979C118.698 14.7268 117.483 15 115.536 15C110.948 15 107.65 11.9099 107.65 7.64191C107.65 3.28462 110.948 0.225191 115.689 0.225191C117.027 0.225191 117.879 0.467705 119.272 1.13662V0.195882H120.35V3.8003H119.272V2.77161C117.968 1.83353 116.995 1.5004 115.627 1.5004C112.527 1.5004 110.247 4.01217 110.247 7.40206C110.247 11.0025 112.74 13.7261 116.053 13.7261C117.086 13.7261 117.815 13.4836 119.242 12.7281L119.272 11.185H120.35V13.9979ZM130.358 1.51106C132.916 1.51106 134.985 4.20805 134.985 7.60194C134.985 11.0265 132.945 13.7248 130.358 13.7248C127.799 13.7248 125.759 10.9972 125.759 7.57262C125.759 4.20805 127.799 1.51106 130.358 1.51106ZM130.388 15C134.224 15 137.553 11.5421 137.553 7.57262C137.553 3.66305 134.224 0.235856 130.388 0.235856C126.489 0.235856 123.161 3.6324 123.161 7.57262C123.162 11.5728 126.491 15 130.388 15ZM151.539 14.6282H140.807V13.5049H143.084V1.82153H140.807V0.607623H147.644V1.82153H145.372V13.413H150.46V11.5635H151.539V14.6282ZM165.866 14.6282H155.137V13.5049H157.411V1.82153H155.137V0.607623H161.971V1.82153H159.698V13.413H164.787V11.5635H165.866V14.6282ZM180.376 14.6282H169.524V13.5049H171.801V1.72959H169.524V0.607623H179.041V0H180.162V3.40188H179.07V1.82153H174.088V6.89704H177.989V5.43795L179.1 5.40863V9.62734H177.989V8.11228H174.088V13.413H179.251V11.8073H180.376V14.6282ZM197.62 13.9979C195.478 14.7561 194.2 15 192.464 15C187.866 15 184.568 11.9073 184.568 7.63658C184.568 3.4352 187.956 0.255843 192.402 0.255843C193.589 0.255843 194.504 0.438395 196.238 1.01537V0.195882H197.349V3.79763H196.238V2.40783C194.869 1.71227 193.925 1.44044 192.737 1.44044C189.539 1.44044 187.165 3.98019 187.165 7.36475C187.165 11.1211 189.723 13.7861 193.346 13.7861C193.955 13.7861 194.382 13.7261 195.356 13.4836V9.96713H193.042V8.84383H199.926V9.96713H197.621V13.9979H197.62ZM213.522 14.6282H202.67V13.5049H204.946V1.72959H202.67V0.607623H212.187V0H213.309V3.40188H212.219V1.82153H207.236V6.89704H211.138V5.43795L212.247 5.40863V9.62734H211.138V8.11228H207.236V13.413H212.4V11.8073H213.522V14.6282Z" fill="white"/>
</svg>
