<svg width="47" height="15" viewBox="0 0 47 15" fill="none" xmlns="http://www.w3.org/2000/svg">
<path d="M11.0283 6.37539L10.7986 6.3592L10.7822 6.18121H11.6518L11.6354 6.3592L11.4713 6.37539L11.4221 6.74754V7.16826C11.1104 7.24917 10.7986 7.29771 10.4704 7.29771C9.5352 7.29771 9.04297 6.68282 9.04297 5.87376C9.04297 5.53396 9.14142 5.14561 9.38753 4.88671C9.65006 4.59545 10.0438 4.48218 10.454 4.48218C10.7986 4.48218 11.1268 4.53072 11.4549 4.61163L11.4221 5.08089L11.2252 5.0647L11.2088 4.85435C10.9791 4.74108 10.7494 4.66017 10.4869 4.66017C9.73209 4.66017 9.46958 5.33978 9.46958 5.9223C9.46958 6.56955 9.84695 7.11972 10.6181 7.11972C10.7658 7.11972 10.8971 7.10353 11.0447 7.07118V6.37539H11.0283Z" fill="white" stroke="white" stroke-width="0.288" stroke-miterlimit="10" stroke-linecap="round" stroke-linejoin="round"/>
<path d="M12.2428 5.30748L12.1608 5.06476L12.0623 5.04859L12.0459 4.90295H12.7186L12.7022 5.04859L12.5217 5.06476L12.9319 6.63434L13.4734 4.91914H13.6539L14.1953 6.65052L14.6876 5.06476L14.4907 5.04859L14.4743 4.90295H15.0485L15.0321 5.04859L14.9337 5.06476L14.8024 5.3884L14.2281 7.21688H14.0477L13.4898 5.45312L12.9155 7.21688H12.7514L12.2428 5.30748Z" fill="white" stroke="white" stroke-width="0.288" stroke-miterlimit="10" stroke-linecap="round" stroke-linejoin="round"/>
<path d="M15.6063 5.35602L15.5899 5.06476L15.4422 5.04859L15.4258 4.90295H16.1149L16.0985 5.04859L15.9508 5.06476L15.9344 5.35602V6.73144L15.9508 7.0227L16.0985 7.03888L16.1149 7.18451H15.4258L15.4422 7.03888L15.5899 7.0227L15.6063 6.73144V5.35602Z" fill="white" stroke="white" stroke-width="0.288" stroke-miterlimit="10" stroke-linecap="round" stroke-linejoin="round"/>
<path d="M16.7054 5.35602L16.689 5.06476L16.5413 5.04859L16.5249 4.90295H16.9843L18.3461 6.76379V5.35602L18.3298 5.06476L18.1821 5.04859L18.1657 4.90295H18.8056L18.7892 5.04859L18.6415 5.06476L18.6252 5.35602V7.21688H18.3298L17.0007 5.3884V6.73144L17.0171 7.0227L17.1648 7.03888L17.1812 7.18451H16.5413L16.5577 7.03888L16.7054 7.0227L16.7218 6.73144V5.35602H16.7054Z" fill="white" stroke="white" stroke-width="0.288" stroke-miterlimit="10" stroke-linecap="round" stroke-linejoin="round"/>
<path d="M19.3144 5.35602L19.2978 5.06476L19.1502 5.04859L19.1338 4.90295H19.5932L20.9552 6.76379V5.35602L20.9386 5.06476L20.7911 5.04859L20.7746 4.90295H21.4146L21.3981 5.04859L21.2504 5.06476L21.234 5.35602V7.21688H20.9386L19.6096 5.3884V6.73144L19.6261 7.0227L19.7737 7.03888L19.7902 7.18451H19.1502L19.1667 7.03888L19.3144 7.0227L19.3308 6.73144V5.35602H19.3144Z" fill="white" stroke="white" stroke-width="0.288" stroke-miterlimit="10" stroke-linecap="round" stroke-linejoin="round"/>
<path d="M38.7412 5.30746L38.7248 5.0162L38.5771 5.00001L38.5605 4.85437H39.02L40.3819 6.71522V5.30746L40.3656 5.0162L40.2179 5.00001L40.2015 4.85437H40.8414L40.825 5.00001L40.6773 5.0162L40.6608 5.30746V7.16829H40.3656L39.0365 5.33981V6.68285L39.0529 6.97411L39.2006 6.9903L39.217 7.13594H38.5771L38.5935 6.9903L38.7412 6.97411L38.7575 6.68285V5.30746H38.7412Z" fill="white" stroke="white" stroke-width="0.288" stroke-miterlimit="10" stroke-linecap="round" stroke-linejoin="round"/>
<path d="M21.7427 7.18451L21.759 7.03888L21.9067 7.0227L21.9231 6.73144V5.35602L21.9067 5.06476L21.759 5.04859L21.7427 4.90295H23.3014L23.2851 5.24276L23.121 5.22657L23.1044 5.06476L22.76 5.04859H22.2678V5.90619H23.121L23.1044 6.08419L22.6943 6.068H22.2678V6.73144L22.2841 7.0227H22.842L23.1701 7.00651L23.1865 6.82852L23.3505 6.81233L23.3671 7.18451H21.7427Z" fill="white" stroke="white" stroke-width="0.288" stroke-miterlimit="10" stroke-linecap="round" stroke-linejoin="round"/>
<path d="M32.8179 4.54688L32.785 4.9676L32.5718 4.95141L32.5389 4.75723C32.3257 4.64397 32.096 4.57924 31.8498 4.57924C31.4889 4.57924 31.1771 4.70869 30.9965 4.98377C30.8161 5.22649 30.7341 5.55012 30.7341 5.84138C30.7341 6.45626 31.1442 7.03879 31.9318 7.03879C32.2435 7.03879 32.5882 6.95789 32.8343 6.79608V7.00643C32.5389 7.16824 32.1781 7.21678 31.8498 7.21678C31.3905 7.21678 30.9965 7.1197 30.6848 6.81225C30.3896 6.52099 30.291 6.165 30.291 5.79284C30.291 5.45302 30.406 5.0485 30.6684 4.78961C30.9638 4.48216 31.374 4.40125 31.8334 4.40125C32.1615 4.40125 32.4241 4.4498 32.7523 4.51453L32.8179 4.54688Z" fill="white" stroke="white" stroke-width="0.288" stroke-miterlimit="10" stroke-linecap="round" stroke-linejoin="round"/>
<path d="M21.2497 9.48221L21.2333 9.8382L21.0529 9.82202L21.0365 9.66021C20.8559 9.56313 20.6755 9.51459 20.4621 9.51459C20.1667 9.51459 19.9207 9.62785 19.7566 9.85439C19.6089 10.0647 19.5432 10.3398 19.5432 10.5825C19.5432 11.1003 19.8715 11.5858 20.5278 11.5858C20.7739 11.5858 21.0693 11.5049 21.2661 11.3916V11.5696C21.02 11.699 20.7248 11.7476 20.4458 11.7476C20.0683 11.7476 19.7402 11.6667 19.4941 11.4078C19.248 11.1651 19.166 10.8576 19.166 10.5502C19.166 10.2589 19.2644 9.91911 19.4778 9.70875C19.7239 9.44986 20.0683 9.38513 20.4294 9.38513C20.7082 9.38513 20.9216 9.41749 21.184 9.48221H21.2497Z" fill="white" stroke="white" stroke-width="0.288" stroke-miterlimit="10" stroke-linecap="round" stroke-linejoin="round"/>
<path d="M27.4354 9.48221L27.4189 9.8382L27.2384 9.82202L27.2221 9.66021C27.0416 9.56313 26.861 9.51459 26.6477 9.51459C26.3359 9.51459 26.0898 9.62785 25.9421 9.85439C25.7945 10.0647 25.729 10.3398 25.729 10.5825C25.729 11.1003 26.0571 11.5858 26.7133 11.5858C26.9594 11.5858 27.2548 11.521 27.4518 11.3916V11.5696C27.2057 11.699 26.9103 11.7476 26.6313 11.7476C26.2539 11.7476 25.9258 11.6667 25.6797 11.4078C25.4336 11.1651 25.3516 10.8576 25.3516 10.5502C25.3516 10.2589 25.45 9.91911 25.6633 9.70875C25.9094 9.44986 26.2539 9.38513 26.6149 9.38513C26.8939 9.38513 27.1071 9.43367 27.3697 9.48221H27.4354Z" fill="white" stroke="white" stroke-width="0.288" stroke-miterlimit="10" stroke-linecap="round" stroke-linejoin="round"/>
<path d="M36.1326 5.30746L36.1162 5.0162L35.9685 5.00001L35.9521 4.85437H36.6906L36.674 5.00001L36.5264 5.0162L36.51 5.30746V6.18124C36.51 6.34305 36.51 6.58577 36.5756 6.73139C36.6577 6.94176 36.9038 7.03884 37.1335 7.03884C37.3305 7.03884 37.5602 6.95795 37.6586 6.81231C37.7734 6.6505 37.757 6.42396 37.757 6.24597V5.30746L37.7406 5.0162L37.5929 5.00001L37.5766 4.85437H38.2328L38.2164 5.00001L38.0687 5.0162L38.0524 5.30746V6.16506C38.0524 6.40778 38.0687 6.6505 37.9047 6.87703C37.7242 7.11975 37.4616 7.20065 37.1335 7.20065C36.8547 7.20065 36.5593 7.15211 36.3788 6.94176C36.1982 6.74758 36.1819 6.48869 36.1819 6.26214V5.30746H36.1326Z" fill="white" stroke="white" stroke-width="0.288" stroke-miterlimit="10" stroke-linecap="round" stroke-linejoin="round"/>
<path d="M11.5526 9.82198L11.5361 9.53072L11.3885 9.51454L11.3721 9.3689H12.1104L12.094 9.51454L11.9464 9.53072L11.9299 9.82198V10.6958C11.9299 10.8576 11.9299 11.1003 11.9956 11.2459C12.0776 11.4563 12.3237 11.5534 12.5534 11.5534C12.7503 11.5534 12.9801 11.4725 13.0785 11.3268C13.1933 11.165 13.1769 10.9385 13.1769 10.7605V9.82198L13.1605 9.53072L13.0129 9.51454L12.9965 9.3689H13.6528L13.6364 9.51454L13.4887 9.53072L13.4723 9.82198V10.6796C13.4723 10.9223 13.4887 11.165 13.3246 11.3916C13.1441 11.6343 12.8816 11.7152 12.5534 11.7152C12.2745 11.7152 11.9792 11.6666 11.7987 11.4563C11.6182 11.2621 11.6018 11.0032 11.6018 10.7767V9.82198H11.5526Z" fill="white" stroke="white" stroke-width="0.288" stroke-miterlimit="10" stroke-linecap="round" stroke-linejoin="round"/>
<path d="M42.072 4.99994H41.6455L41.3501 5.01613L41.3338 5.19412L41.1697 5.21031L41.1533 4.83813H43.3356L43.319 5.21031L43.155 5.19412L43.1386 5.01613L42.8432 4.99994H42.4167V6.68279L42.4331 6.97407L42.5807 6.99023L42.5971 7.13587H41.908L41.9245 6.99023L42.072 6.97407L42.0886 6.68279V4.99994H42.072Z" fill="white" stroke="white" stroke-width="0.288" stroke-miterlimit="10" stroke-linecap="round" stroke-linejoin="round"/>
<path d="M24.5649 5.04854H24.1384L23.843 5.06471L23.8266 5.24271L23.6624 5.25889L23.646 4.88672H25.8446L25.8282 5.25889L25.6642 5.24271L25.6478 5.06471L25.3524 5.04854H24.9259V6.73139L24.9423 7.02265L25.09 7.03883L25.1063 7.18446H24.4172L24.4336 7.03883L24.5812 7.02265L24.5976 6.73139V5.04854H24.5649Z" fill="white" stroke="white" stroke-width="0.288" stroke-miterlimit="10" stroke-linecap="round" stroke-linejoin="round"/>
<path d="M27.0751 5.04854H26.6486L26.3532 5.06471L26.3369 5.24271L26.1728 5.25889L26.1562 4.88672H28.355L28.3385 5.25889L28.1744 5.24271L28.1581 5.06471L27.8627 5.04854H27.4362V6.73139L27.4525 7.02265L27.6002 7.03883L27.6166 7.18446H26.9274L26.9438 7.03883L27.0915 7.02265L27.108 6.73139V5.04854H27.0751Z" fill="white" stroke="white" stroke-width="0.288" stroke-miterlimit="10" stroke-linecap="round" stroke-linejoin="round"/>
<path d="M43.9756 5.27509L43.7951 5.0162L43.6965 5.00001L43.6802 4.85437H44.3857L44.3693 5.00001L44.2053 5.0162L44.7631 5.90617L45.3373 5.0162L45.1733 5.00001L45.1569 4.85437H45.6984L45.682 5.00001L45.5836 5.0162L45.3539 5.33981L44.8451 6.11652V6.68285L44.8615 6.97411L45.0092 6.9903L45.0256 7.13594H44.3366L44.353 6.9903L44.5007 6.97411L44.517 6.68285V6.11652L43.9756 5.27509Z" fill="white" stroke="white" stroke-width="0.288" stroke-miterlimit="10" stroke-linecap="round" stroke-linejoin="round"/>
<path d="M9.68229 11.4564L9.9284 11.4726L9.9448 11.6506H9.0752L9.0916 11.4726L9.25568 11.4564L9.27208 11.1166V9.49846L9.25568 9.15866L9.0916 9.14247L9.0752 8.96448H10.1909C10.6832 8.96448 11.0277 9.17483 11.0277 9.66027C11.0277 9.95153 10.8965 10.2266 10.6175 10.3722C10.355 10.5017 10.0268 10.5341 9.74791 10.5341H9.68229V11.4564ZM9.74791 10.3561C9.97763 10.3561 10.1909 10.3561 10.3714 10.2104C10.5355 10.081 10.6011 9.87062 10.6011 9.66027C10.6011 9.28809 10.3878 9.12629 10.0104 9.12629C9.89558 9.12629 9.78074 9.14247 9.66588 9.17483V10.3561H9.74791Z" fill="white" stroke="white" stroke-width="0.288" stroke-miterlimit="10" stroke-linecap="round" stroke-linejoin="round"/>
<path d="M13.9976 11.6667L14.014 11.521L14.1616 11.5049L14.1781 11.2136V9.8382L14.1616 9.54694L14.014 9.53075L13.9976 9.38513H14.818C14.982 9.38513 15.1625 9.38513 15.3102 9.46604C15.4579 9.54694 15.5563 9.72493 15.5563 9.88674C15.5563 10.1942 15.2938 10.4046 15.0149 10.4855C15.3594 10.5178 15.6712 10.7444 15.6712 11.0842C15.6712 11.2783 15.5727 11.4563 15.3922 11.5696C15.2117 11.6829 14.982 11.6667 14.7851 11.6667H13.9976ZM14.5554 10.4046C14.7195 10.4046 14.8672 10.4207 14.9984 10.3236C15.1297 10.2266 15.1953 10.0809 15.1953 9.91911C15.1953 9.53075 14.8508 9.51459 14.5226 9.51459H14.4898V10.3884H14.5554V10.4046ZM14.7523 11.5049C14.9 11.5049 15.0477 11.4725 15.1625 11.3754C15.261 11.2945 15.3102 11.1651 15.3102 11.0518C15.3102 10.712 14.9328 10.5502 14.6211 10.5502H14.5226V11.1974L14.539 11.4887L14.7523 11.5049Z" fill="white" stroke="white" stroke-width="0.288" stroke-miterlimit="10" stroke-linecap="round" stroke-linejoin="round"/>
<path d="M16.2615 9.82198L16.2451 9.53072L16.0975 9.51454L16.0811 9.3689H16.7702L16.7538 9.51454L16.6061 9.53072L16.5897 9.82198V11.1974L16.6061 11.4886H17.164L17.5085 11.4725L17.5249 11.2621L17.6891 11.2459L17.7054 11.6666H16.0811L16.0975 11.521L16.2451 11.5048L16.2615 11.2136V9.82198Z" fill="white" stroke="white" stroke-width="0.288" stroke-miterlimit="10" stroke-linecap="round" stroke-linejoin="round"/>
<path d="M18.2634 9.82198L18.2471 9.53072L18.0994 9.51454L18.083 9.3689H18.7722L18.7556 9.51454L18.6079 9.53072L18.5916 9.82198V11.1974L18.6079 11.4886L18.7556 11.5048L18.7722 11.6504H18.083L18.0994 11.5048L18.2471 11.4886L18.2634 11.1974V9.82198Z" fill="white" stroke="white" stroke-width="0.288" stroke-miterlimit="10" stroke-linecap="round" stroke-linejoin="round"/>
<path d="M23.2187 11.165L23.4155 11.1812L23.4319 11.3592C23.5961 11.4563 23.7765 11.5534 23.9733 11.5534C24.3016 11.5534 24.5641 11.3592 24.5641 11.0518C24.5641 10.712 24.2851 10.5825 24.0063 10.4369C23.6616 10.2589 23.2351 10.0485 23.2351 9.6278C23.2351 9.43364 23.3335 9.25565 23.4812 9.11001C23.6452 8.96439 23.8422 8.89966 24.0719 8.89966C24.318 8.89966 24.5641 8.93201 24.8102 9.01293L24.7938 9.43364L24.5968 9.41745L24.5805 9.23946C24.4328 9.15855 24.2523 9.09384 24.0883 9.09384C23.8256 9.09384 23.6452 9.30419 23.6452 9.54691C23.6452 9.83817 23.9079 9.96762 24.1374 10.0971C24.3016 10.1942 24.5148 10.2912 24.6625 10.4045C24.8595 10.5501 24.9579 10.7281 24.9579 10.9708C24.9579 11.4563 24.5148 11.7475 24.0226 11.7475C23.7436 11.7475 23.4648 11.699 23.2021 11.6181L23.2187 11.165Z" fill="white" stroke="white" stroke-width="0.288" stroke-miterlimit="10" stroke-linecap="round" stroke-linejoin="round"/>
<path d="M28.4197 11.1974L28.4361 11.4886L28.5837 11.5048L28.6003 11.6504H27.9111L27.9275 11.5048L28.0752 11.4886L28.0916 11.1974V9.82198L28.0752 9.53072L27.9275 9.51454L27.9111 9.3689H28.6003L28.5837 9.51454L28.4361 9.53072L28.4197 9.82198V10.3883H29.6667V9.82198L29.6503 9.53072L29.5026 9.51454L29.4862 9.3689H30.1754L30.159 9.51454L30.0113 9.53072L29.9948 9.82198V11.1974L30.0113 11.4886L30.159 11.5048L30.1754 11.6504H29.4862L29.5026 11.5048L29.6503 11.4886L29.6667 11.1974V10.5501H28.4197V11.1974Z" fill="white" stroke="white" stroke-width="0.288" stroke-miterlimit="10" stroke-linecap="round" stroke-linejoin="round"/>
<path d="M30.8813 11.3916C30.6516 11.1489 30.5859 10.8576 30.5859 10.5502C30.5859 10.2427 30.6516 9.95144 30.8649 9.70872C31.0947 9.44983 31.4228 9.33655 31.7836 9.33655C32.1283 9.33655 32.4401 9.43365 32.6698 9.67637C32.9159 9.91909 32.9815 10.2265 32.9815 10.5502C32.9815 10.8414 32.9159 11.1488 32.7025 11.3754C32.4728 11.6343 32.1447 11.7476 31.7836 11.7476C31.4392 11.7314 31.111 11.6343 30.8813 11.3916ZM32.6205 10.534C32.6205 10.0647 32.4237 9.48219 31.7836 9.48219C31.1438 9.48219 30.947 10.0647 30.947 10.534C30.947 11.0032 31.1438 11.5857 31.7836 11.5857C32.4237 11.5857 32.6205 11.0032 32.6205 10.534Z" fill="white" stroke="white" stroke-width="0.288" stroke-miterlimit="10" stroke-linecap="round" stroke-linejoin="round"/>
<path d="M33.6211 11.3916C33.3913 11.1489 33.3257 10.8576 33.3257 10.5502C33.3257 10.2427 33.3913 9.95144 33.6047 9.70872C33.8344 9.44983 34.1625 9.33655 34.5236 9.33655C34.8681 9.33655 35.1798 9.43365 35.4095 9.67637C35.6556 9.91909 35.7213 10.2265 35.7213 10.5502C35.7213 10.8414 35.6556 11.1488 35.4423 11.3754C35.2127 11.6343 34.8844 11.7476 34.5236 11.7476C34.1789 11.7314 33.8508 11.6343 33.6211 11.3916ZM35.3602 10.534C35.3602 10.0647 35.1634 9.48219 34.5236 9.48219C33.8837 9.48219 33.6867 10.0647 33.6867 10.534C33.6867 11.0032 33.8837 11.5857 34.5236 11.5857C35.1634 11.5857 35.3602 11.0032 35.3602 10.534Z" fill="white" stroke="white" stroke-width="0.288" stroke-miterlimit="10" stroke-linecap="round" stroke-linejoin="round"/>
<path d="M33.5893 6.90939C33.3596 6.66668 33.2939 6.35924 33.2939 6.06797C33.2939 5.76053 33.3596 5.46927 33.573 5.22654C33.8025 4.96766 34.1308 4.85437 34.4917 4.85437C34.8363 4.85437 35.1481 4.95147 35.3778 5.19419C35.6239 5.43691 35.6895 5.74434 35.6895 6.06797C35.6895 6.35924 35.6239 6.66668 35.4105 6.89322C35.1808 7.15211 34.8527 7.26538 34.4917 7.26538C34.1472 7.26538 33.819 7.15211 33.5893 6.90939ZM35.3285 6.06797C35.3285 5.59872 35.1317 5.0162 34.4917 5.0162C33.8518 5.0162 33.655 5.59872 33.655 6.06797C33.655 6.53723 33.8518 7.11975 34.4917 7.11975C35.1317 7.10357 35.3285 6.52104 35.3285 6.06797Z" fill="white" stroke="white" stroke-width="0.288" stroke-miterlimit="10" stroke-linecap="round" stroke-linejoin="round"/>
<path d="M36.2791 9.82198L36.2627 9.53072L36.115 9.51454L36.0986 9.3689H36.7878L36.7714 9.51454L36.6237 9.53072L36.6072 9.82198V11.1974L36.6237 11.4886H37.1816L37.5261 11.4725L37.5424 11.2621L37.7067 11.2459L37.723 11.6666H36.0986L36.115 11.521L36.2627 11.5048L36.2791 11.2136V9.82198Z" fill="white" stroke="white" stroke-width="0.288" stroke-miterlimit="10" stroke-linecap="round" stroke-linejoin="round"/>
<path d="M38.1171 11.246L38.2812 11.2622L38.2976 11.424C38.4289 11.5049 38.5929 11.5858 38.757 11.5858C39.0358 11.5858 39.2492 11.424 39.2492 11.1489C39.2492 10.8577 39.0195 10.7606 38.7734 10.6311C38.478 10.4693 38.1171 10.2913 38.1171 9.93531C38.1171 9.7735 38.1992 9.6117 38.3139 9.49843C38.4453 9.36898 38.6257 9.32043 38.8227 9.32043C39.0358 9.32043 39.2492 9.35279 39.4462 9.41752L39.4298 9.7735L39.2656 9.75732L39.2492 9.59551C39.118 9.53078 38.9704 9.46606 38.8227 9.46606C38.5929 9.46606 38.4453 9.64405 38.4453 9.85442C38.4453 10.1133 38.6586 10.2104 38.8718 10.3237C39.0195 10.4046 39.2001 10.5017 39.3312 10.5826C39.4953 10.6958 39.5773 10.8577 39.5773 11.068C39.5773 11.4887 39.2001 11.7314 38.7897 11.7314C38.56 11.7314 38.3139 11.6829 38.1006 11.6343L38.1171 11.246Z" fill="white" stroke="white" stroke-width="0.288" stroke-miterlimit="10" stroke-linecap="round" stroke-linejoin="round"/>
<path fill-rule="evenodd" clip-rule="evenodd" d="M4.3823 13.6407C4.64482 13.6407 4.92375 13.4304 4.98938 13.2362C4.98938 13.2362 5.16988 13.4142 5.16988 13.8187C5.16988 14.3851 4.75968 14.6602 4.3823 14.6602C4.00491 14.6602 3.59473 14.3851 3.59473 13.8187C3.59473 13.398 3.77521 13.2362 3.77521 13.2362C3.84083 13.4304 4.13618 13.6407 4.3823 13.6407Z" fill="white"/>
<path fill-rule="evenodd" clip-rule="evenodd" d="M3.72592 1.03563C3.84078 0.987088 4.03767 0.922363 4.10331 0.922363C4.16893 0.922363 4.80884 0.987088 4.80884 1.68288C4.80884 2.37868 4.03767 3.15536 4.03767 3.65699C4.03767 4.1586 4.44787 4.36897 4.79243 4.36897C5.12058 4.36897 5.51438 4.1586 5.54719 3.64081C5.9738 3.70553 6.40039 4.20716 6.40039 4.67642C6.40039 5.14567 6.10507 5.71201 5.64565 6.03563C5.08777 5.84146 3.84078 5.80909 3.11882 6.05181C2.57737 5.76055 2.26562 4.95149 2.26562 4.44986C2.26562 3.02593 4.03767 2.42722 4.03767 1.52107C4.03767 1.26217 3.84078 1.10036 3.72592 1.08417C3.6767 1.06799 3.6767 1.06799 3.72592 1.03563Z" fill="white"/>
<path fill-rule="evenodd" clip-rule="evenodd" d="M5.61279 1.76373C5.99016 1.60192 6.20347 1.99027 6.20347 2.26536C6.20347 3.10677 4.89083 3.20387 4.89083 3.96439C4.72676 3.77021 4.66113 3.65694 4.66113 3.34949C4.66113 2.55662 5.76046 2.54044 5.76046 2.00645C5.76046 1.89319 5.69482 1.81227 5.61279 1.76373Z" fill="white"/>
<path fill-rule="evenodd" clip-rule="evenodd" d="M4.48089 13.22C4.5137 13.22 4.49729 13.22 4.5137 13.1715L4.6942 6.84462C4.6942 6.77991 4.67778 6.77991 4.61215 6.77991H4.18555C4.13633 6.77991 4.11992 6.79608 4.10352 6.84462L4.284 13.1715C4.3004 13.2038 4.284 13.22 4.31681 13.22H4.48089Z" fill="white"/>
<path fill-rule="evenodd" clip-rule="evenodd" d="M3.92313 6.84462C3.92313 6.84462 3.92313 6.79608 3.8575 6.81226C3.6606 6.82845 3.21758 6.92553 3.0535 6.99026C3.00429 7.00644 3.02069 7.0388 3.02069 7.07117L3.74264 13.0906C3.74264 13.0906 3.74264 13.1229 3.77546 13.1229C3.82467 13.1391 4.12002 13.2039 4.12002 13.2039C4.12002 13.2039 4.15283 13.22 4.15283 13.1715L3.92313 6.84462Z" fill="white"/>
<path fill-rule="evenodd" clip-rule="evenodd" d="M4.85832 6.84462C4.85832 6.84462 4.85832 6.79608 4.92396 6.81226C5.12085 6.82845 5.56386 6.92553 5.72794 6.99026C5.77716 7.00644 5.76075 7.0388 5.76075 7.07117L5.05522 13.1068C5.05522 13.1068 5.05522 13.1391 5.02239 13.1391C4.97317 13.1553 4.67783 13.22 4.67783 13.22C4.67783 13.22 4.64502 13.2362 4.64502 13.1877L4.85832 6.84462Z" fill="white"/>
<path fill-rule="evenodd" clip-rule="evenodd" d="M4.48089 13.22C4.5137 13.22 4.49729 13.22 4.5137 13.1715L4.6942 6.84462C4.6942 6.77991 4.67778 6.77991 4.61215 6.77991H4.18555C4.13633 6.77991 4.11992 6.79608 4.10352 6.84462L4.284 13.1715C4.3004 13.2038 4.284 13.22 4.31681 13.22H4.48089Z" fill="white"/>
<path fill-rule="evenodd" clip-rule="evenodd" d="M4.38247 6.58575C5.2685 6.58575 5.99045 6.87701 6.12172 6.97409C6.15453 7.00646 6.18734 7.03882 6.13812 7.03882C6.07248 7.055 5.94121 7.13591 5.94121 7.34626C5.94121 7.55661 6.08889 7.75079 6.38423 7.75079C6.67957 7.75079 6.86006 7.54044 6.86006 7.29772C6.86006 6.74755 6.12172 6.01941 4.36606 6.01941C2.61043 6.01941 1.87207 6.73137 1.87207 7.29772C1.87207 7.54044 2.05257 7.75079 2.3479 7.75079C2.64324 7.75079 2.79091 7.55661 2.79091 7.34626C2.79091 7.13591 2.65965 7.055 2.59402 7.03882C2.56121 7.02263 2.57762 6.99028 2.61043 6.97409C2.79091 6.87701 3.49646 6.60193 4.38247 6.58575Z" fill="white"/>
<path fill-rule="evenodd" clip-rule="evenodd" d="M3.92313 6.84462C3.92313 6.84462 3.92313 6.79608 3.8575 6.81226C3.6606 6.82845 3.21758 6.92553 3.0535 6.99026C3.00429 7.00644 3.02069 7.0388 3.02069 7.07117L3.74264 13.0906C3.74264 13.0906 3.74264 13.1229 3.77546 13.1229C3.82467 13.1391 4.12002 13.2039 4.12002 13.2039C4.12002 13.2039 4.15283 13.22 4.15283 13.1715L3.92313 6.84462Z" fill="white"/>
<path fill-rule="evenodd" clip-rule="evenodd" d="M4.85832 6.84462C4.85832 6.84462 4.85832 6.79608 4.92396 6.81226C5.12085 6.82845 5.56386 6.92553 5.72794 6.99026C5.77716 7.00644 5.76075 7.0388 5.76075 7.07117L5.05522 13.1068C5.05522 13.1068 5.05522 13.1391 5.02239 13.1391C4.97317 13.1553 4.67783 13.22 4.67783 13.22C4.67783 13.22 4.64502 13.2362 4.64502 13.1877L4.85832 6.84462Z" fill="white"/>
<path fill-rule="evenodd" clip-rule="evenodd" d="M3.6931 1.06799C3.75875 0.987088 4.02126 0.922363 4.10331 0.922363C4.16893 0.922363 4.80884 0.987088 4.80884 1.68288C4.80884 2.37868 4.03767 3.15536 4.03767 3.65699C4.03767 4.1586 4.44787 4.36897 4.79243 4.36897C5.12058 4.36897 5.51438 4.1586 5.54719 3.64081C5.9738 3.70553 6.40039 4.20716 6.40039 4.67642C6.40039 5.14567 6.10507 5.71201 5.64565 6.03563C5.08777 5.84146 3.84078 5.80909 3.11882 6.05181C2.57737 5.76055 2.26562 4.95149 2.26562 4.44986C2.26562 3.02593 4.03767 2.42722 4.03767 1.52107C4.03767 1.24599 3.80796 1.08417 3.6931 1.06799Z" fill="white"/>
<path fill-rule="evenodd" clip-rule="evenodd" d="M5.61279 1.76373C5.99016 1.60192 6.20347 1.99027 6.20347 2.26536C6.20347 3.10677 4.89083 3.20387 4.89083 3.96439C4.72676 3.77021 4.66113 3.65694 4.66113 3.34949C4.66113 2.55662 5.76046 2.54044 5.76046 2.00645C5.76046 1.89319 5.69482 1.81227 5.61279 1.76373Z" fill="white"/>
<path fill-rule="evenodd" clip-rule="evenodd" d="M4.3823 13.6407C4.64482 13.6407 4.92375 13.4304 4.98938 13.2362C4.98938 13.2362 5.16988 13.4142 5.16988 13.8187C5.16988 14.3851 4.75968 14.6602 4.3823 14.6602C4.00491 14.6602 3.59473 14.3851 3.59473 13.8187C3.59473 13.398 3.77521 13.2362 3.77521 13.2362C3.84083 13.4304 4.13618 13.6407 4.3823 13.6407Z" fill="white"/>
</svg>
