<svg width="44" height="15" viewBox="0 0 44 15" fill="none" xmlns="http://www.w3.org/2000/svg">
<g clip-path="url(#clip0_27_1841)">
<mask id="mask0_27_1841" style="mask-type:luminance" maskUnits="userSpaceOnUse" x="0" y="0" width="45" height="15">
<path d="M0 -1.11759e-07V15H44.0005V-1.11759e-07H0Z" fill="white"/>
</mask>
<g mask="url(#mask0_27_1841)">
<path d="M18.8706 3.17322H20.5978L24.5847 8.41978V3.17322H26.4328V11.6938H24.8405L20.7181 6.27717V11.6938H18.8706V3.17322Z" fill="white"/>
<path d="M30.639 8.33405L27.3687 3.17322H29.5578L31.5886 6.594L33.6552 3.17322H35.782L32.5121 8.298V11.6938H30.639V8.33405Z" fill="white"/>
<path d="M36.5845 8.04213V3.17318H38.4576V7.99374C38.4576 9.38085 39.1487 10.0992 40.2927 10.0992C41.4348 10.0992 42.129 9.40474 42.129 8.0549V3.17318H44.0006V7.98113C44.0006 10.561 42.5534 11.8273 40.2674 11.8273C37.9828 11.8273 36.5845 10.5497 36.5845 8.04213Z" fill="white"/>
<path d="M1.63184 14.005H12.8286V1.04167H1.63184V14.005Z" fill="#ACD6F4"/>
<path d="M6.60316 7.82356C5.06736 6.90622 5.22107 5.59611 5.85758 4.63322C5.87124 4.61306 5.87557 4.57944 5.87124 4.54039C5.8446 4.31139 5.59502 3.732 5.49076 3.57444C5.4641 3.5345 5.44134 3.53778 5.43873 3.56617C5.43028 3.82811 5.1324 4.48461 4.67648 5.24067C4.19194 6.04533 4.19086 7.79167 6.59639 7.85983C6.61942 7.86044 6.62592 7.83678 6.60316 7.82356ZM7.01397 7.75583C6.09584 5.79233 7.93232 4.52411 8.23146 4.24911C8.27375 4.2105 8.26315 4.17489 8.26399 4.13083C8.26399 3.51261 7.91018 2.51239 7.79424 2.36933C7.77798 2.34722 7.7641 2.35678 7.75733 2.37911C7.6006 2.9885 6.76489 3.89672 6.59639 4.0955C5.17858 5.783 5.50312 6.81056 6.98339 7.77972C7.00226 7.79167 7.02501 7.778 7.01397 7.75583ZM7.31317 7.67233C7.74695 5.58961 9.44035 5.53883 9.59187 5.14367C9.82818 4.52733 9.39568 3.43361 9.28512 3.30428C9.27446 3.29039 9.25909 3.29928 9.25365 3.31078C9.02411 3.81533 8.65187 4.29578 8.3802 4.5165C7.99581 4.82639 6.52485 5.91778 7.27715 7.67383C7.28581 7.69556 7.30795 7.69011 7.31317 7.67233ZM7.61425 7.85306C10.3561 7.9525 10.5501 5.45139 10.5609 4.51539C10.5622 4.46117 10.5349 4.45639 10.5219 4.49433C10.4406 4.68967 10.0842 5.38717 9.09565 5.81122C8.21281 6.19033 7.68191 7.05056 7.58933 7.82356C7.58523 7.84267 7.60149 7.85306 7.61425 7.85306ZM8.23801 8.79056V8.16083H6.07547V8.79056H8.23801ZM6.97362 13.2465C6.99122 13.3518 7.2186 13.4034 7.26955 13.2465L7.79335 9.09139H6.52097L6.97362 13.2465ZM14.984 15H0V-1.11759e-07H14.984V15Z" fill="white"/>
</g>
</g>
<defs>
<clipPath id="clip0_27_1841">
<rect width="44" height="15" fill="white"/>
</clipPath>
</defs>
</svg>
