<svg width="107" height="15" viewBox="0 0 107 15" fill="none" xmlns="http://www.w3.org/2000/svg">
<path fill-rule="evenodd" clip-rule="evenodd" d="M22.5619 3.00048H23.7686V6.88721H28.5411V3.00048H29.7472V12.0384H28.5411V7.8985H23.7686V12.0384H22.5619V3.00048ZM37.3642 12.0129C37.1737 12.127 36.9326 12.1907 36.5898 12.1907C36.0309 12.1907 35.676 11.886 35.676 11.1782C35.0799 11.8739 34.2793 12.1907 33.3661 12.1907C32.1728 12.1907 31.195 11.6584 31.195 10.3551C31.195 8.8752 32.2994 8.55833 33.4166 8.34345C34.6099 8.11582 35.6254 8.19109 35.6254 7.38133C35.6254 6.4447 34.8516 6.29173 34.1655 6.29173C33.2522 6.29173 32.5789 6.57157 32.5283 7.53369H31.4489C31.5122 5.91295 32.7694 5.34417 34.2288 5.34417C35.4093 5.34417 36.6921 5.61005 36.6921 7.14095V10.5081C36.6921 11.0137 36.6921 11.2413 37.0349 11.2413C37.1238 11.2413 37.2254 11.2292 37.3648 11.1782L37.3642 12.0129ZM35.612 8.6591C35.1932 8.96321 34.381 8.97475 33.6577 9.10161C32.9472 9.22848 32.3366 9.48161 32.3366 10.2786C32.3366 10.9876 32.9466 11.2401 33.6072 11.2401C35.0288 11.2401 35.612 10.3539 35.612 9.75962V8.6591ZM38.6336 5.49472H39.6486V6.87386H39.6747C40.1947 5.82372 40.9186 5.30472 42.0857 5.34296V6.48233C40.3469 6.48233 39.7125 7.46874 39.7125 9.1265V12.0384H38.6336V5.49472ZM43.1018 5.49472H44.1806V6.38096H44.2068C44.5618 5.65922 45.3995 5.34296 46.3006 5.34296C48.3194 5.34296 49.3228 6.93759 49.3228 8.78414C49.3228 10.6337 48.3328 12.1901 46.3268 12.1901C45.654 12.1901 44.6884 11.937 44.2074 11.1649H44.1813V14.5447H43.1024L43.1018 5.49472ZM46.1496 6.29112C44.7018 6.29112 44.1435 7.53308 44.1435 8.76047C44.1435 10.0516 44.7268 11.2407 46.2129 11.2407C47.685 11.2407 48.1806 9.98786 48.1806 8.71009C48.1806 7.48209 47.5462 6.29112 46.1496 6.29112ZM56.152 9.96236C55.8604 11.4052 54.8193 12.1907 53.3471 12.1907C51.2522 12.1907 50.2622 10.7478 50.1983 8.74772C50.1983 6.78645 51.4933 5.34357 53.2838 5.34357C55.6065 5.34357 56.3176 7.50759 56.2543 9.09008H51.341C51.3033 10.2282 51.9505 11.2413 53.3849 11.2413C54.2725 11.2413 54.896 10.811 55.0859 9.96297L56.152 9.96236ZM55.1115 8.13949C55.0616 7.11485 54.2865 6.29112 53.2199 6.29112C52.0899 6.29112 51.4165 7.14034 51.341 8.13949H55.1115ZM57.4092 5.49472H58.4247V6.87386H58.4509C58.9709 5.82372 59.6947 5.30472 60.8625 5.34296V6.48233C59.1243 6.48233 58.4893 7.46874 58.4893 9.1265V12.0384H57.4098L57.4092 5.49472ZM72.0089 5.72235C71.7556 4.44397 70.7273 3.7981 69.47 3.7981C67.3118 3.7981 66.3973 5.56999 66.3973 7.45538C66.3973 9.51863 67.3118 11.2401 69.4816 11.2401C71.0688 11.2401 71.9833 10.1269 72.0977 8.633H73.3044C73.0749 10.8862 71.6649 12.2532 69.3806 12.2532C66.5611 12.2532 65.1912 10.1766 65.1912 7.54401C65.1912 4.92412 66.6883 2.78499 69.4816 2.78499C71.3732 2.78499 72.9349 3.7975 73.2143 5.72174L72.0089 5.72235ZM77.3781 5.34296C79.4615 5.34296 80.5659 6.84837 80.5659 8.77261C80.5659 10.6841 79.4615 12.1901 77.3781 12.1901C75.2959 12.1901 74.1927 10.6847 74.1927 8.77261C74.1921 6.84837 75.2959 5.34296 77.3781 5.34296ZM77.3781 11.2407C78.5075 11.2407 79.4219 10.3545 79.4219 8.77322C79.4219 7.17858 78.5075 6.29112 77.3781 6.29112C76.2487 6.29112 75.3343 7.17858 75.3343 8.77322C75.3336 10.3545 76.2481 11.2407 77.3781 11.2407ZM81.6953 3.00048H82.7741V12.0384H81.6953V3.00048ZM84.6395 3.00048H85.7208V12.0384H84.6395V3.00048ZM92.841 9.96236C92.5494 11.4052 91.5083 12.1907 90.0362 12.1907C87.9412 12.1907 86.9506 10.7478 86.8861 8.74772C86.8861 6.78645 88.1811 5.34357 89.9729 5.34357C92.2949 5.34357 93.0048 7.50759 92.9421 9.09008H88.0289C87.9917 10.2282 88.6389 11.2413 90.0739 11.2413C90.9622 11.2413 91.585 10.811 91.7744 9.96297L92.841 9.96236ZM91.8006 8.13949C91.7494 7.11485 90.9744 6.29112 89.9077 6.29112C88.7783 6.29112 88.1062 7.14034 88.0289 8.13949H91.8006ZM99.9125 11.4817C99.9125 13.6075 98.9354 14.6959 96.8648 14.6959C95.6331 14.6959 94.2121 14.203 94.1464 12.7735H95.2282C95.277 13.5577 96.2176 13.8363 96.9275 13.8363C98.3363 13.8363 98.8952 12.8226 98.8952 11.3549V10.9245H98.8708C98.5165 11.7215 97.6532 12.1155 96.8258 12.1155C94.8721 12.1155 93.8961 10.5827 93.8961 8.7981C93.8961 7.25385 94.6572 5.34357 96.9281 5.34357C97.7555 5.34357 98.4903 5.71081 98.8842 6.43195H98.8708H98.8958V5.49532H99.9125V11.4817ZM98.8447 8.6336C98.8447 7.48209 98.3369 6.29112 96.9792 6.29112C95.5954 6.29112 95.0377 7.41957 95.0377 8.67184C95.0377 9.84885 95.4693 11.1649 96.8891 11.1649C98.3119 11.1649 98.8447 9.8616 98.8447 8.6336ZM106.894 9.96236C106.602 11.4052 105.561 12.1907 104.088 12.1907C101.995 12.1907 101.005 10.7478 100.94 8.74772C100.94 6.78645 102.235 5.34357 104.025 5.34357C106.349 5.34357 107.059 7.50759 106.996 9.09008H102.083C102.045 10.2282 102.692 11.2413 104.127 11.2413C105.015 11.2413 105.636 10.811 105.827 9.96297L106.894 9.96236ZM105.852 8.13949C105.802 7.11485 105.028 6.29112 103.962 6.29112C102.831 6.29112 102.16 7.14034 102.083 8.13949H105.852ZM12.0377 0H9.01975V2.99684H6.02494V0H0V6.00643H3.01734V3.00898H6.01215V6.00643H9.03132V3.00898H12.0267V6.00643H15.0447V0H12.0377ZM12.0377 15H9.01975V12.0013H6.02494V15H0V8.99296H3.01734V11.9904H6.01215V8.99296H9.03132V11.9904H12.0267V8.99296H15.0447V15H12.0377Z" fill="white"/>
</svg>
