<svg width="31" height="15" viewBox="0 0 31 15" fill="none" xmlns="http://www.w3.org/2000/svg">
<g clip-path="url(#clip0_27_1855)">
<path d="M22.548 0.331874C21.4385 0.365394 20.6179 1.10421 20.1155 1.84006C19.3266 3.03699 17.6428 7.2984 16.7902 11.6043C16.3096 12.0355 15.6403 12.3264 15.2155 12.5448C12.9607 13.7046 12.4435 11.188 13.9472 8.82282C14.5144 7.93052 15.6941 7.97518 15.6164 8.86799C15.1558 8.25278 14.2885 8.53778 14.1837 9.44432C14.1306 10.5582 16.5763 10.7908 16.6439 8.65794C16.7435 5.48729 10.6819 6.47434 10.5821 11.5575C10.5821 11.5575 10.1814 12.619 9.21415 12.8034C8.51655 12.9369 8.51301 11.6825 8.94566 9.90385C9.30517 8.27522 9.29717 8.54336 9.64784 7.08159C9.90861 5.9973 11.1207 1.71756 11.1812 1.36C11.2404 1.00309 11.0247 0.657577 10.5809 0.555732C10.2215 0.473152 9.76192 0.438117 9.26319 0.677599C8.72107 0.938178 8.54647 1.49486 8.48162 1.82384C7.80458 4.50219 7.52447 5.20925 7.04384 7.27485C6.79287 8.3319 5.87093 12.8699 4.37561 12.705C3.59466 12.6195 3.53539 11.805 3.89685 10.2154C4.4794 7.98289 5.09233 6.19606 5.51294 4.37746C6.1472 2.00048 4.73347 -0.314937 1.80199 0.910081C0.0481351 1.6428 -0.103393 4.40373 0.994243 4.39041C1.61547 4.38307 1.50888 3.62392 1.55452 3.13815C1.67886 2.44265 2.06734 2.13218 2.54049 2.16111C3.24416 2.34187 3.29014 2.82497 3.07313 4.15182C2.61165 5.69837 1.97217 7.74845 1.37185 10.3986C0.371105 14.8667 3.29211 15.0374 4.62586 14.4751C5.39845 14.1493 5.73308 13.8406 6.25646 12.8184C6.85023 15.5316 9.38721 14.9428 10.8988 13.0063C11.1591 13.9027 12.0094 14.4953 12.7317 14.5948C14.6085 14.9536 16.2907 13.5568 16.8443 13.0392C17.2499 15.763 20.8984 14.6223 22.0068 13.0529C23.1631 15.6606 25.3417 14.6226 25.9484 13.0321C25.9335 14.6675 27.1913 15.0636 28.4864 14.3755C29.2427 14.0015 29.3928 13.8777 30.3484 12.9813C31.0092 12.3229 30.6955 10.9905 29.0939 12.3655C28.5723 12.8137 27.4641 13.2731 28.1305 11.5949C28.2716 11.1797 29.4474 8.33384 29.5196 8.07731C30.2479 6.12434 27.566 6.53944 27.2013 7.99559C25.4614 4.82908 21.5888 8.45675 21.6328 11.6049C21.6328 11.6049 20.2987 13.0391 19.4185 12.7813C18.5384 12.5239 19.3982 9.99418 19.3982 9.99418C21.5659 7.75951 22.954 5.25964 23.5152 4.05428C24.4339 2.10865 24.6534 0.377397 22.7746 0.335985C22.6982 0.331618 22.6222 0.330737 22.5484 0.332975L22.548 0.331874ZM23.0704 1.94328C23.2964 1.97953 23.3511 2.36911 23.0821 3.04652C22.2089 5.24186 21.0661 6.39883 20.2596 7.5668C20.2735 7.47917 20.9857 4.70997 22.305 2.53162C22.6153 2.1003 22.8947 1.91491 23.0704 1.9431V1.94328ZM26.0203 8.16317C26.4626 8.17947 26.6841 8.75742 26.5238 9.4621C26.4721 9.68919 25.5298 11.9352 25.5298 11.9352C25.1275 12.6674 24.7157 12.8487 24.3292 12.7725C23.7676 12.6009 23.8605 11.7977 24.0338 11.0104C24.4185 9.22397 25.3308 8.44752 25.5101 8.35028C25.7007 8.21494 25.8728 8.15775 26.0203 8.16317Z" fill="white"/>
</g>
<defs>
<clipPath id="clip0_27_1855">
<rect width="31" height="15" fill="white"/>
</clipPath>
</defs>
</svg>
