<svg xmlns="http://www.w3.org/2000/svg" version="1.1" xmlns:xlink="http://www.w3.org/1999/xlink" width="1000" height="1000"><g clip-path="url(#SvgjsClipPath1421)"><rect width="1000" height="1000" fill="#f4fbf1"></rect><g transform="matrix(33.333333333333336,0,0,33.333333333333336,233.33333333333331,100)"><svg xmlns="http://www.w3.org/2000/svg" version="1.1" xmlns:xlink="http://www.w3.org/1999/xlink" width="16" height="24"><svg width="16" height="24" viewBox="0 0 16 24" fill="none" xmlns="http://www.w3.org/2000/svg">
<mask id="mask0_1_20" style="mask-type:luminance" maskUnits="userSpaceOnUse" x="0" y="0" width="16" height="24">
<path d="M16 0H0V24H16V0Z" fill="white"></path>
</mask>
<g mask="url(#mask0_1_20)">
<path d="M9.82533 24C7.81243 24 6.17482 22.3469 6.17482 20.3149C6.17482 18.4474 7.55873 16.8742 9.39378 16.6553C9.81038 16.6057 10.1587 16.3124 10.2819 15.9077C10.4052 15.5028 10.2802 15.0628 9.96297 14.7856C9.53465 14.4111 9.19403 13.9361 8.97748 13.4117C8.81302 13.0133 8.4274 12.7539 7.99985 12.7539C7.5723 12.7539 7.18667 13.0134 7.02221 13.4119C6.45225 14.7927 5.1286 15.685 3.65021 15.685C1.63761 15.685 0 14.0319 0 11.9999C0 10.1324 1.38391 8.55908 3.21896 8.34032C3.63557 8.29069 3.98389 7.99741 4.10704 7.59272C4.23034 7.18788 4.10519 6.74788 3.78815 6.47062C2.98499 5.76829 2.5243 4.75307 2.5243 3.68511C2.5243 1.65313 4.16191 0 6.17482 0C8.18773 0 9.82533 1.65313 9.82533 3.68511C9.82533 5.55249 8.44142 7.1258 6.60638 7.34456C6.18977 7.39419 5.84144 7.68747 5.71829 8.09216C5.59499 8.497 5.71999 8.93701 6.03718 9.21426C6.4655 9.58877 6.80613 10.0638 7.02237 10.588C7.18682 10.9864 7.57245 11.2459 8 11.2459C8.42755 11.2459 8.81318 10.9864 8.97763 10.5881C9.54775 9.20711 10.8712 8.31481 12.3496 8.31481C14.3624 8.31481 16 9.96794 16 11.9999C16 13.8675 14.6161 15.4406 12.7812 15.6595C12.3646 15.7092 12.0163 16.0024 11.8931 16.4071C11.7698 16.812 11.8948 17.252 12.212 17.5292C13.0152 18.2317 13.4759 19.2471 13.4759 20.3149C13.4759 22.3469 11.8382 24 9.82533 24Z" fill="#245039"></path>
</g>
</svg></svg></g></g><defs><clipPath id="SvgjsClipPath1421"><rect width="1000" height="1000" x="0" y="0" rx="200" ry="200"></rect></clipPath></defs></svg>