<svg width="36" height="36" viewBox="0 0 36 36" fill="none" xmlns="http://www.w3.org/2000/svg">
<rect width="36" height="36" rx="4" fill="#1B1D1E"/>
<path d="M19.5972 28C17.8359 28 16.403 26.6224 16.403 24.9291C16.403 23.3728 17.6139 22.0618 19.2196 21.8794C19.5841 21.838 19.8889 21.5936 19.9966 21.2564C20.1045 20.919 19.9951 20.5524 19.7176 20.3213C19.3428 20.0092 19.0448 19.6134 18.8553 19.1764C18.7114 18.8444 18.374 18.6283 17.9999 18.6283C17.6258 18.6283 17.2883 18.8445 17.1444 19.1766C16.6457 20.3273 15.4875 21.0709 14.1939 21.0709C12.4329 21.0709 11 19.6933 11 17.9999C11 16.4437 12.2109 15.1326 13.8166 14.9503C14.1811 14.9089 14.4859 14.6645 14.5937 14.3273C14.7016 13.9899 14.592 13.6232 14.3146 13.3922C13.6119 12.8069 13.2088 11.9609 13.2088 11.0709C13.2088 9.37761 14.6417 8 16.403 8C18.1643 8 19.5972 9.37761 19.5972 11.0709C19.5972 12.6271 18.3862 13.9382 16.7806 14.1205C16.416 14.1618 16.1113 14.4062 16.0035 14.7435C15.8956 15.0808 16.005 15.4475 16.2825 15.6786C16.6573 15.9906 16.9554 16.3865 17.1446 16.8233C17.2885 17.1553 17.6259 17.3716 18 17.3716C18.3741 17.3716 18.7115 17.1553 18.8554 16.8234C19.3543 15.6726 20.5123 14.929 21.8059 14.929C23.5671 14.929 25 16.3066 25 17.9999C25 19.5562 23.7891 20.8672 22.1835 21.0496C21.819 21.091 21.5142 21.3354 21.4065 21.6726C21.2986 22.01 21.408 22.3766 21.6855 22.6077C22.3883 23.1931 22.7914 24.0392 22.7914 24.9291C22.7914 26.6224 21.3585 28 19.5972 28Z" fill="white"/>
</svg>
